#VRML V2.0 utf8
# 3D model generated by easyeda2kicad.py (https://github.com/uPesy/easyeda2kicad.py)

Shape{
    appearance Appearance {
        material  Material 	{
            diffuseColor 0.9686274509803922 0.9686274509803922 0.9686274509803922
            specularColor 0.48627450980392156 0.48627450980392156 0.48627450980392156
            ambientIntensity 0.9686
            transparency 0.0
            shininess 0.5
        }
    }
    geometry IndexedFaceSet {
        ccw TRUE
        solid FALSE
        coord DEF co Coordinate {
            point [
                2.2047 0.1181 0.4921, 2.2047 -0.3937 0.4921, 2.2047 0.1181 0.2362, 2.2047 -0.3937 0.2362, 2.2047 -0.6693 0.2362, 2.2047 -0.6693 0.1181, 2.2047 -0.4331 0.1181, 2.2047 0.1575 0.1181, 2.2047 0.3937 0.2362, 2.2047 0.3937 0.1181, -2.5197 0.3937 0.0, -2.2047 0.3937 0.0, -2.5197 0.2165 0.0, -2.2047 0.2165 0.0, -2.2638 0.3937 0.0591, -2.5197 0.3937 0.0591, -2.2638 0.2165 0.0591, -2.5197 0.2165 0.0591, -2.1457 0.3937 0.0591, -2.1457 0.2165 0.0591, -2.1477 0.2165 0.0438, -2.1477 0.3937 0.0438, -2.1536 0.2165 0.0295, -2.1536 0.3937 0.0295, -2.163 0.2165 0.0173, -2.163 0.3937 0.0173, -2.1752 0.2165 0.0079, -2.1752 0.3937 0.0079, -2.1894 0.2165 0.002, -2.1894 0.3937 0.002
            ]
        }
        coordIndex [
            0,1,2,-1,2,1,3,-1,4,5,3,-1,3,5,6,-1,3,6,2,-1,2,6,7,-1,2,7,8,-1,8,7,9,-1,10,11,12,-1,12,11,13,-1,14,15,16,-1,16,15,17,-1,18,19,20,-1,18,20,21,-1,21,20,22,-1,21,22,23,-1,23,22,24,-1,23,24,25,-1,25,24,26,-1,25,26,27,-1,27,26,28,-1,27,28,29,-1,29,28,13,-1,29,13,11,-1,
        ]
    }
}
Shape{
    appearance Appearance {
        material  Material 	{
            diffuseColor 0.4117647058823529 0.4117647058823529 0.4117647058823529
            specularColor 0.20392156862745098 0.20392156862745098 0.20392156862745098
            ambientIntensity 0.4118
            transparency 0.0
            shininess 0.5
        }
    }
    geometry IndexedFaceSet {
        ccw TRUE
        solid FALSE
        coord DEF co Coordinate {
            point [
                -2.2049 0.1801 0.1136, -2.2048 0.1728 0.1161, -2.2047 0.3937 0.1181, -2.2047 0.1652 0.1176, -2.2047 0.1575 0.1181, -2.2126 0.3937 0.0886, -2.2126 0.2086 0.0886, -2.2067 0.3937 0.1028, -2.2095 0.2045 0.0948, -2.2075 0.1991 0.1007, -2.2067 0.1971 0.1028, -2.2053 0.187 0.1102, -2.222 0.3937 0.0764, -2.2343 0.3937 0.067, -2.2343 0.216 0.067, -2.2241 0.2145 0.0743, -2.222 0.2139 0.0764, -2.2169 0.2118 0.0823, -2.2485 0.3937 0.0611, -2.2638 0.3937 0.0591, -2.2638 0.2165 0.0591, -2.2561 0.2165 0.0596, -2.2485 0.2165 0.0611, -2.2411 0.2164 0.0636
            ]
        }
        coordIndex [
            0,1,2,-1,2,1,3,-1,2,3,4,-1,5,6,7,-1,7,6,8,-1,8,9,7,-1,7,9,10,-1,7,10,2,-1,2,10,11,-1,2,11,0,-1,12,13,14,-1,14,15,12,-1,12,15,16,-1,12,16,5,-1,5,16,17,-1,5,17,6,-1,18,19,20,-1,20,21,18,-1,18,21,22,-1,18,22,13,-1,13,22,23,-1,13,23,14,-1,
        ]
    }
}
Shape{
    appearance Appearance {
        material  Material 	{
            diffuseColor 0.9686274509803922 0.9686274509803922 0.9686274509803922
            specularColor 0.48627450980392156 0.48627450980392156 0.48627450980392156
            ambientIntensity 0.9686
            transparency 0.0
            shininess 0.5
        }
    }
    geometry IndexedFaceSet {
        ccw TRUE
        solid FALSE
        coord DEF co Coordinate {
            point [
                2.2638 -0.4921 0.0591, 2.2638 -0.6693 0.0591, 2.5197 -0.4921 0.0591, 2.5197 -0.6693 0.0591, 2.5197 -0.6693 0.0, 2.2047 -0.6693 0.0, 2.5197 -0.4921 0.0, 2.2047 -0.4921 0.0, 2.1894 -0.6693 0.002, 2.1894 -0.4921 0.002, 2.1752 -0.6693 0.0079, 2.1752 -0.4921 0.0079, 2.163 -0.6693 0.0173, 2.163 -0.4921 0.0173, 2.1536 -0.6693 0.0295, 2.1536 -0.4921 0.0295, 2.1477 -0.6693 0.0438, 2.1477 -0.4921 0.0438, 2.1457 -0.6693 0.0591, 2.1457 -0.4921 0.0591
            ]
        }
        coordIndex [
            0,1,2,-1,2,1,3,-1,4,5,6,-1,6,5,7,-1,7,5,8,-1,7,8,9,-1,9,8,10,-1,9,10,11,-1,11,10,12,-1,11,12,13,-1,13,12,14,-1,13,14,15,-1,15,14,16,-1,15,16,17,-1,17,16,18,-1,17,18,19,-1,
        ]
    }
}
Shape{
    appearance Appearance {
        material  Material 	{
            diffuseColor 0.4117647058823529 0.4117647058823529 0.4117647058823529
            specularColor 0.20392156862745098 0.20392156862745098 0.20392156862745098
            ambientIntensity 0.4118
            transparency 0.0
            shininess 0.5
        }
    }
    geometry IndexedFaceSet {
        ccw TRUE
        solid FALSE
        coord DEF co Coordinate {
            point [
                2.2049 -0.4557 0.1136, 2.2048 -0.4484 0.1161, 2.2047 -0.6693 0.1181, 2.2047 -0.4408 0.1176, 2.2047 -0.4331 0.1181, 2.2062 -0.6693 0.105, 2.2106 -0.6693 0.0925, 2.2106 -0.4818 0.0925, 2.2073 -0.4748 0.1008, 2.2062 -0.4702 0.105, 2.2053 -0.4626 0.1102, 2.227 -0.4907 0.0719, 2.2241 -0.4901 0.0743, 2.2176 -0.6693 0.0813, 2.2176 -0.4878 0.0813, 2.2126 -0.4842 0.0886, 2.227 -0.6693 0.0719, 2.2382 -0.6693 0.0649, 2.2382 -0.4918 0.0649, 2.2506 -0.6693 0.0605, 2.2506 -0.4921 0.0605, 2.2638 -0.6693 0.0591, 2.2638 -0.4921 0.0591
            ]
        }
        coordIndex [
            0,1,2,-1,2,1,3,-1,2,3,4,-1,5,6,7,-1,7,8,5,-1,5,8,9,-1,5,9,2,-1,2,9,10,-1,2,10,0,-1,11,12,13,-1,13,12,14,-1,13,14,6,-1,6,14,15,-1,6,15,7,-1,13,16,11,-1,11,16,17,-1,11,17,18,-1,18,17,19,-1,18,19,20,-1,20,19,21,-1,20,21,22,-1,
        ]
    }
}
Shape{
    appearance Appearance {
        material  Material 	{
            diffuseColor 0.9686274509803922 0.9686274509803922 0.9686274509803922
            specularColor 0.48627450980392156 0.48627450980392156 0.48627450980392156
            ambientIntensity 0.9686
            transparency 0.0
            shininess 0.5
        }
    }
    geometry IndexedFaceSet {
        ccw TRUE
        solid FALSE
        coord DEF co Coordinate {
            point [
                2.2047 -0.6693 0.2362, 2.1457 -0.6693 0.2362, 2.2047 -0.6693 0.1181, 2.1457 -0.6693 0.0591, 2.1536 -0.6693 0.0295, 2.163 -0.6693 0.0173, 2.2176 -0.6693 0.0813, 2.227 -0.6693 0.0719, 2.1477 -0.6693 0.0438, 2.2106 -0.6693 0.0925, 2.2062 -0.6693 0.105, 2.5197 -0.6693 0.0, 2.5197 -0.6693 0.0591, 2.2047 -0.6693 0.0, 2.2638 -0.6693 0.0591, 2.2506 -0.6693 0.0605, 2.2382 -0.6693 0.0649, 2.1894 -0.6693 0.002, 2.1752 -0.6693 0.0079, -2.2047 0.3937 0.0, -2.5197 0.3937 0.0, -2.5197 0.3937 0.0591, -2.1457 0.3937 0.0591, -2.1477 0.3937 0.0438, -2.2126 0.3937 0.0886, -2.1536 0.3937 0.0295, -2.222 0.3937 0.0764, -2.2047 0.3937 0.2362, -2.1457 0.3937 0.2362, -2.2047 0.3937 0.1181, -2.2067 0.3937 0.1028, -2.2638 0.3937 0.0591, -2.2485 0.3937 0.0611, -2.1894 0.3937 0.002, -2.2343 0.3937 0.067, -2.1752 0.3937 0.0079, -2.163 0.3937 0.0173, 1.9291 0.3937 0.5512, 1.9291 0.3937 0.4921, -1.9291 0.3937 0.5512, -1.9291 0.3937 0.4921, 1.9291 -0.6693 0.5512, -1.9291 -0.6693 0.5512, 1.9291 -0.6693 0.4921, -1.9291 -0.6693 0.4921, 2.1457 -0.3937 0.4331, 2.1457 0.1181 0.4331, 2.1457 -0.3937 0.2362, 2.1457 0.1181 0.2362, 2.1457 -0.4626 0.1102, 2.1457 -0.4484 0.1161, 2.1457 -0.4331 0.1181, 2.1457 -0.4748 0.1008, 2.1457 -0.4842 0.0886, 2.1457 -0.4901 0.0743, 2.1457 -0.4921 0.0591, 2.1457 0.2086 0.0886, 2.1457 0.1992 0.1008, 2.1457 0.3937 0.2362, 2.1457 0.187 0.1102, 2.1457 0.1728 0.1161, 2.1457 0.1575 0.1181, 2.1457 0.2145 0.0743, 2.1457 0.3937 0.0591, 2.1457 0.2165 0.0591, 1.9291 -0.3937 0.4921, -1.9291 0.1181 0.4921, 1.9291 0.1181 0.4921, 2.0866 0.1181 0.4921, 2.0866 -0.3937 0.4921, -1.9291 -0.3937 0.4921, -2.0866 -0.3937 0.4921, -2.0866 0.1181 0.4921, -2.1457 0.1181 0.4331, -2.1457 -0.3937 0.4331, -2.1457 0.1181 0.2362, -2.1457 -0.3937 0.2362, -2.1457 0.187 0.1102, -2.1457 0.1728 0.1161, -2.1457 0.1575 0.1181, -2.1457 0.1992 0.1008, -2.1457 0.2086 0.0886, -2.1457 0.2145 0.0743, -2.1457 0.2165 0.0591, -2.1457 -0.4842 0.0886, -2.1457 -0.6693 0.2362, -2.1457 -0.4901 0.0743, -2.1457 -0.6693 0.0591, -2.1457 -0.4921 0.0591, -2.1457 -0.4748 0.1008, -2.1457 -0.4626 0.1102, -2.1457 -0.4484 0.1161, -2.1457 -0.4331 0.1181, -2.2047 -0.6693 0.0, -2.5197 -0.6693 0.0, -2.2047 -0.4921 0.0, -2.5197 -0.4921 0.0, -2.5197 -0.6693 0.0591, -2.2638 -0.6693 0.0591, -2.5197 -0.4921 0.0591, -2.2638 -0.4921 0.0591, -2.2047 -0.3937 0.4921, -2.2047 0.1181 0.4921, -2.2047 -0.3937 0.2362, -2.2047 0.1181 0.2362, -2.2047 0.1575 0.1181, -2.2047 -0.4331 0.1181, -2.2047 -0.6693 0.2362, -2.2047 -0.6693 0.1181, -1.9291 -0.3937 0.5512, 1.9291 0.1181 0.5512, -1.9291 0.1181 0.5512, -2.1457 0.1181 0.5512, -2.1457 -0.3937 0.5512, 1.9291 -0.3937 0.5512, 2.1457 -0.3937 0.5512, 2.1457 0.1181 0.5512, 2.5197 0.2165 0.0591, 2.5197 0.3937 0.0591, 2.2638 0.2165 0.0591, 2.2638 0.3937 0.0591, 2.2047 0.3937 0.0, 2.5197 0.3937 0.0, 2.2047 0.2165 0.0, 2.5197 0.2165 0.0, 2.2047 0.3937 0.2362, 2.2047 0.3937 0.1181, 2.2062 0.3937 0.105, 2.2106 0.3937 0.0925, 2.1477 0.3937 0.0438, 2.2176 0.3937 0.0813, 2.1536 0.3937 0.0295, 2.163 0.3937 0.0173, 2.227 0.3937 0.0719, 2.1752 0.3937 0.0079, 2.1894 0.3937 0.002, 2.2382 0.3937 0.0649, 2.2506 0.3937 0.0605, -2.2485 -0.6693 0.0611, -2.2343 -0.6693 0.067, -2.1894 -0.6693 0.002, -2.1752 -0.6693 0.0079, -2.222 -0.6693 0.0764, -2.2067 -0.6693 0.1028, -2.1477 -0.6693 0.0438, -2.2126 -0.6693 0.0886, -2.1536 -0.6693 0.0295, -2.163 -0.6693 0.0173, -2.2027 -0.3937 0.5074, -2.2027 0.1181 0.5074, -2.1968 -0.3937 0.5217, -2.1968 0.1181 0.5217, -2.1874 -0.3937 0.5339, -2.1874 0.1181 0.5339, -2.1752 -0.3937 0.5433, -2.1752 0.1181 0.5433, -2.161 -0.3937 0.5492, -2.161 0.1181 0.5492, 2.2047 -0.3937 0.4921, 2.2047 0.1181 0.4921, 2.2032 0.1181 0.5053, 2.2032 -0.3937 0.5053, 2.1989 0.1181 0.5177, 2.1989 -0.3937 0.5177, 2.1918 0.1181 0.5289, 2.1918 -0.3937 0.5289, 2.1825 0.1181 0.5383, 2.1825 -0.3937 0.5383, 2.1713 0.1181 0.5453, 2.1713 -0.3937 0.5453, 2.1588 0.1181 0.5497, 2.1588 -0.3937 0.5497, -2.1437 -0.3937 0.4484, -2.1437 0.1181 0.4484, -2.1378 -0.3937 0.4626, -2.1378 0.1181 0.4626, -2.1284 -0.3937 0.4748, -2.1284 0.1181 0.4748, -2.1161 -0.3937 0.4842, -2.1161 0.1181 0.4842, -2.1019 -0.3937 0.4901, -2.1019 0.1181 0.4901, 2.1019 -0.3937 0.4901, 2.1019 0.1181 0.4901, 2.1161 -0.3937 0.4842, 2.1161 0.1181 0.4842, 2.1284 -0.3937 0.4748, 2.1284 0.1181 0.4748, 2.1378 -0.3937 0.4626, 2.1378 0.1181 0.4626, 2.1437 -0.3937 0.4484, 2.1437 0.1181 0.4484, 2.1894 0.2165 0.002, 2.1752 0.2165 0.0079, 2.163 0.2165 0.0173, 2.1536 0.2165 0.0295, 2.1477 0.2165 0.0438, -2.1477 -0.4921 0.0438, -2.1536 -0.4921 0.0295, -2.163 -0.4921 0.0173, -2.1752 -0.4921 0.0079, -2.1894 -0.4921 0.002, 2.2047 -0.3937 0.2362, 2.2047 0.1181 0.2362
            ]
        }
        coordIndex [
            0,1,2,-1,2,1,3,-1,4,5,6,-1,6,5,7,-1,4,6,8,-1,8,6,9,-1,8,9,3,-1,3,9,10,-1,3,10,2,-1,11,12,13,-1,13,12,14,-1,14,15,13,-1,13,15,16,-1,13,16,17,-1,17,16,7,-1,17,7,18,-1,18,7,5,-1,19,20,21,-1,22,23,24,-1,24,23,25,-1,24,25,26,-1,27,28,29,-1,29,28,22,-1,29,22,30,-1,30,22,24,-1,21,31,19,-1,19,31,32,-1,19,32,33,-1,33,32,34,-1,33,34,35,-1,35,34,26,-1,35,26,36,-1,36,26,25,-1,37,38,39,-1,39,38,40,-1,41,42,43,-1,43,42,44,-1,45,46,47,-1,47,46,48,-1,49,1,50,-1,50,1,47,-1,50,47,51,-1,49,52,1,-1,1,52,53,-1,1,53,3,-1,3,53,54,-1,3,54,55,-1,56,57,58,-1,58,57,59,-1,58,59,48,-1,48,59,60,-1,48,60,47,-1,47,60,61,-1,47,61,51,-1,56,58,62,-1,62,58,63,-1,62,63,64,-1,65,43,44,-1,66,40,38,-1,67,68,69,-1,70,71,72,-1,72,66,70,-1,70,66,38,-1,70,38,44,-1,44,38,67,-1,44,67,65,-1,65,67,69,-1,73,74,75,-1,75,74,76,-1,77,28,78,-1,78,28,75,-1,78,75,79,-1,77,80,28,-1,28,80,81,-1,28,81,22,-1,22,81,82,-1,22,82,83,-1,84,85,86,-1,86,85,87,-1,86,87,88,-1,84,89,85,-1,85,89,90,-1,85,90,76,-1,76,90,91,-1,76,91,75,-1,75,91,92,-1,75,92,79,-1,93,94,95,-1,95,94,96,-1,97,98,99,-1,99,98,100,-1,101,102,103,-1,103,102,104,-1,27,29,104,-1,104,29,105,-1,104,105,103,-1,103,105,106,-1,103,106,107,-1,107,106,108,-1,109,42,41,-1,110,37,39,-1,111,112,113,-1,114,115,116,-1,116,110,114,-1,114,110,39,-1,114,39,41,-1,41,39,111,-1,41,111,109,-1,109,111,113,-1,117,118,119,-1,119,118,120,-1,121,122,123,-1,123,122,124,-1,58,125,63,-1,63,125,126,-1,126,127,63,-1,63,127,128,-1,63,128,129,-1,129,128,130,-1,129,130,131,-1,131,130,132,-1,132,130,133,-1,132,133,134,-1,134,133,135,-1,135,133,136,-1,135,136,121,-1,118,122,120,-1,120,122,121,-1,120,121,137,-1,137,121,136,-1,87,85,107,-1,97,94,98,-1,98,94,93,-1,98,93,138,-1,138,93,139,-1,93,140,139,-1,139,140,141,-1,139,141,142,-1,107,108,87,-1,87,108,143,-1,87,143,144,-1,144,143,145,-1,144,145,146,-1,146,145,142,-1,146,142,147,-1,147,142,141,-1,102,101,148,-1,102,148,149,-1,149,148,150,-1,149,150,151,-1,151,150,152,-1,151,152,153,-1,153,152,154,-1,153,154,155,-1,155,154,156,-1,155,156,157,-1,157,156,113,-1,157,113,112,-1,158,159,160,-1,158,160,161,-1,161,160,162,-1,161,162,163,-1,163,162,164,-1,163,164,165,-1,165,164,166,-1,165,166,167,-1,167,166,168,-1,167,168,169,-1,169,168,170,-1,169,170,171,-1,171,170,116,-1,171,116,115,-1,74,73,172,-1,172,73,173,-1,172,173,174,-1,174,173,175,-1,174,175,176,-1,176,175,177,-1,176,177,178,-1,178,177,179,-1,178,179,180,-1,180,179,181,-1,180,181,71,-1,71,181,72,-1,69,68,182,-1,182,68,183,-1,182,183,184,-1,184,183,185,-1,184,185,186,-1,186,185,187,-1,186,187,188,-1,188,187,189,-1,188,189,190,-1,190,189,191,-1,190,191,45,-1,45,191,46,-1,121,123,192,-1,121,192,135,-1,135,192,193,-1,135,193,134,-1,134,193,194,-1,134,194,132,-1,132,194,195,-1,132,195,131,-1,131,195,196,-1,131,196,129,-1,129,196,64,-1,129,64,63,-1,88,87,144,-1,88,144,197,-1,197,144,146,-1,197,146,198,-1,198,146,147,-1,198,147,199,-1,199,147,141,-1,199,141,200,-1,200,141,140,-1,200,140,201,-1,201,140,93,-1,201,93,95,-1,70,109,71,-1,71,109,113,-1,71,113,180,-1,154,176,178,-1,180,113,178,-1,178,113,156,-1,178,156,154,-1,101,103,76,-1,154,152,176,-1,176,152,150,-1,176,150,174,-1,174,150,148,-1,174,148,172,-1,172,148,101,-1,172,101,74,-1,74,101,76,-1,42,109,44,-1,44,109,70,-1,103,107,76,-1,76,107,85,-1,114,41,65,-1,65,41,43,-1,115,114,65,-1,47,202,45,-1,45,202,158,-1,45,158,190,-1,190,158,188,-1,165,186,163,-1,163,186,188,-1,163,188,161,-1,161,188,158,-1,65,69,115,-1,115,69,182,-1,115,182,171,-1,171,182,184,-1,171,184,169,-1,169,184,186,-1,169,186,167,-1,167,186,165,-1,202,47,0,-1,0,47,1,-1,159,203,48,-1,67,110,68,-1,68,110,116,-1,68,116,183,-1,48,46,159,-1,159,46,191,-1,159,191,160,-1,160,191,189,-1,160,189,162,-1,162,189,187,-1,162,187,164,-1,164,187,166,-1,183,116,185,-1,185,116,170,-1,185,170,187,-1,187,170,168,-1,187,168,166,-1,37,110,38,-1,38,110,67,-1,203,125,48,-1,48,125,58,-1,111,39,66,-1,66,39,40,-1,112,111,66,-1,102,149,175,-1,175,149,151,-1,175,151,177,-1,66,72,112,-1,112,72,181,-1,112,181,157,-1,157,181,179,-1,157,179,155,-1,155,179,177,-1,155,177,153,-1,153,177,151,-1,75,104,73,-1,73,104,102,-1,73,102,173,-1,173,102,175,-1,104,75,27,-1,27,75,28,-1,
        ]
    }
}
Shape{
    appearance Appearance {
        material  Material 	{
            diffuseColor 0.4117647058823529 0.4117647058823529 0.4117647058823529
            specularColor 0.20392156862745098 0.20392156862745098 0.20392156862745098
            ambientIntensity 0.4118
            transparency 0.0
            shininess 0.5
        }
    }
    geometry IndexedFaceSet {
        ccw TRUE
        solid FALSE
        coord DEF co Coordinate {
            point [
                -2.2638 -0.4921 0.0591, -2.2638 -0.6693 0.0591, -2.2561 -0.4921 0.0596, -2.2485 -0.6693 0.0611, -2.2485 -0.4921 0.0611, -2.2412 -0.492 0.0636, -2.2343 -0.6693 0.067, -2.2343 -0.4916 0.067, -2.2241 -0.4901 0.0743, -2.222 -0.6693 0.0764, -2.2222 -0.4894 0.0765, -2.2168 -0.4873 0.0823, -2.2126 -0.6693 0.0886, -2.2126 -0.4842 0.0886, -2.2095 -0.48 0.0949, -2.2067 -0.6693 0.1028, -2.2073 -0.4748 0.1008, -2.2048 -0.4484 0.1161, -2.2047 -0.6693 0.1181, -2.2047 -0.4408 0.1176, -2.2047 -0.4331 0.1181, -2.2049 -0.4557 0.1136, -2.2053 -0.4626 0.1102, -2.2067 -0.4727 0.1028, 2.227 0.3937 0.0719, 2.2382 0.2162 0.0649, 2.2382 0.3937 0.0649, 2.2506 0.2165 0.0605, 2.2506 0.3937 0.0605, 2.2638 0.2165 0.0591, 2.2638 0.3937 0.0591, 2.2176 0.3937 0.0813, 2.2241 0.2145 0.0743, 2.227 0.2151 0.0719, 2.2106 0.3937 0.0925, 2.2126 0.2086 0.0886, 2.2176 0.2122 0.0813, 2.2062 0.3937 0.105, 2.2073 0.1992 0.1008, 2.2106 0.2062 0.0925, 2.2048 0.1728 0.1161, 2.2047 0.3937 0.1181, 2.2047 0.1652 0.1176, 2.2047 0.1575 0.1181, 2.2049 0.1801 0.1136, 2.2053 0.187 0.1102, 2.2062 0.1946 0.105, 2.5197 -0.6693 0.0591, 2.5197 -0.6693 0.0, 2.5197 -0.4921 0.0591, 2.5197 -0.4921 0.0, 2.5197 0.3937 0.0, 2.5197 0.3937 0.0591, 2.5197 0.2165 0.0, 2.5197 0.2165 0.0591, 2.2047 0.2165 0.0, 2.1457 0.2165 0.0591, 2.1477 0.2165 0.0438, 2.1536 0.2165 0.0295, 2.163 0.2165 0.0173, 2.1752 0.2165 0.0079, 2.1894 0.2165 0.002, 2.2638 -0.4921 0.0591, 2.2047 -0.4921 0.0, 2.1894 -0.4921 0.002, 2.1752 -0.4921 0.0079, 2.163 -0.4921 0.0173, 2.1536 -0.4921 0.0295, 2.1477 -0.4921 0.0438, 2.1457 -0.4921 0.0591, -2.1457 0.1575 0.1181, -2.1457 -0.4331 0.1181, -2.2047 0.1575 0.1181, -2.5197 0.2165 0.0591, -2.5197 0.2165 0.0, -2.2638 0.2165 0.0591, -2.2047 0.2165 0.0, -2.1894 0.2165 0.002, -2.1752 0.2165 0.0079, -2.163 0.2165 0.0173, -2.1536 0.2165 0.0295, -2.1477 0.2165 0.0438, -2.1457 0.2165 0.0591, -2.5197 -0.4921 0.0, -2.5197 -0.4921 0.0591, -2.2047 -0.4921 0.0, -2.1894 -0.4921 0.002, -2.1752 -0.4921 0.0079, -2.1457 -0.4921 0.0591, -2.1477 -0.4921 0.0438, -2.1536 -0.4921 0.0295, -2.163 -0.4921 0.0173, -2.2411 0.2164 0.0636, -2.2485 0.2165 0.0611, -2.2561 0.2165 0.0596, -2.1457 0.2086 0.0886, -2.2126 0.2086 0.0886, -2.1457 0.2145 0.0743, -2.2169 0.2118 0.0823, -2.222 0.2139 0.0764, -2.2241 0.2145 0.0743, -2.2343 0.216 0.067, -2.1457 0.1992 0.1008, -2.1457 0.187 0.1102, -2.2053 0.187 0.1102, -2.2067 0.1971 0.1028, -2.2075 0.1991 0.1007, -2.2095 0.2045 0.0948, -2.1457 0.1728 0.1161, -2.2047 0.1652 0.1176, -2.2048 0.1728 0.1161, -2.2049 0.1801 0.1136, -2.1457 -0.4484 0.1161, -2.1457 -0.4626 0.1102, -2.1457 -0.4748 0.1008, -2.1457 -0.4842 0.0886, -2.1457 -0.4901 0.0743, 2.2047 -0.4331 0.1181, 2.1457 0.1575 0.1181, 2.1457 -0.4331 0.1181, 2.1457 0.1728 0.1161, 2.1457 0.187 0.1102, 2.1457 0.1992 0.1008, 2.1457 0.2086 0.0886, 2.1457 0.2145 0.0743, 2.2506 -0.4921 0.0605, 2.2382 -0.4918 0.0649, 2.1457 -0.4901 0.0743, 2.1457 -0.4842 0.0886, 2.2126 -0.4842 0.0886, 2.2176 -0.4878 0.0813, 2.2241 -0.4901 0.0743, 2.227 -0.4907 0.0719, 2.1457 -0.4748 0.1008, 2.1457 -0.4626 0.1102, 2.2053 -0.4626 0.1102, 2.2062 -0.4702 0.105, 2.2073 -0.4748 0.1008, 2.2106 -0.4818 0.0925, 2.1457 -0.4484 0.1161, 2.2047 -0.4408 0.1176, 2.2048 -0.4484 0.1161, 2.2049 -0.4557 0.1136, -2.5197 -0.6693 0.0, -2.5197 -0.6693 0.0591, -2.5197 0.3937 0.0591, -2.5197 0.3937 0.0, -0.5291 -0.7283 0.4724, -0.47 -0.7283 0.4138, -0.47 -0.7283 0.2522, -0.0763 -0.7283 0.4138, -0.0173 -0.7283 0.4724, -0.0763 -0.7283 0.2522, -0.0173 -0.7283 0.0, -0.5291 -0.7283 0.0, -0.0763 -0.6102 0.4138, -0.47 -0.6102 0.4138, -0.0763 -0.6102 0.2522, -0.0763 -0.6693 0.2522, -2.126 -0.6693 0.0, -2.126 -0.5217 0.0, -1.2697 -0.5217 0.0, -0.2165 0.2464 0.0, -0.2165 0.3937 0.0, -0.1953 0.3937 0.0, 1.5551 0.2464 0.0, 1.5551 0.3937 0.0, 1.8406 0.3937 0.0, 0.316 -0.2431 0.0, 0.3954 -0.2431 0.0, 0.3954 -0.2443 0.0, 1.1298 -0.0777 0.0, 1.1111 -0.0451 0.0, 1.2697 -0.0451 0.0, 0.374 0.2464 0.0, 0.374 0.3937 0.0, 0.3954 0.3937 0.0, -1.1094 -0.2334 0.0, -1.0985 -0.2443 0.0, -1.2697 -0.2443 0.0, -0.8064 0.2464 0.0, -0.8064 0.3937 0.0, -0.5936 0.3937 0.0, -1.2697 0.3937 0.0, -0.9652 0.3937 0.0, -0.9652 0.2464 0.0, -0.9646 0.0185 0.0, -1.0055 0.0182 0.0, -1.0451 0.0075 0.0, -1.0805 -0.0131 0.0, -1.2697 -0.0318 0.0, -0.5936 -0.0318 0.0, -0.8071 -0.0197 0.0, -0.8071 0.0984 0.0, -0.9646 0.0984 0.0, -0.3771 0.3937 0.0, -0.8548 -0.2275 0.0, -0.8371 -0.1938 0.0, -0.5936 -0.2443 0.0, -0.8279 -0.1188 0.0, -0.8371 -0.0818 0.0, -0.5936 -0.0451 0.0, -0.8279 -0.1568 0.0, -0.8548 -0.0481 0.0, -0.8575 -0.0451 0.0, -0.8693 -0.0318 0.0, -0.8698 -0.2443 0.0, -0.5936 -0.2507 0.0, -0.8755 -0.2507 0.0, -1.2697 -0.2507 0.0, -1.0922 -0.2507 0.0, -0.8801 -0.2559 0.0, -0.8071 -0.2559 0.0, -0.8071 -0.374 0.0, -0.5936 -0.5217 0.0, -0.9646 -0.374 0.0, -1.0805 -0.2624 0.0, -1.0451 -0.2831 0.0, -1.0055 -0.2938 0.0, -0.9646 -0.294 0.0, -1.1298 -0.1979 0.0, -1.1298 -0.0777 0.0, -1.1404 -0.1173 0.0, -1.2697 -0.0451 0.0, -1.1404 -0.1583 0.0, -1.099 -0.0318 0.0, -1.1094 -0.0422 0.0, -1.1111 -0.0451 0.0, 0.2165 -0.2559 0.0, 0.2165 -0.374 0.0, 0.1336 -0.5217 0.0, 0.374 -0.2559 0.0, 0.3076 -0.2559 0.0, 0.3076 -0.2507 0.0, 0.1336 -0.2507 0.0, 0.3076 -0.5217 0.0, 0.3076 -0.374 0.0, 0.3954 -0.5217 0.0, 0.374 -0.374 0.0, 0.3954 -0.2507 0.0, 0.3954 -0.0318 0.0, 0.374 -0.0197 0.0, 0.374 0.0984 0.0, 0.1336 -0.0318 0.0, 0.1336 0.3937 0.0, 0.2165 0.2464 0.0, 0.2165 0.3937 0.0, 0.3076 -0.0197 0.0, 0.3076 -0.0318 0.0, 0.2165 -0.0197 0.0, 0.2165 0.0984 0.0, 0.3076 0.0984 0.0, 0.3076 0.2464 0.0, 0.9646 0.2464 0.0, 0.9646 0.3937 0.0, 1.2697 0.3937 0.0, 1.2697 -0.0318 0.0, 1.099 -0.0318 0.0, 1.0805 -0.0131 0.0, 0.8071 -0.0197 0.0, 0.612 -0.0318 0.0, 0.8071 0.0984 0.0, 0.8071 0.2464 0.0, 0.9646 0.0984 0.0, 0.9646 0.0185 0.0, 1.0055 0.0182 0.0, 1.0451 0.0075 0.0, 1.1094 -0.0422 0.0, 1.2697 -0.2507 0.0, 1.0985 -0.2443 0.0, 1.2697 -0.2443 0.0, 1.1094 -0.2334 0.0, 1.1298 -0.1979 0.0, 1.1404 -0.1583 0.0, 1.1404 -0.1173 0.0, 0.8755 -0.2507 0.0, 0.8801 -0.2559 0.0, 0.8071 -0.2559 0.0, 0.9646 -0.294 0.0, 1.0055 -0.2938 0.0, 0.9646 -0.374 0.0, 1.2697 -0.5217 0.0, 0.8071 -0.374 0.0, 0.612 -0.5217 0.0, 0.612 -0.2507 0.0, 0.612 -0.2443 0.0, 1.0451 -0.2831 0.0, 1.0805 -0.2624 0.0, 1.0922 -0.2507 0.0, 0.8371 -0.1938 0.0, 0.8548 -0.2275 0.0, 0.8698 -0.2443 0.0, 0.612 -0.0451 0.0, 0.8575 -0.0451 0.0, 0.8548 -0.0481 0.0, 0.8371 -0.0818 0.0, 0.8279 -0.1188 0.0, 0.8279 -0.1568 0.0, 0.8693 -0.0318 0.0, 0.8801 -0.0197 0.0, 0.3904 -0.0463 0.0, 0.3076 -0.0451 0.0, 0.3954 -0.0451 0.0, 0.4168 -0.2431 0.0, 0.4168 -0.0463 0.0, 0.3954 -0.0463 0.0, 0.1989 -0.0655 0.0, 0.2183 -0.0677 0.0, 0.1563 -0.2133 0.0, 0.1336 -0.2443 0.0, 0.1336 -0.0451 0.0, 0.1528 -0.2113 0.0, 0.1528 -0.2329 0.0, 0.1738 -0.2415 0.0, 0.1936 -0.2443 0.0, 0.1749 -0.0686 0.0, 0.1528 -0.0781 0.0, 0.1528 -0.0517 0.0, 0.233 -0.073 0.0, 0.2466 -0.0821 0.0, 0.2585 -0.0952 0.0, 0.2728 -0.1468 0.0, 0.2708 -0.1681 0.0, 0.2655 -0.185 0.0, 0.2217 -0.2219 0.0, 0.2033 -0.2239 0.0, 0.236 -0.2166 0.0, 0.2481 -0.2084 0.0, 0.2573 -0.1987 0.0, 0.1772 -0.221 0.0, 0.2666 -0.1104 0.0, 0.2719 -0.1315 0.0, 0.1991 -0.0439 0.0, 0.1817 -0.0451 0.0, 0.1755 -0.0455 0.0, 0.2503 -0.2364 0.0, 0.2661 -0.2263 0.0, 0.3076 -0.2443 0.0, 0.2773 -0.0797 0.0, 0.2595 -0.0626 0.0, 0.2992 -0.1484 0.0, 0.2964 -0.1204 0.0, 0.2888 -0.0981 0.0, 0.2408 -0.0519 0.0, 0.2189 -0.0455 0.0, 0.2138 -0.0451 0.0, 0.2809 -0.2108 0.0, 0.2914 -0.1921 0.0, 0.2973 -0.1712 0.0, 0.316 -0.2215 0.0, 0.3904 -0.2215 0.0, 0.2015 -0.2454 0.0, 0.2069 -0.2455 0.0, 0.2185 -0.2443 0.0, 0.2312 -0.243 0.0, -0.2313 -0.2431 0.0, -0.2025 -0.2431 0.0, -0.1953 -0.2443 0.0, -0.3802 -0.2431 0.0, -0.3771 -0.2431 0.0, -0.3771 -0.2443 0.0, -0.3514 -0.2431 0.0, -0.1953 -0.0451 0.0, -0.2769 -0.0463 0.0, -0.3771 -0.0451 0.0, -0.3033 -0.0463 0.0, -0.3771 -0.2352 0.0, 1.3976 0.3937 0.0, 1.3976 0.2464 0.0, 1.3976 0.0984 0.0, 1.3976 -0.0197 0.0, 1.8406 -0.0318 0.0, 1.5551 -0.0197 0.0, 1.5551 0.0984 0.0, -0.374 0.3937 0.0, -0.374 0.2464 0.0, -0.374 0.0984 0.0, -0.374 -0.0197 0.0, -0.3771 -0.0318 0.0, -0.1953 -0.0318 0.0, -0.2165 -0.0197 0.0, -0.2165 0.0984 0.0, -2.126 0.3937 0.0, -1.5551 0.3937 0.0, -1.5551 0.2464 0.0, -1.3976 0.2464 0.0, -1.3976 0.0984 0.0, -1.5551 0.0984 0.0, -2.126 -0.0318 0.0, -1.5551 -0.0197 0.0, -1.3976 -0.0197 0.0, -1.3976 0.3937 0.0, 0.612 0.3937 0.0, 0.8071 0.3937 0.0, -0.8801 -0.0197 0.0, -2.126 -0.0451 0.0, -2.126 -0.2443 0.0, -2.126 -0.2507 0.0, -0.0105 0.3937 0.0, -0.0105 -0.0318 0.0, -0.0105 -0.0451 0.0, -0.0852 -0.0463 0.0, -0.1137 -0.0493 0.0, -0.1367 -0.0574 0.0, -0.1581 -0.0718 0.0, -0.1783 -0.1892 0.0, -0.167 -0.2068 0.0, -0.1508 -0.2223 0.0, -0.1302 -0.2342 0.0, -0.1583 -0.0719 0.0, -0.1723 -0.0874 0.0, -0.1814 -0.1043 0.0, -0.1867 -0.1237 0.0, -0.1881 -0.1422 0.0, -0.1854 -0.1686 0.0, -0.1076 -0.241 0.0, -0.0832 -0.2431 0.0, -0.0105 -0.2443 0.0, -0.0297 -0.2431 0.0, -0.0297 -0.0463 0.0, 0.0135 -0.0463 0.0, 0.0135 -0.0679 0.0, 0.0087 -0.2215 0.0, 0.0087 -0.2431 0.0, 0.1144 -0.2431 0.0, 0.1144 -0.0463 0.0, 0.088 -0.1543 0.0, 0.088 -0.2215 0.0, 0.0183 -0.1543 0.0, 0.0183 -0.1327 0.0, 0.088 -0.1327 0.0, 0.088 -0.0679 0.0, -0.0105 -0.2507 0.0, -0.1953 -0.2507 0.0, 1.8406 -0.0451 0.0, 1.8406 -0.2443 0.0, 1.8406 -0.2507 0.0, -1.5551 -0.2559 0.0, -1.5551 -0.374 0.0, -1.3976 -0.374 0.0, -1.3976 -0.2559 0.0, -0.3771 -0.2507 0.0, -0.3771 -0.5217 0.0, -0.374 -0.374 0.0, -0.2165 -0.374 0.0, -0.1953 -0.5217 0.0, -0.3314 -0.1879 0.0, -0.2501 -0.1879 0.0, -0.2165 -0.2559 0.0, -0.374 -0.2559 0.0, -0.0105 -0.5217 0.0, 1.3976 -0.2559 0.0, 1.5551 -0.2559 0.0, 1.5551 -0.374 0.0, 1.8406 -0.5217 0.0, 1.3976 -0.374 0.0, 2.126 0.3937 0.0, 2.126 -0.0318 0.0, 2.126 -0.0451 0.0, 2.126 -0.2443 0.0, 2.126 -0.2507 0.0, 2.126 -0.5217 0.0, -1.2697 -0.6693 0.0, -0.5936 -0.6693 0.0, -0.3771 -0.6693 0.0, -0.1953 -0.6693 0.0, -0.0105 -0.6693 0.0, 0.1336 -0.6693 0.0, 0.3076 -0.6693 0.0, 0.3954 -0.6693 0.0, 0.612 -0.6693 0.0, 1.2697 -0.6693 0.0, 1.8406 -0.6693 0.0, 2.126 -0.6693 0.0, -0.47 -0.6102 0.2522, -0.8465 -0.6102 0.2522, -0.47 -0.6693 0.2522, -0.8465 -0.6693 0.2522, -0.5212 -1.2303 0.0, -0.5271 -1.2161 0.0, -0.5291 -1.2008 0.0, -0.0173 -1.2008 0.0, -0.0763 -1.2598 0.0, -0.0346 -1.2425 0.0, -0.0611 -1.2578 0.0, -0.0468 -1.2519 0.0, -0.0193 -1.2161 0.0, -0.0252 -1.2303 0.0, -0.47 -1.2598 0.0, -0.4853 -1.2578 0.0, -0.4996 -1.2519 0.0, -0.5118 -1.2425 0.0, -1.3976 0.3937 0.0591, -1.5551 0.3937 0.0591, -1.9488 0.3937 0.4724, 1.9488 0.3937 0.4724, 1.9488 0.3937 0.5512, 2.2047 0.3937 0.2559, 2.1457 0.3937 0.5512, 2.2047 0.3937 0.4921, 0.9646 0.3937 0.0591, 0.8071 0.3937 0.0591, -2.126 0.3937 0.2559, -2.2047 0.3937 0.4921, -2.1457 0.3937 0.5512, -1.9488 0.3937 0.5512, 1.3976 0.3937 0.0591, 0.374 0.3937 0.0591, 2.126 0.3937 0.2559, 1.5551 0.3937 0.0591, -2.2047 0.3937 0.2559, -0.2165 0.3937 0.0591, -0.374 0.3937 0.0591, -0.8064 0.3937 0.0591, 0.2165 0.3937 0.0591, -0.9652 0.3937 0.0591, -2.126 -0.4055 0.4724, -2.126 -0.4055 0.2559, -2.2047 -0.4055 0.2559, -1.9488 -0.4055 0.5512, -1.9488 -0.4055 0.4724, -2.1457 -0.4055 0.5512, -2.2047 -0.4055 0.4921, 2.126 -0.4055 0.4724, 1.9488 -0.4055 0.4724, 1.9488 -0.4055 0.5512, 2.2047 -0.4055 0.2559, 2.126 -0.4055 0.2559, 2.2047 -0.4055 0.4921, 2.1457 -0.4055 0.5512, -2.1457 -0.6693 0.5512, -2.2047 -0.6693 0.4921, -2.2047 -0.6693 0.2559, 2.1457 -0.6693 0.5512, 1.9488 -0.6693 0.5512, 1.9488 -0.6693 0.4724, 2.126 -0.6693 0.2559, 2.2047 -0.6693 0.2559, 2.2047 -0.6693 0.4921, 0.8465 -0.6693 0.4724, 0.8465 -0.6693 0.2522, -0.8465 -0.6693 0.4724, -1.9488 -0.6693 0.4724, -2.126 -0.6693 0.2559, -1.9488 -0.6693 0.5512, 2.126 0.1299 0.2559, 2.126 0.1299 0.4724, -1.9488 0.1299 0.4724, -2.126 0.1299 0.4724, 1.9488 0.1299 0.4724, -0.8465 -0.6102 0.4724, 0.8465 -0.6102 0.4724, -2.126 0.1299 0.2559
            ]
        }
        coordIndex [
            0,1,2,-1,2,1,3,-1,2,3,4,-1,4,3,5,-1,5,3,6,-1,5,6,7,-1,7,6,8,-1,8,6,9,-1,8,9,10,-1,10,9,11,-1,11,9,12,-1,11,12,13,-1,13,12,14,-1,14,12,15,-1,14,15,16,-1,17,18,19,-1,19,18,20,-1,17,21,18,-1,18,21,22,-1,18,22,15,-1,15,22,23,-1,15,23,16,-1,24,25,26,-1,26,25,27,-1,26,27,28,-1,28,27,29,-1,28,29,30,-1,31,32,24,-1,24,32,33,-1,24,33,25,-1,34,35,31,-1,31,35,36,-1,31,36,32,-1,37,38,34,-1,34,38,39,-1,34,39,35,-1,40,41,42,-1,42,41,43,-1,40,44,41,-1,41,44,45,-1,41,45,37,-1,37,45,46,-1,37,46,38,-1,47,48,49,-1,49,48,50,-1,51,52,53,-1,53,52,54,-1,53,54,55,-1,55,54,29,-1,56,57,29,-1,29,57,58,-1,29,58,59,-1,59,60,29,-1,29,60,61,-1,29,61,55,-1,49,50,62,-1,62,50,63,-1,63,64,62,-1,62,64,65,-1,62,65,66,-1,66,67,62,-1,62,67,68,-1,62,68,69,-1,70,71,72,-1,72,71,20,-1,73,74,75,-1,75,74,76,-1,76,77,75,-1,75,77,78,-1,75,78,79,-1,79,80,75,-1,75,80,81,-1,75,81,82,-1,83,84,85,-1,85,84,0,-1,85,0,86,-1,86,0,87,-1,0,88,89,-1,89,90,0,-1,0,90,91,-1,0,91,87,-1,92,93,82,-1,82,93,94,-1,82,94,75,-1,95,96,97,-1,97,96,98,-1,98,99,97,-1,97,99,100,-1,97,100,82,-1,82,100,101,-1,82,101,92,-1,102,103,104,-1,104,105,102,-1,102,105,106,-1,102,106,95,-1,95,106,107,-1,95,107,96,-1,108,70,72,-1,72,109,108,-1,108,109,110,-1,108,110,103,-1,103,110,111,-1,103,111,104,-1,20,71,19,-1,19,71,112,-1,19,112,17,-1,17,112,21,-1,21,112,113,-1,21,113,22,-1,22,113,23,-1,23,113,114,-1,23,114,16,-1,16,114,14,-1,14,114,115,-1,14,115,13,-1,13,115,11,-1,11,115,116,-1,11,116,10,-1,4,88,2,-1,2,88,0,-1,4,5,88,-1,88,5,7,-1,88,7,116,-1,116,7,8,-1,116,8,10,-1,43,117,118,-1,118,117,119,-1,43,118,42,-1,42,118,120,-1,121,44,120,-1,120,44,40,-1,120,40,42,-1,122,46,121,-1,121,46,45,-1,121,45,44,-1,123,39,122,-1,122,39,38,-1,122,38,46,-1,124,36,123,-1,123,36,35,-1,123,35,39,-1,56,29,27,-1,27,25,56,-1,56,25,33,-1,56,33,124,-1,124,33,32,-1,124,32,36,-1,62,69,125,-1,125,69,126,-1,127,128,129,-1,129,130,127,-1,127,130,131,-1,127,131,69,-1,69,131,132,-1,69,132,126,-1,133,134,135,-1,135,136,133,-1,133,136,137,-1,133,137,128,-1,128,137,138,-1,128,138,129,-1,139,119,117,-1,117,140,139,-1,139,140,141,-1,139,141,134,-1,134,141,142,-1,134,142,135,-1,83,143,84,-1,84,143,144,-1,73,145,74,-1,74,145,146,-1,147,148,149,-1,148,147,150,-1,150,147,151,-1,150,151,152,-1,152,151,153,-1,152,153,149,-1,149,153,154,-1,149,154,147,-1,150,155,148,-1,148,155,156,-1,157,155,158,-1,158,155,150,-1,158,150,152,-1,159,160,161,-1,162,163,164,-1,165,166,167,-1,168,169,170,-1,171,172,173,-1,174,175,176,-1,177,178,179,-1,180,181,182,-1,183,184,185,-1,186,187,183,-1,187,188,183,-1,183,188,189,-1,183,189,190,-1,191,192,193,-1,186,183,194,-1,194,183,185,-1,194,185,193,-1,193,185,180,-1,193,180,191,-1,191,180,182,-1,191,182,195,-1,196,197,198,-1,199,200,201,-1,199,201,202,-1,200,203,201,-1,201,203,204,-1,201,204,205,-1,196,198,206,-1,206,198,207,-1,206,207,208,-1,161,209,210,-1,211,208,212,-1,212,208,207,-1,212,207,213,-1,213,207,214,-1,213,214,215,-1,215,214,161,-1,210,216,161,-1,161,216,217,-1,161,217,215,-1,215,217,218,-1,215,218,219,-1,177,179,220,-1,221,222,223,-1,223,222,179,-1,179,222,224,-1,179,224,220,-1,189,225,190,-1,190,225,226,-1,190,226,223,-1,223,226,227,-1,223,227,221,-1,228,229,230,-1,231,232,233,-1,233,232,228,-1,233,228,234,-1,230,229,235,-1,235,229,236,-1,235,236,237,-1,237,236,238,-1,237,238,239,-1,240,241,242,-1,243,244,245,-1,245,244,246,-1,241,240,247,-1,247,240,248,-1,247,248,249,-1,249,248,243,-1,249,243,250,-1,250,243,245,-1,250,245,251,-1,251,245,252,-1,251,252,242,-1,253,254,255,-1,256,257,258,-1,259,260,261,-1,261,260,262,-1,261,262,263,-1,263,262,253,-1,264,263,265,-1,265,263,253,-1,265,253,266,-1,173,172,256,-1,256,172,267,-1,256,267,257,-1,268,269,270,-1,270,269,271,-1,271,272,270,-1,270,272,273,-1,270,273,173,-1,173,273,274,-1,173,274,171,-1,275,276,277,-1,278,279,280,-1,280,279,281,-1,280,281,282,-1,282,281,283,-1,282,283,277,-1,277,283,284,-1,277,284,275,-1,275,284,285,-1,279,286,281,-1,281,286,287,-1,281,287,268,-1,268,287,288,-1,268,288,269,-1,289,290,285,-1,285,290,291,-1,285,291,275,-1,292,293,294,-1,294,295,292,-1,292,295,296,-1,292,296,285,-1,285,296,297,-1,285,297,289,-1,293,260,298,-1,298,260,259,-1,298,259,299,-1,300,301,302,-1,285,303,292,-1,292,303,304,-1,292,304,302,-1,302,304,305,-1,302,305,300,-1,306,307,308,-1,309,310,311,-1,311,312,309,-1,309,312,313,-1,309,313,314,-1,306,308,315,-1,315,308,311,-1,315,311,316,-1,316,311,310,-1,316,310,317,-1,307,318,308,-1,308,318,319,-1,308,319,320,-1,321,322,308,-1,308,322,323,-1,324,325,326,-1,326,325,327,-1,323,328,308,-1,308,328,327,-1,308,327,329,-1,329,327,325,-1,320,330,308,-1,308,330,331,-1,308,331,321,-1,248,332,243,-1,243,332,333,-1,243,333,310,-1,310,333,334,-1,310,334,317,-1,335,336,337,-1,301,338,339,-1,340,341,301,-1,301,341,342,-1,301,342,338,-1,339,343,301,-1,301,343,344,-1,301,344,345,-1,336,346,337,-1,337,346,347,-1,337,347,348,-1,348,340,337,-1,337,340,301,-1,337,301,349,-1,349,301,300,-1,349,300,350,-1,314,351,234,-1,234,351,352,-1,234,352,233,-1,233,352,353,-1,233,353,337,-1,337,353,354,-1,337,354,335,-1,355,356,357,-1,358,359,360,-1,360,359,361,-1,357,356,362,-1,362,356,363,-1,362,363,364,-1,363,365,364,-1,364,365,366,-1,364,366,201,-1,201,366,198,-1,201,198,202,-1,202,198,197,-1,255,367,368,-1,369,370,256,-1,371,372,373,-1,167,371,165,-1,165,371,373,-1,165,373,368,-1,368,373,369,-1,368,369,255,-1,255,369,256,-1,255,256,253,-1,253,256,258,-1,253,258,266,-1,195,374,375,-1,376,377,378,-1,378,377,379,-1,379,377,380,-1,379,380,381,-1,382,383,384,-1,385,386,384,-1,384,386,387,-1,384,387,382,-1,382,387,388,-1,389,390,190,-1,391,183,385,-1,385,183,190,-1,385,190,386,-1,386,190,390,-1,164,379,162,-1,162,379,381,-1,162,381,375,-1,375,381,376,-1,375,376,195,-1,195,376,378,-1,195,378,191,-1,252,174,242,-1,242,174,176,-1,242,176,240,-1,240,176,392,-1,240,392,260,-1,260,392,393,-1,260,393,262,-1,394,192,205,-1,205,192,191,-1,205,191,201,-1,201,191,378,-1,201,378,364,-1,364,378,379,-1,364,379,362,-1,293,292,260,-1,260,292,302,-1,260,302,240,-1,240,302,301,-1,240,301,248,-1,248,301,345,-1,248,345,332,-1,387,389,388,-1,388,389,190,-1,388,190,395,-1,395,190,223,-1,395,223,396,-1,396,223,179,-1,396,179,397,-1,164,398,379,-1,379,398,399,-1,379,399,362,-1,362,399,400,-1,362,400,401,-1,401,402,362,-1,362,402,403,-1,362,403,404,-1,405,406,357,-1,357,406,407,-1,357,407,408,-1,404,409,362,-1,362,409,410,-1,362,410,411,-1,411,412,362,-1,362,412,413,-1,362,413,357,-1,357,413,414,-1,357,414,405,-1,408,415,357,-1,357,415,416,-1,357,416,417,-1,417,416,418,-1,417,418,400,-1,400,418,419,-1,400,419,401,-1,398,244,399,-1,399,244,243,-1,399,243,400,-1,400,243,310,-1,400,310,420,-1,420,421,400,-1,400,421,422,-1,400,422,417,-1,417,422,423,-1,417,423,309,-1,309,423,424,-1,309,424,310,-1,310,424,425,-1,310,425,420,-1,426,427,428,-1,428,427,422,-1,428,422,429,-1,429,422,421,-1,429,421,430,-1,430,421,431,-1,314,234,309,-1,309,234,432,-1,309,432,417,-1,417,432,433,-1,417,433,357,-1,349,168,337,-1,337,168,170,-1,337,170,233,-1,233,170,239,-1,233,239,231,-1,231,239,238,-1,370,372,256,-1,256,372,371,-1,256,371,173,-1,173,371,434,-1,173,434,270,-1,270,434,435,-1,270,435,268,-1,268,435,436,-1,178,210,179,-1,179,210,209,-1,179,209,397,-1,397,209,437,-1,397,437,160,-1,160,437,438,-1,160,438,161,-1,161,438,439,-1,161,439,209,-1,209,439,440,-1,209,440,437,-1,366,358,198,-1,198,358,360,-1,198,360,207,-1,207,360,441,-1,207,441,214,-1,214,441,442,-1,443,444,445,-1,446,447,361,-1,361,447,355,-1,361,355,360,-1,360,355,357,-1,360,357,441,-1,441,357,433,-1,441,433,448,-1,448,449,441,-1,441,449,443,-1,441,443,442,-1,442,443,445,-1,228,230,234,-1,234,230,450,-1,234,450,432,-1,432,450,445,-1,432,445,433,-1,433,445,444,-1,433,444,448,-1,169,303,170,-1,170,303,285,-1,170,285,239,-1,239,285,284,-1,239,284,237,-1,237,284,283,-1,451,268,452,-1,452,268,436,-1,452,436,453,-1,453,436,454,-1,453,454,455,-1,455,454,281,-1,455,281,451,-1,451,281,268,-1,167,456,371,-1,371,456,457,-1,371,457,434,-1,434,457,458,-1,434,458,435,-1,435,458,459,-1,435,459,436,-1,436,459,460,-1,436,460,454,-1,454,460,461,-1,159,161,462,-1,462,161,214,-1,462,214,463,-1,463,214,442,-1,463,442,464,-1,464,442,445,-1,464,445,465,-1,465,445,450,-1,465,450,466,-1,466,450,230,-1,466,230,467,-1,467,230,235,-1,467,235,468,-1,468,235,237,-1,468,237,469,-1,469,237,283,-1,469,283,470,-1,470,283,281,-1,470,281,471,-1,471,281,454,-1,471,454,472,-1,472,454,461,-1,472,461,473,-1,474,475,476,-1,476,475,477,-1,478,479,480,-1,154,153,480,-1,480,153,481,-1,482,483,484,-1,484,483,485,-1,481,486,482,-1,482,486,487,-1,482,487,483,-1,481,482,480,-1,480,482,488,-1,480,488,489,-1,489,490,480,-1,480,490,491,-1,480,491,478,-1,492,493,494,-1,495,496,497,-1,497,496,498,-1,497,498,499,-1,500,501,494,-1,382,502,383,-1,383,502,493,-1,503,504,494,-1,494,504,505,-1,254,500,255,-1,255,500,506,-1,255,506,367,-1,176,175,507,-1,497,508,495,-1,495,508,456,-1,495,456,167,-1,500,494,506,-1,506,494,495,-1,506,495,509,-1,509,495,167,-1,509,167,166,-1,493,502,494,-1,494,502,510,-1,494,510,503,-1,176,507,392,-1,164,163,511,-1,511,512,494,-1,182,181,513,-1,246,244,514,-1,514,244,398,-1,393,392,501,-1,501,392,507,-1,501,507,494,-1,494,507,514,-1,494,514,511,-1,511,514,398,-1,511,398,164,-1,512,374,195,-1,183,391,492,-1,195,182,512,-1,512,182,513,-1,512,513,494,-1,494,513,515,-1,494,515,492,-1,492,515,184,-1,492,184,183,-1,516,517,518,-1,519,520,521,-1,521,520,516,-1,521,516,522,-1,522,516,518,-1,523,524,525,-1,526,527,528,-1,528,527,523,-1,528,523,529,-1,529,523,525,-1,530,531,532,-1,533,534,535,-1,536,537,535,-1,535,537,538,-1,535,538,533,-1,535,539,536,-1,536,539,540,-1,536,540,473,-1,473,540,158,-1,473,158,159,-1,477,541,542,-1,158,476,159,-1,159,476,477,-1,159,477,543,-1,543,477,542,-1,543,542,532,-1,532,542,544,-1,532,544,530,-1,456,508,457,-1,457,508,545,-1,457,545,458,-1,536,473,527,-1,527,473,461,-1,527,461,460,-1,460,459,527,-1,527,459,458,-1,527,458,523,-1,523,458,545,-1,523,545,546,-1,537,536,526,-1,526,536,527,-1,528,538,526,-1,526,538,537,-1,533,538,529,-1,529,538,528,-1,525,534,529,-1,529,534,533,-1,535,534,524,-1,524,534,525,-1,520,542,541,-1,547,548,516,-1,523,546,524,-1,524,546,549,-1,516,520,547,-1,547,520,541,-1,547,541,494,-1,494,541,550,-1,494,550,495,-1,495,550,551,-1,495,551,549,-1,549,551,524,-1,524,551,539,-1,524,539,535,-1,544,542,519,-1,519,542,520,-1,521,530,519,-1,519,530,544,-1,522,531,521,-1,521,531,530,-1,532,531,518,-1,518,531,522,-1,517,543,518,-1,518,543,532,-1,516,548,552,-1,552,502,382,-1,516,552,517,-1,396,517,395,-1,395,517,552,-1,395,552,388,-1,388,552,382,-1,159,543,160,-1,160,543,517,-1,160,517,397,-1,397,517,396,-1,
        ]
    }
}
Shape{
    appearance Appearance {
        material  Material 	{
            diffuseColor 0.9686274509803922 0.9686274509803922 0.9686274509803922
            specularColor 0.48627450980392156 0.48627450980392156 0.48627450980392156
            ambientIntensity 0.9686
            transparency 0.0
            shininess 0.5
        }
    }
    geometry IndexedFaceSet {
        ccw TRUE
        solid FALSE
        coord DEF co Coordinate {
            point [
                1.9488 0.1299 0.4724, 2.126 0.1299 0.4724, 1.9488 0.1299 0.5512, 2.1457 0.1299 0.5512, 2.126 0.1299 0.2559, 2.2047 0.1299 0.2559, 2.2047 0.1299 0.4921, -2.126 0.1299 0.2559, -2.126 0.1299 0.4724, -2.2047 0.1299 0.2559, -2.2047 0.1299 0.4921, -1.9488 0.1299 0.4724, -1.9488 0.1299 0.5512, -2.1457 0.1299 0.5512, -2.2047 0.3937 0.2559, -2.126 0.3937 0.2559, -2.2047 0.3937 0.4921, -2.1457 0.3937 0.5512, -1.9488 0.3937 0.5512, -1.9488 0.3937 0.4724, 1.9488 0.3937 0.5512, 1.9488 0.3937 0.4724, 2.1457 0.3937 0.5512, 2.2047 0.3937 0.4921, 2.2047 0.3937 0.2559, 2.126 0.3937 0.2559, -0.8729 -0.2492 -0.1772, -0.8746 -0.2507 0.0, -0.8801 -0.2559 0.0, -0.9055 -0.2742 -0.1772, -0.9055 -0.2742 0.0, -0.9435 -0.2899 0.0, -0.9435 -0.2899 -0.1772, -0.9646 -0.294 0.0, -0.9843 -0.2953 -0.1772, -0.9843 -0.2953 0.0, -1.025 -0.2899 0.0, -1.025 -0.2899 -0.1772, -1.063 -0.2742 0.0, -1.063 -0.2742 -0.1772, -1.0936 -0.2507 0.0, -1.0956 -0.2492 -0.1772, -1.0956 -0.2492 0.0, -1.0993 -0.2443 0.0, -1.1206 -0.2165 -0.1772, -1.1206 -0.2165 0.0, -1.1364 -0.1786 0.0, -1.1364 -0.1786 -0.1772, -1.1417 -0.1378 0.0, -1.1417 -0.1378 -0.1772, -1.1364 -0.097 0.0, -1.1364 -0.097 -0.1772, -1.1206 -0.0591 0.0, -1.1206 -0.0591 -0.1772, -1.1099 -0.0451 0.0, -1.0997 -0.0318 0.0, -1.0956 -0.0264 -0.1772, -1.0956 -0.0264 0.0, -1.063 -0.0014 0.0, -1.063 -0.0014 -0.1772, -1.025 0.0143 0.0, -1.025 0.0143 -0.1772, -0.9843 0.0197 0.0, -0.9843 0.0197 -0.1772, -0.9646 0.0185 0.0, -0.9435 0.0143 -0.1772, -0.8729 -0.0264 0.0, -0.8729 -0.0264 -0.1772, -0.8801 -0.0197 0.0, -0.9055 -0.0014 -0.1772, -0.9055 -0.0014 0.0, -0.9435 0.0143 0.0, -0.8688 -0.0318 0.0, -0.8586 -0.0451 0.0, -0.8479 -0.0591 -0.1772, -0.8479 -0.0591 0.0, -0.8321 -0.097 0.0, -0.8321 -0.097 -0.1772, -0.8268 -0.1378 0.0, -0.8268 -0.1378 -0.1772, -0.8321 -0.1786 0.0, -0.8321 -0.1786 -0.1772, -0.8479 -0.2165 0.0, -0.8479 -0.2165 -0.1772, -0.8692 -0.2443 0.0, -0.8729 -0.2492 0.0, -1.0695 -0.187 -0.2362, -1.0793 -0.1633 -0.2362, -0.9843 -0.1378 -0.2362, -1.0827 -0.1378 -0.2362, -1.0793 -0.1123 -0.2362, -1.0097 -0.2329 -0.2362, -1.0335 -0.223 -0.2362, -1.0538 -0.2074 -0.2362, -0.935 -0.223 -0.2362, -0.9588 -0.2329 -0.2362, -0.9843 -0.2362 -0.2362, -0.8892 -0.1633 -0.2362, -0.899 -0.187 -0.2362, -0.9147 -0.2074 -0.2362, -0.899 -0.0886 -0.2362, -0.8892 -0.1123 -0.2362, -0.8858 -0.1378 -0.2362, -0.9588 -0.0427 -0.2362, -0.935 -0.0526 -0.2362, -0.9147 -0.0682 -0.2362, -1.0335 -0.0526 -0.2362, -1.0097 -0.0427 -0.2362, -0.9843 -0.0394 -0.2362, -1.0695 -0.0886 -0.2362, -1.0538 -0.0682 -0.2362, 1.063 -0.2742 -0.1772, 1.0956 -0.2492 -0.1772, 1.0936 -0.2507 0.0, 1.063 -0.2742 0.0, 1.025 -0.2899 0.0, 1.025 -0.2899 -0.1772, 0.9843 -0.2953 0.0, 0.9843 -0.2953 -0.1772, 0.9646 -0.294 0.0, 0.9435 -0.2899 -0.1772, 0.9435 -0.2899 0.0, 0.9055 -0.2742 0.0, 0.9055 -0.2742 -0.1772, 0.8729 -0.2492 -0.1772, 0.8801 -0.2559 0.0, 0.8746 -0.2507 0.0, 0.8729 -0.2492 0.0, 0.8692 -0.2443 0.0, 0.8479 -0.2165 -0.1772, 0.8479 -0.2165 0.0, 0.8321 -0.1786 0.0, 0.8321 -0.1786 -0.1772, 0.8268 -0.1378 0.0, 0.8268 -0.1378 -0.1772, 0.8321 -0.097 0.0, 0.8321 -0.097 -0.1772, 0.8479 -0.0591 0.0, 0.8479 -0.0591 -0.1772, 0.8586 -0.0451 0.0, 0.8688 -0.0318 0.0, 0.8729 -0.0264 -0.1772, 0.8729 -0.0264 0.0, 0.8801 -0.0197 0.0, 0.9055 -0.0014 -0.1772, 0.9055 -0.0014 0.0, 0.9435 0.0143 0.0, 0.9435 0.0143 -0.1772, 0.9646 0.0185 0.0, 0.9843 0.0197 -0.1772, 0.9843 0.0197 0.0, 1.025 0.0143 0.0, 1.025 0.0143 -0.1772, 1.063 -0.0014 0.0, 1.063 -0.0014 -0.1772, 1.0956 -0.0264 0.0, 1.0956 -0.0264 -0.1772, 1.0997 -0.0318 0.0, 1.1099 -0.0451 0.0, 1.1206 -0.0591 -0.1772, 1.1206 -0.0591 0.0, 1.1364 -0.097 0.0, 1.1364 -0.097 -0.1772, 1.1417 -0.1378 0.0, 1.1417 -0.1378 -0.1772, 1.1364 -0.1786 0.0, 1.1364 -0.1786 -0.1772, 1.1206 -0.2165 0.0, 1.1206 -0.2165 -0.1772, 1.0993 -0.2443 0.0, 1.0956 -0.2492 0.0, 0.899 -0.187 -0.2362, 0.8892 -0.1633 -0.2362, 0.9843 -0.1378 -0.2362, 0.8858 -0.1378 -0.2362, 0.8892 -0.1123 -0.2362, 0.9588 -0.2329 -0.2362, 0.935 -0.223 -0.2362, 0.9147 -0.2074 -0.2362, 1.0335 -0.223 -0.2362, 1.0097 -0.2329 -0.2362, 0.9843 -0.2362 -0.2362, 1.0793 -0.1633 -0.2362, 1.0695 -0.187 -0.2362, 1.0538 -0.2074 -0.2362, 1.0695 -0.0886 -0.2362, 1.0793 -0.1123 -0.2362, 1.0827 -0.1378 -0.2362, 1.0097 -0.0427 -0.2362, 1.0335 -0.0526 -0.2362, 1.0538 -0.0682 -0.2362, 0.935 -0.0526 -0.2362, 0.9588 -0.0427 -0.2362, 0.9843 -0.0394 -0.2362, 0.899 -0.0886 -0.2362, 0.9147 -0.0682 -0.2362
            ]
        }
        coordIndex [
            0,1,2,-1,2,1,3,-1,4,5,1,-1,1,5,6,-1,1,6,3,-1,7,8,9,-1,9,8,10,-1,11,12,8,-1,8,12,13,-1,8,13,10,-1,9,14,7,-1,7,14,15,-1,10,16,9,-1,9,16,14,-1,13,17,10,-1,10,17,16,-1,12,18,13,-1,13,18,17,-1,11,19,12,-1,12,19,18,-1,2,20,0,-1,0,20,21,-1,3,22,2,-1,2,22,20,-1,6,23,3,-1,3,23,22,-1,5,24,6,-1,6,24,23,-1,4,25,5,-1,5,25,24,-1,26,27,28,-1,26,28,29,-1,28,30,29,-1,29,30,31,-1,29,31,32,-1,32,31,33,-1,32,33,34,-1,33,35,34,-1,34,35,36,-1,34,36,37,-1,37,36,38,-1,37,38,39,-1,39,38,40,-1,39,40,41,-1,40,42,41,-1,41,42,43,-1,41,43,44,-1,43,45,44,-1,44,45,46,-1,44,46,47,-1,47,46,48,-1,47,48,49,-1,49,48,50,-1,49,50,51,-1,51,50,52,-1,51,52,53,-1,52,54,53,-1,53,54,55,-1,53,55,56,-1,55,57,56,-1,56,57,58,-1,56,58,59,-1,59,58,60,-1,59,60,61,-1,61,60,62,-1,61,62,63,-1,63,62,64,-1,63,64,65,-1,66,67,68,-1,68,67,69,-1,68,69,70,-1,70,69,65,-1,70,65,71,-1,71,65,64,-1,66,72,67,-1,67,72,73,-1,67,73,74,-1,73,75,74,-1,74,75,76,-1,74,76,77,-1,77,76,78,-1,77,78,79,-1,79,78,80,-1,79,80,81,-1,81,80,82,-1,81,82,83,-1,83,82,84,-1,83,84,26,-1,26,84,85,-1,26,85,27,-1,86,87,88,-1,88,87,89,-1,88,89,90,-1,91,92,88,-1,88,92,93,-1,88,93,86,-1,94,95,88,-1,88,95,96,-1,88,96,91,-1,97,98,88,-1,88,98,99,-1,88,99,94,-1,100,101,88,-1,88,101,102,-1,88,102,97,-1,103,104,88,-1,88,104,105,-1,88,105,100,-1,106,107,88,-1,88,107,108,-1,88,108,103,-1,90,109,88,-1,88,109,110,-1,88,110,106,-1,111,112,113,-1,113,114,111,-1,111,114,115,-1,111,115,116,-1,116,115,117,-1,116,117,118,-1,118,117,119,-1,118,119,120,-1,119,121,120,-1,120,121,122,-1,120,122,123,-1,123,122,124,-1,124,122,125,-1,124,125,126,-1,126,127,124,-1,124,127,128,-1,124,128,129,-1,128,130,129,-1,129,130,131,-1,129,131,132,-1,132,131,133,-1,132,133,134,-1,134,133,135,-1,134,135,136,-1,136,135,137,-1,136,137,138,-1,137,139,138,-1,138,139,140,-1,138,140,141,-1,140,142,141,-1,141,142,143,-1,141,143,144,-1,143,145,144,-1,144,145,146,-1,144,146,147,-1,147,146,148,-1,147,148,149,-1,148,150,149,-1,149,150,151,-1,149,151,152,-1,152,151,153,-1,152,153,154,-1,154,153,155,-1,154,155,156,-1,155,157,156,-1,156,157,158,-1,156,158,159,-1,158,160,159,-1,159,160,161,-1,159,161,162,-1,162,161,163,-1,162,163,164,-1,164,163,165,-1,164,165,166,-1,166,165,167,-1,166,167,168,-1,168,167,169,-1,168,169,112,-1,112,169,170,-1,112,170,113,-1,171,172,173,-1,173,172,174,-1,173,174,175,-1,176,177,173,-1,173,177,178,-1,173,178,171,-1,179,180,173,-1,173,180,181,-1,173,181,176,-1,182,183,173,-1,173,183,184,-1,173,184,179,-1,185,186,173,-1,173,186,187,-1,173,187,182,-1,188,189,173,-1,173,189,190,-1,173,190,185,-1,191,192,173,-1,173,192,193,-1,173,193,188,-1,175,194,173,-1,173,194,195,-1,173,195,191,-1,
        ]
    }
}
Shape{
    appearance Appearance {
        material  Material 	{
            diffuseColor 0.4117647058823529 0.4117647058823529 0.4117647058823529
            specularColor 0.20392156862745098 0.20392156862745098 0.20392156862745098
            ambientIntensity 0.4118
            transparency 0.0
            shininess 0.5
        }
    }
    geometry IndexedFaceSet {
        ccw TRUE
        solid FALSE
        coord DEF co Coordinate {
            point [
                -0.8268 -0.1378 -0.1772, -0.8892 -0.1123 -0.2362, -0.8321 -0.097 -0.1772, -0.899 -0.0886 -0.2362, -0.8479 -0.0591 -0.1772, -0.9147 -0.0682 -0.2362, -0.8729 -0.0264 -0.1772, -0.935 -0.0526 -0.2362, -0.9055 -0.0014 -0.1772, -0.9588 -0.0427 -0.2362, -0.9435 0.0143 -0.1772, -0.9843 -0.0394 -0.2362, -0.9843 0.0197 -0.1772, -1.0097 -0.0427 -0.2362, -1.025 0.0143 -0.1772, -1.0335 -0.0526 -0.2362, -1.063 -0.0014 -0.1772, -1.0538 -0.0682 -0.2362, -1.0956 -0.0264 -0.1772, -1.0695 -0.0886 -0.2362, -1.1206 -0.0591 -0.1772, -1.0793 -0.1123 -0.2362, -1.1364 -0.097 -0.1772, -1.0827 -0.1378 -0.2362, -1.1417 -0.1378 -0.1772, -1.0793 -0.1633 -0.2362, -1.1364 -0.1786 -0.1772, -1.0695 -0.187 -0.2362, -1.1206 -0.2165 -0.1772, -1.0538 -0.2074 -0.2362, -1.0956 -0.2492 -0.1772, -1.0335 -0.223 -0.2362, -1.063 -0.2742 -0.1772, -1.0097 -0.2329 -0.2362, -1.025 -0.2899 -0.1772, -0.9843 -0.2362 -0.2362, -0.9843 -0.2953 -0.1772, -0.9588 -0.2329 -0.2362, -0.9435 -0.2899 -0.1772, -0.935 -0.223 -0.2362, -0.9055 -0.2742 -0.1772, -0.9147 -0.2074 -0.2362, -0.8729 -0.2492 -0.1772, -0.899 -0.187 -0.2362, -0.8479 -0.2165 -0.1772, -0.8892 -0.1633 -0.2362, -0.8321 -0.1786 -0.1772, -0.8858 -0.1378 -0.2362
            ]
        }
        coordIndex [
            0,1,2,-1,2,1,3,-1,2,3,4,-1,4,3,5,-1,4,5,6,-1,6,5,7,-1,6,7,8,-1,8,7,9,-1,8,9,10,-1,10,9,11,-1,10,11,12,-1,12,11,13,-1,12,13,14,-1,14,13,15,-1,14,15,16,-1,16,15,17,-1,16,17,18,-1,18,17,19,-1,18,19,20,-1,20,19,21,-1,20,21,22,-1,22,21,23,-1,22,23,24,-1,24,23,25,-1,24,25,26,-1,26,25,27,-1,26,27,28,-1,28,27,29,-1,28,29,30,-1,30,29,31,-1,30,31,32,-1,32,31,33,-1,32,33,34,-1,34,33,35,-1,34,35,36,-1,36,35,37,-1,36,37,38,-1,38,37,39,-1,38,39,40,-1,40,39,41,-1,40,41,42,-1,42,41,43,-1,42,43,44,-1,44,43,45,-1,44,45,46,-1,46,45,47,-1,46,47,0,-1,0,47,1,-1,
        ]
    }
}
Shape{
    appearance Appearance {
        material  Material 	{
            diffuseColor 0.9686274509803922 0.9686274509803922 0.9686274509803922
            specularColor 0.48627450980392156 0.48627450980392156 0.48627450980392156
            ambientIntensity 0.9686
            transparency 0.0
            shininess 0.5
        }
    }
    geometry IndexedFaceSet {
        ccw TRUE
        solid FALSE
        coord DEF co Coordinate {
            point [
                1.1417 -0.1378 -0.1772, 1.0793 -0.1123 -0.2362, 1.1364 -0.097 -0.1772, 1.0695 -0.0886 -0.2362, 1.1206 -0.0591 -0.1772, 1.0538 -0.0682 -0.2362, 1.0956 -0.0264 -0.1772, 1.0335 -0.0526 -0.2362, 1.063 -0.0014 -0.1772, 1.0097 -0.0427 -0.2362, 1.025 0.0143 -0.1772, 0.9843 -0.0394 -0.2362, 0.9843 0.0197 -0.1772, 0.9588 -0.0427 -0.2362, 0.9435 0.0143 -0.1772, 0.935 -0.0526 -0.2362, 0.9055 -0.0014 -0.1772, 0.9147 -0.0682 -0.2362, 0.8729 -0.0264 -0.1772, 0.899 -0.0886 -0.2362, 0.8479 -0.0591 -0.1772, 0.8892 -0.1123 -0.2362, 0.8321 -0.097 -0.1772, 0.8858 -0.1378 -0.2362, 0.8268 -0.1378 -0.1772, 0.8892 -0.1633 -0.2362, 0.8321 -0.1786 -0.1772, 0.899 -0.187 -0.2362, 0.8479 -0.2165 -0.1772, 0.9147 -0.2074 -0.2362, 0.8729 -0.2492 -0.1772, 0.935 -0.223 -0.2362, 0.9055 -0.2742 -0.1772, 0.9588 -0.2329 -0.2362, 0.9435 -0.2899 -0.1772, 0.9843 -0.2362 -0.2362, 0.9843 -0.2953 -0.1772, 1.0097 -0.2329 -0.2362, 1.025 -0.2899 -0.1772, 1.0335 -0.223 -0.2362, 1.063 -0.2742 -0.1772, 1.0538 -0.2074 -0.2362, 1.0956 -0.2492 -0.1772, 1.0695 -0.187 -0.2362, 1.1206 -0.2165 -0.1772, 1.0793 -0.1633 -0.2362, 1.1364 -0.1786 -0.1772, 1.0827 -0.1378 -0.2362, 0.374 0.2464 0.0, 0.374 0.2464 -0.0004, 0.374 0.3937 0.0, 0.374 0.8661 -0.0004, 0.374 0.3937 0.0591, 0.374 0.8661 0.0591, 0.2165 0.2464 0.0, 0.2165 0.2464 -0.0004, 0.3076 0.2464 0.0, 0.2165 0.3937 0.0, 0.2165 0.3937 0.0591, 0.2165 0.8661 0.0591, 0.2165 0.8661 -0.0004, -0.2165 0.2464 0.0, -0.2165 0.2464 -0.0004, -0.2165 0.3937 0.0, -0.2165 0.8661 -0.0004, -0.2165 0.3937 0.0591, -0.2165 0.8661 0.0591, -0.374 0.2464 -0.0004, -0.374 0.2464 0.0, -0.374 0.3937 0.0, -0.374 0.3937 0.0591, -0.374 0.8661 0.0591, -0.374 0.8661 -0.0004, -0.8064 0.2464 0.0, -0.8064 0.2464 -0.0004, -0.8064 0.3937 0.0, -0.8064 0.8661 -0.0004, -0.8064 0.3937 0.0591, -0.8064 0.8661 0.0591, -0.9652 0.2464 -0.0004, -0.9652 0.2464 0.0, -0.9652 0.3937 0.0, -0.9652 0.3937 0.0591, -0.9652 0.8661 0.0591, -0.9652 0.8661 -0.0004, -1.3976 0.2464 0.0, -1.3976 0.2464 -0.0004, -1.3976 0.3937 0.0, -1.3976 0.8661 -0.0004, -1.3976 0.3937 0.0591, -1.3976 0.8661 0.0591, -1.5551 0.2464 -0.0004, -1.5551 0.2464 0.0, -1.5551 0.3937 0.0, -1.5551 0.3937 0.0591, -1.5551 0.8661 0.0591, -1.5551 0.8661 -0.0004, 0.9646 0.2464 0.0, 0.9646 0.2464 -0.0004, 0.9646 0.3937 0.0, 0.9646 0.8661 -0.0004, 0.9646 0.3937 0.0591, 0.9646 0.8661 0.0591, 0.8071 0.2464 -0.0004, 0.8071 0.2464 0.0, 0.8071 0.3937 0.0, 0.8071 0.3937 0.0591, 0.8071 0.8661 0.0591, 0.8071 0.8661 -0.0004, 1.5551 0.2464 0.0, 1.5551 0.2464 -0.0004, 1.5551 0.3937 0.0, 1.5551 0.8661 -0.0004, 1.5551 0.3937 0.0591, 1.5551 0.8661 0.0591, 1.3976 0.2464 -0.0004, 1.3976 0.2464 0.0, 1.3976 0.3937 0.0, 1.3976 0.3937 0.0591, 1.3976 0.8661 0.0591, 1.3976 0.8661 -0.0004, 0.8801 -0.2559 0.0, 0.9055 -0.2742 0.0, 0.9646 -0.2559 0.0, 0.9435 -0.2899 0.0, 0.9646 -0.294 0.0, 0.8071 -0.374 0.0787, 0.9646 -0.374 0.0787, 0.8071 -0.374 0.0, 0.9646 -0.374 0.0, 0.9646 -0.2559 0.0787, 0.8071 -0.2559 0.0787, 0.8071 -0.2559 0.0, 0.9646 0.0185 0.0, 0.9435 0.0143 0.0, 0.9646 -0.0197 0.0, 0.9055 -0.0014 0.0, 0.8801 -0.0197 0.0, 0.9646 0.0984 0.0787, 0.8071 0.0984 0.0787, 0.9646 0.0984 0.0, 0.8071 0.0984 0.0, 0.8071 -0.0197 0.0787, 0.8071 -0.0197 0.0, 0.9646 -0.0197 0.0787, -0.9646 -0.294 0.0, -0.9435 -0.2899 0.0, -0.9646 -0.2559 0.0, -0.9055 -0.2742 0.0, -0.8801 -0.2559 0.0, -0.9646 -0.374 0.0787, -0.8071 -0.374 0.0787, -0.9646 -0.374 0.0, -0.8071 -0.374 0.0, -0.8071 -0.2559 0.0787, -0.8071 -0.2559 0.0, -0.9646 -0.2559 0.0787, -0.8801 -0.0197 0.0, -0.9055 -0.0014 0.0, -0.9646 -0.0197 0.0, -0.9435 0.0143 0.0, -0.9646 0.0185 0.0, -0.8071 0.0984 0.0787, -0.9646 0.0984 0.0787, -0.8071 0.0984 0.0, -0.9646 0.0984 0.0, -0.9646 -0.0197 0.0787, -0.8071 -0.0197 0.0787, -0.8071 -0.0197 0.0, -1.5551 -0.374 0.0787, -1.3976 -0.374 0.0787, -1.5551 -0.374 0.0, -1.3976 -0.374 0.0, -1.3976 -0.2559 0.0787, -1.3976 -0.2559 0.0, -1.5551 -0.2559 0.0787, -1.5551 -0.2559 0.0, -1.3976 0.0984 0.0787, -1.5551 0.0984 0.0787, -1.3976 0.0984 0.0, -1.5551 0.0984 0.0, -1.5551 -0.0197 0.0787, -1.5551 -0.0197 0.0, -1.3976 -0.0197 0.0787, -1.3976 -0.0197 0.0, -0.374 -0.374 0.0787, -0.2165 -0.374 0.0787, -0.374 -0.374 0.0, -0.2165 -0.374 0.0, -0.2165 -0.2559 0.0787, -0.2165 -0.2559 0.0, -0.374 -0.2559 0.0787, -0.374 -0.2559 0.0, -0.2165 0.0984 0.0787, -0.374 0.0984 0.0787, -0.2165 0.0984 0.0, -0.374 0.0984 0.0, -0.374 -0.0197 0.0787, -0.374 -0.0197 0.0, -0.2165 -0.0197 0.0787, -0.2165 -0.0197 0.0, 0.2165 -0.374 0.0, 0.2165 -0.374 0.0787, 0.3076 -0.374 0.0, 0.374 -0.374 0.0787, 0.374 -0.374 0.0, 0.374 -0.2559 0.0787, 0.374 -0.2559 0.0, 0.2165 -0.2559 0.0787, 0.2165 -0.2559 0.0, 0.3076 -0.2559 0.0, 0.2165 0.0984 0.0787, 0.2165 0.0984 0.0, 0.374 0.0984 0.0787, 0.3076 0.0984 0.0, 0.374 0.0984 0.0, 0.2165 -0.0197 0.0787, 0.2165 -0.0197 0.0, 0.3076 -0.0197 0.0, 0.374 -0.0197 0.0787, 0.374 -0.0197 0.0, 1.3976 -0.374 0.0787, 1.5551 -0.374 0.0787, 1.3976 -0.374 0.0, 1.5551 -0.374 0.0, 1.5551 -0.2559 0.0787, 1.5551 -0.2559 0.0, 1.3976 -0.2559 0.0787, 1.3976 -0.2559 0.0, 1.5551 -0.0197 0.0787, 1.5551 0.0984 0.0787, 1.5551 -0.0197 0.0, 1.5551 0.0984 0.0, 1.3976 0.0984 0.0787, 1.3976 0.0984 0.0, 1.3976 -0.0197 0.0787, 1.3976 -0.0197 0.0, 0.316 -0.2215 -0.0004, 0.316 -0.2431 -0.0004, 0.316 -0.2215 0.0, 0.316 -0.2431 0.0, 0.3904 -0.2215 -0.0004, 0.3904 -0.2215 0.0, 0.3904 -0.0463 -0.0004, 0.3904 -0.0463 0.0, 0.4168 -0.0463 0.0, 0.4168 -0.0463 -0.0004, 0.3954 -0.0463 0.0, 0.4168 -0.2431 -0.0004, 0.4168 -0.2431 0.0, 0.3954 -0.2431 0.0, 0.1528 -0.2113 -0.0004, 0.1528 -0.2329 -0.0004, 0.1528 -0.2113 0.0, 0.1528 -0.2329 0.0, 0.1563 -0.2133 0.0, 0.1563 -0.2133 -0.0004, 0.1772 -0.221 0.0, 0.1772 -0.221 -0.0004, 0.2033 -0.2239 0.0, 0.2033 -0.2239 -0.0004, 0.2217 -0.2219 0.0, 0.2217 -0.2219 -0.0004, 0.236 -0.2166 0.0, 0.236 -0.2166 -0.0004, 0.2481 -0.2084 0.0, 0.2481 -0.2084 -0.0004, 0.2573 -0.1987 0.0, 0.2573 -0.1987 -0.0004, 0.2655 -0.185 0.0, 0.2655 -0.185 -0.0004, 0.2708 -0.1681 0.0, 0.2708 -0.1681 -0.0004, 0.2728 -0.1468 0.0, 0.2728 -0.1468 -0.0004, 0.2719 -0.1315 0.0, 0.2719 -0.1315 -0.0004, 0.2666 -0.1104 0.0, 0.2666 -0.1104 -0.0004, 0.2585 -0.0952 0.0, 0.2585 -0.0952 -0.0004, 0.2466 -0.0821 0.0, 0.2466 -0.0821 -0.0004, 0.233 -0.073 0.0, 0.233 -0.073 -0.0004, 0.2183 -0.0677 0.0, 0.2183 -0.0677 -0.0004, 0.1989 -0.0655 0.0, 0.1989 -0.0655 -0.0004, 0.1749 -0.0686 0.0, 0.1749 -0.0686 -0.0004, 0.1528 -0.0781 0.0, 0.1528 -0.0781 -0.0004, 0.1528 -0.0517 -0.0004, 0.1528 -0.0517 0.0, 0.1991 -0.0439 0.0, 0.1991 -0.0439 -0.0004, 0.1817 -0.0451 0.0, 0.1755 -0.0455 -0.0004, 0.1755 -0.0455 0.0, 0.2189 -0.0455 -0.0004, 0.2138 -0.0451 0.0, 0.2189 -0.0455 0.0, 0.2408 -0.0519 0.0, 0.2408 -0.0519 -0.0004, 0.2595 -0.0626 0.0, 0.2595 -0.0626 -0.0004, 0.2773 -0.0797 0.0, 0.2773 -0.0797 -0.0004, 0.2888 -0.0981 0.0, 0.2888 -0.0981 -0.0004, 0.2964 -0.1204 0.0, 0.2964 -0.1204 -0.0004, 0.2992 -0.1484 0.0, 0.2992 -0.1484 -0.0004, 0.2069 -0.2455 0.0, 0.2069 -0.2455 -0.0004, 0.2185 -0.2443 0.0, 0.2312 -0.243 -0.0004, 0.2312 -0.243 0.0, 0.2503 -0.2364 -0.0004, 0.2503 -0.2364 0.0, 0.2661 -0.2263 -0.0004, 0.2661 -0.2263 0.0, 0.2809 -0.2108 -0.0004, 0.2809 -0.2108 0.0, 0.2914 -0.1921 -0.0004, 0.2914 -0.1921 0.0, 0.2973 -0.1712 -0.0004, 0.2973 -0.1712 0.0, 0.1738 -0.2415 -0.0004, 0.2015 -0.2454 0.0, 0.2015 -0.2454 -0.0004, 0.1936 -0.2443 0.0, 0.1738 -0.2415 0.0, 0.0087 -0.2215 -0.0004, 0.0087 -0.2431 -0.0004, 0.0087 -0.2215 0.0, 0.0087 -0.2431 0.0, 0.088 -0.2215 -0.0004, 0.088 -0.2215 0.0, 0.088 -0.1543 -0.0004, 0.088 -0.1543 0.0, 0.0183 -0.1543 -0.0004, 0.0183 -0.1543 0.0, 0.0183 -0.1327 -0.0004, 0.0183 -0.1327 0.0, 0.088 -0.1327 -0.0004, 0.088 -0.1327 0.0, 0.088 -0.0679 -0.0004, 0.088 -0.0679 0.0, 0.0135 -0.0679 -0.0004, 0.0135 -0.0679 0.0, 0.0135 -0.0463 -0.0004, 0.0135 -0.0463 0.0, 0.1144 -0.0463 -0.0004, 0.1144 -0.0463 0.0, 0.1144 -0.2431 -0.0004, 0.1144 -0.2431 0.0, -0.1814 -0.1043 -0.0004, -0.1723 -0.0874 -0.0004, -0.1486 -0.0955 -0.0004, -0.1583 -0.0719 -0.0004, -0.139 -0.0853 -0.0004, -0.1581 -0.0718 -0.0004, -0.1247 -0.076 -0.0004, -0.1367 -0.0574 -0.0004, -0.1084 -0.0704 -0.0004, -0.1137 -0.0493 -0.0004, -0.0851 -0.0679 -0.0004, -0.0852 -0.0463 -0.0004, -0.0561 -0.0679 -0.0004, -0.0297 -0.0463 -0.0004, -0.0561 -0.2215 -0.0004, -0.0297 -0.2431 -0.0004, -0.084 -0.2215 -0.0004, -0.0832 -0.2431 -0.0004, -0.1048 -0.2196 -0.0004, -0.1076 -0.241 -0.0004, -0.1214 -0.2144 -0.0004, -0.1302 -0.2342 -0.0004, -0.1348 -0.2064 -0.0004, -0.1508 -0.2223 -0.0004, -0.1458 -0.1955 -0.0004, -0.167 -0.2068 -0.0004, -0.1541 -0.182 -0.0004, -0.1783 -0.1892 -0.0004, -0.1599 -0.1635 -0.0004, -0.1854 -0.1686 -0.0004, -0.1617 -0.1428 -0.0004, -0.1881 -0.1422 -0.0004, -0.16 -0.1232 -0.0004, -0.1867 -0.1237 -0.0004, -0.1554 -0.1076 -0.0004, -0.0832 -0.2431 0.0, -0.0297 -0.2431 0.0, -0.1076 -0.241 0.0, -0.1302 -0.2342 0.0, -0.1508 -0.2223 0.0, -0.167 -0.2068 0.0, -0.1783 -0.1892 0.0, -0.1854 -0.1686 0.0, -0.1881 -0.1422 0.0, -0.1867 -0.1237 0.0, -0.1814 -0.1043 0.0, -0.1723 -0.0874 0.0, -0.1583 -0.0719 0.0, -0.1581 -0.0718 0.0, -0.1367 -0.0574 0.0, -0.1137 -0.0493 0.0, -0.0852 -0.0463 0.0, -0.0297 -0.0463 0.0, -0.0851 -0.0679 0.0, -0.0561 -0.0679 0.0, -0.0561 -0.2215 0.0, -0.084 -0.2215 0.0, -0.1617 -0.1428 0.0, -0.1599 -0.1635 0.0, -0.1541 -0.182 0.0, -0.1458 -0.1955 0.0, -0.1348 -0.2064 0.0, -0.1214 -0.2144 0.0, -0.1048 -0.2196 0.0, -0.1084 -0.0704 0.0, -0.1247 -0.076 0.0, -0.139 -0.0853 0.0, -0.1486 -0.0955 0.0, -0.1554 -0.1076 0.0, -0.16 -0.1232 0.0
            ]
        }
        coordIndex [
            0,1,2,-1,2,1,3,-1,2,3,4,-1,4,3,5,-1,4,5,6,-1,6,5,7,-1,6,7,8,-1,8,7,9,-1,8,9,10,-1,10,9,11,-1,10,11,12,-1,12,11,13,-1,12,13,14,-1,14,13,15,-1,14,15,16,-1,16,15,17,-1,16,17,18,-1,18,17,19,-1,18,19,20,-1,20,19,21,-1,20,21,22,-1,22,21,23,-1,22,23,24,-1,24,23,25,-1,24,25,26,-1,26,25,27,-1,26,27,28,-1,28,27,29,-1,28,29,30,-1,30,29,31,-1,30,31,32,-1,32,31,33,-1,32,33,34,-1,34,33,35,-1,34,35,36,-1,36,35,37,-1,36,37,38,-1,38,37,39,-1,38,39,40,-1,40,39,41,-1,40,41,42,-1,42,41,43,-1,42,43,44,-1,44,43,45,-1,44,45,46,-1,46,45,47,-1,46,47,0,-1,0,47,1,-1,48,49,50,-1,50,49,51,-1,50,51,52,-1,52,51,53,-1,54,55,56,-1,56,55,49,-1,56,49,48,-1,57,58,59,-1,59,60,57,-1,57,60,55,-1,57,55,54,-1,53,51,59,-1,59,51,60,-1,55,60,49,-1,49,60,51,-1,53,59,52,-1,52,59,58,-1,61,62,63,-1,63,62,64,-1,63,64,65,-1,65,64,66,-1,67,62,68,-1,68,62,61,-1,69,70,71,-1,71,72,69,-1,69,72,67,-1,69,67,68,-1,66,64,71,-1,71,64,72,-1,67,72,62,-1,62,72,64,-1,66,71,65,-1,65,71,70,-1,73,74,75,-1,75,74,76,-1,75,76,77,-1,77,76,78,-1,79,74,80,-1,80,74,73,-1,81,82,83,-1,83,84,81,-1,81,84,79,-1,81,79,80,-1,78,76,83,-1,83,76,84,-1,79,84,74,-1,74,84,76,-1,78,83,77,-1,77,83,82,-1,85,86,87,-1,87,86,88,-1,87,88,89,-1,89,88,90,-1,91,86,92,-1,92,86,85,-1,93,94,95,-1,95,96,93,-1,93,96,91,-1,93,91,92,-1,90,88,95,-1,95,88,96,-1,91,96,86,-1,86,96,88,-1,90,95,89,-1,89,95,94,-1,97,98,99,-1,99,98,100,-1,99,100,101,-1,101,100,102,-1,103,98,104,-1,104,98,97,-1,105,106,107,-1,107,108,105,-1,105,108,103,-1,105,103,104,-1,102,100,107,-1,107,100,108,-1,103,108,98,-1,98,108,100,-1,102,107,101,-1,101,107,106,-1,109,110,111,-1,111,110,112,-1,111,112,113,-1,113,112,114,-1,115,110,116,-1,116,110,109,-1,117,118,119,-1,119,120,117,-1,117,120,115,-1,117,115,116,-1,114,112,119,-1,119,112,120,-1,115,120,110,-1,110,120,112,-1,114,119,113,-1,113,119,118,-1,121,122,123,-1,123,122,124,-1,123,124,125,-1,126,127,128,-1,128,127,129,-1,129,127,125,-1,125,127,130,-1,125,130,123,-1,123,130,121,-1,121,130,131,-1,121,131,132,-1,131,126,132,-1,132,126,128,-1,131,130,126,-1,126,130,127,-1,133,134,135,-1,135,134,136,-1,135,136,137,-1,138,139,140,-1,140,139,141,-1,139,142,141,-1,141,142,143,-1,144,135,142,-1,142,135,137,-1,142,137,143,-1,135,144,133,-1,133,144,138,-1,133,138,140,-1,144,142,138,-1,138,142,139,-1,145,146,147,-1,147,146,148,-1,147,148,149,-1,150,151,152,-1,152,151,153,-1,151,154,153,-1,153,154,155,-1,156,147,154,-1,154,147,149,-1,154,149,155,-1,147,156,145,-1,145,156,150,-1,145,150,152,-1,156,154,150,-1,150,154,151,-1,157,158,159,-1,159,158,160,-1,159,160,161,-1,162,163,164,-1,164,163,165,-1,165,163,161,-1,161,163,166,-1,161,166,159,-1,159,166,157,-1,157,166,167,-1,157,167,168,-1,167,162,168,-1,168,162,164,-1,167,166,162,-1,162,166,163,-1,169,170,171,-1,171,170,172,-1,170,173,172,-1,172,173,174,-1,173,175,174,-1,174,175,176,-1,175,169,176,-1,176,169,171,-1,175,173,169,-1,169,173,170,-1,177,178,179,-1,179,178,180,-1,178,181,180,-1,180,181,182,-1,181,183,182,-1,182,183,184,-1,183,177,184,-1,184,177,179,-1,183,181,177,-1,177,181,178,-1,185,186,187,-1,187,186,188,-1,186,189,188,-1,188,189,190,-1,189,191,190,-1,190,191,192,-1,191,185,192,-1,192,185,187,-1,191,189,185,-1,185,189,186,-1,193,194,195,-1,195,194,196,-1,194,197,196,-1,196,197,198,-1,197,199,198,-1,198,199,200,-1,199,193,200,-1,200,193,195,-1,199,197,193,-1,193,197,194,-1,201,202,203,-1,203,202,204,-1,203,204,205,-1,204,206,205,-1,205,206,207,-1,208,209,206,-1,206,209,210,-1,206,210,207,-1,208,202,209,-1,209,202,201,-1,208,206,202,-1,202,206,204,-1,211,212,213,-1,213,212,214,-1,213,214,215,-1,211,216,212,-1,212,216,217,-1,217,216,218,-1,218,216,219,-1,218,219,220,-1,219,213,220,-1,220,213,215,-1,219,216,213,-1,213,216,211,-1,221,222,223,-1,223,222,224,-1,222,225,224,-1,224,225,226,-1,225,227,226,-1,226,227,228,-1,227,221,228,-1,228,221,223,-1,227,225,221,-1,221,225,222,-1,229,230,231,-1,231,230,232,-1,230,233,232,-1,232,233,234,-1,233,235,234,-1,234,235,236,-1,235,229,236,-1,236,229,231,-1,235,233,229,-1,229,233,230,-1,237,238,239,-1,239,238,240,-1,241,237,242,-1,242,237,239,-1,243,241,244,-1,244,241,242,-1,245,246,247,-1,247,246,243,-1,247,243,244,-1,248,246,249,-1,249,246,245,-1,240,238,250,-1,250,238,248,-1,250,248,249,-1,243,246,241,-1,241,246,248,-1,241,248,237,-1,237,248,238,-1,251,252,253,-1,253,252,254,-1,251,253,255,-1,251,255,256,-1,256,255,257,-1,256,257,258,-1,258,257,259,-1,258,259,260,-1,260,259,261,-1,260,261,262,-1,262,261,263,-1,262,263,264,-1,264,263,265,-1,264,265,266,-1,266,265,267,-1,266,267,268,-1,268,267,269,-1,268,269,270,-1,270,269,271,-1,270,271,272,-1,272,271,273,-1,272,273,274,-1,274,273,275,-1,274,275,276,-1,276,275,277,-1,276,277,278,-1,278,277,279,-1,278,279,280,-1,280,279,281,-1,280,281,282,-1,282,281,283,-1,282,283,284,-1,284,283,285,-1,284,285,286,-1,286,285,287,-1,286,287,288,-1,288,287,289,-1,288,289,290,-1,290,289,291,-1,290,291,292,-1,293,292,294,-1,294,292,291,-1,295,296,297,-1,297,296,298,-1,297,298,299,-1,299,298,293,-1,299,293,294,-1,300,296,301,-1,301,296,295,-1,301,302,300,-1,300,302,303,-1,300,303,304,-1,304,303,305,-1,304,305,306,-1,306,305,307,-1,306,307,308,-1,308,307,309,-1,308,309,310,-1,310,309,311,-1,310,311,312,-1,312,311,313,-1,312,313,314,-1,315,316,317,-1,317,316,318,-1,317,318,319,-1,319,318,320,-1,319,320,321,-1,321,320,322,-1,321,322,323,-1,323,322,324,-1,323,324,325,-1,325,324,326,-1,325,326,327,-1,327,326,328,-1,327,328,329,-1,329,328,314,-1,329,314,313,-1,254,252,330,-1,316,315,331,-1,316,331,332,-1,332,331,333,-1,332,333,330,-1,330,333,334,-1,330,334,254,-1,262,316,260,-1,260,316,332,-1,260,332,258,-1,258,332,330,-1,258,330,256,-1,256,330,252,-1,256,252,251,-1,292,293,290,-1,290,293,298,-1,290,298,288,-1,288,298,296,-1,288,296,286,-1,286,296,300,-1,286,300,284,-1,284,300,304,-1,284,304,282,-1,282,304,306,-1,282,306,280,-1,280,306,308,-1,280,308,278,-1,278,308,310,-1,278,310,276,-1,276,310,312,-1,276,312,274,-1,274,312,314,-1,274,314,272,-1,272,314,328,-1,272,328,270,-1,270,328,326,-1,270,326,268,-1,268,326,324,-1,268,324,266,-1,266,324,322,-1,266,322,264,-1,264,322,320,-1,264,320,262,-1,262,320,318,-1,262,318,316,-1,335,336,337,-1,337,336,338,-1,339,335,340,-1,340,335,337,-1,341,339,342,-1,342,339,340,-1,343,341,344,-1,344,341,342,-1,345,343,346,-1,346,343,344,-1,347,345,348,-1,348,345,346,-1,349,347,350,-1,350,347,348,-1,351,349,352,-1,352,349,350,-1,353,351,354,-1,354,351,352,-1,355,353,356,-1,356,353,354,-1,357,355,358,-1,358,355,356,-1,336,357,338,-1,338,357,358,-1,357,336,335,-1,335,339,357,-1,357,339,341,-1,357,341,355,-1,351,353,349,-1,349,353,355,-1,349,355,347,-1,347,355,341,-1,347,341,345,-1,345,341,343,-1,359,360,361,-1,361,360,362,-1,361,362,363,-1,363,362,364,-1,363,364,365,-1,365,364,366,-1,365,366,367,-1,367,366,368,-1,367,368,369,-1,369,368,370,-1,369,370,371,-1,371,370,372,-1,371,372,373,-1,373,372,374,-1,373,374,375,-1,375,374,376,-1,375,376,377,-1,377,376,378,-1,377,378,379,-1,379,378,380,-1,379,380,381,-1,381,380,382,-1,381,382,383,-1,383,382,384,-1,383,384,385,-1,385,384,386,-1,385,386,387,-1,387,386,388,-1,387,388,389,-1,389,388,390,-1,389,390,391,-1,391,390,392,-1,391,392,393,-1,393,392,359,-1,393,359,361,-1,376,374,394,-1,394,374,395,-1,376,394,396,-1,376,396,378,-1,378,396,397,-1,378,397,380,-1,380,397,398,-1,380,398,382,-1,382,398,399,-1,382,399,384,-1,384,399,400,-1,384,400,386,-1,386,400,401,-1,386,401,388,-1,388,401,402,-1,388,402,390,-1,390,402,403,-1,390,403,392,-1,392,403,404,-1,392,404,359,-1,359,404,405,-1,359,405,360,-1,360,405,406,-1,360,406,362,-1,362,406,407,-1,362,407,364,-1,364,407,408,-1,364,408,366,-1,366,408,409,-1,366,409,368,-1,368,409,410,-1,368,410,370,-1,372,370,411,-1,411,370,410,-1,374,372,395,-1,395,372,411,-1,369,371,412,-1,412,371,413,-1,371,373,413,-1,413,373,414,-1,373,375,414,-1,414,375,415,-1,389,416,417,-1,389,417,387,-1,387,417,418,-1,387,418,385,-1,385,418,419,-1,385,419,383,-1,383,419,420,-1,383,420,381,-1,381,420,421,-1,381,421,379,-1,379,421,422,-1,379,422,377,-1,377,422,415,-1,377,415,375,-1,369,412,423,-1,369,423,367,-1,367,423,424,-1,367,424,365,-1,365,424,425,-1,365,425,363,-1,363,425,426,-1,363,426,361,-1,361,426,427,-1,361,427,393,-1,393,427,428,-1,393,428,391,-1,391,428,416,-1,391,416,389,-1,
        ]
    }
}
Shape{
    appearance Appearance {
        material  Material 	{
            diffuseColor 0.4117647058823529 0.4117647058823529 0.4117647058823529
            specularColor 0.20392156862745098 0.20392156862745098 0.20392156862745098
            ambientIntensity 0.4118
            transparency 0.0
            shininess 0.5
        }
    }
    geometry IndexedFaceSet {
        ccw TRUE
        solid FALSE
        coord DEF co Coordinate {
            point [
                -0.0561 -0.0679 0.0, -0.0561 -0.2215 0.0, -0.0851 -0.0679 0.0, -0.084 -0.2215 0.0, -0.1048 -0.2196 0.0, -0.1617 -0.1428 0.0, -0.16 -0.1232 0.0, -0.1554 -0.1076 0.0, -0.1084 -0.0704 0.0, -0.1214 -0.2144 0.0, -0.1348 -0.2064 0.0, -0.1458 -0.1955 0.0, -0.1541 -0.182 0.0, -0.1599 -0.1635 0.0, -0.1486 -0.0955 0.0, -0.139 -0.0853 0.0, -0.1247 -0.076 0.0
            ]
        }
        coordIndex [
            0,1,2,-1,2,1,3,-1,2,3,4,-1,5,6,2,-1,2,6,7,-1,2,7,8,-1,4,9,2,-1,2,9,10,-1,2,10,11,-1,11,12,2,-1,2,12,13,-1,2,13,5,-1,14,15,7,-1,7,15,16,-1,7,16,8,-1,
        ]
    }
}
Shape{
    appearance Appearance {
        material  Material 	{
            diffuseColor 0.9686274509803922 0.9686274509803922 0.9686274509803922
            specularColor 0.48627450980392156 0.48627450980392156 0.48627450980392156
            ambientIntensity 0.9686
            transparency 0.0
            shininess 0.5
        }
    }
    geometry IndexedFaceSet {
        ccw TRUE
        solid FALSE
        coord DEF co Coordinate {
            point [
                -0.2568 -0.1663 -0.0004, -0.2501 -0.1879 -0.0004, -0.3226 -0.1663 -0.0004, -0.3314 -0.1879 -0.0004, -0.2861 -0.0841 -0.0004, -0.2769 -0.0463 -0.0004, -0.2025 -0.2431 -0.0004, -0.2313 -0.2431 -0.0004, -0.288 -0.0773 -0.0004, -0.2893 -0.0703 -0.0004, -0.3033 -0.0463 -0.0004, -0.2899 -0.0703 -0.0004, -0.2912 -0.0772 -0.0004, -0.293 -0.0841 -0.0004, -0.3802 -0.2431 -0.0004, -0.3514 -0.2431 -0.0004, -0.3033 -0.0463 0.0, -0.3771 -0.2352 0.0, -0.3802 -0.2431 0.0, -0.2769 -0.0463 0.0, -0.2025 -0.2431 0.0, -0.2313 -0.2431 0.0, -0.2501 -0.1879 0.0, -0.3314 -0.1879 0.0, -0.3514 -0.2431 0.0, -0.3771 -0.2431 0.0, -0.2568 -0.1663 0.0, -0.3226 -0.1663 0.0, -0.293 -0.0841 0.0, -0.2899 -0.0703 0.0, -0.2912 -0.0772 0.0, -0.2893 -0.0703 0.0, -0.2861 -0.0841 0.0, -0.288 -0.0773 0.0
            ]
        }
        coordIndex [
            0,1,2,-1,2,1,3,-1,4,5,0,-1,0,5,6,-1,0,6,1,-1,1,6,7,-1,4,8,5,-1,5,8,9,-1,5,9,10,-1,10,9,11,-1,10,11,12,-1,12,13,10,-1,10,13,2,-1,10,2,14,-1,14,2,3,-1,14,3,15,-1,16,10,17,-1,17,10,14,-1,17,14,18,-1,5,10,19,-1,19,10,16,-1,6,5,20,-1,20,5,19,-1,7,6,21,-1,21,6,20,-1,1,7,22,-1,22,7,21,-1,3,1,23,-1,23,1,22,-1,15,3,24,-1,24,3,23,-1,18,14,25,-1,25,14,15,-1,25,15,24,-1,0,2,26,-1,26,2,27,-1,2,13,27,-1,27,13,28,-1,11,29,30,-1,11,30,12,-1,12,30,28,-1,12,28,13,-1,11,9,29,-1,29,9,31,-1,4,32,33,-1,4,33,8,-1,8,33,31,-1,8,31,9,-1,4,0,32,-1,32,0,26,-1,
        ]
    }
}
Shape{
    appearance Appearance {
        material  Material 	{
            diffuseColor 0.4117647058823529 0.4117647058823529 0.4117647058823529
            specularColor 0.20392156862745098 0.20392156862745098 0.20392156862745098
            ambientIntensity 0.4118
            transparency 0.0
            shininess 0.5
        }
    }
    geometry IndexedFaceSet {
        ccw TRUE
        solid FALSE
        coord DEF co Coordinate {
            point [
                -0.2568 -0.1663 0.0, -0.3226 -0.1663 0.0, -0.2861 -0.0841 0.0, -0.293 -0.0841 0.0, -0.288 -0.0773 0.0, -0.2912 -0.0772 0.0, -0.2893 -0.0703 0.0, -0.2899 -0.0703 0.0, 0.8465 -0.6102 0.4724, 0.8465 -0.6102 0.2522, 0.8465 -0.6693 0.4724, 0.8465 -0.6693 0.2522, -0.0763 -0.6693 0.2522, -0.0763 -0.6102 0.2522, -0.8465 -0.6102 0.2522, -0.8465 -0.6102 0.4724, -0.8465 -0.6693 0.2522, -0.8465 -0.6693 0.4724, -0.0763 -0.6102 0.4138, -0.47 -0.6102 0.2522, -0.47 -0.6102 0.4138, -0.0173 -1.2008 0.4724, -0.0173 -1.2008 0.0, -0.0173 -0.7283 0.4724, -0.0173 -0.7283 0.0, -0.5291 -0.7283 0.4724, -0.5291 -1.2008 0.4724, -0.5271 -1.2161 0.4724, -0.5212 -1.2303 0.4724, -0.47 -1.2598 0.4724, -0.5118 -1.2425 0.4724, -0.4853 -1.2578 0.4724, -0.4996 -1.2519 0.4724, -0.0252 -1.2303 0.4724, -0.0193 -1.2161 0.4724, -0.0763 -1.2598 0.4724, -0.0346 -1.2425 0.4724, -0.0611 -1.2578 0.4724, -0.0468 -1.2519 0.4724, -0.5291 -0.7283 0.0, -0.5291 -1.2008 0.0, -0.0763 -1.2598 0.0, -0.1953 -1.2598 0.0, -0.3771 -1.2598 0.0, -0.47 -1.2598 0.0, -0.47 -0.7283 0.2522, -0.47 -0.7283 0.4138, -0.47 -0.6693 0.2522, -0.0611 -1.2578 0.0, -0.0468 -1.2519 0.0, -0.0346 -1.2425 0.0, -0.0252 -1.2303 0.0, -0.0193 -1.2161 0.0, -0.4853 -1.2578 0.0, -0.4996 -1.2519 0.0, -0.5118 -1.2425 0.0, -0.5212 -1.2303 0.0, -0.5271 -1.2161 0.0, -0.0763 -0.7283 0.2522
            ]
        }
        coordIndex [
            0,1,2,-1,2,1,3,-1,2,3,4,-1,4,3,5,-1,4,5,6,-1,6,5,7,-1,8,9,10,-1,10,9,11,-1,12,11,13,-1,13,11,9,-1,14,15,16,-1,16,15,17,-1,18,13,9,-1,15,14,19,-1,19,20,15,-1,15,20,18,-1,15,18,8,-1,8,18,9,-1,21,22,23,-1,23,22,24,-1,23,25,21,-1,21,25,26,-1,27,28,29,-1,29,28,30,-1,29,30,31,-1,31,30,32,-1,33,34,35,-1,35,34,21,-1,35,21,29,-1,29,21,26,-1,29,26,27,-1,33,35,36,-1,36,35,37,-1,36,37,38,-1,39,40,25,-1,25,40,26,-1,41,35,42,-1,42,35,29,-1,42,29,43,-1,43,29,44,-1,45,46,47,-1,47,46,20,-1,47,20,19,-1,35,41,48,-1,35,48,37,-1,37,48,49,-1,37,49,38,-1,38,49,50,-1,38,50,36,-1,36,50,51,-1,36,51,33,-1,33,51,52,-1,33,52,34,-1,34,52,22,-1,34,22,21,-1,44,29,31,-1,44,31,53,-1,53,31,32,-1,53,32,54,-1,54,32,30,-1,54,30,55,-1,55,30,28,-1,55,28,56,-1,56,28,27,-1,56,27,57,-1,57,27,26,-1,57,26,40,-1,58,45,12,-1,12,45,47,-1,
        ]
    }
}