G04 #@! TF.GenerationSoftware,KiCad,Pcbnew,9.0.9*
G04 #@! TF.CreationDate,2026-08-06T00:30:07+02:00*
G04 #@! TF.ProjectId,Slimme_meter_Sim,536c696d-6d65-45f6-9d65-7465725f5369,rev?*
G04 #@! TF.SameCoordinates,Original*
G04 #@! TF.FileFunction,Copper,L2,Bot*
G04 #@! TF.FilePolarity,Positive*
%FSLAX46Y46*%
G04 Gerber Fmt 4.6, Leading zero omitted, Abs format (unit mm)*
G04 Created by KiCad (PCBNEW 9.0.9) date 2026-08-06 00:30:07*
%MOMM*%
%LPD*%
G01*
G04 APERTURE LIST*
G04 #@! TA.AperFunction,ComponentPad*
%ADD10C,2.300000*%
G04 #@! TD*
G04 #@! TA.AperFunction,ComponentPad*
%ADD11C,1.900000*%
G04 #@! TD*
G04 #@! TA.AperFunction,ComponentPad*
%ADD12C,1.400000*%
G04 #@! TD*
G04 #@! TA.AperFunction,ComponentPad*
%ADD13C,0.750000*%
G04 #@! TD*
G04 #@! TA.AperFunction,ComponentPad*
%ADD14O,2.000000X1.200000*%
G04 #@! TD*
G04 #@! TA.AperFunction,ComponentPad*
%ADD15O,1.800000X1.200000*%
G04 #@! TD*
G04 #@! TA.AperFunction,ComponentPad*
%ADD16C,3.200000*%
G04 #@! TD*
G04 #@! TA.AperFunction,ComponentPad*
%ADD17C,1.800000*%
G04 #@! TD*
G04 #@! TA.AperFunction,ComponentPad*
%ADD18C,2.400000*%
G04 #@! TD*
G04 #@! TA.AperFunction,ComponentPad*
%ADD19C,0.900000*%
G04 #@! TD*
G04 #@! TA.AperFunction,SMDPad,CuDef*
%ADD20R,3.800000X1.000000*%
G04 #@! TD*
G04 #@! TA.AperFunction,SMDPad,CuDef*
%ADD21R,3.400000X1.500000*%
G04 #@! TD*
G04 #@! TA.AperFunction,ViaPad*
%ADD22C,0.600000*%
G04 #@! TD*
G04 #@! TA.AperFunction,ViaPad*
%ADD23C,0.800000*%
G04 #@! TD*
G04 #@! TA.AperFunction,ViaPad*
%ADD24C,0.900000*%
G04 #@! TD*
G04 #@! TA.AperFunction,ViaPad*
%ADD25C,0.700000*%
G04 #@! TD*
G04 #@! TA.AperFunction,Conductor*
%ADD26C,0.300000*%
G04 #@! TD*
G04 #@! TA.AperFunction,Conductor*
%ADD27C,0.200000*%
G04 #@! TD*
G04 #@! TA.AperFunction,Conductor*
%ADD28C,0.600000*%
G04 #@! TD*
G04 #@! TA.AperFunction,Conductor*
%ADD29C,1.000000*%
G04 #@! TD*
G04 #@! TA.AperFunction,Conductor*
%ADD30C,0.500000*%
G04 #@! TD*
G04 APERTURE END LIST*
D10*
X158075000Y-115980000D03*
X79725000Y-80375000D03*
X158075000Y-80375000D03*
X79725000Y-115980000D03*
D11*
X147730000Y-172000000D03*
D10*
X176520000Y-167450000D03*
X176520000Y-155450000D03*
D12*
X174220000Y-164000000D03*
X171680000Y-162980000D03*
X174220000Y-161960000D03*
X171680000Y-160940000D03*
X174220000Y-159920000D03*
X171680000Y-158900000D03*
D11*
X120990000Y-195660000D03*
D13*
X66932456Y-231130000D03*
X66932456Y-236930000D03*
D14*
X67432456Y-238360000D03*
D15*
X63252456Y-238360000D03*
X63252456Y-229700000D03*
D14*
X67432456Y-229700000D03*
D16*
X121280000Y-203390000D03*
D17*
X111850000Y-214025000D03*
X118350000Y-214025000D03*
X111850000Y-218525000D03*
X118350000Y-218525000D03*
X75352500Y-220325000D03*
X72812500Y-220325000D03*
X70272500Y-220325000D03*
X65172500Y-220325000D03*
D18*
X84125000Y-126875000D03*
D19*
X97253500Y-218075000D03*
X97253500Y-215075000D03*
D17*
X75380000Y-184925000D03*
X72840000Y-184925000D03*
X70300000Y-184925000D03*
X65200000Y-184925000D03*
X112000000Y-223675000D03*
X118500000Y-223675000D03*
X112000000Y-228175000D03*
X118500000Y-228175000D03*
D16*
X147775000Y-159850000D03*
D20*
X71095000Y-157925000D03*
X71095000Y-159925000D03*
D21*
X76955000Y-162275000D03*
X76955000Y-155575000D03*
D22*
X85775000Y-200800000D03*
X88000000Y-201575000D03*
X90850000Y-205175000D03*
X155725000Y-237450000D03*
X155900000Y-231400000D03*
X106375000Y-194525000D03*
X103350000Y-193875000D03*
X106475000Y-201175000D03*
X80475000Y-102265000D03*
X69970000Y-102970000D03*
X103015000Y-102995000D03*
X71820000Y-121430000D03*
X106945000Y-94915000D03*
X141985000Y-106675000D03*
X177300000Y-118160000D03*
X165540000Y-104190000D03*
X131935000Y-108875000D03*
X75110000Y-92920000D03*
X115275000Y-101035000D03*
X114535000Y-111575000D03*
X133895000Y-95405000D03*
X148355000Y-89275000D03*
X89900000Y-107200000D03*
X156625000Y-103425000D03*
X68450000Y-109500000D03*
X98225000Y-174700000D03*
X103550000Y-155400000D03*
X109525000Y-163875000D03*
X115550000Y-172800000D03*
X135650000Y-182275000D03*
X136725000Y-171675000D03*
X169075000Y-128950000D03*
X175750000Y-126900000D03*
X132575000Y-130375000D03*
X180700000Y-233475000D03*
X178350000Y-215175000D03*
X171800000Y-218225000D03*
X148700000Y-217400000D03*
X139575000Y-215150000D03*
X132175000Y-212600000D03*
X127200000Y-215800000D03*
X124850000Y-225200000D03*
X118675000Y-231900000D03*
X112275000Y-231825000D03*
X124550000Y-232525000D03*
X125325000Y-230250000D03*
X116025000Y-239675000D03*
X80300000Y-237850000D03*
X83750000Y-232775000D03*
X73725000Y-224500000D03*
X65100000Y-212450000D03*
X72625000Y-216900000D03*
X78975000Y-208675000D03*
X79075000Y-212075000D03*
X89850000Y-212650000D03*
X89650000Y-214975000D03*
X110775000Y-210250000D03*
X109900000Y-224725000D03*
X119825000Y-221300000D03*
X109425000Y-221900000D03*
X178000000Y-242950000D03*
X176250000Y-230425000D03*
X149175000Y-237400000D03*
X146075000Y-242750000D03*
X115950000Y-198600000D03*
X115750000Y-188100000D03*
X128325000Y-184175000D03*
X123100000Y-181675000D03*
X123950000Y-175975000D03*
X127300000Y-171525000D03*
X128825000Y-171850000D03*
X127325000Y-169300000D03*
X162050000Y-225275000D03*
X168000000Y-225250000D03*
X168000000Y-232025000D03*
X163625000Y-234350000D03*
X167475000Y-236200000D03*
X167525000Y-234525000D03*
X167450000Y-233175000D03*
X120050000Y-166150000D03*
X121150000Y-166025000D03*
X95975000Y-170300000D03*
X73350000Y-229100000D03*
X64525000Y-206200000D03*
X71700000Y-195975000D03*
X65825000Y-195775000D03*
X68850000Y-201875000D03*
X67175000Y-209250000D03*
X63375000Y-224925000D03*
X61700000Y-219700000D03*
X67775000Y-221925000D03*
X65475000Y-240325000D03*
X62975000Y-232225000D03*
X65700000Y-226475000D03*
X138025000Y-194975000D03*
X136400000Y-167525000D03*
X171775000Y-213550000D03*
X162775000Y-215725000D03*
X147825000Y-208400000D03*
X129225000Y-203075000D03*
X136850000Y-201500000D03*
X116275000Y-156050000D03*
X123000000Y-155225000D03*
X134000000Y-157750000D03*
X140850000Y-171025000D03*
X155850000Y-158725000D03*
X166075000Y-173275000D03*
X154900000Y-174550000D03*
X154050000Y-150500000D03*
X108725000Y-131700000D03*
X98640000Y-239240000D03*
X63600000Y-165900000D03*
X161860000Y-150260000D03*
X169160000Y-185960000D03*
X161450000Y-234270000D03*
X123690000Y-222580000D03*
X91810000Y-249910000D03*
X102910000Y-210530000D03*
X102730000Y-226290000D03*
X134700000Y-238060000D03*
X111410000Y-248790000D03*
X100740000Y-188280000D03*
X64310000Y-140920000D03*
X84750000Y-148260000D03*
X179580000Y-159970000D03*
X172210000Y-202950000D03*
X102370000Y-218730000D03*
X110890000Y-152220000D03*
X83320000Y-179810000D03*
X146430000Y-225060000D03*
X105440000Y-149490000D03*
X93610000Y-155960000D03*
X122470000Y-209810000D03*
X163240000Y-181570000D03*
X99100000Y-202040000D03*
X105750000Y-208680000D03*
X77550000Y-227110000D03*
X65210000Y-175600000D03*
X95200000Y-249975000D03*
X63920000Y-177380000D03*
X101060000Y-208790000D03*
X107130000Y-247300000D03*
X151590000Y-192490000D03*
X138810000Y-227120000D03*
X96810000Y-189450000D03*
X131980000Y-240010000D03*
X125190000Y-213620000D03*
X137510000Y-237680000D03*
X103360000Y-181310000D03*
X93480000Y-238370000D03*
X140770000Y-220480000D03*
X63550000Y-127530000D03*
X102550000Y-186350000D03*
X81360000Y-185400000D03*
X176130000Y-202730000D03*
X102260000Y-182480000D03*
X85130000Y-249690000D03*
X161240000Y-155370000D03*
X145710000Y-177900000D03*
X79980000Y-169350000D03*
X97040000Y-248600000D03*
X175830000Y-147170000D03*
X86230000Y-171820000D03*
X149590000Y-227230000D03*
X167820000Y-154600000D03*
X180560000Y-201570000D03*
X73720000Y-147900000D03*
X169070000Y-245810000D03*
X146070000Y-183560000D03*
X64500000Y-167890000D03*
X106130000Y-185570000D03*
X153110000Y-191840000D03*
X73880000Y-242870000D03*
X178310000Y-192420000D03*
X62190000Y-157960000D03*
X96100000Y-188220000D03*
X78460000Y-180540000D03*
X106240000Y-134090000D03*
X164000000Y-189660000D03*
X162760000Y-159580000D03*
X151520000Y-186110000D03*
X88280000Y-233760000D03*
X138090000Y-136540000D03*
X83610000Y-167830000D03*
X134160000Y-229230000D03*
X160150000Y-146090000D03*
X85860000Y-178720000D03*
X153220000Y-243690000D03*
X106040000Y-188350000D03*
X124410000Y-249610000D03*
X129210000Y-247420000D03*
X123590000Y-231090000D03*
X83410000Y-223860000D03*
X141920000Y-150070000D03*
X65830000Y-180510000D03*
X162410000Y-185380000D03*
X117590000Y-249500000D03*
X84990000Y-158490000D03*
X149150000Y-221790000D03*
X103970000Y-231950000D03*
X99390000Y-185540000D03*
X134450000Y-227230000D03*
X114990000Y-231300000D03*
X64150000Y-173730000D03*
X107280000Y-238660000D03*
X77630000Y-224760000D03*
X109370000Y-150290000D03*
X82740000Y-180390000D03*
X83540000Y-242000000D03*
X111140000Y-143890000D03*
X79440000Y-176540000D03*
X74970000Y-159270000D03*
X95940000Y-190600000D03*
X177510000Y-186830000D03*
X88370000Y-226080000D03*
X175830000Y-139720000D03*
X91090000Y-250130000D03*
X98880000Y-230130000D03*
X167380000Y-177760000D03*
X153690000Y-183490000D03*
X98120000Y-193110000D03*
X75440000Y-177700000D03*
X78020000Y-173420000D03*
X129160000Y-241830000D03*
X128130000Y-210140000D03*
X121920000Y-136540000D03*
X156670000Y-200260000D03*
X178060000Y-177690000D03*
X142510000Y-183130000D03*
X87075000Y-245775000D03*
X170310000Y-172220000D03*
X125740000Y-245640000D03*
X78738300Y-197381700D03*
X74650600Y-212166200D03*
X76835000Y-198145400D03*
X79425800Y-218821000D03*
X91033600Y-182397400D03*
X92608400Y-181686200D03*
X74396600Y-212928200D03*
X77368400Y-196672200D03*
X93903800Y-181660800D03*
X76022200Y-212648800D03*
X89865200Y-183845200D03*
X76352400Y-213436200D03*
X80543400Y-218465400D03*
X92938600Y-179603400D03*
X78867000Y-200609200D03*
D23*
X79340000Y-217930000D03*
D22*
X78105000Y-199847200D03*
D23*
X92050000Y-180450000D03*
D22*
X78206600Y-218211400D03*
X77266800Y-199415400D03*
X94564200Y-183108600D03*
X75717400Y-198221600D03*
X73533000Y-212445600D03*
X74193400Y-214071200D03*
X80187800Y-199288400D03*
X79502000Y-198678800D03*
X93903800Y-184912000D03*
X90627200Y-179654200D03*
X76276200Y-199313800D03*
X79527400Y-216789000D03*
D23*
X77820000Y-198300000D03*
D22*
X90424000Y-180492400D03*
X89611200Y-181762400D03*
D23*
X75310000Y-213700000D03*
D22*
X89420000Y-217460000D03*
X88300000Y-223380000D03*
X90660000Y-220470000D03*
X92380000Y-222320000D03*
X91660000Y-222090000D03*
D24*
X91610000Y-221290000D03*
D22*
X90630000Y-222940000D03*
D24*
X94250000Y-209960000D03*
D23*
X122450000Y-167010000D03*
D22*
X112910000Y-180740000D03*
X113680000Y-181800000D03*
X133225000Y-169050000D03*
X116500000Y-181260000D03*
X127650000Y-163450000D03*
X114600000Y-179840000D03*
D23*
X121720000Y-170460000D03*
X134200000Y-169775000D03*
D22*
X126625000Y-162875000D03*
X115290000Y-182420000D03*
D23*
X114850000Y-181290000D03*
X126800000Y-163850000D03*
D22*
X133500000Y-170500000D03*
X134950000Y-169150000D03*
X129370000Y-168880000D03*
X131230000Y-175610000D03*
X123830000Y-167000000D03*
X121430000Y-169310000D03*
D25*
X126000000Y-248460000D03*
X111380000Y-245580000D03*
X115360000Y-237920000D03*
X109250000Y-231870000D03*
D22*
X65650000Y-158700000D03*
X65870000Y-156160000D03*
D24*
X68000000Y-158020000D03*
D22*
X68000000Y-156480000D03*
X66640000Y-156980000D03*
X65330000Y-157920000D03*
X128795000Y-228325000D03*
X127990000Y-230930000D03*
D25*
X118630000Y-238000000D03*
X121090000Y-219240000D03*
D22*
X141800000Y-247510000D03*
X119230000Y-242310000D03*
X125770000Y-239410000D03*
X133110000Y-233380000D03*
X155420000Y-235520000D03*
X128980000Y-245390000D03*
X117710000Y-242730000D03*
D23*
X157630000Y-176980000D03*
X169160000Y-162750000D03*
D22*
X121740000Y-242190000D03*
X143320000Y-232660000D03*
X132880000Y-234650000D03*
X127010000Y-239590000D03*
X160300000Y-233360000D03*
X168470000Y-228720000D03*
X154150000Y-233000000D03*
X125620000Y-242830000D03*
X137410000Y-210350000D03*
X116880000Y-242590000D03*
D26*
X131600761Y-232660000D02*
X143320000Y-232660000D01*
X125120000Y-239140761D02*
X131600761Y-232660000D01*
X125120000Y-239155000D02*
X125120000Y-239140761D01*
X122085000Y-242190000D02*
X125120000Y-239155000D01*
X121740000Y-242190000D02*
X122085000Y-242190000D01*
X153610000Y-231730000D02*
X171790000Y-213550000D01*
X128845000Y-231730000D02*
X153610000Y-231730000D01*
X171790000Y-213550000D02*
X171775000Y-213550000D01*
X117845000Y-242730000D02*
X128845000Y-231730000D01*
X117710000Y-242730000D02*
X117845000Y-242730000D01*
X119680000Y-168790000D02*
X121460000Y-167010000D01*
X119680000Y-170425000D02*
X119680000Y-168790000D01*
X121685000Y-170425000D02*
X119680000Y-170425000D01*
X121720000Y-170460000D02*
X121685000Y-170425000D01*
X121460000Y-167010000D02*
X122450000Y-167010000D01*
X165225000Y-234350000D02*
X163625000Y-234350000D01*
X168000000Y-232025000D02*
X167550000Y-232025000D01*
X167550000Y-232025000D02*
X165225000Y-234350000D01*
D27*
X138025000Y-169150000D02*
X136400000Y-167525000D01*
X138025000Y-194975000D02*
X138025000Y-169150000D01*
D26*
X125870000Y-242830000D02*
X125620000Y-242830000D01*
X135375000Y-233325000D02*
X125870000Y-242830000D01*
X153825000Y-233325000D02*
X135375000Y-233325000D01*
X154150000Y-233000000D02*
X153825000Y-233325000D01*
X120350000Y-243430000D02*
X119230000Y-242310000D01*
X124905000Y-243430000D02*
X120350000Y-243430000D01*
X126866471Y-244125000D02*
X125600000Y-244125000D01*
X128330000Y-245588529D02*
X126866471Y-244125000D01*
X128330000Y-245659239D02*
X128330000Y-245588529D01*
X125600000Y-244125000D02*
X124905000Y-243430000D01*
X128781471Y-246040000D02*
X128710761Y-246040000D01*
X130251471Y-247510000D02*
X128781471Y-246040000D01*
X128710761Y-246040000D02*
X128330000Y-245659239D01*
X141800000Y-247510000D02*
X130251471Y-247510000D01*
X78738300Y-197381700D02*
X77820000Y-198300000D01*
X75310000Y-213900000D02*
X79340000Y-217930000D01*
X75310000Y-213700000D02*
X75310000Y-213900000D01*
X92050000Y-180450000D02*
X92050000Y-184070000D01*
X92050000Y-184070000D02*
X78738300Y-197381700D01*
X89420000Y-222260000D02*
X89420000Y-217460000D01*
X88300000Y-223380000D02*
X89420000Y-222260000D01*
X94250000Y-218650000D02*
X91610000Y-221290000D01*
X94250000Y-209960000D02*
X94250000Y-218650000D01*
X134200000Y-169775000D02*
X132725000Y-169775000D01*
X121720000Y-170460000D02*
X121720000Y-174420000D01*
X132725000Y-169775000D02*
X126800000Y-163850000D01*
X121720000Y-174420000D02*
X114850000Y-181290000D01*
X131230000Y-169770000D02*
X131230000Y-175610000D01*
X129370000Y-168880000D02*
X130340000Y-168880000D01*
X130340000Y-168880000D02*
X131230000Y-169770000D01*
X123830000Y-167000000D02*
X123740000Y-167000000D01*
X123740000Y-167000000D02*
X121430000Y-169310000D01*
D28*
X109250000Y-231870000D02*
X109310000Y-231870000D01*
X109310000Y-231870000D02*
X115360000Y-237920000D01*
X111380000Y-241900000D02*
X115360000Y-237920000D01*
X111380000Y-245580000D02*
X111380000Y-241900000D01*
X114260000Y-248460000D02*
X126000000Y-248460000D01*
X111380000Y-245580000D02*
X114260000Y-248460000D01*
D26*
X68000000Y-158020000D02*
X68095000Y-157925000D01*
D29*
X68095000Y-157925000D02*
X71095000Y-157925000D01*
D26*
X127990000Y-229130000D02*
X128850000Y-228270000D01*
X127990000Y-230930000D02*
X127990000Y-229130000D01*
X118630000Y-238000000D02*
X121090000Y-235540000D01*
X121090000Y-235540000D02*
X121090000Y-219240000D01*
X133110000Y-233380000D02*
X131800000Y-233380000D01*
X131800000Y-233380000D02*
X125770000Y-239410000D01*
X155400000Y-235540000D02*
X155420000Y-235520000D01*
X133560000Y-245390000D02*
X143410000Y-235540000D01*
X128980000Y-245390000D02*
X133560000Y-245390000D01*
X143410000Y-235540000D02*
X155400000Y-235540000D01*
D30*
X157630000Y-176980000D02*
X169160000Y-165450000D01*
X169160000Y-165450000D02*
X169160000Y-162750000D01*
D26*
X132880000Y-234650000D02*
X127940000Y-239590000D01*
X127940000Y-239590000D02*
X127010000Y-239590000D01*
X160300000Y-233360000D02*
X160430000Y-233490000D01*
X163700000Y-233490000D02*
X168470000Y-228720000D01*
X160430000Y-233490000D02*
X163700000Y-233490000D01*
X126980000Y-232490000D02*
X126980000Y-220780000D01*
X116880000Y-242590000D02*
X126980000Y-232490000D01*
X126980000Y-220780000D02*
X137410000Y-210350000D01*
G04 #@! TA.AperFunction,Conductor*
G36*
X96569374Y-207964482D02*
G01*
X96607454Y-208012373D01*
X96613709Y-208048313D01*
X96490396Y-217543416D01*
X96477773Y-217590518D01*
X94165070Y-221718568D01*
X94165070Y-221718570D01*
X94021568Y-223775420D01*
X93998656Y-223832154D01*
X93946773Y-223864585D01*
X93921699Y-223867524D01*
X90222377Y-223826090D01*
X90164402Y-223806532D01*
X90128995Y-223756632D01*
X90124487Y-223727617D01*
X90100067Y-219087865D01*
X90103225Y-219062543D01*
X92490070Y-209843570D01*
X92442785Y-208188616D01*
X92460023Y-208129912D01*
X92508476Y-208092550D01*
X92534929Y-208087027D01*
X93159517Y-208043952D01*
X93170614Y-208043811D01*
X93740070Y-208068570D01*
X96510417Y-207948120D01*
X96569374Y-207964482D01*
G37*
G04 #@! TD.AperFunction*
G04 #@! TA.AperFunction,Conductor*
G36*
X94427115Y-178736120D02*
G01*
X94484059Y-178758504D01*
X94512092Y-178795836D01*
X96721691Y-183935015D01*
X96727306Y-183995942D01*
X96699760Y-184045093D01*
X78375445Y-201864606D01*
X78320546Y-201891620D01*
X78260253Y-201881205D01*
X78239276Y-201866378D01*
X74741898Y-198638029D01*
X74711964Y-198584666D01*
X74719112Y-198523899D01*
X74730040Y-198505628D01*
X89833211Y-178502765D01*
X89883364Y-178467720D01*
X89918186Y-178463602D01*
X94427115Y-178736120D01*
G37*
G04 #@! TD.AperFunction*
G04 #@! TA.AperFunction,Conductor*
G36*
X127559054Y-161949128D02*
G01*
X127616827Y-161969269D01*
X127628363Y-161979545D01*
X128183575Y-162557891D01*
X128206888Y-162597692D01*
X128625000Y-163975000D01*
X133375000Y-168375000D01*
X133375002Y-168375001D01*
X134379405Y-168589423D01*
X135521670Y-168833278D01*
X135574630Y-168863916D01*
X135599467Y-168919834D01*
X135600000Y-168930095D01*
X135600000Y-169299301D01*
X135599991Y-169300657D01*
X135576326Y-171028146D01*
X135556623Y-171086072D01*
X135506635Y-171121355D01*
X135478140Y-171125787D01*
X132593762Y-171149237D01*
X132535419Y-171130803D01*
X132499054Y-171081597D01*
X132494151Y-171056422D01*
X132400000Y-169550000D01*
X125961985Y-164484430D01*
X125941406Y-164462396D01*
X125242392Y-163437175D01*
X125225233Y-163378445D01*
X125245872Y-163320846D01*
X125248543Y-163317539D01*
X126394508Y-161961092D01*
X126446504Y-161928844D01*
X126472237Y-161926005D01*
X127559054Y-161949128D01*
G37*
G04 #@! TD.AperFunction*
G04 #@! TA.AperFunction,Conductor*
G36*
X75588039Y-211236366D02*
G01*
X75719369Y-211282718D01*
X75755640Y-211305298D01*
X78419391Y-213910718D01*
X81188658Y-216619344D01*
X81217038Y-216673550D01*
X81218365Y-216693809D01*
X81123482Y-219236665D01*
X81102418Y-219294111D01*
X81051612Y-219328204D01*
X81026620Y-219331952D01*
X78291381Y-219389134D01*
X78232808Y-219371447D01*
X78220316Y-219361152D01*
X72611898Y-213910718D01*
X72583344Y-213856604D01*
X72585391Y-213813642D01*
X73202626Y-211553614D01*
X73236196Y-211502462D01*
X73285396Y-211481520D01*
X75052755Y-211252350D01*
X75061269Y-211251618D01*
X75550888Y-211230812D01*
X75588039Y-211236366D01*
G37*
G04 #@! TD.AperFunction*
G04 #@! TA.AperFunction,Conductor*
G36*
X122803149Y-166610163D02*
G01*
X122840420Y-166658686D01*
X122846044Y-166695488D01*
X122823438Y-167298309D01*
X122802364Y-167355750D01*
X122751551Y-167389834D01*
X122728313Y-167393526D01*
X121520000Y-167439999D01*
X120209999Y-168920000D01*
X120200000Y-170029999D01*
X120200000Y-170030000D01*
X122064691Y-170020486D01*
X122122977Y-170039096D01*
X122159193Y-170088412D01*
X122164104Y-170115222D01*
X122209908Y-171177865D01*
X122210000Y-171182128D01*
X122210000Y-174595063D01*
X122191093Y-174653254D01*
X122188073Y-174657198D01*
X115233997Y-183283021D01*
X115182755Y-183316457D01*
X115121646Y-183313387D01*
X115106145Y-183305871D01*
X111280778Y-181020214D01*
X111240523Y-180974137D01*
X111235040Y-180913197D01*
X111256362Y-180870834D01*
X117920000Y-173090000D01*
X118356664Y-168465325D01*
X118380958Y-168409171D01*
X118385007Y-168404845D01*
X120043217Y-166736939D01*
X120097649Y-166709004D01*
X120107915Y-166707893D01*
X121330000Y-166640000D01*
X121430000Y-166670000D01*
X121375700Y-166636062D01*
X121506290Y-166625958D01*
X121508469Y-166626484D01*
X121511286Y-166625698D01*
X122744477Y-166592813D01*
X122803149Y-166610163D01*
G37*
G04 #@! TD.AperFunction*
G04 #@! TA.AperFunction,Conductor*
G36*
X68908133Y-155513364D02*
G01*
X68964810Y-155536415D01*
X68997114Y-155588377D01*
X69000000Y-155612107D01*
X69000000Y-157459999D01*
X69000000Y-157460000D01*
X72894692Y-157440477D01*
X72952975Y-157459093D01*
X72989186Y-157508412D01*
X72994095Y-157535222D01*
X73025627Y-158268343D01*
X73009237Y-158327292D01*
X72961328Y-158365350D01*
X72928261Y-158371585D01*
X69180000Y-158429999D01*
X69179999Y-158429999D01*
X68247290Y-159048533D01*
X68209559Y-159063559D01*
X64559428Y-159699202D01*
X64498857Y-159690558D01*
X64454934Y-159647962D01*
X64443485Y-159598824D01*
X64459312Y-159048533D01*
X64567027Y-155303342D01*
X64587599Y-155245722D01*
X64638113Y-155211196D01*
X64673114Y-155207448D01*
X68908133Y-155513364D01*
G37*
G04 #@! TD.AperFunction*
G04 #@! TA.AperFunction,Conductor*
G36*
X182523684Y-76408917D02*
G01*
X182559652Y-76458414D01*
X182564500Y-76489014D01*
X182564500Y-251201660D01*
X182545593Y-251259851D01*
X182496093Y-251295815D01*
X182465855Y-251300659D01*
X177441245Y-251318673D01*
X177382987Y-251299975D01*
X177346846Y-251250604D01*
X177345263Y-251194051D01*
X177346056Y-251191092D01*
X177408838Y-250956789D01*
X177440500Y-250716288D01*
X177440500Y-250473712D01*
X177408838Y-250233211D01*
X177346054Y-249998900D01*
X177253224Y-249774788D01*
X177131936Y-249564711D01*
X176984265Y-249372262D01*
X176812738Y-249200735D01*
X176812733Y-249200731D01*
X176812731Y-249200729D01*
X176620292Y-249053066D01*
X176620289Y-249053064D01*
X176410212Y-248931776D01*
X176410208Y-248931774D01*
X176410204Y-248931772D01*
X176186105Y-248838948D01*
X176186104Y-248838947D01*
X176186100Y-248838946D01*
X175951789Y-248776162D01*
X175951786Y-248776161D01*
X175951784Y-248776161D01*
X175711289Y-248744500D01*
X175711288Y-248744500D01*
X175468712Y-248744500D01*
X175468710Y-248744500D01*
X175228218Y-248776161D01*
X175228213Y-248776161D01*
X174993907Y-248838944D01*
X174993894Y-248838948D01*
X174769795Y-248931772D01*
X174559707Y-249053066D01*
X174367268Y-249200729D01*
X174195729Y-249372268D01*
X174048066Y-249564707D01*
X173926772Y-249774795D01*
X173833948Y-249998894D01*
X173833944Y-249998907D01*
X173771161Y-250233213D01*
X173771161Y-250233218D01*
X173739500Y-250473710D01*
X173739500Y-250716289D01*
X173771161Y-250956781D01*
X173771161Y-250956786D01*
X173833944Y-251191092D01*
X173833947Y-251191103D01*
X173835581Y-251195047D01*
X173840378Y-251256044D01*
X173808407Y-251308211D01*
X173751878Y-251331623D01*
X173744470Y-251331927D01*
X69231809Y-251706615D01*
X69173551Y-251687917D01*
X69137410Y-251638546D01*
X69137190Y-251577361D01*
X69145718Y-251558116D01*
X69228224Y-251415212D01*
X69228228Y-251415204D01*
X69262722Y-251331927D01*
X69321054Y-251191100D01*
X69383838Y-250956789D01*
X69415500Y-250716288D01*
X69415500Y-250473712D01*
X69383838Y-250233211D01*
X69321054Y-249998900D01*
X69228224Y-249774788D01*
X69106936Y-249564711D01*
X68959265Y-249372262D01*
X68787738Y-249200735D01*
X68787733Y-249200731D01*
X68787731Y-249200729D01*
X68595292Y-249053066D01*
X68595289Y-249053064D01*
X68385212Y-248931776D01*
X68385208Y-248931774D01*
X68385204Y-248931772D01*
X68161105Y-248838948D01*
X68161104Y-248838947D01*
X68161100Y-248838946D01*
X67926789Y-248776162D01*
X67926786Y-248776161D01*
X67926784Y-248776161D01*
X67686289Y-248744500D01*
X67686288Y-248744500D01*
X67443712Y-248744500D01*
X67443710Y-248744500D01*
X67203218Y-248776161D01*
X67203213Y-248776161D01*
X66968907Y-248838944D01*
X66968894Y-248838948D01*
X66744795Y-248931772D01*
X66534707Y-249053066D01*
X66342268Y-249200729D01*
X66170729Y-249372268D01*
X66023066Y-249564707D01*
X65901772Y-249774795D01*
X65808948Y-249998894D01*
X65808944Y-249998907D01*
X65746161Y-250233213D01*
X65746161Y-250233218D01*
X65714500Y-250473710D01*
X65714500Y-250716289D01*
X65746161Y-250956781D01*
X65746161Y-250956786D01*
X65808944Y-251191092D01*
X65808948Y-251191105D01*
X65901772Y-251415204D01*
X65901774Y-251415208D01*
X65901776Y-251415212D01*
X65984282Y-251558116D01*
X65991167Y-251570041D01*
X66003888Y-251629889D01*
X65979001Y-251685785D01*
X65926013Y-251716378D01*
X65905785Y-251718540D01*
X60664855Y-251737328D01*
X60606597Y-251718630D01*
X60570456Y-251669259D01*
X60565500Y-251638329D01*
X60565500Y-236863468D01*
X66256956Y-236863468D01*
X66256956Y-236996531D01*
X66282916Y-237127037D01*
X66333834Y-237249966D01*
X66399525Y-237348281D01*
X66407761Y-237360606D01*
X66501850Y-237454695D01*
X66612487Y-237528620D01*
X66735420Y-237579540D01*
X66865925Y-237605500D01*
X66865926Y-237605500D01*
X66998986Y-237605500D01*
X66998987Y-237605500D01*
X67129492Y-237579540D01*
X67252425Y-237528620D01*
X67363062Y-237454695D01*
X67457151Y-237360606D01*
X67531076Y-237249969D01*
X67581996Y-237127036D01*
X67607956Y-236996531D01*
X67607956Y-236863469D01*
X67581996Y-236732964D01*
X67531076Y-236610031D01*
X67457151Y-236499394D01*
X67363062Y-236405305D01*
X67252425Y-236331380D01*
X67252424Y-236331379D01*
X67252422Y-236331378D01*
X67129493Y-236280460D01*
X66998987Y-236254500D01*
X66865925Y-236254500D01*
X66865924Y-236254500D01*
X66735418Y-236280460D01*
X66612489Y-236331378D01*
X66501853Y-236405302D01*
X66407758Y-236499397D01*
X66333834Y-236610033D01*
X66282916Y-236732962D01*
X66256956Y-236863468D01*
X60565500Y-236863468D01*
X60565500Y-231805930D01*
X108599500Y-231805930D01*
X108599500Y-231934069D01*
X108624499Y-232059742D01*
X108624500Y-232059747D01*
X108673534Y-232178125D01*
X108673538Y-232178133D01*
X108697007Y-232213256D01*
X108744724Y-232284669D01*
X108835331Y-232375276D01*
X108871585Y-232399500D01*
X108941866Y-232446461D01*
X108941877Y-232446467D01*
X109033434Y-232484391D01*
X109060256Y-232495501D01*
X109063262Y-232496099D01*
X109064618Y-232496823D01*
X109064913Y-232496913D01*
X109064895Y-232496971D01*
X109113958Y-232523193D01*
X114440760Y-237849995D01*
X114468537Y-237904512D01*
X114458966Y-237964944D01*
X114440760Y-237990003D01*
X111011286Y-241419478D01*
X111011284Y-241419480D01*
X111011283Y-241419479D01*
X110899479Y-241531284D01*
X110849359Y-241618095D01*
X110820425Y-241668209D01*
X110820423Y-241668213D01*
X110820423Y-241668215D01*
X110779499Y-241820943D01*
X110779499Y-241820945D01*
X110779499Y-241987031D01*
X110779500Y-241987044D01*
X110779500Y-245310205D01*
X110771964Y-245348089D01*
X110754499Y-245390256D01*
X110729500Y-245515931D01*
X110729500Y-245644069D01*
X110750669Y-245750492D01*
X110754499Y-245769742D01*
X110754500Y-245769747D01*
X110803534Y-245888125D01*
X110803538Y-245888133D01*
X110835421Y-245935848D01*
X110874724Y-245994669D01*
X110965331Y-246085276D01*
X111071873Y-246156465D01*
X111114035Y-246173929D01*
X111146154Y-246195389D01*
X113779478Y-248828713D01*
X113779480Y-248828716D01*
X113891284Y-248940520D01*
X113891286Y-248940521D01*
X113891289Y-248940524D01*
X113891288Y-248940524D01*
X113978091Y-248990637D01*
X113978093Y-248990639D01*
X113978094Y-248990639D01*
X114000916Y-249003815D01*
X114028215Y-249019577D01*
X114180943Y-249060500D01*
X114339057Y-249060500D01*
X125730206Y-249060500D01*
X125768091Y-249068036D01*
X125792823Y-249078280D01*
X125810256Y-249085501D01*
X125935931Y-249110500D01*
X125935932Y-249110500D01*
X126064068Y-249110500D01*
X126064069Y-249110500D01*
X126189744Y-249085501D01*
X126308127Y-249036465D01*
X126414669Y-248965276D01*
X126505276Y-248874669D01*
X126576465Y-248768127D01*
X126625501Y-248649744D01*
X126650500Y-248524069D01*
X126650500Y-248395931D01*
X126625501Y-248270256D01*
X126576465Y-248151873D01*
X126576463Y-248151870D01*
X126576461Y-248151866D01*
X126547717Y-248108848D01*
X126505276Y-248045331D01*
X126414669Y-247954724D01*
X126372226Y-247926365D01*
X126308133Y-247883538D01*
X126308125Y-247883534D01*
X126189747Y-247834500D01*
X126189745Y-247834499D01*
X126189744Y-247834499D01*
X126064069Y-247809500D01*
X125935931Y-247809500D01*
X125935930Y-247809500D01*
X125810254Y-247834499D01*
X125768091Y-247851964D01*
X125730206Y-247859500D01*
X114549743Y-247859500D01*
X114491552Y-247840593D01*
X114479739Y-247830504D01*
X112009496Y-245360261D01*
X111981719Y-245305744D01*
X111980500Y-245290257D01*
X111980500Y-242510943D01*
X116279500Y-242510943D01*
X116279500Y-242669057D01*
X116320423Y-242821784D01*
X116399480Y-242958716D01*
X116511284Y-243070520D01*
X116648216Y-243149577D01*
X116800943Y-243190500D01*
X116800945Y-243190500D01*
X116959055Y-243190500D01*
X116959057Y-243190500D01*
X117111784Y-243149577D01*
X117152857Y-243125862D01*
X117212701Y-243113141D01*
X117268598Y-243138026D01*
X117272340Y-243141576D01*
X117341284Y-243210520D01*
X117478216Y-243289577D01*
X117630943Y-243330500D01*
X117630945Y-243330500D01*
X117789055Y-243330500D01*
X117789057Y-243330500D01*
X117941784Y-243289577D01*
X118078716Y-243210520D01*
X118190520Y-243098716D01*
X118269577Y-242961784D01*
X118269757Y-242961108D01*
X118270105Y-242960505D01*
X118272060Y-242955788D01*
X118272680Y-242956045D01*
X118295380Y-242916721D01*
X118579155Y-242632946D01*
X118633670Y-242605171D01*
X118694102Y-242614742D01*
X118734893Y-242653451D01*
X118744748Y-242670520D01*
X118749480Y-242678716D01*
X118861284Y-242790520D01*
X118998216Y-242869577D01*
X119150943Y-242910500D01*
X119152389Y-242910500D01*
X119153373Y-242910819D01*
X119157377Y-242911347D01*
X119157279Y-242912088D01*
X119210580Y-242929407D01*
X119222393Y-242939496D01*
X120073386Y-243790489D01*
X120073388Y-243790490D01*
X120073389Y-243790491D01*
X120073390Y-243790492D01*
X120176107Y-243849796D01*
X120176109Y-243849797D01*
X120176113Y-243849799D01*
X120200322Y-243856284D01*
X120200325Y-243856287D01*
X120200326Y-243856286D01*
X120290688Y-243880499D01*
X120290690Y-243880500D01*
X120290691Y-243880500D01*
X124677389Y-243880500D01*
X124735580Y-243899407D01*
X124747393Y-243909496D01*
X125323386Y-244485489D01*
X125382696Y-244519731D01*
X125426114Y-244544799D01*
X125540691Y-244575500D01*
X126638860Y-244575500D01*
X126697051Y-244594407D01*
X126708864Y-244604496D01*
X127881454Y-245777086D01*
X127907076Y-245821465D01*
X127910201Y-245833126D01*
X127910202Y-245833129D01*
X127969507Y-245935848D01*
X127969509Y-245935850D01*
X127969511Y-245935853D01*
X128434147Y-246400489D01*
X128493457Y-246434731D01*
X128536875Y-246459799D01*
X128557530Y-246465333D01*
X128565918Y-246469379D01*
X128575342Y-246478400D01*
X128592912Y-246488544D01*
X129974857Y-247870489D01*
X129974859Y-247870490D01*
X129974860Y-247870491D01*
X129974861Y-247870492D01*
X130077578Y-247929796D01*
X130077580Y-247929797D01*
X130077584Y-247929799D01*
X130101793Y-247936284D01*
X130101796Y-247936287D01*
X130101797Y-247936286D01*
X130192159Y-247960499D01*
X130192161Y-247960500D01*
X130192162Y-247960500D01*
X141360257Y-247960500D01*
X141418448Y-247979407D01*
X141430254Y-247989490D01*
X141431284Y-247990520D01*
X141568216Y-248069577D01*
X141720943Y-248110500D01*
X141720945Y-248110500D01*
X141879055Y-248110500D01*
X141879057Y-248110500D01*
X142031784Y-248069577D01*
X142168716Y-247990520D01*
X142280520Y-247878716D01*
X142359577Y-247741784D01*
X142400500Y-247589057D01*
X142400500Y-247430943D01*
X142359577Y-247278216D01*
X142280520Y-247141284D01*
X142168716Y-247029480D01*
X142031784Y-246950423D01*
X141879057Y-246909500D01*
X141720943Y-246909500D01*
X141568216Y-246950423D01*
X141431284Y-247029480D01*
X141430258Y-247030505D01*
X141429331Y-247030977D01*
X141426134Y-247033431D01*
X141425679Y-247032838D01*
X141375744Y-247058281D01*
X141360257Y-247059500D01*
X130479082Y-247059500D01*
X130420891Y-247040593D01*
X130409078Y-247030504D01*
X129388078Y-246009504D01*
X129360301Y-245954987D01*
X129369872Y-245894555D01*
X129413137Y-245851290D01*
X129458082Y-245840500D01*
X133619309Y-245840500D01*
X133709669Y-245816287D01*
X133709672Y-245816287D01*
X133722903Y-245812741D01*
X133733887Y-245809799D01*
X133836614Y-245750489D01*
X143567608Y-236019496D01*
X143622125Y-235991719D01*
X143637612Y-235990500D01*
X155007403Y-235990500D01*
X155056899Y-236003762D01*
X155188216Y-236079577D01*
X155340943Y-236120500D01*
X155340945Y-236120500D01*
X155499055Y-236120500D01*
X155499057Y-236120500D01*
X155651784Y-236079577D01*
X155788716Y-236000520D01*
X155900520Y-235888716D01*
X155979577Y-235751784D01*
X156020500Y-235599057D01*
X156020500Y-235440943D01*
X155979577Y-235288216D01*
X155900520Y-235151284D01*
X155788716Y-235039480D01*
X155651784Y-234960423D01*
X155499057Y-234919500D01*
X155340943Y-234919500D01*
X155188216Y-234960423D01*
X155051284Y-235039480D01*
X155030258Y-235060505D01*
X154975744Y-235088281D01*
X154960257Y-235089500D01*
X143350691Y-235089500D01*
X143236114Y-235120201D01*
X143133386Y-235179510D01*
X138253490Y-240059407D01*
X133402393Y-244910504D01*
X133347876Y-244938281D01*
X133332389Y-244939500D01*
X129419743Y-244939500D01*
X129361552Y-244920593D01*
X129349745Y-244910509D01*
X129348716Y-244909480D01*
X129211784Y-244830423D01*
X129059057Y-244789500D01*
X128900943Y-244789500D01*
X128748216Y-244830423D01*
X128611281Y-244909482D01*
X128519672Y-245001091D01*
X128465156Y-245028868D01*
X128404723Y-245019296D01*
X128379665Y-245001091D01*
X127864063Y-244485489D01*
X127143085Y-243764511D01*
X127143082Y-243764509D01*
X127143081Y-243764508D01*
X127143080Y-243764507D01*
X127040361Y-243705202D01*
X127040357Y-243705200D01*
X127016144Y-243698712D01*
X127016144Y-243698713D01*
X126925780Y-243674500D01*
X126925778Y-243674500D01*
X125827611Y-243674500D01*
X125820013Y-243672031D01*
X125812124Y-243673281D01*
X125791468Y-243662756D01*
X125769420Y-243655593D01*
X125757607Y-243645504D01*
X125696915Y-243584812D01*
X125669138Y-243530295D01*
X125678709Y-243469863D01*
X125721974Y-243426598D01*
X125741286Y-243419184D01*
X125851784Y-243389577D01*
X125988716Y-243310520D01*
X126047803Y-243251431D01*
X126068298Y-243235704D01*
X126146614Y-243190489D01*
X135532607Y-233804496D01*
X135587124Y-233776719D01*
X135602611Y-233775500D01*
X153884307Y-233775500D01*
X153884309Y-233775500D01*
X153984268Y-233748716D01*
X153998887Y-233744799D01*
X154101614Y-233685489D01*
X154129611Y-233657492D01*
X154157608Y-233629496D01*
X154212125Y-233601719D01*
X154227611Y-233600500D01*
X154229055Y-233600500D01*
X154229057Y-233600500D01*
X154381784Y-233559577D01*
X154518716Y-233480520D01*
X154630520Y-233368716D01*
X154681195Y-233280943D01*
X159699500Y-233280943D01*
X159699500Y-233439057D01*
X159740423Y-233591784D01*
X159819480Y-233728716D01*
X159931284Y-233840520D01*
X160068216Y-233919577D01*
X160220943Y-233960500D01*
X160220945Y-233960500D01*
X160379056Y-233960500D01*
X160379057Y-233960500D01*
X160428519Y-233947246D01*
X160441111Y-233943873D01*
X160466733Y-233940500D01*
X162996554Y-233940500D01*
X163054745Y-233959407D01*
X163090709Y-234008907D01*
X163090709Y-234070093D01*
X163082291Y-234088999D01*
X163065423Y-234118214D01*
X163057177Y-234148990D01*
X163024500Y-234270943D01*
X163024500Y-234429057D01*
X163065423Y-234581784D01*
X163144480Y-234718716D01*
X163256284Y-234830520D01*
X163393216Y-234909577D01*
X163545943Y-234950500D01*
X163545945Y-234950500D01*
X163704055Y-234950500D01*
X163704057Y-234950500D01*
X163856784Y-234909577D01*
X163993716Y-234830520D01*
X163994741Y-234829494D01*
X163995668Y-234829022D01*
X163998866Y-234826569D01*
X163999320Y-234827161D01*
X164049256Y-234801719D01*
X164064743Y-234800500D01*
X165284309Y-234800500D01*
X165374669Y-234776287D01*
X165374672Y-234776287D01*
X165387903Y-234772741D01*
X165398887Y-234769799D01*
X165501614Y-234710489D01*
X167625307Y-232586794D01*
X167679822Y-232559019D01*
X167740254Y-232568590D01*
X167744807Y-232571063D01*
X167761923Y-232580944D01*
X167768216Y-232584577D01*
X167920943Y-232625500D01*
X167920945Y-232625500D01*
X168079055Y-232625500D01*
X168079057Y-232625500D01*
X168231784Y-232584577D01*
X168368716Y-232505520D01*
X168480520Y-232393716D01*
X168559577Y-232256784D01*
X168600500Y-232104057D01*
X168600500Y-231945943D01*
X168559577Y-231793216D01*
X168480520Y-231656284D01*
X168368716Y-231544480D01*
X168231784Y-231465423D01*
X168079057Y-231424500D01*
X167920943Y-231424500D01*
X167768216Y-231465423D01*
X167631284Y-231544480D01*
X167630258Y-231545505D01*
X167629331Y-231545977D01*
X167626134Y-231548431D01*
X167625679Y-231547838D01*
X167575744Y-231573281D01*
X167560257Y-231574500D01*
X167490691Y-231574500D01*
X167383981Y-231603093D01*
X167376114Y-231605201D01*
X167273387Y-231664510D01*
X165067393Y-233870504D01*
X165012876Y-233898281D01*
X164997389Y-233899500D01*
X164166610Y-233899500D01*
X164108419Y-233880593D01*
X164072455Y-233831093D01*
X164072455Y-233769907D01*
X164096604Y-233730498D01*
X168477608Y-229349496D01*
X168532125Y-229321719D01*
X168547612Y-229320500D01*
X168549055Y-229320500D01*
X168549057Y-229320500D01*
X168701784Y-229279577D01*
X168838716Y-229200520D01*
X168950520Y-229088716D01*
X169029577Y-228951784D01*
X169070500Y-228799057D01*
X169070500Y-228640943D01*
X169029577Y-228488216D01*
X168950520Y-228351284D01*
X168838716Y-228239480D01*
X168701784Y-228160423D01*
X168549057Y-228119500D01*
X168390943Y-228119500D01*
X168238216Y-228160423D01*
X168101284Y-228239480D01*
X167989480Y-228351284D01*
X167910423Y-228488216D01*
X167870870Y-228635832D01*
X167869500Y-228640944D01*
X167869500Y-228642388D01*
X167869180Y-228643371D01*
X167868653Y-228647377D01*
X167867910Y-228647279D01*
X167850593Y-228700579D01*
X167840504Y-228712392D01*
X163542393Y-233010504D01*
X163487876Y-233038281D01*
X163472389Y-233039500D01*
X160865515Y-233039500D01*
X160807324Y-233020593D01*
X160785118Y-232995931D01*
X160784469Y-232996430D01*
X160780525Y-232991290D01*
X160780521Y-232991286D01*
X160780520Y-232991284D01*
X160668716Y-232879480D01*
X160531784Y-232800423D01*
X160379057Y-232759500D01*
X160220943Y-232759500D01*
X160068216Y-232800423D01*
X159931284Y-232879480D01*
X159819480Y-232991284D01*
X159740423Y-233128216D01*
X159699500Y-233280943D01*
X154681195Y-233280943D01*
X154709577Y-233231784D01*
X154750500Y-233079057D01*
X154750500Y-232920943D01*
X154709577Y-232768216D01*
X154630520Y-232631284D01*
X154518716Y-232519480D01*
X154381784Y-232440423D01*
X154229057Y-232399500D01*
X154070943Y-232399500D01*
X153918216Y-232440423D01*
X153781284Y-232519480D01*
X153669480Y-232631284D01*
X153590423Y-232768216D01*
X153581794Y-232800423D01*
X153581606Y-232801123D01*
X153548282Y-232852438D01*
X153491160Y-232874364D01*
X153485979Y-232874500D01*
X144013227Y-232874500D01*
X143955036Y-232855593D01*
X143919072Y-232806093D01*
X143917601Y-232749875D01*
X143920500Y-232739057D01*
X143920500Y-232580943D01*
X143879577Y-232428216D01*
X143822293Y-232328996D01*
X143809573Y-232269152D01*
X143834460Y-232213256D01*
X143887448Y-232182663D01*
X143908031Y-232180500D01*
X153669309Y-232180500D01*
X153759669Y-232156287D01*
X153759672Y-232156287D01*
X153772903Y-232152741D01*
X153783887Y-232149799D01*
X153886614Y-232090489D01*
X171798681Y-214178422D01*
X171848077Y-214153255D01*
X171847789Y-214152179D01*
X171852851Y-214150822D01*
X171853196Y-214150647D01*
X171853873Y-214150548D01*
X171854052Y-214150500D01*
X171854057Y-214150500D01*
X172006784Y-214109577D01*
X172143716Y-214030520D01*
X172255520Y-213918716D01*
X172334577Y-213781784D01*
X172375500Y-213629057D01*
X172375500Y-213470943D01*
X172334577Y-213318216D01*
X172255520Y-213181284D01*
X172143716Y-213069480D01*
X172006784Y-212990423D01*
X171854057Y-212949500D01*
X171695943Y-212949500D01*
X171543216Y-212990423D01*
X171406284Y-213069480D01*
X171294480Y-213181284D01*
X171215423Y-213318216D01*
X171174500Y-213470944D01*
X171174500Y-213487388D01*
X171155593Y-213545579D01*
X171145504Y-213557392D01*
X153452393Y-231250504D01*
X153397876Y-231278281D01*
X153382389Y-231279500D01*
X128785691Y-231279500D01*
X128740508Y-231291606D01*
X128695325Y-231303713D01*
X128695324Y-231303712D01*
X128671112Y-231310201D01*
X128668188Y-231311412D01*
X128665931Y-231311589D01*
X128664847Y-231311880D01*
X128664793Y-231311678D01*
X128607191Y-231316205D01*
X128555025Y-231284229D01*
X128531617Y-231227699D01*
X128544577Y-231170442D01*
X128549577Y-231161784D01*
X128590500Y-231009057D01*
X128590500Y-230850943D01*
X128549577Y-230698216D01*
X128470520Y-230561284D01*
X128470517Y-230561281D01*
X128470516Y-230561279D01*
X128469490Y-230560253D01*
X128469016Y-230559324D01*
X128466569Y-230556134D01*
X128467160Y-230555680D01*
X128441717Y-230505734D01*
X128440500Y-230490256D01*
X128440500Y-229357610D01*
X128459407Y-229299419D01*
X128469497Y-229287606D01*
X128802608Y-228954496D01*
X128857124Y-228926719D01*
X128872611Y-228925500D01*
X128874055Y-228925500D01*
X128874057Y-228925500D01*
X129026784Y-228884577D01*
X129163716Y-228805520D01*
X129275520Y-228693716D01*
X129354577Y-228556784D01*
X129395500Y-228404057D01*
X129395500Y-228245943D01*
X129354577Y-228093216D01*
X129275520Y-227956284D01*
X129163716Y-227844480D01*
X129026784Y-227765423D01*
X128874057Y-227724500D01*
X128715943Y-227724500D01*
X128563216Y-227765423D01*
X128426284Y-227844480D01*
X128314480Y-227956284D01*
X128235423Y-228093216D01*
X128194500Y-228245944D01*
X128194500Y-228247388D01*
X128194180Y-228248371D01*
X128193653Y-228252377D01*
X128192910Y-228252279D01*
X128175593Y-228305579D01*
X128165504Y-228317391D01*
X127629511Y-228853385D01*
X127629509Y-228853387D01*
X127615236Y-228878110D01*
X127569766Y-228919050D01*
X127508916Y-228925445D01*
X127455928Y-228894852D01*
X127431042Y-228838956D01*
X127430500Y-228828609D01*
X127430500Y-221007611D01*
X127449407Y-220949420D01*
X127459496Y-220937607D01*
X137417607Y-210979496D01*
X137472124Y-210951719D01*
X137487611Y-210950500D01*
X137489055Y-210950500D01*
X137489057Y-210950500D01*
X137641784Y-210909577D01*
X137778716Y-210830520D01*
X137890520Y-210718716D01*
X137969577Y-210581784D01*
X138010500Y-210429057D01*
X138010500Y-210270943D01*
X137969577Y-210118216D01*
X137890520Y-209981284D01*
X137778716Y-209869480D01*
X137641784Y-209790423D01*
X137489057Y-209749500D01*
X137330943Y-209749500D01*
X137178216Y-209790423D01*
X137041284Y-209869480D01*
X136929480Y-209981284D01*
X136850423Y-210118216D01*
X136809500Y-210270944D01*
X136809500Y-210272389D01*
X136809180Y-210273373D01*
X136808653Y-210277377D01*
X136807911Y-210277279D01*
X136790593Y-210330580D01*
X136780504Y-210342393D01*
X126619507Y-220503390D01*
X126560200Y-220606112D01*
X126560200Y-220606113D01*
X126560201Y-220606114D01*
X126529500Y-220720692D01*
X126529500Y-232262389D01*
X126510593Y-232320580D01*
X126500504Y-232332393D01*
X116872393Y-241960504D01*
X116817876Y-241988281D01*
X116802389Y-241989500D01*
X116800943Y-241989500D01*
X116648216Y-242030423D01*
X116511284Y-242109480D01*
X116399480Y-242221284D01*
X116320423Y-242358216D01*
X116279500Y-242510943D01*
X111980500Y-242510943D01*
X111980500Y-242189742D01*
X111999407Y-242131551D01*
X112009490Y-242119744D01*
X115593847Y-238535386D01*
X115625962Y-238513929D01*
X115668127Y-238496465D01*
X115774669Y-238425276D01*
X115865276Y-238334669D01*
X115936465Y-238228127D01*
X115985501Y-238109744D01*
X116010500Y-237984069D01*
X116010500Y-237935930D01*
X117979500Y-237935930D01*
X117979500Y-238064069D01*
X118004499Y-238189742D01*
X118004500Y-238189747D01*
X118053534Y-238308125D01*
X118053538Y-238308133D01*
X118096365Y-238372226D01*
X118124724Y-238414669D01*
X118215331Y-238505276D01*
X118278848Y-238547717D01*
X118321866Y-238576461D01*
X118321870Y-238576463D01*
X118321873Y-238576465D01*
X118440256Y-238625501D01*
X118565931Y-238650500D01*
X118565932Y-238650500D01*
X118694068Y-238650500D01*
X118694069Y-238650500D01*
X118819744Y-238625501D01*
X118938127Y-238576465D01*
X119044669Y-238505276D01*
X119135276Y-238414669D01*
X119206465Y-238308127D01*
X119255501Y-238189744D01*
X119280500Y-238064069D01*
X119280500Y-238027610D01*
X119299407Y-237969419D01*
X119309490Y-237957612D01*
X121450489Y-235816614D01*
X121479690Y-235766035D01*
X121509767Y-235713942D01*
X121509776Y-235713924D01*
X121509798Y-235713887D01*
X121509799Y-235713886D01*
X121540500Y-235599309D01*
X121540500Y-219750453D01*
X121559407Y-219692262D01*
X121569496Y-219680449D01*
X121595276Y-219654669D01*
X121666465Y-219548127D01*
X121715501Y-219429744D01*
X121740500Y-219304069D01*
X121740500Y-219175931D01*
X121715501Y-219050256D01*
X121666465Y-218931873D01*
X121666463Y-218931870D01*
X121666461Y-218931866D01*
X121637717Y-218888848D01*
X121595276Y-218825331D01*
X121504669Y-218734724D01*
X121462226Y-218706365D01*
X121398133Y-218663538D01*
X121398125Y-218663534D01*
X121279747Y-218614500D01*
X121279745Y-218614499D01*
X121279744Y-218614499D01*
X121154069Y-218589500D01*
X121025931Y-218589500D01*
X121025930Y-218589500D01*
X120963093Y-218601999D01*
X120900256Y-218614499D01*
X120900255Y-218614499D01*
X120900252Y-218614500D01*
X120781874Y-218663534D01*
X120781866Y-218663538D01*
X120675331Y-218734724D01*
X120675327Y-218734727D01*
X120584727Y-218825327D01*
X120584724Y-218825331D01*
X120513538Y-218931866D01*
X120513534Y-218931874D01*
X120464500Y-219050252D01*
X120464499Y-219050257D01*
X120443851Y-219154060D01*
X120439500Y-219175931D01*
X120439500Y-219304069D01*
X120460434Y-219409310D01*
X120464499Y-219429742D01*
X120464500Y-219429747D01*
X120513534Y-219548125D01*
X120513538Y-219548133D01*
X120546134Y-219596915D01*
X120584724Y-219654669D01*
X120584727Y-219654672D01*
X120610504Y-219680449D01*
X120638281Y-219734966D01*
X120639500Y-219750453D01*
X120639500Y-235312389D01*
X120620593Y-235370580D01*
X120610504Y-235382393D01*
X118672393Y-237320504D01*
X118617876Y-237348281D01*
X118602389Y-237349500D01*
X118565930Y-237349500D01*
X118510119Y-237360602D01*
X118440256Y-237374499D01*
X118440255Y-237374499D01*
X118440252Y-237374500D01*
X118321874Y-237423534D01*
X118321866Y-237423538D01*
X118215331Y-237494724D01*
X118215327Y-237494727D01*
X118124727Y-237585327D01*
X118124724Y-237585331D01*
X118053538Y-237691866D01*
X118053534Y-237691874D01*
X118004500Y-237810252D01*
X118004499Y-237810257D01*
X117979500Y-237935930D01*
X116010500Y-237935930D01*
X116010500Y-237855931D01*
X115985501Y-237730256D01*
X115936465Y-237611873D01*
X115936463Y-237611870D01*
X115936461Y-237611866D01*
X115907717Y-237568848D01*
X115865276Y-237505331D01*
X115774669Y-237414724D01*
X115668127Y-237343535D01*
X115625960Y-237326068D01*
X115593844Y-237304609D01*
X109790521Y-231501286D01*
X109790520Y-231501284D01*
X109790516Y-231501280D01*
X109783729Y-231494492D01*
X109771423Y-231479495D01*
X109755280Y-231455335D01*
X109755278Y-231455333D01*
X109664677Y-231364731D01*
X109664672Y-231364727D01*
X109664669Y-231364724D01*
X109622226Y-231336365D01*
X109558133Y-231293538D01*
X109558125Y-231293534D01*
X109439747Y-231244500D01*
X109439745Y-231244499D01*
X109439744Y-231244499D01*
X109314069Y-231219500D01*
X109185931Y-231219500D01*
X109185930Y-231219500D01*
X109144713Y-231227699D01*
X109060256Y-231244499D01*
X109060255Y-231244499D01*
X109060252Y-231244500D01*
X108941874Y-231293534D01*
X108941866Y-231293538D01*
X108835331Y-231364724D01*
X108835327Y-231364727D01*
X108744727Y-231455327D01*
X108744724Y-231455331D01*
X108673538Y-231561866D01*
X108673534Y-231561874D01*
X108624500Y-231680252D01*
X108624499Y-231680257D01*
X108599500Y-231805930D01*
X60565500Y-231805930D01*
X60565500Y-231063468D01*
X66256956Y-231063468D01*
X66256956Y-231196531D01*
X66282916Y-231327037D01*
X66333834Y-231449966D01*
X66399229Y-231547838D01*
X66407761Y-231560606D01*
X66501850Y-231654695D01*
X66612487Y-231728620D01*
X66735420Y-231779540D01*
X66865925Y-231805500D01*
X66865926Y-231805500D01*
X66998986Y-231805500D01*
X66998987Y-231805500D01*
X67129492Y-231779540D01*
X67252425Y-231728620D01*
X67363062Y-231654695D01*
X67457151Y-231560606D01*
X67531076Y-231449969D01*
X67581996Y-231327036D01*
X67607956Y-231196531D01*
X67607956Y-231063469D01*
X67581996Y-230932964D01*
X67531076Y-230810031D01*
X67457151Y-230699394D01*
X67363062Y-230605305D01*
X67252425Y-230531380D01*
X67252424Y-230531379D01*
X67252422Y-230531378D01*
X67129493Y-230480460D01*
X66998987Y-230454500D01*
X66865925Y-230454500D01*
X66865924Y-230454500D01*
X66735418Y-230480460D01*
X66612489Y-230531378D01*
X66501853Y-230605302D01*
X66407758Y-230699397D01*
X66333834Y-230810033D01*
X66282916Y-230932962D01*
X66256956Y-231063468D01*
X60565500Y-231063468D01*
X60565500Y-228080515D01*
X110799500Y-228080515D01*
X110799500Y-228269484D01*
X110829058Y-228456113D01*
X110887453Y-228635832D01*
X110893285Y-228647279D01*
X110973240Y-228804199D01*
X111084310Y-228957073D01*
X111217927Y-229090690D01*
X111370801Y-229201760D01*
X111539168Y-229287547D01*
X111718882Y-229345940D01*
X111718883Y-229345940D01*
X111718886Y-229345941D01*
X111905516Y-229375500D01*
X111905519Y-229375500D01*
X112094484Y-229375500D01*
X112281113Y-229345941D01*
X112281114Y-229345940D01*
X112281118Y-229345940D01*
X112460832Y-229287547D01*
X112629199Y-229201760D01*
X112782073Y-229090690D01*
X112915690Y-228957073D01*
X113026760Y-228804199D01*
X113112547Y-228635832D01*
X113170940Y-228456118D01*
X113194783Y-228305579D01*
X113200500Y-228269484D01*
X113200500Y-228080515D01*
X117299500Y-228080515D01*
X117299500Y-228269484D01*
X117329058Y-228456113D01*
X117387453Y-228635832D01*
X117393285Y-228647279D01*
X117473240Y-228804199D01*
X117584310Y-228957073D01*
X117717927Y-229090690D01*
X117870801Y-229201760D01*
X118039168Y-229287547D01*
X118218882Y-229345940D01*
X118218883Y-229345940D01*
X118218886Y-229345941D01*
X118405516Y-229375500D01*
X118405519Y-229375500D01*
X118594484Y-229375500D01*
X118781113Y-229345941D01*
X118781114Y-229345940D01*
X118781118Y-229345940D01*
X118960832Y-229287547D01*
X119129199Y-229201760D01*
X119282073Y-229090690D01*
X119415690Y-228957073D01*
X119526760Y-228804199D01*
X119612547Y-228635832D01*
X119670940Y-228456118D01*
X119694783Y-228305579D01*
X119700500Y-228269484D01*
X119700500Y-228080515D01*
X119670941Y-227893886D01*
X119654888Y-227844480D01*
X119612547Y-227714168D01*
X119526760Y-227545801D01*
X119415690Y-227392927D01*
X119282073Y-227259310D01*
X119129199Y-227148240D01*
X119129198Y-227148239D01*
X119129196Y-227148238D01*
X118960832Y-227062453D01*
X118781113Y-227004058D01*
X118594484Y-226974500D01*
X118594481Y-226974500D01*
X118405519Y-226974500D01*
X118405516Y-226974500D01*
X118218886Y-227004058D01*
X118039167Y-227062453D01*
X117870803Y-227148238D01*
X117717928Y-227259309D01*
X117584309Y-227392928D01*
X117473238Y-227545803D01*
X117387453Y-227714167D01*
X117329058Y-227893886D01*
X117299500Y-228080515D01*
X113200500Y-228080515D01*
X113170941Y-227893886D01*
X113154888Y-227844480D01*
X113112547Y-227714168D01*
X113026760Y-227545801D01*
X112915690Y-227392927D01*
X112782073Y-227259310D01*
X112629199Y-227148240D01*
X112629198Y-227148239D01*
X112629196Y-227148238D01*
X112460832Y-227062453D01*
X112281113Y-227004058D01*
X112094484Y-226974500D01*
X112094481Y-226974500D01*
X111905519Y-226974500D01*
X111905516Y-226974500D01*
X111718886Y-227004058D01*
X111539167Y-227062453D01*
X111370803Y-227148238D01*
X111217928Y-227259309D01*
X111084309Y-227392928D01*
X110973238Y-227545803D01*
X110887453Y-227714167D01*
X110829058Y-227893886D01*
X110799500Y-228080515D01*
X60565500Y-228080515D01*
X60565500Y-223300943D01*
X87699500Y-223300943D01*
X87699500Y-223459057D01*
X87740423Y-223611784D01*
X87819480Y-223748716D01*
X87931284Y-223860520D01*
X88068216Y-223939577D01*
X88220943Y-223980500D01*
X88220945Y-223980500D01*
X88379055Y-223980500D01*
X88379057Y-223980500D01*
X88531784Y-223939577D01*
X88668716Y-223860520D01*
X88780520Y-223748716D01*
X88859577Y-223611784D01*
X88900500Y-223459057D01*
X88900500Y-223457610D01*
X88900820Y-223456624D01*
X88901347Y-223452623D01*
X88902088Y-223452720D01*
X88919407Y-223399419D01*
X88929490Y-223387612D01*
X89644794Y-222672308D01*
X89699307Y-222644534D01*
X89759739Y-222654105D01*
X89803004Y-222697370D01*
X89813793Y-222741794D01*
X89818991Y-223729220D01*
X89822609Y-223774517D01*
X89822611Y-223774538D01*
X89827113Y-223803514D01*
X89827116Y-223803530D01*
X89832803Y-223831473D01*
X89832804Y-223831476D01*
X89832805Y-223831478D01*
X89879844Y-223933420D01*
X89884213Y-223939577D01*
X89915250Y-223983319D01*
X89915252Y-223983322D01*
X89968771Y-224041178D01*
X89968773Y-224041180D01*
X90066748Y-224096004D01*
X90124723Y-224115562D01*
X90218955Y-224131571D01*
X93918277Y-224173005D01*
X93918277Y-224173004D01*
X93918281Y-224173005D01*
X93929366Y-224172419D01*
X93957264Y-224170947D01*
X93982338Y-224168008D01*
X94004187Y-224164642D01*
X94088486Y-224131570D01*
X94108700Y-224123640D01*
X94108702Y-224123639D01*
X94160585Y-224091208D01*
X94221474Y-224041158D01*
X94281928Y-223946553D01*
X94304840Y-223889819D01*
X94311976Y-223858885D01*
X94326326Y-223796687D01*
X94326326Y-223796686D01*
X94326327Y-223796682D01*
X94463517Y-221830276D01*
X94475907Y-221788784D01*
X96390460Y-218371410D01*
X96435396Y-218329886D01*
X96496159Y-218322704D01*
X96549538Y-218352610D01*
X96568293Y-218381914D01*
X96588415Y-218430494D01*
X96588416Y-218430495D01*
X96670549Y-218553416D01*
X96775084Y-218657951D01*
X96898005Y-218740084D01*
X97034587Y-218796658D01*
X97179582Y-218825500D01*
X97179583Y-218825500D01*
X97327417Y-218825500D01*
X97327418Y-218825500D01*
X97472413Y-218796658D01*
X97608995Y-218740084D01*
X97731916Y-218657951D01*
X97836451Y-218553416D01*
X97918571Y-218430515D01*
X110649500Y-218430515D01*
X110649500Y-218619484D01*
X110679058Y-218806113D01*
X110737453Y-218985832D01*
X110808107Y-219124500D01*
X110823240Y-219154199D01*
X110934310Y-219307073D01*
X111067927Y-219440690D01*
X111220801Y-219551760D01*
X111389168Y-219637547D01*
X111568882Y-219695940D01*
X111568883Y-219695940D01*
X111568886Y-219695941D01*
X111755516Y-219725500D01*
X111755519Y-219725500D01*
X111944484Y-219725500D01*
X112131113Y-219695941D01*
X112131114Y-219695940D01*
X112131118Y-219695940D01*
X112310832Y-219637547D01*
X112479199Y-219551760D01*
X112632073Y-219440690D01*
X112765690Y-219307073D01*
X112876760Y-219154199D01*
X112962547Y-218985832D01*
X113020940Y-218806118D01*
X113020941Y-218806113D01*
X113050500Y-218619484D01*
X113050500Y-218430515D01*
X117149500Y-218430515D01*
X117149500Y-218619484D01*
X117179058Y-218806113D01*
X117237453Y-218985832D01*
X117308107Y-219124500D01*
X117323240Y-219154199D01*
X117434310Y-219307073D01*
X117567927Y-219440690D01*
X117720801Y-219551760D01*
X117889168Y-219637547D01*
X118068882Y-219695940D01*
X118068883Y-219695940D01*
X118068886Y-219695941D01*
X118255516Y-219725500D01*
X118255519Y-219725500D01*
X118444484Y-219725500D01*
X118631113Y-219695941D01*
X118631114Y-219695940D01*
X118631118Y-219695940D01*
X118810832Y-219637547D01*
X118979199Y-219551760D01*
X119132073Y-219440690D01*
X119265690Y-219307073D01*
X119376760Y-219154199D01*
X119462547Y-218985832D01*
X119520940Y-218806118D01*
X119520941Y-218806113D01*
X119550500Y-218619484D01*
X119550500Y-218430515D01*
X119520941Y-218243886D01*
X119490083Y-218148916D01*
X119462547Y-218064168D01*
X119376760Y-217895801D01*
X119265690Y-217742927D01*
X119132073Y-217609310D01*
X118979199Y-217498240D01*
X118979198Y-217498239D01*
X118979196Y-217498238D01*
X118810832Y-217412453D01*
X118631113Y-217354058D01*
X118444484Y-217324500D01*
X118444481Y-217324500D01*
X118255519Y-217324500D01*
X118255516Y-217324500D01*
X118068886Y-217354058D01*
X117889167Y-217412453D01*
X117720803Y-217498238D01*
X117567928Y-217609309D01*
X117434309Y-217742928D01*
X117323238Y-217895803D01*
X117237453Y-218064167D01*
X117179058Y-218243886D01*
X117149500Y-218430515D01*
X113050500Y-218430515D01*
X113020941Y-218243886D01*
X112990083Y-218148916D01*
X112962547Y-218064168D01*
X112876760Y-217895801D01*
X112765690Y-217742927D01*
X112632073Y-217609310D01*
X112479199Y-217498240D01*
X112479198Y-217498239D01*
X112479196Y-217498238D01*
X112310832Y-217412453D01*
X112131113Y-217354058D01*
X111944484Y-217324500D01*
X111944481Y-217324500D01*
X111755519Y-217324500D01*
X111755516Y-217324500D01*
X111568886Y-217354058D01*
X111389167Y-217412453D01*
X111220803Y-217498238D01*
X111067928Y-217609309D01*
X110934309Y-217742928D01*
X110823238Y-217895803D01*
X110737453Y-218064167D01*
X110679058Y-218243886D01*
X110649500Y-218430515D01*
X97918571Y-218430515D01*
X97918584Y-218430495D01*
X97975158Y-218293913D01*
X98004000Y-218148918D01*
X98004000Y-218001082D01*
X97975158Y-217856087D01*
X97918584Y-217719505D01*
X97836451Y-217596584D01*
X97731916Y-217492049D01*
X97608995Y-217409916D01*
X97608993Y-217409915D01*
X97472414Y-217353342D01*
X97327418Y-217324500D01*
X97179582Y-217324500D01*
X97179581Y-217324500D01*
X97034585Y-217353342D01*
X96935940Y-217394202D01*
X96874943Y-217399002D01*
X96822774Y-217367033D01*
X96799360Y-217310505D01*
X96799063Y-217301452D01*
X96800014Y-217228216D01*
X96817864Y-215853760D01*
X96837526Y-215795823D01*
X96887489Y-215760505D01*
X96948669Y-215761300D01*
X96954741Y-215763585D01*
X97000286Y-215782450D01*
X97034587Y-215796658D01*
X97179582Y-215825500D01*
X97179583Y-215825500D01*
X97327417Y-215825500D01*
X97327418Y-215825500D01*
X97472413Y-215796658D01*
X97608995Y-215740084D01*
X97731916Y-215657951D01*
X97836451Y-215553416D01*
X97918584Y-215430495D01*
X97975158Y-215293913D01*
X98004000Y-215148918D01*
X98004000Y-215001082D01*
X97975158Y-214856087D01*
X97918584Y-214719505D01*
X97836451Y-214596584D01*
X97731916Y-214492049D01*
X97608995Y-214409916D01*
X97543476Y-214382777D01*
X97472414Y-214353342D01*
X97327418Y-214324500D01*
X97179582Y-214324500D01*
X97179581Y-214324500D01*
X97034585Y-214353342D01*
X96975111Y-214377977D01*
X96914114Y-214382777D01*
X96861945Y-214350808D01*
X96838531Y-214294279D01*
X96838234Y-214285242D01*
X96919183Y-208052280D01*
X96914685Y-207995931D01*
X96908430Y-207959991D01*
X96904506Y-207943762D01*
X96899114Y-207921458D01*
X96846577Y-207822242D01*
X96846575Y-207822238D01*
X96808495Y-207774347D01*
X96751893Y-207719498D01*
X96651070Y-207670108D01*
X96651067Y-207670107D01*
X96592112Y-207653745D01*
X96497151Y-207642907D01*
X93744369Y-207762594D01*
X93735769Y-207762594D01*
X93183884Y-207738599D01*
X93183876Y-207738598D01*
X93183856Y-207738598D01*
X93166748Y-207738335D01*
X93156598Y-207738464D01*
X93155636Y-207738477D01*
X93138498Y-207739176D01*
X93138495Y-207739176D01*
X93138475Y-207739177D01*
X92513920Y-207782249D01*
X92472492Y-207787975D01*
X92446033Y-207793500D01*
X92421919Y-207799568D01*
X92421914Y-207799570D01*
X92321929Y-207850619D01*
X92321928Y-207850620D01*
X92273469Y-207887986D01*
X92217788Y-207943760D01*
X92217784Y-207943765D01*
X92166899Y-208043835D01*
X92156556Y-208079060D01*
X92149661Y-208102542D01*
X92149661Y-208102544D01*
X92137410Y-208197343D01*
X92183054Y-209794924D01*
X92179934Y-209822564D01*
X90215340Y-217410637D01*
X90182451Y-217462232D01*
X90125517Y-217484641D01*
X90066285Y-217469305D01*
X90027379Y-217422083D01*
X90020500Y-217385824D01*
X90020500Y-217380944D01*
X90020500Y-217380943D01*
X89979577Y-217228216D01*
X89900520Y-217091284D01*
X89788716Y-216979480D01*
X89651784Y-216900423D01*
X89499057Y-216859500D01*
X89340943Y-216859500D01*
X89188216Y-216900423D01*
X89051284Y-216979480D01*
X88939480Y-217091284D01*
X88860423Y-217228216D01*
X88819500Y-217380943D01*
X88819500Y-217539057D01*
X88860423Y-217691784D01*
X88939480Y-217828716D01*
X88940505Y-217829741D01*
X88940977Y-217830668D01*
X88943431Y-217833866D01*
X88942838Y-217834320D01*
X88968281Y-217884256D01*
X88969500Y-217899743D01*
X88969500Y-222032389D01*
X88950593Y-222090580D01*
X88940504Y-222102393D01*
X88292393Y-222750504D01*
X88237876Y-222778281D01*
X88222389Y-222779500D01*
X88220943Y-222779500D01*
X88068216Y-222820423D01*
X87931284Y-222899480D01*
X87819480Y-223011284D01*
X87740423Y-223148216D01*
X87699500Y-223300943D01*
X60565500Y-223300943D01*
X60565500Y-220230515D01*
X69072000Y-220230515D01*
X69072000Y-220419484D01*
X69101558Y-220606113D01*
X69159953Y-220785832D01*
X69245740Y-220954199D01*
X69356810Y-221107073D01*
X69490427Y-221240690D01*
X69643301Y-221351760D01*
X69811668Y-221437547D01*
X69991382Y-221495940D01*
X69991383Y-221495940D01*
X69991386Y-221495941D01*
X70178016Y-221525500D01*
X70178019Y-221525500D01*
X70366984Y-221525500D01*
X70553613Y-221495941D01*
X70553614Y-221495940D01*
X70553618Y-221495940D01*
X70733332Y-221437547D01*
X70901699Y-221351760D01*
X71054573Y-221240690D01*
X71188190Y-221107073D01*
X71299260Y-220954199D01*
X71385047Y-220785832D01*
X71443440Y-220606118D01*
X71443441Y-220606112D01*
X71444719Y-220598046D01*
X71472496Y-220543529D01*
X71527012Y-220515751D01*
X71587444Y-220525322D01*
X71630709Y-220568586D01*
X71640281Y-220598046D01*
X71641558Y-220606113D01*
X71699953Y-220785832D01*
X71785740Y-220954199D01*
X71896810Y-221107073D01*
X72030427Y-221240690D01*
X72183301Y-221351760D01*
X72351668Y-221437547D01*
X72531382Y-221495940D01*
X72531383Y-221495940D01*
X72531386Y-221495941D01*
X72718016Y-221525500D01*
X72718019Y-221525500D01*
X72906984Y-221525500D01*
X73093613Y-221495941D01*
X73093614Y-221495940D01*
X73093618Y-221495940D01*
X73273332Y-221437547D01*
X73441699Y-221351760D01*
X73594573Y-221240690D01*
X73728190Y-221107073D01*
X73839260Y-220954199D01*
X73925047Y-220785832D01*
X73983440Y-220606118D01*
X73983441Y-220606112D01*
X73984719Y-220598046D01*
X74012496Y-220543529D01*
X74067012Y-220515751D01*
X74127444Y-220525322D01*
X74170709Y-220568586D01*
X74180281Y-220598046D01*
X74181558Y-220606113D01*
X74239953Y-220785832D01*
X74325740Y-220954199D01*
X74436810Y-221107073D01*
X74570427Y-221240690D01*
X74723301Y-221351760D01*
X74891668Y-221437547D01*
X75071382Y-221495940D01*
X75071383Y-221495940D01*
X75071386Y-221495941D01*
X75258016Y-221525500D01*
X75258019Y-221525500D01*
X75446984Y-221525500D01*
X75633613Y-221495941D01*
X75633614Y-221495940D01*
X75633618Y-221495940D01*
X75813332Y-221437547D01*
X75981699Y-221351760D01*
X76134573Y-221240690D01*
X76268190Y-221107073D01*
X76379260Y-220954199D01*
X76465047Y-220785832D01*
X76523440Y-220606118D01*
X76523441Y-220606112D01*
X76553000Y-220419484D01*
X76553000Y-220230515D01*
X76523441Y-220043886D01*
X76523440Y-220043882D01*
X76465047Y-219864168D01*
X76379260Y-219695801D01*
X76268190Y-219542927D01*
X76134573Y-219409310D01*
X75981699Y-219298240D01*
X75981698Y-219298239D01*
X75981696Y-219298238D01*
X75813332Y-219212453D01*
X75633613Y-219154058D01*
X75446984Y-219124500D01*
X75446981Y-219124500D01*
X75258019Y-219124500D01*
X75258016Y-219124500D01*
X75071386Y-219154058D01*
X74891667Y-219212453D01*
X74723303Y-219298238D01*
X74570428Y-219409309D01*
X74436809Y-219542928D01*
X74325738Y-219695803D01*
X74239953Y-219864167D01*
X74181558Y-220043886D01*
X74180281Y-220051954D01*
X74152504Y-220106471D01*
X74097987Y-220134248D01*
X74037555Y-220124677D01*
X73994290Y-220081412D01*
X73984719Y-220051954D01*
X73983441Y-220043886D01*
X73983440Y-220043882D01*
X73925047Y-219864168D01*
X73839260Y-219695801D01*
X73728190Y-219542927D01*
X73594573Y-219409310D01*
X73441699Y-219298240D01*
X73441698Y-219298239D01*
X73441696Y-219298238D01*
X73273332Y-219212453D01*
X73093613Y-219154058D01*
X72906984Y-219124500D01*
X72906981Y-219124500D01*
X72718019Y-219124500D01*
X72718016Y-219124500D01*
X72531386Y-219154058D01*
X72351667Y-219212453D01*
X72183303Y-219298238D01*
X72030428Y-219409309D01*
X71896809Y-219542928D01*
X71785738Y-219695803D01*
X71699953Y-219864167D01*
X71641558Y-220043886D01*
X71640281Y-220051954D01*
X71612504Y-220106471D01*
X71557987Y-220134248D01*
X71497555Y-220124677D01*
X71454290Y-220081412D01*
X71444719Y-220051954D01*
X71443441Y-220043886D01*
X71443440Y-220043882D01*
X71385047Y-219864168D01*
X71299260Y-219695801D01*
X71188190Y-219542927D01*
X71054573Y-219409310D01*
X70901699Y-219298240D01*
X70901698Y-219298239D01*
X70901696Y-219298238D01*
X70733332Y-219212453D01*
X70553613Y-219154058D01*
X70366984Y-219124500D01*
X70366981Y-219124500D01*
X70178019Y-219124500D01*
X70178016Y-219124500D01*
X69991386Y-219154058D01*
X69811667Y-219212453D01*
X69643303Y-219298238D01*
X69490428Y-219409309D01*
X69356809Y-219542928D01*
X69245738Y-219695803D01*
X69159953Y-219864167D01*
X69101558Y-220043886D01*
X69072000Y-220230515D01*
X60565500Y-220230515D01*
X60565500Y-213842059D01*
X72278190Y-213842059D01*
X72278190Y-213842071D01*
X72279895Y-213891940D01*
X72279895Y-213891943D01*
X72313152Y-213999176D01*
X72341705Y-214053287D01*
X72398990Y-214129810D01*
X78007387Y-219580222D01*
X78007394Y-219580228D01*
X78007403Y-219580237D01*
X78026023Y-219596907D01*
X78038515Y-219607202D01*
X78044812Y-219612253D01*
X78144496Y-219663904D01*
X78203069Y-219681591D01*
X78270894Y-219690884D01*
X78297757Y-219694566D01*
X78297759Y-219694566D01*
X78297766Y-219694567D01*
X78297771Y-219694566D01*
X78297774Y-219694567D01*
X81033007Y-219637385D01*
X81033013Y-219637384D01*
X81071929Y-219634073D01*
X81096921Y-219630325D01*
X81118707Y-219626245D01*
X81221841Y-219581882D01*
X81272647Y-219547789D01*
X81331883Y-219495794D01*
X81389244Y-219399283D01*
X81410308Y-219341837D01*
X81428770Y-219248056D01*
X81486840Y-217691783D01*
X81523652Y-216705233D01*
X81523652Y-216705226D01*
X81523653Y-216705200D01*
X81523212Y-216673841D01*
X81521885Y-216653582D01*
X81520599Y-216639188D01*
X81487687Y-216531849D01*
X81459307Y-216477643D01*
X81402275Y-216400945D01*
X80784458Y-215796657D01*
X75969267Y-211086908D01*
X75969262Y-211086904D01*
X75969257Y-211086899D01*
X75917095Y-211045948D01*
X75917089Y-211045944D01*
X75917084Y-211045940D01*
X75880844Y-211023380D01*
X75880827Y-211023370D01*
X75880824Y-211023368D01*
X75821046Y-210994635D01*
X75821040Y-210994632D01*
X75689717Y-210948283D01*
X75689703Y-210948279D01*
X75633218Y-210934225D01*
X75633196Y-210934221D01*
X75596055Y-210928669D01*
X75596058Y-210928669D01*
X75537920Y-210925587D01*
X75537918Y-210925587D01*
X75465391Y-210928669D01*
X75048264Y-210946394D01*
X75035116Y-210947239D01*
X75026568Y-210947974D01*
X75013489Y-210949383D01*
X73246113Y-211178555D01*
X73165751Y-211200424D01*
X73165749Y-211200424D01*
X73165748Y-211200425D01*
X73153672Y-211205564D01*
X73116546Y-211221367D01*
X73058588Y-211253894D01*
X72980787Y-211334842D01*
X72947218Y-211385991D01*
X72947214Y-211385999D01*
X72907916Y-211473132D01*
X72290684Y-213733148D01*
X72280236Y-213799102D01*
X72278190Y-213842059D01*
X60565500Y-213842059D01*
X60565500Y-203265433D01*
X119379500Y-203265433D01*
X119379500Y-203514566D01*
X119412017Y-203761557D01*
X119412017Y-203761562D01*
X119476496Y-204002199D01*
X119476500Y-204002212D01*
X119571832Y-204232365D01*
X119571834Y-204232369D01*
X119571836Y-204232373D01*
X119696401Y-204448127D01*
X119696403Y-204448130D01*
X119848056Y-204645769D01*
X119848058Y-204645771D01*
X119848062Y-204645776D01*
X120024224Y-204821938D01*
X120024228Y-204821941D01*
X120024230Y-204821943D01*
X120221869Y-204973596D01*
X120221873Y-204973599D01*
X120437627Y-205098164D01*
X120667793Y-205193502D01*
X120908435Y-205257982D01*
X121155435Y-205290500D01*
X121155436Y-205290500D01*
X121404564Y-205290500D01*
X121404565Y-205290500D01*
X121651565Y-205257982D01*
X121892207Y-205193502D01*
X122122373Y-205098164D01*
X122338127Y-204973599D01*
X122535776Y-204821938D01*
X122711938Y-204645776D01*
X122863599Y-204448127D01*
X122988164Y-204232373D01*
X123083502Y-204002207D01*
X123147982Y-203761565D01*
X123180500Y-203514565D01*
X123180500Y-203265435D01*
X123147982Y-203018435D01*
X123083502Y-202777793D01*
X122988164Y-202547627D01*
X122863599Y-202331873D01*
X122748788Y-202182248D01*
X122711943Y-202134230D01*
X122711941Y-202134228D01*
X122711938Y-202134224D01*
X122535776Y-201958062D01*
X122535771Y-201958058D01*
X122535769Y-201958056D01*
X122338130Y-201806403D01*
X122338127Y-201806401D01*
X122122373Y-201681836D01*
X122122369Y-201681834D01*
X122122365Y-201681832D01*
X121892212Y-201586500D01*
X121892211Y-201586499D01*
X121892207Y-201586498D01*
X121651565Y-201522018D01*
X121651562Y-201522017D01*
X121651560Y-201522017D01*
X121404566Y-201489500D01*
X121404565Y-201489500D01*
X121155435Y-201489500D01*
X121155433Y-201489500D01*
X120908442Y-201522017D01*
X120908437Y-201522017D01*
X120667800Y-201586496D01*
X120667787Y-201586500D01*
X120437634Y-201681832D01*
X120221869Y-201806403D01*
X120024230Y-201958056D01*
X119848056Y-202134230D01*
X119696403Y-202331869D01*
X119571832Y-202547634D01*
X119476500Y-202777787D01*
X119476496Y-202777800D01*
X119412017Y-203018437D01*
X119412017Y-203018442D01*
X119379500Y-203265433D01*
X60565500Y-203265433D01*
X60565500Y-198548976D01*
X74408556Y-198548976D01*
X74409522Y-198627784D01*
X74445521Y-198734127D01*
X74475455Y-198787490D01*
X74534683Y-198862511D01*
X78032061Y-202090860D01*
X78032067Y-202090865D01*
X78032077Y-202090874D01*
X78062928Y-202115839D01*
X78062943Y-202115851D01*
X78083920Y-202130678D01*
X78103014Y-202143133D01*
X78208251Y-202182247D01*
X78268544Y-202192662D01*
X78313546Y-202194538D01*
X78347296Y-202195946D01*
X78347296Y-202195945D01*
X78347299Y-202195946D01*
X78455427Y-202165732D01*
X78510326Y-202138718D01*
X78588428Y-202083623D01*
X96912743Y-184264110D01*
X96966261Y-184194450D01*
X96993807Y-184145299D01*
X97021102Y-184079693D01*
X97024573Y-184042430D01*
X97031517Y-183967910D01*
X97031517Y-183967905D01*
X97025902Y-183906981D01*
X97025900Y-183906971D01*
X97002350Y-183814347D01*
X95785433Y-180983990D01*
X95766765Y-180940571D01*
X110930769Y-180940571D01*
X110930769Y-180940577D01*
X110936251Y-181001511D01*
X110953383Y-181078449D01*
X110953383Y-181078450D01*
X110953384Y-181078451D01*
X111010457Y-181175134D01*
X111050712Y-181221211D01*
X111124082Y-181282467D01*
X114949449Y-183568124D01*
X114957197Y-183572307D01*
X114972845Y-183580756D01*
X114977277Y-183582904D01*
X114988359Y-183588278D01*
X114997132Y-183592361D01*
X115106318Y-183618502D01*
X115167427Y-183621572D01*
X115246003Y-183615338D01*
X115349700Y-183572307D01*
X115400942Y-183538871D01*
X115471832Y-183474762D01*
X116871846Y-181738185D01*
X116878898Y-181730336D01*
X116980520Y-181628716D01*
X117028195Y-181546137D01*
X117036851Y-181533513D01*
X118761929Y-179393730D01*
X128324500Y-179393730D01*
X128324500Y-179561269D01*
X128357183Y-179725579D01*
X128357185Y-179725585D01*
X128421296Y-179880362D01*
X128421297Y-179880363D01*
X128514374Y-180019662D01*
X128632838Y-180138126D01*
X128772137Y-180231203D01*
X128926918Y-180295316D01*
X129091233Y-180328000D01*
X129091234Y-180328000D01*
X129258766Y-180328000D01*
X129258767Y-180328000D01*
X129423082Y-180295316D01*
X129577863Y-180231203D01*
X129717162Y-180138126D01*
X129835626Y-180019662D01*
X129928703Y-179880363D01*
X129992816Y-179725582D01*
X130025500Y-179561267D01*
X130025500Y-179393733D01*
X130025499Y-179393730D01*
X133324500Y-179393730D01*
X133324500Y-179561269D01*
X133357183Y-179725579D01*
X133357185Y-179725585D01*
X133421296Y-179880362D01*
X133421297Y-179880363D01*
X133514374Y-180019662D01*
X133632838Y-180138126D01*
X133772137Y-180231203D01*
X133926918Y-180295316D01*
X134091233Y-180328000D01*
X134091234Y-180328000D01*
X134258766Y-180328000D01*
X134258767Y-180328000D01*
X134423082Y-180295316D01*
X134577863Y-180231203D01*
X134717162Y-180138126D01*
X134835626Y-180019662D01*
X134928703Y-179880363D01*
X134992816Y-179725582D01*
X135025500Y-179561267D01*
X135025500Y-179393733D01*
X134992816Y-179229418D01*
X134928703Y-179074637D01*
X134835626Y-178935338D01*
X134717162Y-178816874D01*
X134577863Y-178723797D01*
X134577864Y-178723797D01*
X134577862Y-178723796D01*
X134423085Y-178659685D01*
X134423079Y-178659683D01*
X134258769Y-178627000D01*
X134258767Y-178627000D01*
X134091233Y-178627000D01*
X134091230Y-178627000D01*
X133926920Y-178659683D01*
X133926914Y-178659685D01*
X133772137Y-178723796D01*
X133632838Y-178816874D01*
X133632834Y-178816877D01*
X133514377Y-178935334D01*
X133514374Y-178935338D01*
X133421296Y-179074637D01*
X133357185Y-179229414D01*
X133357183Y-179229420D01*
X133324500Y-179393730D01*
X130025499Y-179393730D01*
X129992816Y-179229418D01*
X129928703Y-179074637D01*
X129835626Y-178935338D01*
X129717162Y-178816874D01*
X129577863Y-178723797D01*
X129577864Y-178723797D01*
X129577862Y-178723796D01*
X129423085Y-178659685D01*
X129423079Y-178659683D01*
X129258769Y-178627000D01*
X129258767Y-178627000D01*
X129091233Y-178627000D01*
X129091230Y-178627000D01*
X128926920Y-178659683D01*
X128926914Y-178659685D01*
X128772137Y-178723796D01*
X128632838Y-178816874D01*
X128632834Y-178816877D01*
X128514377Y-178935334D01*
X128514374Y-178935338D01*
X128421296Y-179074637D01*
X128357185Y-179229414D01*
X128357183Y-179229420D01*
X128324500Y-179393730D01*
X118761929Y-179393730D01*
X122425908Y-174848939D01*
X122430631Y-174842929D01*
X122433651Y-174838985D01*
X122481641Y-174747657D01*
X122500548Y-174689466D01*
X122515500Y-174595063D01*
X122515500Y-171182128D01*
X122515429Y-171175537D01*
X122515389Y-171173689D01*
X122515338Y-171171287D01*
X122515125Y-171164710D01*
X122469321Y-170102069D01*
X122469321Y-170102064D01*
X122468123Y-170091432D01*
X122464604Y-170060177D01*
X122459693Y-170033367D01*
X122454123Y-170008746D01*
X122405428Y-169907585D01*
X122405426Y-169907582D01*
X122405425Y-169907580D01*
X122369217Y-169858275D01*
X122369214Y-169858271D01*
X122369212Y-169858269D01*
X122345793Y-169833766D01*
X122314757Y-169801292D01*
X122314752Y-169801289D01*
X122215901Y-169748071D01*
X122215899Y-169748070D01*
X122157617Y-169729461D01*
X122157614Y-169729460D01*
X122063127Y-169714989D01*
X122061532Y-169714997D01*
X122061023Y-169714834D01*
X122059250Y-169714704D01*
X122059281Y-169714277D01*
X122003249Y-169696377D01*
X121967041Y-169647055D01*
X121966740Y-169585870D01*
X121975304Y-169566504D01*
X121989577Y-169541784D01*
X122030500Y-169389057D01*
X122030500Y-169387611D01*
X122030819Y-169386626D01*
X122031347Y-169382623D01*
X122032088Y-169382720D01*
X122049407Y-169329420D01*
X122059496Y-169317607D01*
X123747607Y-167629496D01*
X123802124Y-167601719D01*
X123817611Y-167600500D01*
X123909055Y-167600500D01*
X123909057Y-167600500D01*
X124061784Y-167559577D01*
X124198716Y-167480520D01*
X124310520Y-167368716D01*
X124389577Y-167231784D01*
X124430500Y-167079057D01*
X124430500Y-166920943D01*
X124389577Y-166768216D01*
X124310520Y-166631284D01*
X124198716Y-166519480D01*
X124061784Y-166440423D01*
X123909057Y-166399500D01*
X123750943Y-166399500D01*
X123610222Y-166437206D01*
X123598216Y-166440423D01*
X123461284Y-166519480D01*
X123349479Y-166631285D01*
X123329016Y-166666728D01*
X123283546Y-166707669D01*
X123222695Y-166714063D01*
X123169708Y-166683470D01*
X123145416Y-166632181D01*
X123142414Y-166612535D01*
X123133563Y-166572678D01*
X123133563Y-166572677D01*
X123082698Y-166472590D01*
X123045427Y-166424067D01*
X122989760Y-166368281D01*
X122989758Y-166368279D01*
X122889785Y-166317205D01*
X122889781Y-166317203D01*
X122831114Y-166299855D01*
X122831104Y-166299853D01*
X122736331Y-166287421D01*
X121503141Y-166320307D01*
X121503123Y-166320308D01*
X121502695Y-166320373D01*
X121496381Y-166321115D01*
X121488231Y-166321808D01*
X121482723Y-166321368D01*
X121352133Y-166331472D01*
X121338419Y-166334556D01*
X121331673Y-166335131D01*
X121326887Y-166334014D01*
X121317366Y-166334507D01*
X121317348Y-166335104D01*
X121313056Y-166334970D01*
X121313054Y-166334970D01*
X121157425Y-166343616D01*
X120090942Y-166402864D01*
X120075059Y-166404164D01*
X120064782Y-166405276D01*
X120064770Y-166405279D01*
X119958164Y-166437206D01*
X119903733Y-166465140D01*
X119903729Y-166465142D01*
X119826561Y-166521553D01*
X118168357Y-168189453D01*
X118161970Y-168196074D01*
X118157922Y-168200399D01*
X118157911Y-168200413D01*
X118100571Y-168287870D01*
X118076281Y-168344014D01*
X118076278Y-168344024D01*
X118052517Y-168436605D01*
X117627908Y-172933599D01*
X117604539Y-172988690D01*
X111024326Y-180672113D01*
X110983474Y-180733491D01*
X110962155Y-180775847D01*
X110962152Y-180775855D01*
X110941427Y-180828803D01*
X110941425Y-180828809D01*
X110930769Y-180940571D01*
X95766765Y-180940571D01*
X95244377Y-179725579D01*
X94792750Y-178675166D01*
X94783780Y-178659683D01*
X94771398Y-178638309D01*
X94756385Y-178612394D01*
X94756383Y-178612391D01*
X94756382Y-178612389D01*
X94728359Y-178575071D01*
X94728346Y-178575055D01*
X94690988Y-178533758D01*
X94690986Y-178533757D01*
X94690985Y-178533755D01*
X94595823Y-178474182D01*
X94595820Y-178474180D01*
X94595814Y-178474177D01*
X94538884Y-178451799D01*
X94538878Y-178451797D01*
X94445553Y-178431177D01*
X94445549Y-178431176D01*
X89936618Y-178158658D01*
X89936617Y-178158658D01*
X89935103Y-178158701D01*
X89882308Y-178160215D01*
X89847490Y-178164333D01*
X89810655Y-178170998D01*
X89708376Y-178217300D01*
X89658231Y-178252339D01*
X89658228Y-178252342D01*
X89589404Y-178318676D01*
X89589401Y-178318679D01*
X74486230Y-198321542D01*
X74467852Y-198348823D01*
X74467849Y-198348828D01*
X74456928Y-198367086D01*
X74449086Y-198381013D01*
X74449085Y-198381015D01*
X74449085Y-198381016D01*
X74415704Y-198488209D01*
X74408556Y-198548976D01*
X60565500Y-198548976D01*
X60565500Y-184830515D01*
X69099500Y-184830515D01*
X69099500Y-185019484D01*
X69129058Y-185206113D01*
X69129060Y-185206118D01*
X69187453Y-185385832D01*
X69273240Y-185554199D01*
X69384310Y-185707073D01*
X69517927Y-185840690D01*
X69670801Y-185951760D01*
X69839168Y-186037547D01*
X70018882Y-186095940D01*
X70018883Y-186095940D01*
X70018886Y-186095941D01*
X70205516Y-186125500D01*
X70205519Y-186125500D01*
X70394484Y-186125500D01*
X70581113Y-186095941D01*
X70581114Y-186095940D01*
X70581118Y-186095940D01*
X70760832Y-186037547D01*
X70929199Y-185951760D01*
X71082073Y-185840690D01*
X71215690Y-185707073D01*
X71326760Y-185554199D01*
X71412547Y-185385832D01*
X71470940Y-185206118D01*
X71470941Y-185206113D01*
X71472219Y-185198046D01*
X71499996Y-185143529D01*
X71554512Y-185115751D01*
X71614944Y-185125322D01*
X71658209Y-185168586D01*
X71667781Y-185198046D01*
X71669058Y-185206113D01*
X71669060Y-185206118D01*
X71727453Y-185385832D01*
X71813240Y-185554199D01*
X71924310Y-185707073D01*
X72057927Y-185840690D01*
X72210801Y-185951760D01*
X72379168Y-186037547D01*
X72558882Y-186095940D01*
X72558883Y-186095940D01*
X72558886Y-186095941D01*
X72745516Y-186125500D01*
X72745519Y-186125500D01*
X72934484Y-186125500D01*
X73121113Y-186095941D01*
X73121114Y-186095940D01*
X73121118Y-186095940D01*
X73300832Y-186037547D01*
X73469199Y-185951760D01*
X73622073Y-185840690D01*
X73755690Y-185707073D01*
X73866760Y-185554199D01*
X73952547Y-185385832D01*
X74010940Y-185206118D01*
X74010941Y-185206113D01*
X74012219Y-185198046D01*
X74039996Y-185143529D01*
X74094512Y-185115751D01*
X74154944Y-185125322D01*
X74198209Y-185168586D01*
X74207781Y-185198046D01*
X74209058Y-185206113D01*
X74209060Y-185206118D01*
X74267453Y-185385832D01*
X74353240Y-185554199D01*
X74464310Y-185707073D01*
X74597927Y-185840690D01*
X74750801Y-185951760D01*
X74919168Y-186037547D01*
X75098882Y-186095940D01*
X75098883Y-186095940D01*
X75098886Y-186095941D01*
X75285516Y-186125500D01*
X75285519Y-186125500D01*
X75474484Y-186125500D01*
X75661113Y-186095941D01*
X75661114Y-186095940D01*
X75661118Y-186095940D01*
X75840832Y-186037547D01*
X76009199Y-185951760D01*
X76162073Y-185840690D01*
X76295690Y-185707073D01*
X76406760Y-185554199D01*
X76492547Y-185385832D01*
X76550940Y-185206118D01*
X76550941Y-185206113D01*
X76580500Y-185019484D01*
X76580500Y-184830515D01*
X76550941Y-184643886D01*
X76550940Y-184643882D01*
X76492547Y-184464168D01*
X76406760Y-184295801D01*
X76295690Y-184142927D01*
X76162073Y-184009310D01*
X76009199Y-183898240D01*
X76009198Y-183898239D01*
X76009196Y-183898238D01*
X75840832Y-183812453D01*
X75661113Y-183754058D01*
X75474484Y-183724500D01*
X75474481Y-183724500D01*
X75285519Y-183724500D01*
X75285516Y-183724500D01*
X75098886Y-183754058D01*
X74919167Y-183812453D01*
X74750803Y-183898238D01*
X74597928Y-184009309D01*
X74464309Y-184142928D01*
X74353238Y-184295803D01*
X74267453Y-184464167D01*
X74209058Y-184643886D01*
X74207781Y-184651954D01*
X74180004Y-184706471D01*
X74125487Y-184734248D01*
X74065055Y-184724677D01*
X74021790Y-184681412D01*
X74012219Y-184651954D01*
X74010941Y-184643886D01*
X74010940Y-184643882D01*
X73952547Y-184464168D01*
X73866760Y-184295801D01*
X73755690Y-184142927D01*
X73622073Y-184009310D01*
X73469199Y-183898240D01*
X73469198Y-183898239D01*
X73469196Y-183898238D01*
X73300832Y-183812453D01*
X73121113Y-183754058D01*
X72934484Y-183724500D01*
X72934481Y-183724500D01*
X72745519Y-183724500D01*
X72745516Y-183724500D01*
X72558886Y-183754058D01*
X72379167Y-183812453D01*
X72210803Y-183898238D01*
X72057928Y-184009309D01*
X71924309Y-184142928D01*
X71813238Y-184295803D01*
X71727453Y-184464167D01*
X71669058Y-184643886D01*
X71667781Y-184651954D01*
X71640004Y-184706471D01*
X71585487Y-184734248D01*
X71525055Y-184724677D01*
X71481790Y-184681412D01*
X71472219Y-184651954D01*
X71470941Y-184643886D01*
X71470940Y-184643882D01*
X71412547Y-184464168D01*
X71326760Y-184295801D01*
X71215690Y-184142927D01*
X71082073Y-184009310D01*
X70929199Y-183898240D01*
X70929198Y-183898239D01*
X70929196Y-183898238D01*
X70760832Y-183812453D01*
X70581113Y-183754058D01*
X70394484Y-183724500D01*
X70394481Y-183724500D01*
X70205519Y-183724500D01*
X70205516Y-183724500D01*
X70018886Y-183754058D01*
X69839167Y-183812453D01*
X69670803Y-183898238D01*
X69517928Y-184009309D01*
X69384309Y-184142928D01*
X69273238Y-184295803D01*
X69187453Y-184464167D01*
X69129058Y-184643886D01*
X69099500Y-184830515D01*
X60565500Y-184830515D01*
X60565500Y-163352400D01*
X124920845Y-163352400D01*
X124920845Y-163352402D01*
X124920845Y-163352404D01*
X124928277Y-163426881D01*
X124930974Y-163453914D01*
X124931993Y-163464120D01*
X124949152Y-163522850D01*
X124989980Y-163609274D01*
X125688994Y-164634495D01*
X125700652Y-164649065D01*
X125718136Y-164670917D01*
X125738709Y-164692945D01*
X125738716Y-164692952D01*
X125738718Y-164692954D01*
X125773076Y-164724521D01*
X129375653Y-167559107D01*
X130257160Y-168252696D01*
X130291200Y-168303538D01*
X130288855Y-168364679D01*
X130251020Y-168412764D01*
X130195942Y-168429500D01*
X129809743Y-168429500D01*
X129751552Y-168410593D01*
X129739745Y-168400509D01*
X129738716Y-168399480D01*
X129601784Y-168320423D01*
X129449057Y-168279500D01*
X129290943Y-168279500D01*
X129138216Y-168320423D01*
X129001284Y-168399480D01*
X128889480Y-168511284D01*
X128810423Y-168648216D01*
X128769500Y-168800943D01*
X128769500Y-168959057D01*
X128810423Y-169111784D01*
X128889480Y-169248716D01*
X129001284Y-169360520D01*
X129138216Y-169439577D01*
X129290943Y-169480500D01*
X129290945Y-169480500D01*
X129449055Y-169480500D01*
X129449057Y-169480500D01*
X129601784Y-169439577D01*
X129738716Y-169360520D01*
X129739741Y-169359494D01*
X129740668Y-169359022D01*
X129743866Y-169356569D01*
X129744320Y-169357161D01*
X129794256Y-169331719D01*
X129809743Y-169330500D01*
X130112389Y-169330500D01*
X130170580Y-169349407D01*
X130182393Y-169359496D01*
X130750504Y-169927607D01*
X130778281Y-169982124D01*
X130779500Y-169997611D01*
X130779500Y-175170256D01*
X130760593Y-175228447D01*
X130750510Y-175240253D01*
X130749483Y-175241279D01*
X130749480Y-175241283D01*
X130749480Y-175241284D01*
X130670423Y-175378216D01*
X130629500Y-175530943D01*
X130629500Y-175689057D01*
X130670423Y-175841784D01*
X130749480Y-175978716D01*
X130861284Y-176090520D01*
X130998216Y-176169577D01*
X131150943Y-176210500D01*
X131150945Y-176210500D01*
X131309055Y-176210500D01*
X131309057Y-176210500D01*
X131461784Y-176169577D01*
X131598716Y-176090520D01*
X131710520Y-175978716D01*
X131789577Y-175841784D01*
X131830500Y-175689057D01*
X131830500Y-175530943D01*
X131789577Y-175378216D01*
X131710520Y-175241284D01*
X131710517Y-175241281D01*
X131710516Y-175241279D01*
X131709490Y-175240253D01*
X131709016Y-175239324D01*
X131706569Y-175236134D01*
X131707160Y-175235680D01*
X131681717Y-175185734D01*
X131680500Y-175170256D01*
X131680500Y-169710690D01*
X131680499Y-169710688D01*
X131678653Y-169703800D01*
X131656286Y-169620326D01*
X131650547Y-169598904D01*
X131653751Y-169537804D01*
X131692257Y-169490255D01*
X131751358Y-169474421D01*
X131808479Y-169496349D01*
X131816178Y-169503281D01*
X132082835Y-169769938D01*
X132110612Y-169824455D01*
X132111638Y-169833766D01*
X132189244Y-171075465D01*
X132189246Y-171075483D01*
X132194284Y-171114825D01*
X132199183Y-171139979D01*
X132204367Y-171162155D01*
X132204368Y-171162157D01*
X132253365Y-171263166D01*
X132253366Y-171263167D01*
X132289725Y-171312366D01*
X132289737Y-171312380D01*
X132344360Y-171369186D01*
X132344362Y-171369188D01*
X132404440Y-171401297D01*
X132443375Y-171422107D01*
X132443377Y-171422107D01*
X132443378Y-171422108D01*
X132501721Y-171440542D01*
X132596246Y-171454727D01*
X135480624Y-171431277D01*
X135525092Y-171427657D01*
X135553587Y-171423225D01*
X135580744Y-171417730D01*
X135682803Y-171370945D01*
X135732791Y-171335662D01*
X135790781Y-171282287D01*
X135845850Y-171184450D01*
X135865553Y-171126524D01*
X135881797Y-171032331D01*
X135905462Y-169304842D01*
X135905484Y-169302685D01*
X135905493Y-169301329D01*
X135905494Y-169301184D01*
X135905500Y-169299472D01*
X135905500Y-168930108D01*
X135905500Y-168930095D01*
X135905089Y-168914247D01*
X135904556Y-168903986D01*
X135895172Y-168864785D01*
X135878665Y-168795823D01*
X135853831Y-168739912D01*
X135853828Y-168739905D01*
X135812806Y-168672598D01*
X135727610Y-168599478D01*
X135708199Y-168588249D01*
X135674650Y-168568839D01*
X135585450Y-168534509D01*
X134443187Y-168290655D01*
X133547591Y-168099461D01*
X133500983Y-168075271D01*
X132892995Y-167512082D01*
X132821595Y-167445943D01*
X135799500Y-167445943D01*
X135799500Y-167604057D01*
X135840423Y-167756784D01*
X135919480Y-167893716D01*
X136031284Y-168005520D01*
X136168216Y-168084577D01*
X136320943Y-168125500D01*
X136393099Y-168125500D01*
X136451290Y-168144407D01*
X136463103Y-168154496D01*
X137595504Y-169286897D01*
X137623281Y-169341414D01*
X137624500Y-169356901D01*
X137624500Y-194485256D01*
X137605593Y-194543447D01*
X137595504Y-194555259D01*
X137544482Y-194606281D01*
X137544480Y-194606283D01*
X137544480Y-194606284D01*
X137465423Y-194743216D01*
X137424500Y-194895943D01*
X137424500Y-195054057D01*
X137465423Y-195206784D01*
X137544480Y-195343716D01*
X137656284Y-195455520D01*
X137793216Y-195534577D01*
X137945943Y-195575500D01*
X137945945Y-195575500D01*
X138104055Y-195575500D01*
X138104057Y-195575500D01*
X138256784Y-195534577D01*
X138393716Y-195455520D01*
X138505520Y-195343716D01*
X138584577Y-195206784D01*
X138625500Y-195054057D01*
X138625500Y-194895943D01*
X138584577Y-194743216D01*
X138505520Y-194606284D01*
X138505517Y-194606281D01*
X138454496Y-194555259D01*
X138426719Y-194500742D01*
X138425500Y-194485256D01*
X138425500Y-176911004D01*
X156929500Y-176911004D01*
X156929500Y-177048995D01*
X156956420Y-177184327D01*
X156956420Y-177184329D01*
X157009222Y-177311806D01*
X157009228Y-177311817D01*
X157085885Y-177426541D01*
X157183458Y-177524114D01*
X157298182Y-177600771D01*
X157298193Y-177600777D01*
X157345283Y-177620282D01*
X157425672Y-177653580D01*
X157561007Y-177680500D01*
X157561008Y-177680500D01*
X157698992Y-177680500D01*
X157698993Y-177680500D01*
X157834328Y-177653580D01*
X157961811Y-177600775D01*
X158076542Y-177524114D01*
X158174114Y-177426542D01*
X158250775Y-177311811D01*
X158303580Y-177184328D01*
X158322398Y-177089720D01*
X158349490Y-177039033D01*
X168052686Y-167335839D01*
X175069500Y-167335839D01*
X175069500Y-167564160D01*
X175105214Y-167789655D01*
X175175769Y-168006799D01*
X175279420Y-168210227D01*
X175279424Y-168210233D01*
X175413616Y-168394931D01*
X175413618Y-168394933D01*
X175413621Y-168394937D01*
X175575063Y-168556379D01*
X175575066Y-168556381D01*
X175575068Y-168556383D01*
X175759766Y-168690575D01*
X175759772Y-168690579D01*
X175963201Y-168794231D01*
X176180340Y-168864784D01*
X176180341Y-168864784D01*
X176180344Y-168864785D01*
X176405840Y-168900500D01*
X176405843Y-168900500D01*
X176634160Y-168900500D01*
X176859655Y-168864785D01*
X176859656Y-168864784D01*
X176859660Y-168864784D01*
X177076799Y-168794231D01*
X177280228Y-168690579D01*
X177464937Y-168556379D01*
X177626379Y-168394937D01*
X177760579Y-168210228D01*
X177864231Y-168006799D01*
X177934784Y-167789660D01*
X177934785Y-167789655D01*
X177970500Y-167564160D01*
X177970500Y-167335839D01*
X177934785Y-167110344D01*
X177924619Y-167079057D01*
X177864231Y-166893201D01*
X177760579Y-166689772D01*
X177760575Y-166689766D01*
X177626383Y-166505068D01*
X177626381Y-166505066D01*
X177626379Y-166505063D01*
X177464937Y-166343621D01*
X177464933Y-166343618D01*
X177464931Y-166343616D01*
X177280233Y-166209424D01*
X177280227Y-166209420D01*
X177076799Y-166105769D01*
X176859655Y-166035214D01*
X176634160Y-165999500D01*
X176634157Y-165999500D01*
X176405843Y-165999500D01*
X176405840Y-165999500D01*
X176180344Y-166035214D01*
X175963200Y-166105769D01*
X175759772Y-166209420D01*
X175759766Y-166209424D01*
X175575068Y-166343616D01*
X175413616Y-166505068D01*
X175279424Y-166689766D01*
X175279420Y-166689772D01*
X175175769Y-166893200D01*
X175105214Y-167110344D01*
X175069500Y-167335839D01*
X168052686Y-167335839D01*
X169600510Y-165788015D01*
X169672984Y-165662485D01*
X169710500Y-165522475D01*
X169710500Y-163217015D01*
X169727185Y-163162013D01*
X169780775Y-163081811D01*
X169833580Y-162954328D01*
X169860500Y-162818993D01*
X169860500Y-162681007D01*
X169833580Y-162545672D01*
X169815978Y-162503177D01*
X169780777Y-162418193D01*
X169780771Y-162418182D01*
X169704114Y-162303458D01*
X169606541Y-162205885D01*
X169491817Y-162129228D01*
X169491806Y-162129222D01*
X169364328Y-162076420D01*
X169228995Y-162049500D01*
X169228993Y-162049500D01*
X169091007Y-162049500D01*
X169091004Y-162049500D01*
X168955672Y-162076420D01*
X168955670Y-162076420D01*
X168828193Y-162129222D01*
X168828182Y-162129228D01*
X168713458Y-162205885D01*
X168615885Y-162303458D01*
X168539228Y-162418182D01*
X168539222Y-162418193D01*
X168486420Y-162545670D01*
X168486420Y-162545672D01*
X168459500Y-162681004D01*
X168459500Y-162818995D01*
X168486420Y-162954327D01*
X168486420Y-162954329D01*
X168539223Y-163081808D01*
X168539224Y-163081810D01*
X168539225Y-163081811D01*
X168568473Y-163125584D01*
X168592815Y-163162013D01*
X168609500Y-163217015D01*
X168609500Y-165180966D01*
X168590593Y-165239157D01*
X168580504Y-165250970D01*
X157570966Y-176260507D01*
X157520277Y-176287601D01*
X157425671Y-176306420D01*
X157298193Y-176359222D01*
X157298182Y-176359228D01*
X157183458Y-176435885D01*
X157085885Y-176533458D01*
X157009228Y-176648182D01*
X157009222Y-176648193D01*
X156956420Y-176775670D01*
X156956420Y-176775672D01*
X156929500Y-176911004D01*
X138425500Y-176911004D01*
X138425500Y-169097274D01*
X138425500Y-169097273D01*
X138398207Y-168995413D01*
X138398207Y-168995412D01*
X138398207Y-168995411D01*
X138345483Y-168904091D01*
X138345482Y-168904090D01*
X138345481Y-168904089D01*
X138345480Y-168904087D01*
X137029496Y-167588103D01*
X137001719Y-167533586D01*
X137000500Y-167518099D01*
X137000500Y-167445944D01*
X137000500Y-167445943D01*
X136959577Y-167293216D01*
X136880520Y-167156284D01*
X136768716Y-167044480D01*
X136631784Y-166965423D01*
X136479057Y-166924500D01*
X136320943Y-166924500D01*
X136168216Y-166965423D01*
X136031284Y-167044480D01*
X135919480Y-167156284D01*
X135840423Y-167293216D01*
X135799500Y-167445943D01*
X132821595Y-167445943D01*
X128912962Y-163825315D01*
X128885508Y-163781445D01*
X128878129Y-163757139D01*
X128499215Y-162508950D01*
X128497962Y-162506086D01*
X128470497Y-162443288D01*
X128470496Y-162443286D01*
X128447183Y-162403485D01*
X128403959Y-162346323D01*
X127848747Y-161767977D01*
X127831567Y-161751425D01*
X127830529Y-161750500D01*
X127820063Y-161741177D01*
X127820031Y-161741149D01*
X127814812Y-161736606D01*
X127717395Y-161680797D01*
X127699064Y-161674406D01*
X127659621Y-161660655D01*
X127565562Y-161643698D01*
X127565553Y-161643697D01*
X127410292Y-161640393D01*
X126478735Y-161620574D01*
X126478733Y-161620574D01*
X126478729Y-161620574D01*
X126478721Y-161620574D01*
X126438731Y-161622347D01*
X126413013Y-161625184D01*
X126390142Y-161628587D01*
X126285487Y-161669221D01*
X126233495Y-161701466D01*
X126233486Y-161701472D01*
X126161147Y-161763931D01*
X126161144Y-161763934D01*
X126161141Y-161763937D01*
X125852533Y-162129228D01*
X125015153Y-163120410D01*
X125010861Y-163125606D01*
X125008216Y-163128882D01*
X125008206Y-163128897D01*
X124958278Y-163217790D01*
X124958276Y-163217795D01*
X124937637Y-163275394D01*
X124937635Y-163275403D01*
X124920845Y-163352400D01*
X60565500Y-163352400D01*
X60565500Y-159590031D01*
X64138110Y-159590031D01*
X64138111Y-159590034D01*
X64138111Y-159590041D01*
X64141939Y-159628163D01*
X64145953Y-159668143D01*
X64145956Y-159668157D01*
X64157399Y-159717270D01*
X64157406Y-159717296D01*
X64177389Y-159775629D01*
X64177391Y-159775633D01*
X64242250Y-159867270D01*
X64242253Y-159867274D01*
X64286163Y-159909858D01*
X64286169Y-159909863D01*
X64286172Y-159909865D01*
X64286174Y-159909867D01*
X64349359Y-159956980D01*
X64401279Y-159974564D01*
X64455690Y-159992992D01*
X64455691Y-159992992D01*
X64455697Y-159992994D01*
X64516268Y-160001638D01*
X64516273Y-160001637D01*
X64516274Y-160001638D01*
X64611840Y-160000173D01*
X66189516Y-159725433D01*
X145874500Y-159725433D01*
X145874500Y-159974566D01*
X145907017Y-160221557D01*
X145907017Y-160221562D01*
X145971496Y-160462199D01*
X145971500Y-160462212D01*
X146066832Y-160692365D01*
X146066834Y-160692369D01*
X146066836Y-160692373D01*
X146152911Y-160841460D01*
X146191403Y-160908130D01*
X146343056Y-161105769D01*
X146343058Y-161105771D01*
X146343062Y-161105776D01*
X146519224Y-161281938D01*
X146519228Y-161281941D01*
X146519230Y-161281943D01*
X146691219Y-161413914D01*
X146716873Y-161433599D01*
X146932627Y-161558164D01*
X147162793Y-161653502D01*
X147403435Y-161717982D01*
X147650435Y-161750500D01*
X147650436Y-161750500D01*
X147899564Y-161750500D01*
X147899565Y-161750500D01*
X148146565Y-161717982D01*
X148387207Y-161653502D01*
X148617373Y-161558164D01*
X148833127Y-161433599D01*
X149030776Y-161281938D01*
X149206938Y-161105776D01*
X149358599Y-160908127D01*
X149397091Y-160841456D01*
X170679500Y-160841456D01*
X170679500Y-161038543D01*
X170717949Y-161231834D01*
X170717949Y-161231836D01*
X170793367Y-161413913D01*
X170793368Y-161413914D01*
X170902861Y-161577782D01*
X171042218Y-161717139D01*
X171206086Y-161826632D01*
X171256715Y-161847603D01*
X171307251Y-161868536D01*
X171353777Y-161908272D01*
X171368061Y-161967767D01*
X171344646Y-162024295D01*
X171307251Y-162051464D01*
X171206087Y-162093367D01*
X171042218Y-162202861D01*
X171042214Y-162202864D01*
X170902864Y-162342214D01*
X170902861Y-162342218D01*
X170793367Y-162506086D01*
X170717949Y-162688163D01*
X170717949Y-162688165D01*
X170679500Y-162881456D01*
X170679500Y-163078543D01*
X170717949Y-163271834D01*
X170717949Y-163271836D01*
X170793367Y-163453913D01*
X170829699Y-163508288D01*
X170902861Y-163617782D01*
X171042218Y-163757139D01*
X171206086Y-163866632D01*
X171388165Y-163942051D01*
X171581459Y-163980500D01*
X171581460Y-163980500D01*
X171778540Y-163980500D01*
X171778541Y-163980500D01*
X171971835Y-163942051D01*
X172069841Y-163901456D01*
X173219500Y-163901456D01*
X173219500Y-164098543D01*
X173257949Y-164291834D01*
X173257949Y-164291836D01*
X173333367Y-164473913D01*
X173333368Y-164473914D01*
X173442861Y-164637782D01*
X173582218Y-164777139D01*
X173746086Y-164886632D01*
X173928165Y-164962051D01*
X174121459Y-165000500D01*
X174121460Y-165000500D01*
X174318540Y-165000500D01*
X174318541Y-165000500D01*
X174511835Y-164962051D01*
X174693914Y-164886632D01*
X174857782Y-164777139D01*
X174997139Y-164637782D01*
X175106632Y-164473914D01*
X175182051Y-164291835D01*
X175220500Y-164098541D01*
X175220500Y-163901459D01*
X175182051Y-163708165D01*
X175106632Y-163526086D01*
X174997139Y-163362218D01*
X174857782Y-163222861D01*
X174717146Y-163128891D01*
X174693913Y-163113367D01*
X174511835Y-163037949D01*
X174318543Y-162999500D01*
X174318541Y-162999500D01*
X174121459Y-162999500D01*
X174121456Y-162999500D01*
X173928165Y-163037949D01*
X173928163Y-163037949D01*
X173746086Y-163113367D01*
X173582218Y-163222861D01*
X173582214Y-163222864D01*
X173442864Y-163362214D01*
X173442861Y-163362218D01*
X173333367Y-163526086D01*
X173257949Y-163708163D01*
X173257949Y-163708165D01*
X173219500Y-163901456D01*
X172069841Y-163901456D01*
X172153914Y-163866632D01*
X172317782Y-163757139D01*
X172457139Y-163617782D01*
X172566632Y-163453914D01*
X172642051Y-163271835D01*
X172680500Y-163078541D01*
X172680500Y-162881459D01*
X172642051Y-162688165D01*
X172566632Y-162506086D01*
X172457139Y-162342218D01*
X172317782Y-162202861D01*
X172153914Y-162093368D01*
X172153915Y-162093368D01*
X172153913Y-162093367D01*
X172052748Y-162051464D01*
X172006222Y-162011728D01*
X171991938Y-161952233D01*
X172015352Y-161895705D01*
X172052748Y-161868536D01*
X172153914Y-161826632D01*
X172317782Y-161717139D01*
X172457139Y-161577782D01*
X172566632Y-161413914D01*
X172642051Y-161231835D01*
X172680500Y-161038541D01*
X172680500Y-160841459D01*
X172642051Y-160648165D01*
X172566632Y-160466086D01*
X172457139Y-160302218D01*
X172317782Y-160162861D01*
X172153914Y-160053368D01*
X172153915Y-160053368D01*
X172153913Y-160053367D01*
X171971835Y-159977949D01*
X171778543Y-159939500D01*
X171778541Y-159939500D01*
X171581459Y-159939500D01*
X171581456Y-159939500D01*
X171388165Y-159977949D01*
X171388163Y-159977949D01*
X171206086Y-160053367D01*
X171042218Y-160162861D01*
X171042214Y-160162864D01*
X170902864Y-160302214D01*
X170902861Y-160302218D01*
X170793367Y-160466086D01*
X170717949Y-160648163D01*
X170717949Y-160648165D01*
X170679500Y-160841456D01*
X149397091Y-160841456D01*
X149483164Y-160692373D01*
X149578502Y-160462207D01*
X149642982Y-160221565D01*
X149675500Y-159974565D01*
X149675500Y-159821456D01*
X173219500Y-159821456D01*
X173219500Y-160018543D01*
X173257949Y-160211834D01*
X173257949Y-160211836D01*
X173333367Y-160393913D01*
X173333368Y-160393914D01*
X173442861Y-160557782D01*
X173582218Y-160697139D01*
X173746086Y-160806632D01*
X173928165Y-160882051D01*
X174121459Y-160920500D01*
X174121460Y-160920500D01*
X174318540Y-160920500D01*
X174318541Y-160920500D01*
X174511835Y-160882051D01*
X174693914Y-160806632D01*
X174857782Y-160697139D01*
X174997139Y-160557782D01*
X175106632Y-160393914D01*
X175182051Y-160211835D01*
X175220500Y-160018541D01*
X175220500Y-159821459D01*
X175182051Y-159628165D01*
X175106632Y-159446086D01*
X174997139Y-159282218D01*
X174857782Y-159142861D01*
X174693914Y-159033368D01*
X174693915Y-159033368D01*
X174693913Y-159033367D01*
X174511835Y-158957949D01*
X174318543Y-158919500D01*
X174318541Y-158919500D01*
X174121459Y-158919500D01*
X174121456Y-158919500D01*
X173928165Y-158957949D01*
X173928163Y-158957949D01*
X173746086Y-159033367D01*
X173582218Y-159142861D01*
X173582214Y-159142864D01*
X173442864Y-159282214D01*
X173442861Y-159282218D01*
X173333367Y-159446086D01*
X173257949Y-159628163D01*
X173257949Y-159628165D01*
X173219500Y-159821456D01*
X149675500Y-159821456D01*
X149675500Y-159725435D01*
X149642982Y-159478435D01*
X149578502Y-159237793D01*
X149483164Y-159007627D01*
X149358599Y-158791873D01*
X149307679Y-158725512D01*
X149206943Y-158594230D01*
X149206941Y-158594228D01*
X149206938Y-158594224D01*
X149030776Y-158418062D01*
X149030771Y-158418058D01*
X149030769Y-158418056D01*
X148833130Y-158266403D01*
X148833127Y-158266401D01*
X148617373Y-158141836D01*
X148617369Y-158141834D01*
X148617365Y-158141832D01*
X148387212Y-158046500D01*
X148387211Y-158046499D01*
X148387207Y-158046498D01*
X148146565Y-157982018D01*
X148146562Y-157982017D01*
X148146560Y-157982017D01*
X147899566Y-157949500D01*
X147899565Y-157949500D01*
X147650435Y-157949500D01*
X147650433Y-157949500D01*
X147403442Y-157982017D01*
X147403437Y-157982017D01*
X147162800Y-158046496D01*
X147162787Y-158046500D01*
X146932634Y-158141832D01*
X146716869Y-158266403D01*
X146519230Y-158418056D01*
X146343056Y-158594230D01*
X146191403Y-158791869D01*
X146066832Y-159007634D01*
X145971500Y-159237787D01*
X145971496Y-159237800D01*
X145907017Y-159478437D01*
X145907017Y-159478442D01*
X145874500Y-159725433D01*
X66189516Y-159725433D01*
X66768187Y-159624662D01*
X68261961Y-159364532D01*
X68261966Y-159364531D01*
X68261967Y-159364530D01*
X68261971Y-159364530D01*
X68322588Y-159347381D01*
X68360319Y-159332355D01*
X68416132Y-159303136D01*
X69250078Y-158750096D01*
X69303248Y-158733615D01*
X69823204Y-158725512D01*
X69824747Y-158725500D01*
X71185365Y-158725500D01*
X71185373Y-158725499D01*
X73039861Y-158725499D01*
X73039864Y-158725499D01*
X73064991Y-158722585D01*
X73167765Y-158677206D01*
X73247206Y-158597765D01*
X73292585Y-158494991D01*
X73295500Y-158469865D01*
X73295499Y-158448542D01*
X73301973Y-158413328D01*
X73303565Y-158409140D01*
X73303572Y-158409128D01*
X73319962Y-158350179D01*
X73330845Y-158255215D01*
X73299313Y-157522094D01*
X73296120Y-157493716D01*
X73295499Y-157482647D01*
X73295499Y-157380139D01*
X73295499Y-157380136D01*
X73292585Y-157355009D01*
X73247206Y-157252235D01*
X73167765Y-157172794D01*
X73064991Y-157127415D01*
X73064990Y-157127414D01*
X73064988Y-157127414D01*
X73039869Y-157124500D01*
X73039865Y-157124500D01*
X71173844Y-157124500D01*
X71173842Y-157124500D01*
X69404500Y-157124500D01*
X69346309Y-157105593D01*
X69310345Y-157056093D01*
X69305500Y-157025500D01*
X69305500Y-155612116D01*
X69305500Y-155612107D01*
X69303265Y-155575224D01*
X69300379Y-155551494D01*
X69297310Y-155531697D01*
X69256563Y-155427081D01*
X69229917Y-155384220D01*
X69224260Y-155375119D01*
X69192132Y-155335839D01*
X175069500Y-155335839D01*
X175069500Y-155564160D01*
X175105214Y-155789655D01*
X175175769Y-156006799D01*
X175279420Y-156210227D01*
X175279424Y-156210233D01*
X175413616Y-156394931D01*
X175413618Y-156394933D01*
X175413621Y-156394937D01*
X175575063Y-156556379D01*
X175575066Y-156556381D01*
X175575068Y-156556383D01*
X175759766Y-156690575D01*
X175759772Y-156690579D01*
X175963201Y-156794231D01*
X176180340Y-156864784D01*
X176180341Y-156864784D01*
X176180344Y-156864785D01*
X176405840Y-156900500D01*
X176405843Y-156900500D01*
X176634160Y-156900500D01*
X176859655Y-156864785D01*
X176859656Y-156864784D01*
X176859660Y-156864784D01*
X177076799Y-156794231D01*
X177280228Y-156690579D01*
X177464937Y-156556379D01*
X177626379Y-156394937D01*
X177760579Y-156210228D01*
X177864231Y-156006799D01*
X177934784Y-155789660D01*
X177962906Y-155612107D01*
X177970500Y-155564160D01*
X177970500Y-155335839D01*
X177934785Y-155110344D01*
X177934784Y-155110340D01*
X177864231Y-154893201D01*
X177760579Y-154689772D01*
X177626379Y-154505063D01*
X177464937Y-154343621D01*
X177464933Y-154343618D01*
X177464931Y-154343616D01*
X177280233Y-154209424D01*
X177280227Y-154209420D01*
X177076799Y-154105769D01*
X176859655Y-154035214D01*
X176634160Y-153999500D01*
X176634157Y-153999500D01*
X176405843Y-153999500D01*
X176405840Y-153999500D01*
X176180344Y-154035214D01*
X175963200Y-154105769D01*
X175759772Y-154209420D01*
X175759766Y-154209424D01*
X175575068Y-154343616D01*
X175413616Y-154505068D01*
X175279424Y-154689766D01*
X175279420Y-154689772D01*
X175175769Y-154893200D01*
X175105214Y-155110344D01*
X175069500Y-155335839D01*
X69192132Y-155335839D01*
X69174361Y-155314112D01*
X69174360Y-155314111D01*
X69079904Y-155253425D01*
X69079902Y-155253424D01*
X69023234Y-155230376D01*
X69023227Y-155230374D01*
X68930148Y-155208659D01*
X68930146Y-155208658D01*
X68930143Y-155208658D01*
X64695124Y-154902742D01*
X64695120Y-154902742D01*
X64640586Y-154903684D01*
X64640581Y-154903685D01*
X64605585Y-154907432D01*
X64568479Y-154913737D01*
X64568477Y-154913738D01*
X64465731Y-154958976D01*
X64465729Y-154958978D01*
X64465728Y-154958978D01*
X64465725Y-154958980D01*
X64418459Y-154991285D01*
X64415208Y-154993508D01*
X64356423Y-155046001D01*
X64356421Y-155046003D01*
X64299885Y-155143001D01*
X64279314Y-155200619D01*
X64279314Y-155200620D01*
X64261653Y-155294559D01*
X64254833Y-155531697D01*
X64138110Y-159590031D01*
X60565500Y-159590031D01*
X60565500Y-149878710D01*
X90899500Y-149878710D01*
X90899500Y-150121289D01*
X90931161Y-150361781D01*
X90931161Y-150361786D01*
X90993944Y-150596092D01*
X90993948Y-150596105D01*
X91086772Y-150820204D01*
X91086774Y-150820208D01*
X91086776Y-150820212D01*
X91208064Y-151030289D01*
X91208066Y-151030292D01*
X91355729Y-151222731D01*
X91355731Y-151222733D01*
X91355735Y-151222738D01*
X91527262Y-151394265D01*
X91527266Y-151394268D01*
X91527268Y-151394270D01*
X91719707Y-151541933D01*
X91719711Y-151541936D01*
X91929788Y-151663224D01*
X92153900Y-151756054D01*
X92388211Y-151818838D01*
X92628712Y-151850500D01*
X92628713Y-151850500D01*
X92871287Y-151850500D01*
X92871288Y-151850500D01*
X93111789Y-151818838D01*
X93346100Y-151756054D01*
X93570212Y-151663224D01*
X93780289Y-151541936D01*
X93972738Y-151394265D01*
X94144265Y-151222738D01*
X94291936Y-151030289D01*
X94413224Y-150820212D01*
X94506054Y-150596100D01*
X94568838Y-150361789D01*
X94600500Y-150121288D01*
X94600500Y-149878712D01*
X94600500Y-149878710D01*
X118899500Y-149878710D01*
X118899500Y-150121289D01*
X118931161Y-150361781D01*
X118931161Y-150361786D01*
X118993944Y-150596092D01*
X118993948Y-150596105D01*
X119086772Y-150820204D01*
X119086774Y-150820208D01*
X119086776Y-150820212D01*
X119208064Y-151030289D01*
X119208066Y-151030292D01*
X119355729Y-151222731D01*
X119355731Y-151222733D01*
X119355735Y-151222738D01*
X119527262Y-151394265D01*
X119527266Y-151394268D01*
X119527268Y-151394270D01*
X119719707Y-151541933D01*
X119719711Y-151541936D01*
X119929788Y-151663224D01*
X120153900Y-151756054D01*
X120388211Y-151818838D01*
X120628712Y-151850500D01*
X120628713Y-151850500D01*
X120871287Y-151850500D01*
X120871288Y-151850500D01*
X121111789Y-151818838D01*
X121346100Y-151756054D01*
X121570212Y-151663224D01*
X121780289Y-151541936D01*
X121972738Y-151394265D01*
X122144265Y-151222738D01*
X122291936Y-151030289D01*
X122413224Y-150820212D01*
X122506054Y-150596100D01*
X122568838Y-150361789D01*
X122600500Y-150121288D01*
X122600500Y-149878712D01*
X122568838Y-149638211D01*
X122506054Y-149403900D01*
X122413224Y-149179788D01*
X122291936Y-148969711D01*
X122144265Y-148777262D01*
X121972738Y-148605735D01*
X121972733Y-148605731D01*
X121972731Y-148605729D01*
X121780292Y-148458066D01*
X121780289Y-148458064D01*
X121570212Y-148336776D01*
X121570208Y-148336774D01*
X121570204Y-148336772D01*
X121346105Y-148243948D01*
X121346104Y-148243947D01*
X121346100Y-148243946D01*
X121111789Y-148181162D01*
X121111786Y-148181161D01*
X121111784Y-148181161D01*
X120871289Y-148149500D01*
X120871288Y-148149500D01*
X120628712Y-148149500D01*
X120628710Y-148149500D01*
X120388218Y-148181161D01*
X120388213Y-148181161D01*
X120153907Y-148243944D01*
X120153894Y-148243948D01*
X119929795Y-148336772D01*
X119719707Y-148458066D01*
X119527268Y-148605729D01*
X119355729Y-148777268D01*
X119208066Y-148969707D01*
X119086772Y-149179795D01*
X118993948Y-149403894D01*
X118993944Y-149403907D01*
X118931161Y-149638213D01*
X118931161Y-149638218D01*
X118899500Y-149878710D01*
X94600500Y-149878710D01*
X94568838Y-149638211D01*
X94506054Y-149403900D01*
X94413224Y-149179788D01*
X94291936Y-148969711D01*
X94144265Y-148777262D01*
X93972738Y-148605735D01*
X93972733Y-148605731D01*
X93972731Y-148605729D01*
X93780292Y-148458066D01*
X93780289Y-148458064D01*
X93570212Y-148336776D01*
X93570208Y-148336774D01*
X93570204Y-148336772D01*
X93346105Y-148243948D01*
X93346104Y-148243947D01*
X93346100Y-148243946D01*
X93111789Y-148181162D01*
X93111786Y-148181161D01*
X93111784Y-148181161D01*
X92871289Y-148149500D01*
X92871288Y-148149500D01*
X92628712Y-148149500D01*
X92628710Y-148149500D01*
X92388218Y-148181161D01*
X92388213Y-148181161D01*
X92153907Y-148243944D01*
X92153894Y-148243948D01*
X91929795Y-148336772D01*
X91719707Y-148458066D01*
X91527268Y-148605729D01*
X91355729Y-148777268D01*
X91208066Y-148969707D01*
X91086772Y-149179795D01*
X90993948Y-149403894D01*
X90993944Y-149403907D01*
X90931161Y-149638213D01*
X90931161Y-149638218D01*
X90899500Y-149878710D01*
X60565500Y-149878710D01*
X60565500Y-126756904D01*
X82624500Y-126756904D01*
X82624500Y-126993095D01*
X82661445Y-127226363D01*
X82661447Y-127226368D01*
X82734432Y-127450992D01*
X82841657Y-127661433D01*
X82980483Y-127852510D01*
X83147490Y-128019517D01*
X83338567Y-128158343D01*
X83549008Y-128265568D01*
X83773632Y-128338553D01*
X83773633Y-128338553D01*
X83773636Y-128338554D01*
X84006905Y-128375500D01*
X84006908Y-128375500D01*
X84243095Y-128375500D01*
X84476363Y-128338554D01*
X84476364Y-128338553D01*
X84476368Y-128338553D01*
X84700992Y-128265568D01*
X84911433Y-128158343D01*
X85102510Y-128019517D01*
X85269517Y-127852510D01*
X85408343Y-127661433D01*
X85515568Y-127450992D01*
X85588553Y-127226368D01*
X85625500Y-126993092D01*
X85625500Y-126756908D01*
X85625500Y-126756904D01*
X85588554Y-126523636D01*
X85588553Y-126523632D01*
X85515568Y-126299008D01*
X85408343Y-126088567D01*
X85269517Y-125897490D01*
X85102510Y-125730483D01*
X84911433Y-125591657D01*
X84911432Y-125591656D01*
X84911430Y-125591655D01*
X84700992Y-125484432D01*
X84476363Y-125411445D01*
X84243095Y-125374500D01*
X84243092Y-125374500D01*
X84006908Y-125374500D01*
X84006905Y-125374500D01*
X83773636Y-125411445D01*
X83549007Y-125484432D01*
X83338569Y-125591655D01*
X83147491Y-125730482D01*
X82980482Y-125897491D01*
X82841655Y-126088569D01*
X82734432Y-126299007D01*
X82661445Y-126523636D01*
X82624500Y-126756904D01*
X60565500Y-126756904D01*
X60565500Y-115865839D01*
X78274500Y-115865839D01*
X78274500Y-116094160D01*
X78310214Y-116319655D01*
X78380769Y-116536799D01*
X78484420Y-116740227D01*
X78484424Y-116740233D01*
X78618616Y-116924931D01*
X78618618Y-116924933D01*
X78618621Y-116924937D01*
X78780063Y-117086379D01*
X78780066Y-117086381D01*
X78780068Y-117086383D01*
X78964766Y-117220575D01*
X78964772Y-117220579D01*
X79168201Y-117324231D01*
X79385340Y-117394784D01*
X79385341Y-117394784D01*
X79385344Y-117394785D01*
X79610840Y-117430500D01*
X79610843Y-117430500D01*
X79839160Y-117430500D01*
X80064655Y-117394785D01*
X80064656Y-117394784D01*
X80064660Y-117394784D01*
X80281799Y-117324231D01*
X80485228Y-117220579D01*
X80669937Y-117086379D01*
X80831379Y-116924937D01*
X80965579Y-116740228D01*
X81069231Y-116536799D01*
X81139784Y-116319660D01*
X81175500Y-116094157D01*
X81175500Y-115865843D01*
X81175500Y-115865839D01*
X156624500Y-115865839D01*
X156624500Y-116094160D01*
X156660214Y-116319655D01*
X156730769Y-116536799D01*
X156834420Y-116740227D01*
X156834424Y-116740233D01*
X156968616Y-116924931D01*
X156968618Y-116924933D01*
X156968621Y-116924937D01*
X157130063Y-117086379D01*
X157130066Y-117086381D01*
X157130068Y-117086383D01*
X157314766Y-117220575D01*
X157314772Y-117220579D01*
X157518201Y-117324231D01*
X157735340Y-117394784D01*
X157735341Y-117394784D01*
X157735344Y-117394785D01*
X157960840Y-117430500D01*
X157960843Y-117430500D01*
X158189160Y-117430500D01*
X158414655Y-117394785D01*
X158414656Y-117394784D01*
X158414660Y-117394784D01*
X158631799Y-117324231D01*
X158835228Y-117220579D01*
X159019937Y-117086379D01*
X159181379Y-116924937D01*
X159315579Y-116740228D01*
X159419231Y-116536799D01*
X159489784Y-116319660D01*
X159525500Y-116094157D01*
X159525500Y-115865843D01*
X159525500Y-115865839D01*
X159489785Y-115640344D01*
X159489784Y-115640340D01*
X159419231Y-115423201D01*
X159315579Y-115219772D01*
X159181379Y-115035063D01*
X159019937Y-114873621D01*
X159019933Y-114873618D01*
X159019931Y-114873616D01*
X158835233Y-114739424D01*
X158835227Y-114739420D01*
X158631799Y-114635769D01*
X158414655Y-114565214D01*
X158189160Y-114529500D01*
X158189157Y-114529500D01*
X157960843Y-114529500D01*
X157960840Y-114529500D01*
X157735344Y-114565214D01*
X157518200Y-114635769D01*
X157314772Y-114739420D01*
X157314766Y-114739424D01*
X157130068Y-114873616D01*
X156968616Y-115035068D01*
X156834424Y-115219766D01*
X156834420Y-115219772D01*
X156730769Y-115423200D01*
X156660214Y-115640344D01*
X156624500Y-115865839D01*
X81175500Y-115865839D01*
X81139785Y-115640344D01*
X81139784Y-115640340D01*
X81069231Y-115423201D01*
X80965579Y-115219772D01*
X80831379Y-115035063D01*
X80669937Y-114873621D01*
X80669933Y-114873618D01*
X80669931Y-114873616D01*
X80485233Y-114739424D01*
X80485227Y-114739420D01*
X80281799Y-114635769D01*
X80064655Y-114565214D01*
X79839160Y-114529500D01*
X79839157Y-114529500D01*
X79610843Y-114529500D01*
X79610840Y-114529500D01*
X79385344Y-114565214D01*
X79168200Y-114635769D01*
X78964772Y-114739420D01*
X78964766Y-114739424D01*
X78780068Y-114873616D01*
X78618616Y-115035068D01*
X78484424Y-115219766D01*
X78484420Y-115219772D01*
X78380769Y-115423200D01*
X78310214Y-115640344D01*
X78274500Y-115865839D01*
X60565500Y-115865839D01*
X60565500Y-89878710D01*
X90899500Y-89878710D01*
X90899500Y-90121289D01*
X90931161Y-90361781D01*
X90931161Y-90361786D01*
X90993944Y-90596092D01*
X90993948Y-90596105D01*
X91086772Y-90820204D01*
X91086774Y-90820208D01*
X91086776Y-90820212D01*
X91208064Y-91030289D01*
X91208066Y-91030292D01*
X91355729Y-91222731D01*
X91355731Y-91222733D01*
X91355735Y-91222738D01*
X91527262Y-91394265D01*
X91527266Y-91394268D01*
X91527268Y-91394270D01*
X91719707Y-91541933D01*
X91719711Y-91541936D01*
X91929788Y-91663224D01*
X92153900Y-91756054D01*
X92388211Y-91818838D01*
X92628712Y-91850500D01*
X92628713Y-91850500D01*
X92871287Y-91850500D01*
X92871288Y-91850500D01*
X93111789Y-91818838D01*
X93346100Y-91756054D01*
X93570212Y-91663224D01*
X93780289Y-91541936D01*
X93972738Y-91394265D01*
X94144265Y-91222738D01*
X94291936Y-91030289D01*
X94413224Y-90820212D01*
X94506054Y-90596100D01*
X94568838Y-90361789D01*
X94600500Y-90121288D01*
X94600500Y-89878712D01*
X94600500Y-89878710D01*
X118899500Y-89878710D01*
X118899500Y-90121289D01*
X118931161Y-90361781D01*
X118931161Y-90361786D01*
X118993944Y-90596092D01*
X118993948Y-90596105D01*
X119086772Y-90820204D01*
X119086774Y-90820208D01*
X119086776Y-90820212D01*
X119208064Y-91030289D01*
X119208066Y-91030292D01*
X119355729Y-91222731D01*
X119355731Y-91222733D01*
X119355735Y-91222738D01*
X119527262Y-91394265D01*
X119527266Y-91394268D01*
X119527268Y-91394270D01*
X119719707Y-91541933D01*
X119719711Y-91541936D01*
X119929788Y-91663224D01*
X120153900Y-91756054D01*
X120388211Y-91818838D01*
X120628712Y-91850500D01*
X120628713Y-91850500D01*
X120871287Y-91850500D01*
X120871288Y-91850500D01*
X121111789Y-91818838D01*
X121346100Y-91756054D01*
X121570212Y-91663224D01*
X121780289Y-91541936D01*
X121972738Y-91394265D01*
X122144265Y-91222738D01*
X122291936Y-91030289D01*
X122413224Y-90820212D01*
X122506054Y-90596100D01*
X122568838Y-90361789D01*
X122600500Y-90121288D01*
X122600500Y-89878712D01*
X122568838Y-89638211D01*
X122506054Y-89403900D01*
X122413224Y-89179788D01*
X122291936Y-88969711D01*
X122144265Y-88777262D01*
X121972738Y-88605735D01*
X121972733Y-88605731D01*
X121972731Y-88605729D01*
X121780292Y-88458066D01*
X121780289Y-88458064D01*
X121570212Y-88336776D01*
X121570208Y-88336774D01*
X121570204Y-88336772D01*
X121346105Y-88243948D01*
X121346104Y-88243947D01*
X121346100Y-88243946D01*
X121111789Y-88181162D01*
X121111786Y-88181161D01*
X121111784Y-88181161D01*
X120871289Y-88149500D01*
X120871288Y-88149500D01*
X120628712Y-88149500D01*
X120628710Y-88149500D01*
X120388218Y-88181161D01*
X120388213Y-88181161D01*
X120153907Y-88243944D01*
X120153894Y-88243948D01*
X119929795Y-88336772D01*
X119719707Y-88458066D01*
X119527268Y-88605729D01*
X119355729Y-88777268D01*
X119208066Y-88969707D01*
X119086772Y-89179795D01*
X118993948Y-89403894D01*
X118993944Y-89403907D01*
X118931161Y-89638213D01*
X118931161Y-89638218D01*
X118899500Y-89878710D01*
X94600500Y-89878710D01*
X94568838Y-89638211D01*
X94506054Y-89403900D01*
X94413224Y-89179788D01*
X94291936Y-88969711D01*
X94144265Y-88777262D01*
X93972738Y-88605735D01*
X93972733Y-88605731D01*
X93972731Y-88605729D01*
X93780292Y-88458066D01*
X93780289Y-88458064D01*
X93570212Y-88336776D01*
X93570208Y-88336774D01*
X93570204Y-88336772D01*
X93346105Y-88243948D01*
X93346104Y-88243947D01*
X93346100Y-88243946D01*
X93111789Y-88181162D01*
X93111786Y-88181161D01*
X93111784Y-88181161D01*
X92871289Y-88149500D01*
X92871288Y-88149500D01*
X92628712Y-88149500D01*
X92628710Y-88149500D01*
X92388218Y-88181161D01*
X92388213Y-88181161D01*
X92153907Y-88243944D01*
X92153894Y-88243948D01*
X91929795Y-88336772D01*
X91719707Y-88458066D01*
X91527268Y-88605729D01*
X91355729Y-88777268D01*
X91208066Y-88969707D01*
X91086772Y-89179795D01*
X90993948Y-89403894D01*
X90993944Y-89403907D01*
X90931161Y-89638213D01*
X90931161Y-89638218D01*
X90899500Y-89878710D01*
X60565500Y-89878710D01*
X60565500Y-82673710D01*
X65769500Y-82673710D01*
X65769500Y-82916289D01*
X65801161Y-83156781D01*
X65801161Y-83156786D01*
X65863944Y-83391092D01*
X65863948Y-83391105D01*
X65956772Y-83615204D01*
X65956774Y-83615208D01*
X65956776Y-83615212D01*
X66035627Y-83751786D01*
X66078066Y-83825292D01*
X66225729Y-84017731D01*
X66225731Y-84017733D01*
X66225735Y-84017738D01*
X66397262Y-84189265D01*
X66397266Y-84189268D01*
X66397268Y-84189270D01*
X66589707Y-84336933D01*
X66589711Y-84336936D01*
X66799788Y-84458224D01*
X67023900Y-84551054D01*
X67258211Y-84613838D01*
X67498712Y-84645500D01*
X67498713Y-84645500D01*
X67741287Y-84645500D01*
X67741288Y-84645500D01*
X67981789Y-84613838D01*
X68216100Y-84551054D01*
X68440212Y-84458224D01*
X68650289Y-84336936D01*
X68842738Y-84189265D01*
X69014265Y-84017738D01*
X69161936Y-83825289D01*
X69283224Y-83615212D01*
X69376054Y-83391100D01*
X69408849Y-83268710D01*
X173789500Y-83268710D01*
X173789500Y-83511289D01*
X173821161Y-83751781D01*
X173821161Y-83751786D01*
X173883944Y-83986092D01*
X173883948Y-83986105D01*
X173976772Y-84210204D01*
X173976774Y-84210208D01*
X173976776Y-84210212D01*
X174098064Y-84420289D01*
X174098066Y-84420292D01*
X174245729Y-84612731D01*
X174245731Y-84612733D01*
X174245735Y-84612738D01*
X174417262Y-84784265D01*
X174417266Y-84784268D01*
X174417268Y-84784270D01*
X174609707Y-84931933D01*
X174609711Y-84931936D01*
X174819788Y-85053224D01*
X175043900Y-85146054D01*
X175278211Y-85208838D01*
X175518712Y-85240500D01*
X175518713Y-85240500D01*
X175761287Y-85240500D01*
X175761288Y-85240500D01*
X176001789Y-85208838D01*
X176236100Y-85146054D01*
X176460212Y-85053224D01*
X176670289Y-84931936D01*
X176862738Y-84784265D01*
X177034265Y-84612738D01*
X177181936Y-84420289D01*
X177303224Y-84210212D01*
X177396054Y-83986100D01*
X177458838Y-83751789D01*
X177490500Y-83511288D01*
X177490500Y-83268712D01*
X177458838Y-83028211D01*
X177396054Y-82793900D01*
X177303224Y-82569788D01*
X177181936Y-82359711D01*
X177034265Y-82167262D01*
X176862738Y-81995735D01*
X176862733Y-81995731D01*
X176862731Y-81995729D01*
X176670292Y-81848066D01*
X176670289Y-81848064D01*
X176460212Y-81726776D01*
X176460208Y-81726774D01*
X176460204Y-81726772D01*
X176236105Y-81633948D01*
X176236104Y-81633947D01*
X176236100Y-81633946D01*
X176001789Y-81571162D01*
X176001786Y-81571161D01*
X176001784Y-81571161D01*
X175761289Y-81539500D01*
X175761288Y-81539500D01*
X175518712Y-81539500D01*
X175518710Y-81539500D01*
X175278218Y-81571161D01*
X175278213Y-81571161D01*
X175043907Y-81633944D01*
X175043894Y-81633948D01*
X174819795Y-81726772D01*
X174609707Y-81848066D01*
X174417268Y-81995729D01*
X174245729Y-82167268D01*
X174098066Y-82359707D01*
X173976772Y-82569795D01*
X173883948Y-82793894D01*
X173883944Y-82793907D01*
X173821161Y-83028213D01*
X173821161Y-83028218D01*
X173789500Y-83268710D01*
X69408849Y-83268710D01*
X69438838Y-83156789D01*
X69470500Y-82916288D01*
X69470500Y-82673712D01*
X69438838Y-82433211D01*
X69376054Y-82198900D01*
X69283224Y-81974788D01*
X69161936Y-81764711D01*
X69132828Y-81726776D01*
X69014270Y-81572268D01*
X69014268Y-81572266D01*
X69014265Y-81572262D01*
X68842738Y-81400735D01*
X68842733Y-81400731D01*
X68842731Y-81400729D01*
X68650292Y-81253066D01*
X68650289Y-81253064D01*
X68440212Y-81131776D01*
X68440208Y-81131774D01*
X68440204Y-81131772D01*
X68216105Y-81038948D01*
X68216104Y-81038947D01*
X68216100Y-81038946D01*
X67981789Y-80976162D01*
X67981786Y-80976161D01*
X67981784Y-80976161D01*
X67741289Y-80944500D01*
X67741288Y-80944500D01*
X67498712Y-80944500D01*
X67498710Y-80944500D01*
X67258218Y-80976161D01*
X67258213Y-80976161D01*
X67023907Y-81038944D01*
X67023894Y-81038948D01*
X66799795Y-81131772D01*
X66589707Y-81253066D01*
X66397268Y-81400729D01*
X66225729Y-81572268D01*
X66078066Y-81764707D01*
X65956772Y-81974795D01*
X65863948Y-82198894D01*
X65863944Y-82198907D01*
X65801161Y-82433213D01*
X65801161Y-82433218D01*
X65769500Y-82673710D01*
X60565500Y-82673710D01*
X60565500Y-80260839D01*
X78274500Y-80260839D01*
X78274500Y-80489160D01*
X78310214Y-80714655D01*
X78380769Y-80931799D01*
X78484420Y-81135227D01*
X78484424Y-81135233D01*
X78618616Y-81319931D01*
X78618618Y-81319933D01*
X78618621Y-81319937D01*
X78780063Y-81481379D01*
X78780066Y-81481381D01*
X78780068Y-81481383D01*
X78964766Y-81615575D01*
X78964772Y-81615579D01*
X79168201Y-81719231D01*
X79385340Y-81789784D01*
X79385341Y-81789784D01*
X79385344Y-81789785D01*
X79610840Y-81825500D01*
X79610843Y-81825500D01*
X79839160Y-81825500D01*
X80064655Y-81789785D01*
X80064656Y-81789784D01*
X80064660Y-81789784D01*
X80281799Y-81719231D01*
X80485228Y-81615579D01*
X80669937Y-81481379D01*
X80831379Y-81319937D01*
X80965579Y-81135228D01*
X81069231Y-80931799D01*
X81139784Y-80714660D01*
X81175500Y-80489157D01*
X81175500Y-80260843D01*
X81175500Y-80260839D01*
X156624500Y-80260839D01*
X156624500Y-80489160D01*
X156660214Y-80714655D01*
X156730769Y-80931799D01*
X156834420Y-81135227D01*
X156834424Y-81135233D01*
X156968616Y-81319931D01*
X156968618Y-81319933D01*
X156968621Y-81319937D01*
X157130063Y-81481379D01*
X157130066Y-81481381D01*
X157130068Y-81481383D01*
X157314766Y-81615575D01*
X157314772Y-81615579D01*
X157518201Y-81719231D01*
X157735340Y-81789784D01*
X157735341Y-81789784D01*
X157735344Y-81789785D01*
X157960840Y-81825500D01*
X157960843Y-81825500D01*
X158189160Y-81825500D01*
X158414655Y-81789785D01*
X158414656Y-81789784D01*
X158414660Y-81789784D01*
X158631799Y-81719231D01*
X158835228Y-81615579D01*
X159019937Y-81481379D01*
X159181379Y-81319937D01*
X159315579Y-81135228D01*
X159419231Y-80931799D01*
X159489784Y-80714660D01*
X159525500Y-80489157D01*
X159525500Y-80260843D01*
X159525500Y-80260839D01*
X159489785Y-80035344D01*
X159489784Y-80035340D01*
X159419231Y-79818201D01*
X159315579Y-79614772D01*
X159181379Y-79430063D01*
X159019937Y-79268621D01*
X159019933Y-79268618D01*
X159019931Y-79268616D01*
X158835233Y-79134424D01*
X158835227Y-79134420D01*
X158631799Y-79030769D01*
X158414655Y-78960214D01*
X158189160Y-78924500D01*
X158189157Y-78924500D01*
X157960843Y-78924500D01*
X157960840Y-78924500D01*
X157735344Y-78960214D01*
X157518200Y-79030769D01*
X157314772Y-79134420D01*
X157314766Y-79134424D01*
X157130068Y-79268616D01*
X156968616Y-79430068D01*
X156834424Y-79614766D01*
X156834420Y-79614772D01*
X156730769Y-79818200D01*
X156660214Y-80035344D01*
X156624500Y-80260839D01*
X81175500Y-80260839D01*
X81139785Y-80035344D01*
X81139784Y-80035340D01*
X81069231Y-79818201D01*
X80965579Y-79614772D01*
X80831379Y-79430063D01*
X80669937Y-79268621D01*
X80669933Y-79268618D01*
X80669931Y-79268616D01*
X80485233Y-79134424D01*
X80485227Y-79134420D01*
X80281799Y-79030769D01*
X80064655Y-78960214D01*
X79839160Y-78924500D01*
X79839157Y-78924500D01*
X79610843Y-78924500D01*
X79610840Y-78924500D01*
X79385344Y-78960214D01*
X79168200Y-79030769D01*
X78964772Y-79134420D01*
X78964766Y-79134424D01*
X78780068Y-79268616D01*
X78618616Y-79430068D01*
X78484424Y-79614766D01*
X78484420Y-79614772D01*
X78380769Y-79818200D01*
X78310214Y-80035344D01*
X78274500Y-80260839D01*
X60565500Y-80260839D01*
X60565500Y-77440372D01*
X60565636Y-77435180D01*
X60615074Y-76493797D01*
X60637006Y-76436681D01*
X60688324Y-76403363D01*
X60713926Y-76399992D01*
X182465492Y-76390014D01*
X182523684Y-76408917D01*
G37*
G04 #@! TD.AperFunction*
M02*
