M48
; DRILL file {KiCad 9.0.9} date 2026-08-06T00:31:51+0200
; FORMAT={-:-/ absolute / metric / decimal}
; #@! TF.CreationDate,2026-08-06T00:31:51+02:00
; #@! TF.GenerationSoftware,Kicad,Pcbnew,9.0.9
; #@! TF.FileFunction,Plated,1,2,PTH
FMAT,2
METRIC
; #@! TA.AperFunction,Plated,PTH,ViaDrill
T1C0.300
; #@! TA.AperFunction,Plated,PTH,ViaDrill
T2C0.400
; #@! TA.AperFunction,Plated,PTH,ViaDrill
T3C0.500
; #@! TA.AperFunction,Plated,PTH,ComponentDrill
T4C0.750
; #@! TA.AperFunction,Plated,PTH,ComponentDrill
T5C0.800
; #@! TA.AperFunction,Plated,PTH,ComponentDrill
T6C0.900
; #@! TA.AperFunction,Plated,PTH,ComponentDrill
T7C1.200
; #@! TA.AperFunction,Plated,PTH,ComponentDrill
T8C1.600
; #@! TA.AperFunction,Plated,PTH,ComponentDrill
T9C2.100
; #@! TA.AperFunction,Plated,PTH,ComponentDrill
T10C2.300
; #@! TA.AperFunction,Plated,PTH,ComponentDrill
T11C2.400
%
G90
G05
T1
X61.7Y-219.7
X62.19Y-157.96
X62.975Y-232.225
X63.375Y-224.925
X63.55Y-127.53
X63.6Y-165.9
X63.92Y-177.38
X64.15Y-173.73
X64.31Y-140.92
X64.5Y-167.89
X64.525Y-206.2
X65.1Y-212.45
X65.21Y-175.6
X65.33Y-157.92
X65.475Y-240.325
X65.65Y-158.7
X65.7Y-226.475
X65.825Y-195.775
X65.83Y-180.51
X65.87Y-156.16
X66.64Y-156.98
X67.175Y-209.25
X67.775Y-221.925
X68.0Y-156.48
X68.45Y-109.5
X68.85Y-201.875
X69.97Y-102.97
X71.7Y-195.975
X71.82Y-121.43
X72.625Y-216.9
X73.35Y-229.1
X73.533Y-212.446
X73.72Y-147.9
X73.725Y-224.5
X73.88Y-242.87
X74.193Y-214.071
X74.397Y-212.928
X74.651Y-212.166
X74.97Y-159.27
X75.11Y-92.92
X75.44Y-177.7
X75.717Y-198.222
X76.022Y-212.649
X76.276Y-199.314
X76.352Y-213.436
X76.835Y-198.145
X77.267Y-199.415
X77.368Y-196.672
X77.55Y-227.11
X77.63Y-224.76
X78.02Y-173.42
X78.105Y-199.847
X78.207Y-218.211
X78.46Y-180.54
X78.738Y-197.382
X78.867Y-200.609
X78.975Y-208.675
X79.075Y-212.075
X79.426Y-218.821
X79.44Y-176.54
X79.502Y-198.679
X79.527Y-216.789
X79.98Y-169.35
X80.188Y-199.288
X80.3Y-237.85
X80.475Y-102.265
X80.543Y-218.465
X81.36Y-185.4
X82.74Y-180.39
X83.32Y-179.81
X83.41Y-223.86
X83.54Y-242.0
X83.61Y-167.83
X83.75Y-232.775
X84.75Y-148.26
X84.99Y-158.49
X85.13Y-249.69
X85.775Y-200.8
X85.86Y-178.72
X86.23Y-171.82
X87.075Y-245.775
X88.0Y-201.575
X88.28Y-233.76
X88.3Y-223.38
X88.37Y-226.08
X89.42Y-217.46
X89.611Y-181.762
X89.65Y-214.975
X89.85Y-212.65
X89.865Y-183.845
X89.9Y-107.2
X90.424Y-180.492
X90.627Y-179.654
X90.63Y-222.94
X90.66Y-220.47
X90.85Y-205.175
X91.034Y-182.397
X91.09Y-250.13
X91.66Y-222.09
X91.81Y-249.91
X92.38Y-222.32
X92.608Y-181.686
X92.939Y-179.603
X93.48Y-238.37
X93.61Y-155.96
X93.904Y-181.661
X93.904Y-184.912
X94.564Y-183.109
X95.2Y-249.975
X95.94Y-190.6
X95.975Y-170.3
X96.1Y-188.22
X96.81Y-189.45
X97.04Y-248.6
X98.12Y-193.11
X98.225Y-174.7
X98.64Y-239.24
X98.88Y-230.13
X99.1Y-202.04
X99.39Y-185.54
X100.74Y-188.28
X101.06Y-208.79
X102.26Y-182.48
X102.37Y-218.73
X102.55Y-186.35
X102.73Y-226.29
X102.91Y-210.53
X103.015Y-102.995
X103.35Y-193.875
X103.36Y-181.31
X103.55Y-155.4
X103.97Y-231.95
X105.44Y-149.49
X105.75Y-208.68
X106.04Y-188.35
X106.13Y-185.57
X106.24Y-134.09
X106.375Y-194.525
X106.475Y-201.175
X106.945Y-94.915
X107.13Y-247.3
X107.28Y-238.66
X108.725Y-131.7
X109.37Y-150.29
X109.425Y-221.9
X109.525Y-163.875
X109.9Y-224.725
X110.775Y-210.25
X110.89Y-152.22
X111.14Y-143.89
X111.41Y-248.79
X112.275Y-231.825
X112.91Y-180.74
X113.68Y-181.8
X114.535Y-111.575
X114.6Y-179.84
X114.99Y-231.3
X115.275Y-101.035
X115.29Y-182.42
X115.55Y-172.8
X115.75Y-188.1
X115.95Y-198.6
X116.025Y-239.675
X116.275Y-156.05
X116.5Y-181.26
X116.88Y-242.59
X117.59Y-249.5
X117.71Y-242.73
X118.675Y-231.9
X119.23Y-242.31
X119.825Y-221.3
X120.05Y-166.15
X121.15Y-166.025
X121.43Y-169.31
X121.74Y-242.19
X121.92Y-136.54
X122.47Y-209.81
X123.0Y-155.225
X123.1Y-181.675
X123.59Y-231.09
X123.69Y-222.58
X123.83Y-167.0
X123.95Y-175.975
X124.41Y-249.61
X124.55Y-232.525
X124.85Y-225.2
X125.19Y-213.62
X125.325Y-230.25
X125.62Y-242.83
X125.74Y-245.64
X125.77Y-239.41
X126.625Y-162.875
X127.01Y-239.59
X127.2Y-215.8
X127.3Y-171.525
X127.325Y-169.3
X127.65Y-163.45
X127.99Y-230.93
X128.13Y-210.14
X128.325Y-184.175
X128.795Y-228.325
X128.825Y-171.85
X128.98Y-245.39
X129.16Y-241.83
X129.21Y-247.42
X129.225Y-203.075
X129.37Y-168.88
X131.23Y-175.61
X131.935Y-108.875
X131.98Y-240.01
X132.175Y-212.6
X132.575Y-130.375
X132.88Y-234.65
X133.11Y-233.38
X133.225Y-169.05
X133.5Y-170.5
X133.895Y-95.405
X134.0Y-157.75
X134.16Y-229.23
X134.45Y-227.23
X134.7Y-238.06
X134.95Y-169.15
X135.65Y-182.275
X136.4Y-167.525
X136.725Y-171.675
X136.85Y-201.5
X137.41Y-210.35
X137.51Y-237.68
X138.025Y-194.975
X138.09Y-136.54
X138.81Y-227.12
X139.575Y-215.15
X140.77Y-220.48
X140.85Y-171.025
X141.8Y-247.51
X141.92Y-150.07
X141.985Y-106.675
X142.51Y-183.13
X143.32Y-232.66
X145.71Y-177.9
X146.07Y-183.56
X146.075Y-242.75
X146.43Y-225.06
X147.825Y-208.4
X148.355Y-89.275
X148.7Y-217.4
X149.15Y-221.79
X149.175Y-237.4
X149.59Y-227.23
X151.52Y-186.11
X151.59Y-192.49
X153.11Y-191.84
X153.22Y-243.69
X153.69Y-183.49
X154.05Y-150.5
X154.15Y-233.0
X154.9Y-174.55
X155.42Y-235.52
X155.725Y-237.45
X155.85Y-158.725
X155.9Y-231.4
X156.625Y-103.425
X156.67Y-200.26
X160.15Y-146.09
X160.3Y-233.36
X161.24Y-155.37
X161.45Y-234.27
X161.86Y-150.26
X162.05Y-225.275
X162.41Y-185.38
X162.76Y-159.58
X162.775Y-215.725
X163.24Y-181.57
X163.625Y-234.35
X164.0Y-189.66
X165.54Y-104.19
X166.075Y-173.275
X167.38Y-177.76
X167.45Y-233.175
X167.475Y-236.2
X167.525Y-234.525
X167.82Y-154.6
X168.0Y-225.25
X168.0Y-232.025
X168.47Y-228.72
X169.07Y-245.81
X169.075Y-128.95
X169.16Y-185.96
X170.31Y-172.22
X171.775Y-213.55
X171.8Y-218.225
X172.21Y-202.95
X175.75Y-126.9
X175.83Y-139.72
X175.83Y-147.17
X176.13Y-202.73
X176.25Y-230.425
X177.3Y-118.16
X177.51Y-186.83
X178.0Y-242.95
X178.06Y-177.69
X178.31Y-192.42
X178.35Y-215.175
X179.58Y-159.97
X180.56Y-201.57
X180.7Y-233.475
T2
X75.31Y-213.7
X77.82Y-198.3
X79.34Y-217.93
X92.05Y-180.45
X109.25Y-231.87
X111.38Y-245.58
X114.85Y-181.29
X115.36Y-237.92
X118.63Y-238.0
X121.09Y-219.24
X121.72Y-170.46
X122.45Y-167.01
X126.0Y-248.46
X126.8Y-163.85
X134.2Y-169.775
X157.63Y-176.98
X169.16Y-162.75
T3
X68.0Y-158.02
X91.61Y-221.29
X94.25Y-209.96
T4
X66.932Y-231.13
X66.932Y-236.93
T5
X171.68Y-158.9
X171.68Y-160.94
X171.68Y-162.98
X174.22Y-159.92
X174.22Y-161.96
X174.22Y-164.0
T6
X97.254Y-215.075
X97.254Y-218.075
T7
X65.172Y-220.325
X65.2Y-184.925
X70.272Y-220.325
X70.3Y-184.925
X72.812Y-220.325
X72.84Y-184.925
X75.352Y-220.325
X75.38Y-184.925
X111.85Y-214.025
X111.85Y-218.525
X112.0Y-223.675
X112.0Y-228.175
X118.35Y-214.025
X118.35Y-218.525
X118.5Y-223.675
X118.5Y-228.175
X120.99Y-195.66
X147.73Y-172.0
T8
X121.28Y-203.39
X147.775Y-159.85
T9
X79.725Y-80.375
X79.725Y-115.98
X158.075Y-80.375
X158.075Y-115.98
T10
X176.52Y-155.45
X176.52Y-167.45
T11
X84.125Y-126.875
T5
G00X63.552Y-229.7
M15
G01X62.952Y-229.7
M16
G05
G00X63.552Y-238.36
M15
G01X62.952Y-238.36
M16
G05
G00X67.832Y-229.7
M15
G01X67.032Y-229.7
M16
G05
G00X67.832Y-238.36
M15
G01X67.032Y-238.36
M16
G05
M30
