#VRML V2.0 utf8
# 3D model generated by easyeda2kicad.py (https://github.com/uPesy/easyeda2kicad.py)

Shape{
    appearance Appearance {
        material  Material 	{
            diffuseColor 1.0 1.0 1.0
            specularColor 0.30196078431372547 0.30196078431372547 0.30196078431372547
            ambientIntensity 1.0
            transparency 0.0
            shininess 0.5
        }
    }
    geometry IndexedFaceSet {
        ccw TRUE
        solid FALSE
        coord DEF co Coordinate {
            point [
                0.1969 -0.5906 0.0, 0.0397 -0.5906 0.0, 0.0397 -0.3849 0.0, -0.0589 -0.3252 0.0, -0.0589 -0.3849 0.0, -0.0647 -0.3351 0.0, -0.0647 -0.3286 0.0, -0.071 -0.326 0.0, -0.077 -0.3252 0.0, -0.0734 -0.3849 0.0, -0.0715 -0.3848 0.0, -0.0647 -0.383 0.0, -0.0647 -0.375 0.0, -0.0714 -0.3779 0.0, -0.0658 -0.3345 0.0, -0.0785 -0.3788 0.0, -0.0843 -0.3782 0.0, -0.0888 -0.3766 0.0, -0.0929 -0.3738 0.0, -0.0964 -0.3699 0.0, -0.1007 -0.3544 0.0, -0.1001 -0.348 0.0, -0.0985 -0.3429 0.0, -0.0854 -0.3319 0.0, -0.0799 -0.3313 0.0, -0.0897 -0.3335 0.0, -0.0933 -0.3359 0.0, -0.0961 -0.3388 0.0, -0.072 -0.3322 0.0, -0.0989 -0.3653 0.0, -0.1004 -0.359 0.0, -0.0882 -0.3256 0.0, -0.094 -0.3275 0.0, -0.1112 -0.3252 0.0, -0.0987 -0.3306 0.0, -0.1031 -0.3352 0.0, -0.1063 -0.3408 0.0, -0.1055 -0.369 0.0, -0.1021 -0.3745 0.0, -0.1112 -0.3849 0.0, -0.0967 -0.3797 0.0, -0.0911 -0.3829 0.0, -0.0845 -0.3848 0.0, -0.083 -0.3849 0.0, -0.1081 -0.3471 0.0, -0.1086 -0.3539 0.0, -0.1078 -0.3623 0.0, -0.0793 -0.3248 0.0, -0.0589 -0.2608 0.0, -0.081 -0.3248 0.0, -0.0844 -0.3252 0.0, 0.2165 0.5958 0.0, 0.2247 0.6021 0.0, 0.5958 0.4528 0.0, 0.2309 0.6102 0.0, 0.5919 0.4623 0.0, 0.5906 0.4724 0.0, 0.2362 0.9843 0.0, 0.5906 0.9843 0.0, 0.2362 0.6299 0.0, 0.2349 0.6197 0.0, 0.588 -0.207 0.0, 0.5919 -0.2165 0.0, 0.0397 -0.2608 0.0, 0.5981 -0.2247 0.0, 0.6063 -0.2309 0.0, 0.6021 0.4446 0.0, 0.6102 0.4383 0.0, 0.1705 -0.0984 0.0, 0.1392 -0.1392 0.0, 0.1969 0.0 0.0, 0.1901 0.0509 0.0, 0.6158 -0.2349 0.0, 0.626 -0.2362 0.0, 0.9803 -0.2608 0.0, 0.9803 -0.2362 0.0, 0.1705 0.0984 0.0, 0.1392 0.1392 0.0, 0.0984 0.1705 0.0, 0.588 0.207 0.0, 0.5919 0.2165 0.0, 0.5981 0.2247 0.0, 0.6197 0.4344 0.0, 0.6063 0.2309 0.0, 0.1901 -0.0509 0.0, 0.5866 0.1969 0.0, 0.5866 -0.1969 0.0, 0.0984 -0.1705 0.0, 0.0509 -0.1901 0.0, 0.0397 -0.1916 0.0, 0.9803 0.4331 0.0, 0.9803 0.2362 0.0, 0.6299 0.4331 0.0, 0.626 0.2362 0.0, 0.6158 0.2349 0.0, -0.0 -0.1969 0.0, -0.0157 -0.2608 0.0, -0.0157 -0.1948 0.0, -0.0509 -0.1901 0.0, -0.0589 -0.1868 0.0, -0.1392 -0.1392 0.0, -0.1112 -0.1607 0.0, -0.1112 -0.2608 0.0, -0.0984 -0.1705 0.0, -0.5919 -0.2165 0.0, -0.588 -0.207 0.0, -0.1704 -0.2608 0.0, -0.1705 0.0984 0.0, -0.1901 0.0509 0.0, -0.6021 0.4446 0.0, -0.626 -0.2362 0.0, -0.6158 -0.2349 0.0, -0.6102 0.4383 0.0, -0.6158 0.2349 0.0, -0.6063 -0.2309 0.0, -0.5981 -0.2247 0.0, -0.6063 0.2309 0.0, -0.5919 0.4623 0.0, -0.5906 0.4724 0.0, -0.2349 0.6197 0.0, -0.1704 0.0985 0.0, -0.5958 0.4528 0.0, -0.5906 0.9843 0.0, -0.2362 0.9843 0.0, -0.2362 0.6299 0.0, -0.2309 0.6102 0.0, -0.2247 0.6021 0.0, -0.2165 0.5958 0.0, -0.207 0.5919 0.0, -0.5919 0.2165 0.0, -0.5981 0.2247 0.0, -0.1704 -0.0985 0.0, -0.1705 -0.0984 0.0, -0.1901 -0.0509 0.0, -0.5866 -0.1969 0.0, -0.1969 0.0 0.0, -0.5866 0.1969 0.0, -0.588 0.207 0.0, -0.9803 0.2362 0.0, -0.9803 0.4331 0.0, -0.626 0.2362 0.0, -0.6299 0.4331 0.0, -0.6197 0.4344 0.0, -0.1704 0.5906 0.0, -0.1112 0.5906 0.0, -0.1112 0.1607 0.0, -0.1969 0.5906 0.0, -0.1392 0.1392 0.0, -0.0589 0.5906 0.0, -0.0157 0.5906 0.0, -0.0157 0.1948 0.0, -0.0509 0.1901 0.0, -0.0589 0.1868 0.0, -0.0984 0.1705 0.0, 0.207 0.5919 0.0, 0.1969 0.5906 0.0, 0.0509 0.1901 0.0, 0.0397 0.5906 0.0, 0.0397 0.1916 0.0, -0.0 0.1969 0.0, -0.6299 -0.4331 0.0, -0.9803 -0.4331 0.0, -0.9803 -0.3849 0.0, -0.2165 -0.5958 0.0, -0.2247 -0.6021 0.0, -0.6102 -0.4383 0.0, -0.2309 -0.6102 0.0, -0.6021 -0.4446 0.0, -0.6197 -0.4344 0.0, -0.1704 -0.3849 0.0, -0.207 -0.5919 0.0, -0.1969 -0.5906 0.0, -0.5906 -0.4724 0.0, -0.5919 -0.4623 0.0, -0.5958 -0.4528 0.0, -0.2362 -0.9843 0.0, -0.5906 -0.9843 0.0, -0.2362 -0.6299 0.0, -0.2349 -0.6197 0.0, -0.1704 -0.5906 0.0, -0.1112 -0.5906 0.0, -0.0589 -0.5906 0.0, -0.0786 -0.3853 0.0, -0.0157 -0.3849 0.0, -0.0157 -0.5906 0.0, 0.5919 -0.4623 0.0, 0.2247 -0.6021 0.0, 0.5958 -0.4528 0.0, 0.6021 -0.4446 0.0, 0.9803 -0.3849 0.0, 0.9803 -0.4331 0.0, 0.6299 -0.4331 0.0, 0.6102 -0.4383 0.0, 0.2165 -0.5958 0.0, 0.6197 -0.4344 0.0, 0.5906 -0.4724 0.0, 0.5906 -0.9843 0.0, 0.2362 -0.9843 0.0, 0.207 -0.5919 0.0, 0.2362 -0.6299 0.0, 0.2349 -0.6197 0.0, 0.2309 -0.6102 0.0, 0.0505 -0.3255 0.0, 0.0419 -0.3255 0.0, 0.0397 -0.3252 0.0, 0.0806 -0.3421 0.0, 0.0562 -0.3421 0.0, 0.0642 -0.3846 0.0, 0.0721 -0.3846 0.0, 0.0865 -0.3255 0.0, 0.0952 -0.3255 0.0, 0.9803 -0.3252 0.0, 0.0067 -0.3846 0.0, 0.0152 -0.3837 0.0, 0.0221 -0.3812 0.0, 0.0286 -0.3769 0.0, 0.0346 -0.3417 0.0, 0.0312 -0.3364 0.0, 0.0264 -0.3318 0.0, 0.0202 -0.3282 0.0, 0.0286 -0.3769 0.0, 0.0328 -0.3722 0.0, 0.0355 -0.3672 0.0, 0.0134 -0.3262 0.0, 0.0061 -0.3255 0.0, -0.0157 -0.3252 0.0, -0.01 -0.3255 0.0, -0.01 -0.3846 0.0, 0.0371 -0.3613 0.0, 0.0376 -0.3558 0.0, 0.0367 -0.3479 0.0, -0.0453 -0.3781 0.0, -0.0453 -0.3586 0.0, -0.0229 -0.3781 0.0, -0.0244 -0.3586 0.0, -0.0229 -0.3846 0.0, -0.0244 -0.3522 0.0, -0.0453 -0.3522 0.0, -0.0453 -0.332 0.0, -0.0215 -0.332 0.0, -0.0215 -0.3255 0.0, -0.0532 -0.3255 0.0, -0.0532 -0.3846 0.0, -0.136 -0.3846 0.0, -0.1439 -0.3846 0.0, -0.1439 -0.3255 0.0, -0.1704 -0.3252 0.0, -0.1137 -0.3255 0.0, -0.1137 -0.332 0.0, -0.136 -0.332 0.0, -0.9803 -0.3252 0.0, -0.9803 -0.2608 0.0, -0.9803 -0.2362 0.0, 0.9803 -0.8268 0.2638, 0.9823 -0.8268 0.3031, 0.9823 -0.9843 0.3031, 0.9823 0.9843 0.3031, 0.9823 0.8268 0.3031, 0.9803 0.9843 0.0512, 0.9803 0.8268 0.2638, 0.9803 -0.2362 0.0512, 0.9803 0.2362 0.0512, 0.9803 0.4724 0.2638, 0.9823 0.4724 0.3031, 0.9803 0.4331 0.0512, 0.9803 0.4724 0.0512, 0.9803 0.4724 0.0551, 0.9803 0.8268 0.0512, 0.9803 0.8268 0.0551, 0.9803 -0.9843 0.0512, 0.9803 -0.8268 0.0512, 0.9803 -0.8268 0.0551, 0.9803 -0.4724 0.2638, 0.9803 -0.4724 0.0551, 0.9803 -0.4331 0.0512, 0.9803 -0.4724 0.0512, 0.9823 -0.4724 0.3031, 0.7087 0.4724 0.0512, 0.6299 0.4331 0.0512, 0.6197 0.4344 0.0512, 0.6102 0.4383 0.0512, 0.6021 0.4446 0.0512, 0.5958 0.4528 0.0512, 0.5906 0.9843 0.0512, 0.7087 0.8268 0.0512, 0.5906 0.4724 0.0512, 0.5919 0.4623 0.0512, -0.9803 -0.4724 0.3031, -0.9843 -0.4724 0.3031, -0.9803 0.4724 0.3031, -0.9843 0.4724 0.3031, 0.6299 -0.4331 0.0512, 0.7087 -0.4724 0.0512, 0.6197 -0.4344 0.0512, 0.5919 -0.4623 0.0512, 0.5958 -0.4528 0.0512, 0.7087 -0.8268 0.0512, 0.5906 -0.9843 0.0512, 0.5906 -0.4724 0.0512, 0.6021 -0.4446 0.0512, 0.6102 -0.4383 0.0512, -0.9843 0.8268 0.3031, -0.9843 0.9843 0.3031, -0.9803 0.8268 0.3031, -0.9803 0.9843 0.3031, -0.9803 -0.8268 0.3031, -0.9803 -0.9843 0.3031, -0.9843 -0.8268 0.3031, -0.9843 -0.9843 0.3031, -0.9449 0.7087 0.6181, -0.9449 -0.9449 0.6181, -0.7087 0.9449 0.6181, 0.9449 -0.9449 0.6181, 0.9449 0.9449 0.6181, -0.6939 0.9596 0.5, -0.9596 0.9596 0.5, -0.9596 0.6939 0.5, -0.9803 -0.8268 0.0551, -0.9803 -0.8268 0.0512, -0.9803 -0.9843 0.0512, -0.9803 0.9843 0.0512, -0.9803 0.8268 0.0512, -0.9803 0.8268 0.0551, -0.9803 -0.4724 0.0512, -0.9803 -0.4724 0.0551, -0.9803 -0.4331 0.0512, -0.9803 -0.2362 0.0512, -0.9803 0.2362 0.0512, -0.9803 0.8268 0.2638, -0.9803 0.4724 0.2638, -0.9803 0.4724 0.0551, -0.9803 -0.8268 0.2638, -0.9803 0.4331 0.0512, -0.9803 -0.4724 0.2638, -0.9803 0.4724 0.0512, -0.2362 0.9843 0.0512, -0.5906 0.9843 0.0512, 0.2362 0.9843 0.0512, -0.5906 -0.9843 0.0512, -0.2362 -0.9843 0.0512, 0.2362 -0.9843 0.0512, -0.5906 -0.4724 0.0512, -0.6299 -0.4331 0.0512, -0.6197 -0.4344 0.0512, -0.6102 -0.4383 0.0512, -0.6021 -0.4446 0.0512, -0.5958 -0.4528 0.0512, -0.5919 -0.4623 0.0512, -0.7087 -0.4724 0.0512, -0.7087 -0.8268 0.0512, -0.1969 0.5906 0.0512, -0.207 0.5919 0.0512, -0.2165 0.5958 0.0512, -0.2247 0.6021 0.0512, -0.2309 0.6102 0.0512, -0.2349 0.6197 0.0512, -0.2362 0.6299 0.0512, 0.1969 0.5906 0.0512, 0.2362 0.6299 0.0512, 0.2349 0.6197 0.0512, 0.2309 0.6102 0.0512, 0.2247 0.6021 0.0512, 0.2165 0.5958 0.0512, 0.207 0.5919 0.0512, 0.626 0.2362 0.0512, 0.5866 0.1969 0.0512, 0.588 0.207 0.0512, 0.5919 0.2165 0.0512, 0.5981 0.2247 0.0512, 0.6063 0.2309 0.0512, 0.6158 0.2349 0.0512, 0.5866 -0.1969 0.0512, 0.626 -0.2362 0.0512, 0.6158 -0.2349 0.0512, 0.6063 -0.2309 0.0512, 0.5981 -0.2247 0.0512, 0.5919 -0.2165 0.0512, 0.588 -0.207 0.0512, -0.6299 0.4331 0.0512, -0.5906 0.4724 0.0512, -0.5919 0.4623 0.0512, -0.5958 0.4528 0.0512, -0.6021 0.4446 0.0512, -0.6102 0.4383 0.0512, -0.6197 0.4344 0.0512, -0.7087 0.8268 0.0512, -0.7087 0.4724 0.0512, -0.626 0.2362 0.0512, -0.6158 0.2349 0.0512, -0.6063 0.2309 0.0512, -0.5981 0.2247 0.0512, -0.5919 0.2165 0.0512, -0.588 0.207 0.0512, -0.5866 0.1969 0.0512, -0.626 -0.2362 0.0512, -0.5866 -0.1969 0.0512, -0.588 -0.207 0.0512, -0.5919 -0.2165 0.0512, -0.5981 -0.2247 0.0512, -0.6063 -0.2309 0.0512, -0.6158 -0.2349 0.0512, -0.0 -0.1969 0.0512, 0.0509 -0.1901 0.0512, -0.0509 -0.1901 0.0512, -0.0984 -0.1705 0.0512, -0.1392 -0.1392 0.0512, -0.1705 -0.0984 0.0512, -0.1901 -0.0509 0.0512, -0.1969 0.0 0.0512, -0.1901 0.0509 0.0512, -0.1705 0.0984 0.0512, -0.1392 0.1392 0.0512, -0.0984 0.1705 0.0512, -0.0509 0.1901 0.0512, -0.0 0.1969 0.0512, 0.0509 0.1901 0.0512, 0.0984 0.1705 0.0512, 0.1392 0.1392 0.0512, 0.1705 0.0984 0.0512, 0.1901 0.0509 0.0512, 0.1969 0.0 0.0512, 0.1901 -0.0509 0.0512, 0.1705 -0.0984 0.0512, 0.1392 -0.1392 0.0512, 0.0984 -0.1705 0.0512, -0.0 0.0 0.0512, -0.2362 -0.6299 0.0512, 0.2362 -0.6299 0.0512, 0.1969 -0.5906 0.0512, 0.207 -0.5919 0.0512, 0.2165 -0.5958 0.0512, 0.2247 -0.6021 0.0512, 0.2309 -0.6102 0.0512, 0.2349 -0.6197 0.0512, -0.1969 -0.5906 0.0512, -0.2349 -0.6197 0.0512, -0.2309 -0.6102 0.0512, -0.2247 -0.6021 0.0512, -0.2165 -0.5958 0.0512, -0.207 -0.5919 0.0512
            ]
        }
        coordIndex [
            0,1,2,-1,3,4,5,-1,5,6,3,-1,3,6,7,-1,3,7,8,-1,4,9,10,-1,10,11,4,-1,4,11,12,-1,4,12,5,-1,5,12,13,-1,5,13,14,-1,14,13,15,-1,14,15,16,-1,16,17,14,-1,14,17,18,-1,14,18,19,-1,20,21,14,-1,14,21,22,-1,23,24,25,-1,25,24,26,-1,22,27,14,-1,14,27,26,-1,14,26,28,-1,28,26,24,-1,19,29,14,-1,14,29,30,-1,14,30,20,-1,31,32,33,-1,32,34,33,-1,33,34,35,-1,33,35,36,-1,37,38,39,-1,39,38,40,-1,40,41,39,-1,39,41,42,-1,39,42,43,-1,36,44,33,-1,33,44,45,-1,33,45,39,-1,39,45,46,-1,39,46,37,-1,8,47,48,-1,48,47,49,-1,48,49,50,-1,51,52,53,-1,53,52,54,-1,53,54,55,-1,55,54,56,-1,57,58,59,-1,59,58,56,-1,59,56,60,-1,60,56,54,-1,61,62,63,-1,63,62,64,-1,63,64,65,-1,66,67,68,-1,68,67,69,-1,70,71,53,-1,65,72,63,-1,63,72,73,-1,63,73,74,-1,74,73,75,-1,71,76,53,-1,53,76,77,-1,53,77,78,-1,79,69,80,-1,80,69,67,-1,80,67,81,-1,81,67,82,-1,81,82,83,-1,66,68,53,-1,53,68,84,-1,53,84,70,-1,79,85,69,-1,69,85,86,-1,69,86,87,-1,87,86,61,-1,87,61,88,-1,88,61,63,-1,88,63,89,-1,90,91,92,-1,92,91,93,-1,92,93,82,-1,82,93,94,-1,82,94,83,-1,89,63,95,-1,95,63,96,-1,95,96,97,-1,97,96,98,-1,98,96,48,-1,98,48,99,-1,100,101,102,-1,102,101,103,-1,31,33,50,-1,50,33,102,-1,50,102,48,-1,48,102,103,-1,48,103,99,-1,104,105,106,-1,107,108,109,-1,110,111,106,-1,112,109,113,-1,111,114,106,-1,106,114,115,-1,106,115,104,-1,113,109,116,-1,117,118,119,-1,107,109,120,-1,120,109,121,-1,120,121,117,-1,122,123,118,-1,118,123,124,-1,118,124,119,-1,119,125,117,-1,117,125,126,-1,117,126,120,-1,120,126,127,-1,120,127,128,-1,108,129,109,-1,109,129,130,-1,109,130,116,-1,131,106,132,-1,132,106,105,-1,132,105,133,-1,133,105,134,-1,133,134,135,-1,135,134,136,-1,135,136,108,-1,108,136,137,-1,108,137,129,-1,138,139,140,-1,140,139,141,-1,140,141,113,-1,113,141,142,-1,113,142,112,-1,143,144,145,-1,128,146,120,-1,120,146,143,-1,120,143,147,-1,147,143,145,-1,148,149,150,-1,150,151,148,-1,148,151,152,-1,148,152,144,-1,144,152,153,-1,144,153,145,-1,51,53,154,-1,154,53,78,-1,154,78,155,-1,155,78,156,-1,155,156,157,-1,157,156,158,-1,157,158,149,-1,149,158,159,-1,149,159,150,-1,160,161,162,-1,163,164,165,-1,165,164,166,-1,165,166,167,-1,165,168,163,-1,163,168,169,-1,163,169,170,-1,170,169,171,-1,172,173,166,-1,166,173,174,-1,166,174,167,-1,175,176,177,-1,177,176,172,-1,177,172,178,-1,178,172,166,-1,171,169,179,-1,179,169,39,-1,179,39,180,-1,180,39,43,-1,180,43,181,-1,181,43,182,-1,181,182,9,-1,9,4,181,-1,181,4,183,-1,181,183,184,-1,185,186,187,-1,187,186,188,-1,189,190,191,-1,188,186,192,-1,192,186,193,-1,192,193,194,-1,195,196,197,-1,194,193,2,-1,2,193,198,-1,2,198,0,-1,197,199,195,-1,195,199,200,-1,195,200,185,-1,185,200,201,-1,185,201,186,-1,202,203,204,-1,205,206,202,-1,204,203,2,-1,2,203,207,-1,2,207,208,-1,205,202,209,-1,209,202,204,-1,209,204,210,-1,210,204,211,-1,210,211,208,-1,208,211,189,-1,208,189,2,-1,2,189,191,-1,2,191,194,-1,1,184,2,-1,2,184,183,-1,2,183,212,-1,212,213,2,-1,2,213,214,-1,2,214,215,-1,216,217,204,-1,204,217,218,-1,204,218,219,-1,215,220,2,-1,2,220,221,-1,2,221,222,-1,219,223,204,-1,204,223,224,-1,204,224,225,-1,225,224,226,-1,225,226,183,-1,183,226,227,-1,183,227,212,-1,222,228,2,-1,2,228,229,-1,2,229,204,-1,204,229,230,-1,204,230,216,-1,231,232,233,-1,233,232,234,-1,4,235,183,-1,183,235,233,-1,183,233,225,-1,225,233,234,-1,225,234,236,-1,237,238,236,-1,236,238,239,-1,236,239,225,-1,225,239,240,-1,225,240,3,-1,3,240,241,-1,3,241,4,-1,4,241,242,-1,4,242,235,-1,243,39,244,-1,244,39,169,-1,244,169,245,-1,245,169,246,-1,247,33,248,-1,248,33,39,-1,248,39,249,-1,249,39,243,-1,8,48,3,-1,3,48,96,-1,3,96,225,-1,225,96,63,-1,225,63,204,-1,204,63,74,-1,204,74,211,-1,247,245,33,-1,33,245,246,-1,33,246,102,-1,102,246,106,-1,102,106,100,-1,100,106,131,-1,168,160,169,-1,169,160,162,-1,169,162,246,-1,246,162,250,-1,246,250,106,-1,106,250,251,-1,106,251,110,-1,110,251,252,-1,253,254,255,-1,256,257,258,-1,258,257,259,-1,74,75,260,-1,261,262,260,-1,260,262,263,-1,264,265,266,-1,267,258,268,-1,268,258,259,-1,268,259,266,-1,266,259,262,-1,266,262,264,-1,264,262,261,-1,264,261,90,-1,90,261,91,-1,269,270,271,-1,255,269,253,-1,253,269,271,-1,253,271,272,-1,272,271,273,-1,274,190,189,-1,275,274,273,-1,273,274,260,-1,273,260,272,-1,272,260,263,-1,272,263,276,-1,274,189,260,-1,260,189,211,-1,260,211,74,-1,265,264,277,-1,277,264,278,-1,277,278,279,-1,279,280,277,-1,277,280,281,-1,277,281,282,-1,258,267,283,-1,283,267,284,-1,283,284,285,-1,285,284,277,-1,285,277,286,-1,286,277,282,-1,287,288,289,-1,289,288,290,-1,274,275,291,-1,291,275,292,-1,291,292,293,-1,294,295,292,-1,270,269,296,-1,296,269,297,-1,296,297,292,-1,292,297,298,-1,292,298,294,-1,295,299,292,-1,292,299,300,-1,292,300,293,-1,301,302,303,-1,303,302,304,-1,305,306,307,-1,307,306,308,-1,309,310,311,-1,311,310,312,-1,311,312,313,-1,257,256,313,-1,255,254,312,-1,312,254,276,-1,312,276,313,-1,313,276,263,-1,313,263,257,-1,314,311,313,-1,302,315,304,-1,304,315,314,-1,304,314,256,-1,256,314,313,-1,255,312,306,-1,306,312,310,-1,306,310,308,-1,316,315,302,-1,302,301,316,-1,316,301,290,-1,316,290,309,-1,309,290,288,-1,309,288,310,-1,310,288,307,-1,310,307,308,-1,316,309,314,-1,314,309,311,-1,315,316,314,-1,317,318,319,-1,320,321,304,-1,304,321,322,-1,323,324,325,-1,325,324,289,-1,325,289,326,-1,326,289,327,-1,303,304,328,-1,328,304,322,-1,328,322,329,-1,329,322,330,-1,306,305,331,-1,139,138,332,-1,332,138,327,-1,287,289,333,-1,333,289,324,-1,333,324,331,-1,331,324,317,-1,331,317,306,-1,306,317,319,-1,252,251,326,-1,326,251,250,-1,326,250,325,-1,325,250,162,-1,325,162,161,-1,289,329,327,-1,327,329,330,-1,327,330,332,-1,332,330,334,-1,335,123,122,-1,320,304,336,-1,336,304,256,-1,256,258,283,-1,58,57,283,-1,283,57,337,-1,283,337,256,-1,256,337,335,-1,256,335,336,-1,336,335,122,-1,297,269,255,-1,176,175,338,-1,338,175,339,-1,340,197,196,-1,196,297,340,-1,340,297,255,-1,340,255,339,-1,339,255,306,-1,339,306,338,-1,338,306,319,-1,338,341,176,-1,176,341,172,-1,342,160,343,-1,343,160,168,-1,343,168,344,-1,344,168,165,-1,344,165,345,-1,345,165,167,-1,345,167,346,-1,346,167,174,-1,346,174,347,-1,347,174,173,-1,347,173,341,-1,341,173,172,-1,342,325,160,-1,160,325,161,-1,348,323,325,-1,319,318,338,-1,338,318,349,-1,338,349,341,-1,341,349,348,-1,341,348,347,-1,325,342,348,-1,348,342,343,-1,348,343,344,-1,344,345,348,-1,348,345,346,-1,348,346,347,-1,283,285,58,-1,58,285,56,-1,278,92,279,-1,279,92,82,-1,279,82,280,-1,280,82,67,-1,280,67,281,-1,281,67,66,-1,281,66,282,-1,282,66,53,-1,282,53,286,-1,286,53,55,-1,286,55,285,-1,285,55,56,-1,278,264,92,-1,92,264,90,-1,274,291,190,-1,190,291,191,-1,298,195,294,-1,294,195,185,-1,294,185,295,-1,295,185,187,-1,295,187,299,-1,299,187,188,-1,299,188,300,-1,300,188,192,-1,300,192,293,-1,293,192,194,-1,293,194,291,-1,291,194,191,-1,298,297,195,-1,195,297,196,-1,350,146,351,-1,351,146,128,-1,351,128,352,-1,352,128,127,-1,352,127,353,-1,353,127,126,-1,353,126,354,-1,354,126,125,-1,354,125,355,-1,355,125,119,-1,355,119,356,-1,356,119,124,-1,155,157,357,-1,357,157,149,-1,357,149,350,-1,350,149,148,-1,148,144,350,-1,350,144,143,-1,350,143,146,-1,358,59,359,-1,359,59,60,-1,359,60,360,-1,360,60,54,-1,360,54,361,-1,361,54,52,-1,361,52,362,-1,362,52,51,-1,362,51,363,-1,363,51,154,-1,363,154,357,-1,357,154,155,-1,358,337,59,-1,59,337,57,-1,335,356,123,-1,123,356,124,-1,335,337,356,-1,356,337,358,-1,360,361,362,-1,351,352,356,-1,358,359,357,-1,357,359,360,-1,357,360,363,-1,363,360,362,-1,358,357,356,-1,356,357,350,-1,356,350,351,-1,353,354,352,-1,352,354,355,-1,352,355,356,-1,261,364,91,-1,91,364,93,-1,365,85,366,-1,366,85,79,-1,366,79,367,-1,367,79,80,-1,367,80,368,-1,368,80,81,-1,368,81,369,-1,369,81,83,-1,369,83,370,-1,370,83,94,-1,370,94,364,-1,364,94,93,-1,365,371,85,-1,85,371,86,-1,372,73,373,-1,373,73,72,-1,373,72,374,-1,374,72,65,-1,374,65,375,-1,375,65,64,-1,375,64,376,-1,376,64,62,-1,376,62,377,-1,377,62,61,-1,377,61,371,-1,371,61,86,-1,372,260,73,-1,73,260,75,-1,370,364,365,-1,365,364,261,-1,365,261,371,-1,371,261,260,-1,371,260,372,-1,366,367,368,-1,374,375,376,-1,366,368,365,-1,365,368,369,-1,365,369,370,-1,372,373,371,-1,371,373,374,-1,371,374,377,-1,377,374,376,-1,332,378,139,-1,139,378,141,-1,379,118,380,-1,380,118,117,-1,380,117,381,-1,381,117,121,-1,381,121,382,-1,382,121,109,-1,382,109,383,-1,383,109,112,-1,383,112,384,-1,384,112,142,-1,384,142,378,-1,378,142,141,-1,379,336,118,-1,118,336,122,-1,321,320,385,-1,385,320,336,-1,385,336,386,-1,386,336,379,-1,386,379,380,-1,380,381,386,-1,386,381,382,-1,386,382,383,-1,332,334,378,-1,378,334,386,-1,378,386,384,-1,384,386,383,-1,387,140,388,-1,388,140,113,-1,388,113,389,-1,389,113,116,-1,389,116,390,-1,390,116,130,-1,390,130,391,-1,391,130,129,-1,391,129,392,-1,392,129,137,-1,392,137,393,-1,393,137,136,-1,387,327,140,-1,140,327,138,-1,326,394,252,-1,252,394,110,-1,395,134,396,-1,396,134,105,-1,396,105,397,-1,397,105,104,-1,397,104,398,-1,398,104,115,-1,398,115,399,-1,399,115,114,-1,399,114,400,-1,400,114,111,-1,400,111,394,-1,394,111,110,-1,395,393,134,-1,134,393,136,-1,396,394,395,-1,395,394,326,-1,395,326,393,-1,393,326,327,-1,393,327,387,-1,389,390,391,-1,396,397,394,-1,394,397,398,-1,394,398,400,-1,400,398,399,-1,387,388,393,-1,393,388,389,-1,393,389,392,-1,392,389,391,-1,401,402,89,-1,89,95,401,-1,401,95,97,-1,401,97,403,-1,97,98,403,-1,403,98,99,-1,403,99,404,-1,99,103,404,-1,404,103,101,-1,404,101,405,-1,101,100,405,-1,405,100,131,-1,405,131,406,-1,406,131,132,-1,406,132,407,-1,407,132,133,-1,407,133,408,-1,408,133,135,-1,408,135,409,-1,409,135,108,-1,409,108,410,-1,410,108,107,-1,410,107,411,-1,411,107,120,-1,120,147,411,-1,411,147,145,-1,411,145,412,-1,145,153,412,-1,412,153,152,-1,412,152,413,-1,152,151,413,-1,413,151,150,-1,413,150,414,-1,150,159,414,-1,414,159,158,-1,414,158,415,-1,415,158,156,-1,415,156,416,-1,416,156,78,-1,416,78,417,-1,417,78,77,-1,417,77,418,-1,418,77,76,-1,418,76,419,-1,419,76,71,-1,419,71,420,-1,420,71,70,-1,420,70,421,-1,421,70,84,-1,421,84,422,-1,422,84,68,-1,422,68,423,-1,423,68,69,-1,423,69,424,-1,424,69,87,-1,424,87,402,-1,402,87,88,-1,402,88,89,-1,418,419,425,-1,425,419,420,-1,425,420,421,-1,415,416,425,-1,425,416,417,-1,425,417,418,-1,412,413,425,-1,425,413,414,-1,425,414,415,-1,409,410,425,-1,425,410,411,-1,425,411,412,-1,406,407,425,-1,425,407,408,-1,425,408,409,-1,403,404,425,-1,425,404,405,-1,425,405,406,-1,424,402,425,-1,425,402,401,-1,425,401,403,-1,421,422,425,-1,425,422,423,-1,425,423,424,-1,426,339,177,-1,177,339,175,-1,340,427,197,-1,197,427,199,-1,428,0,429,-1,429,0,198,-1,429,198,430,-1,430,198,193,-1,430,193,431,-1,431,193,186,-1,431,186,432,-1,432,186,201,-1,432,201,433,-1,433,201,200,-1,433,200,427,-1,427,200,199,-1,171,179,434,-1,434,179,180,-1,180,181,434,-1,434,181,184,-1,434,184,428,-1,428,184,1,-1,428,1,0,-1,426,177,435,-1,435,177,178,-1,435,178,436,-1,436,178,166,-1,436,166,437,-1,437,166,164,-1,437,164,438,-1,438,164,163,-1,438,163,439,-1,439,163,170,-1,439,170,434,-1,434,170,171,-1,340,339,427,-1,427,339,426,-1,431,432,433,-1,426,435,438,-1,438,435,436,-1,438,436,437,-1,431,433,430,-1,438,439,426,-1,426,439,434,-1,426,434,427,-1,427,434,428,-1,427,428,433,-1,433,428,429,-1,433,429,430,-1,
        ]
    }
}
Shape{
    appearance Appearance {
        material  Material 	{
            diffuseColor 0.8313725490196079 0.8313725490196079 0.8196078431372549
            specularColor 0.6666666666666666 0.6666666666666666 0.6549019607843137
            ambientIntensity 0.83
            transparency 0.0
            shininess 0.5
        }
    }
    geometry IndexedFaceSet {
        ccw TRUE
        solid FALSE
        coord DEF co Coordinate {
            point [
                -0.9803 -0.4724 0.0551, -0.9921 -0.4724 0.0551, -0.9803 -0.8268 0.0551, -0.9921 -0.8268 0.0551, -0.9803 -0.8268 0.0512, -1.0276 -0.8268 0.0, -0.7087 -0.8268 0.0, -0.7087 -0.8268 0.0512, -0.9803 -0.8268 0.2638, -0.9803 -0.8268 0.3031, -0.9843 -0.8268 0.3031, -1.0367 -0.8268 0.0012, -1.0453 -0.8268 0.0047, -0.9921 -0.8268 0.2638, -1.0315 -0.8268 0.3031, -1.0396 -0.8268 0.3021, -1.0618 -0.8268 0.0263, -1.0582 -0.8268 0.0177, -1.0526 -0.8268 0.0104, -1.0472 -0.8268 0.2989, -1.0538 -0.8268 0.2939, -1.0588 -0.8268 0.2874, -1.0619 -0.8268 0.2798, -1.063 -0.8268 0.2717, -1.063 -0.8268 0.0354, -0.9803 -0.4724 0.0512, -0.7087 -0.4724 0.0512, -0.7087 -0.4724 0.0, -1.0396 -0.4724 0.3021, -1.0315 -0.4724 0.3031, -0.9921 -0.4724 0.2638, -0.9803 -0.4724 0.2638, -0.9843 -0.4724 0.3031, -0.9803 -0.4724 0.3031, -1.0526 -0.4724 0.0104, -1.0582 -0.4724 0.0177, -1.0619 -0.4724 0.2798, -1.0588 -0.4724 0.2874, -1.0618 -0.4724 0.0263, -1.063 -0.4724 0.0354, -1.063 -0.4724 0.2717, -1.0276 -0.4724 0.0, -1.0367 -0.4724 0.0012, -1.0453 -0.4724 0.0047, -1.0538 -0.4724 0.2939, -1.0472 -0.4724 0.2989, 0.9803 -0.8268 0.0551, 0.9921 -0.8268 0.0551, 0.9803 -0.4724 0.0551, 0.9921 -0.4724 0.0551, 0.7087 -0.4724 0.0512, 0.7087 -0.4724 0.0, 0.7087 -0.8268 0.0512, 0.7087 -0.8268 0.0, 0.9803 -0.8268 0.0512, 1.063 -0.8268 0.0354, 0.9921 -0.8268 0.2638, 1.063 -0.8268 0.2717, 1.0619 -0.8268 0.2798, 1.0276 -0.8268 0.0, 1.0367 -0.8268 0.0012, 1.0453 -0.8268 0.0047, 1.0526 -0.8268 0.0104, 0.9823 -0.8268 0.3031, 0.9803 -0.8268 0.2638, 1.0315 -0.8268 0.3031, 1.0396 -0.8268 0.3021, 1.0472 -0.8268 0.2989, 1.0582 -0.8268 0.0177, 1.0618 -0.8268 0.0263, 1.0588 -0.8268 0.2874, 1.0538 -0.8268 0.2939, 1.0276 -0.4724 0.0, 0.9803 -0.4724 0.0512, 0.9803 -0.4724 0.2638, 0.9823 -0.4724 0.3031, 0.9921 -0.4724 0.2638, 1.0315 -0.4724 0.3031, 1.0367 -0.4724 0.0012, 1.0453 -0.4724 0.0047, 1.0396 -0.4724 0.3021, 1.0472 -0.4724 0.2989, 1.0538 -0.4724 0.2939, 1.063 -0.4724 0.2717, 1.063 -0.4724 0.0354, 1.0618 -0.4724 0.0263, 1.0588 -0.4724 0.2874, 1.0619 -0.4724 0.2798, 1.0582 -0.4724 0.0177, 1.0526 -0.4724 0.0104, -0.9921 0.8268 0.0551, -0.9921 0.4724 0.0551, -0.9803 0.8268 0.0551, -0.9803 0.4724 0.0551, -0.7087 0.4724 0.0, -0.7087 0.8268 0.0, -0.7087 0.4724 0.0512, -0.7087 0.8268 0.0512, -0.9803 0.8268 0.0512, -1.0396 0.8268 0.3021, -1.0315 0.8268 0.3031, -0.9921 0.8268 0.2638, -0.9803 0.8268 0.2638, -0.9843 0.8268 0.3031, -0.9803 0.8268 0.3031, -1.0619 0.8268 0.2798, -1.0588 0.8268 0.2874, -1.0526 0.8268 0.0104, -1.0582 0.8268 0.0177, -1.0276 0.8268 0.0, -1.0367 0.8268 0.0012, -1.0453 0.8268 0.0047, -1.0618 0.8268 0.0263, -1.063 0.8268 0.0354, -1.063 0.8268 0.2717, -1.0538 0.8268 0.2939, -1.0472 0.8268 0.2989, -1.0367 0.4724 0.0012, -1.0276 0.4724 0.0, -0.9803 0.4724 0.2638, -0.9803 0.4724 0.3031, -0.9843 0.4724 0.3031, -0.9803 0.4724 0.0512, -1.0619 0.4724 0.2798, -1.063 0.4724 0.2717, -0.9921 0.4724 0.2638, -1.0618 0.4724 0.0263, -1.0582 0.4724 0.0177, -1.063 0.4724 0.0354, -1.0526 0.4724 0.0104, -1.0453 0.4724 0.0047, -1.0315 0.4724 0.3031, -1.0396 0.4724 0.3021, -1.0472 0.4724 0.2989, -1.0538 0.4724 0.2939, -1.0588 0.4724 0.2874, 0.9921 0.4724 0.0551, 0.9921 0.8268 0.0551, 0.9803 0.4724 0.0551, 0.9803 0.8268 0.0551, 0.7087 0.8268 0.0, 0.7087 0.4724 0.0, 0.7087 0.8268 0.0512, 0.7087 0.4724 0.0512, 1.0276 0.8268 0.0, 0.9803 0.8268 0.0512, 0.9803 0.8268 0.2638, 0.9823 0.8268 0.3031, 0.9921 0.8268 0.2638, 1.0315 0.8268 0.3031, 1.0367 0.8268 0.0012, 1.0453 0.8268 0.0047, 1.063 0.8268 0.2717, 1.063 0.8268 0.0354, 1.0618 0.8268 0.0263, 1.0538 0.8268 0.2939, 1.0588 0.8268 0.2874, 1.0619 0.8268 0.2798, 1.0396 0.8268 0.3021, 1.0472 0.8268 0.2989, 1.0582 0.8268 0.0177, 1.0526 0.8268 0.0104, 0.9803 0.4724 0.0512, 1.063 0.4724 0.0354, 0.9921 0.4724 0.2638, 1.063 0.4724 0.2717, 1.0619 0.4724 0.2798, 1.0276 0.4724 0.0, 1.0367 0.4724 0.0012, 1.0453 0.4724 0.0047, 1.0526 0.4724 0.0104, 1.0588 0.4724 0.2874, 1.0538 0.4724 0.2939, 1.0472 0.4724 0.2989, 1.0582 0.4724 0.0177, 1.0618 0.4724 0.0263, 0.9823 0.4724 0.3031, 0.9803 0.4724 0.2638, 1.0315 0.4724 0.3031, 1.0396 0.4724 0.3021
            ]
        }
        coordIndex [
            0,1,2,-1,2,1,3,-1,4,2,3,-1,5,6,7,-1,8,9,10,-1,7,4,5,-1,5,4,3,-1,5,3,11,-1,11,3,12,-1,8,10,13,-1,13,10,14,-1,13,14,15,-1,16,17,3,-1,3,17,18,-1,3,18,12,-1,15,19,13,-1,13,19,20,-1,13,20,21,-1,21,22,13,-1,13,22,23,-1,13,23,3,-1,3,23,24,-1,3,24,16,-1,25,26,27,-1,28,29,30,-1,30,29,31,-1,31,29,32,-1,31,32,33,-1,1,34,35,-1,36,37,30,-1,1,0,25,-1,35,38,1,-1,1,38,39,-1,1,39,30,-1,30,39,40,-1,30,40,36,-1,27,41,25,-1,25,41,42,-1,25,42,1,-1,1,42,43,-1,1,43,34,-1,37,44,30,-1,30,44,45,-1,30,45,28,-1,29,14,32,-1,32,14,10,-1,14,29,28,-1,14,28,15,-1,15,28,45,-1,15,45,19,-1,19,45,44,-1,19,44,20,-1,20,44,37,-1,20,37,21,-1,21,37,36,-1,21,36,22,-1,22,36,40,-1,22,40,23,-1,24,23,39,-1,39,23,40,-1,24,39,38,-1,24,38,16,-1,16,38,35,-1,16,35,17,-1,17,35,34,-1,17,34,18,-1,18,34,43,-1,18,43,12,-1,12,43,42,-1,12,42,11,-1,11,42,41,-1,11,41,5,-1,6,5,27,-1,27,5,41,-1,6,27,7,-1,7,27,26,-1,13,3,30,-1,30,3,1,-1,8,13,31,-1,31,13,30,-1,46,47,48,-1,48,47,49,-1,50,51,52,-1,52,51,53,-1,54,52,53,-1,47,46,54,-1,47,55,56,-1,56,55,57,-1,56,57,58,-1,53,59,54,-1,54,59,60,-1,54,60,47,-1,47,60,61,-1,47,61,62,-1,63,64,65,-1,65,64,56,-1,65,56,66,-1,66,56,67,-1,62,68,47,-1,47,68,69,-1,47,69,55,-1,58,70,56,-1,56,70,71,-1,56,71,67,-1,72,51,50,-1,73,48,49,-1,74,75,76,-1,76,75,77,-1,50,73,72,-1,72,73,49,-1,72,49,78,-1,78,49,79,-1,77,80,76,-1,76,80,81,-1,76,81,82,-1,76,83,49,-1,49,83,84,-1,49,84,85,-1,82,86,76,-1,76,86,87,-1,76,87,83,-1,85,88,49,-1,49,88,89,-1,49,89,79,-1,59,72,78,-1,59,78,60,-1,60,78,79,-1,60,79,61,-1,61,79,89,-1,61,89,62,-1,62,89,88,-1,62,88,68,-1,68,88,85,-1,68,85,69,-1,69,85,84,-1,69,84,55,-1,57,55,83,-1,83,55,84,-1,57,83,87,-1,57,87,58,-1,58,87,86,-1,58,86,70,-1,70,86,82,-1,70,82,71,-1,71,82,81,-1,71,81,67,-1,67,81,80,-1,67,80,66,-1,66,80,77,-1,66,77,65,-1,63,65,75,-1,75,65,77,-1,56,64,76,-1,76,64,74,-1,47,56,49,-1,49,56,76,-1,59,53,72,-1,72,53,51,-1,90,91,92,-1,92,91,93,-1,94,95,96,-1,96,95,97,-1,98,97,95,-1,99,100,101,-1,101,100,102,-1,102,100,103,-1,102,103,104,-1,105,106,101,-1,90,92,98,-1,107,108,90,-1,95,109,98,-1,98,109,110,-1,98,110,90,-1,90,110,111,-1,90,111,107,-1,108,112,90,-1,90,112,113,-1,90,113,101,-1,101,113,114,-1,101,114,105,-1,106,115,101,-1,101,115,116,-1,101,116,99,-1,91,117,118,-1,119,120,121,-1,93,91,122,-1,122,91,118,-1,122,118,96,-1,96,118,94,-1,123,124,125,-1,126,127,91,-1,119,121,125,-1,125,124,91,-1,91,124,128,-1,91,128,126,-1,127,129,91,-1,91,129,130,-1,91,130,117,-1,121,131,125,-1,125,131,132,-1,125,132,133,-1,133,134,125,-1,125,134,135,-1,125,135,123,-1,101,102,125,-1,125,102,119,-1,90,101,91,-1,91,101,125,-1,109,95,118,-1,118,95,94,-1,109,118,117,-1,109,117,110,-1,110,117,130,-1,110,130,111,-1,111,130,129,-1,111,129,107,-1,107,129,127,-1,107,127,108,-1,108,127,126,-1,108,126,112,-1,112,126,128,-1,112,128,113,-1,114,113,124,-1,124,113,128,-1,114,124,123,-1,114,123,105,-1,105,123,135,-1,105,135,106,-1,106,135,134,-1,106,134,115,-1,115,134,133,-1,115,133,116,-1,116,133,132,-1,116,132,99,-1,99,132,131,-1,99,131,100,-1,103,100,121,-1,121,100,131,-1,136,137,138,-1,138,137,139,-1,140,141,142,-1,142,141,143,-1,144,140,142,-1,145,139,137,-1,146,147,148,-1,148,147,149,-1,142,145,144,-1,144,145,137,-1,144,137,150,-1,150,137,151,-1,148,152,137,-1,137,152,153,-1,137,153,154,-1,155,156,148,-1,148,156,157,-1,148,157,152,-1,149,158,148,-1,148,158,159,-1,148,159,155,-1,154,160,137,-1,137,160,161,-1,137,161,151,-1,162,143,141,-1,136,138,162,-1,136,163,164,-1,164,163,165,-1,164,165,166,-1,141,167,162,-1,162,167,168,-1,162,168,136,-1,136,168,169,-1,136,169,170,-1,166,171,164,-1,164,171,172,-1,164,172,173,-1,170,174,136,-1,136,174,175,-1,136,175,163,-1,176,177,178,-1,178,177,164,-1,178,164,179,-1,179,164,173,-1,153,163,175,-1,153,175,154,-1,154,175,174,-1,154,174,160,-1,160,174,170,-1,160,170,161,-1,161,170,169,-1,161,169,151,-1,151,169,168,-1,151,168,150,-1,150,168,167,-1,150,167,144,-1,140,144,141,-1,141,144,167,-1,148,137,164,-1,164,137,136,-1,146,148,177,-1,177,148,164,-1,149,147,178,-1,178,147,176,-1,149,178,179,-1,149,179,158,-1,158,179,173,-1,158,173,159,-1,159,173,172,-1,159,172,155,-1,155,172,171,-1,155,171,156,-1,156,171,166,-1,156,166,157,-1,157,166,165,-1,157,165,152,-1,153,152,163,-1,163,152,165,-1,
        ]
    }
}
Shape{
    appearance Appearance {
        material  Material 	{
            diffuseColor 0.20784313725490197 0.20784313725490197 0.20784313725490197
            specularColor 0.01568627450980392 0.01568627450980392 0.01568627450980392
            ambientIntensity 0.298
            transparency 0.0
            shininess 0.5
        }
    }
    geometry IndexedFaceSet {
        ccw TRUE
        solid FALSE
        coord DEF co Coordinate {
            point [
                0.0806 -0.3421 0.0039, 0.0806 -0.3421 0.0, 0.0865 -0.3255 0.0039, 0.0865 -0.3255 0.0, 0.0562 -0.3421 0.0039, 0.0562 -0.3421 0.0, 0.0505 -0.3255 0.0039, 0.0505 -0.3255 0.0, 0.0419 -0.3255 0.0039, 0.0419 -0.3255 0.0, 0.0642 -0.3846 0.0039, 0.0642 -0.3846 0.0, 0.0721 -0.3846 0.0039, 0.0721 -0.3846 0.0, 0.0952 -0.3255 0.0039, 0.0952 -0.3255 0.0, 0.0582 -0.3486 0.0039, 0.067 -0.3732 0.0039, 0.0675 -0.3753 0.0039, 0.0679 -0.3774 0.0039, 0.0681 -0.3774 0.0039, 0.0685 -0.3753 0.0039, 0.0779 -0.3486 0.0039, 0.069 -0.3732 0.0039, 0.0681 -0.3774 0.0, 0.0685 -0.3753 0.0, 0.069 -0.3732 0.0, 0.0679 -0.3774 0.0, 0.067 -0.3732 0.0, 0.0675 -0.3753 0.0, 0.0582 -0.3486 0.0, 0.0779 -0.3486 0.0, 0.0067 -0.3846 0.0039, 0.0067 -0.3846 0.0, -0.01 -0.3846 0.0039, -0.01 -0.3846 0.0, 0.0376 -0.3558 0.0039, 0.0376 -0.3558 0.0, 0.0371 -0.3613 0.0, 0.0371 -0.3613 0.0039, 0.0355 -0.3672 0.0, 0.0355 -0.3672 0.0039, 0.0328 -0.3722 0.0, 0.0328 -0.3722 0.0039, 0.0286 -0.3769 0.0, 0.0286 -0.3769 0.0039, 0.0286 -0.3769 0.0, 0.0286 -0.3769 0.0039, 0.0221 -0.3812 0.0, 0.0221 -0.3812 0.0039, 0.0152 -0.3837 0.0, 0.0152 -0.3837 0.0039, 0.0061 -0.3255 0.0039, 0.0061 -0.3255 0.0, 0.0134 -0.3262 0.0, 0.0134 -0.3262 0.0039, 0.0202 -0.3282 0.0, 0.0202 -0.3282 0.0039, 0.0264 -0.3318 0.0, 0.0264 -0.3318 0.0039, 0.0312 -0.3364 0.0, 0.0312 -0.3364 0.0039, 0.0346 -0.3417 0.0, 0.0346 -0.3417 0.0039, 0.0367 -0.3479 0.0, 0.0367 -0.3479 0.0039, -0.01 -0.3255 0.0039, -0.01 -0.3255 0.0, 0.0257 -0.3698 0.0039, 0.0228 -0.3729 0.0039, 0.0185 -0.3756 0.0039, 0.0137 -0.3774 0.0039, 0.0067 -0.3781 0.0039, -0.002 -0.3781 0.0039, -0.002 -0.332 0.0039, 0.0063 -0.332 0.0039, 0.0126 -0.3326 0.0039, 0.0175 -0.3341 0.0039, 0.0216 -0.3365 0.0039, 0.0249 -0.3398 0.0039, 0.0274 -0.3439 0.0039, 0.0291 -0.3494 0.0039, 0.0296 -0.3556 0.0039, 0.0291 -0.3615 0.0039, 0.0278 -0.3662 0.0039, 0.0063 -0.332 0.0, -0.002 -0.332 0.0, 0.0296 -0.3556 0.0, 0.0291 -0.3494 0.0, 0.0274 -0.3439 0.0, 0.0249 -0.3398 0.0, 0.0216 -0.3365 0.0, 0.0175 -0.3341 0.0, 0.0126 -0.3326 0.0, 0.0067 -0.3781 0.0, 0.0137 -0.3774 0.0, 0.0185 -0.3756 0.0, 0.0228 -0.3729 0.0, 0.0257 -0.3698 0.0, 0.0278 -0.3662 0.0, 0.0291 -0.3615 0.0, -0.002 -0.3781 0.0, -0.0532 -0.3846 0.0039, -0.0532 -0.3846 0.0, -0.0532 -0.3255 0.0039, -0.0532 -0.3255 0.0, -0.0229 -0.3846 0.0039, -0.0229 -0.3846 0.0, -0.0229 -0.3781 0.0039, -0.0229 -0.3781 0.0, -0.0453 -0.3781 0.0039, -0.0453 -0.3781 0.0, -0.0453 -0.3586 0.0039, -0.0453 -0.3586 0.0, -0.0244 -0.3586 0.0039, -0.0244 -0.3586 0.0, -0.0244 -0.3522 0.0039, -0.0244 -0.3522 0.0, -0.0453 -0.3522 0.0039, -0.0453 -0.3522 0.0, -0.0453 -0.332 0.0039, -0.0453 -0.332 0.0, -0.0215 -0.332 0.0039, -0.0215 -0.332 0.0, -0.0215 -0.3255 0.0039, -0.0215 -0.3255 0.0, -0.1086 -0.3539 0.0039, -0.1086 -0.3539 0.0, -0.1081 -0.3471 0.0, -0.1081 -0.3471 0.0039, -0.1063 -0.3408 0.0, -0.1063 -0.3408 0.0039, -0.1031 -0.3352 0.0, -0.1031 -0.3352 0.0039, -0.0987 -0.3306 0.0, -0.0987 -0.3306 0.0039, -0.094 -0.3275 0.0, -0.094 -0.3275 0.0039, -0.0882 -0.3256 0.0, -0.0882 -0.3256 0.0039, -0.081 -0.3248 0.0039, -0.0844 -0.3252 0.0, -0.081 -0.3248 0.0, -0.0786 -0.3853 0.0, -0.083 -0.3849 0.0, -0.0786 -0.3853 0.0039, -0.0845 -0.3848 0.0039, -0.0845 -0.3848 0.0, -0.0911 -0.3829 0.0, -0.0911 -0.3829 0.0039, -0.0967 -0.3797 0.0, -0.0967 -0.3797 0.0039, -0.1021 -0.3745 0.0, -0.1021 -0.3745 0.0039, -0.1055 -0.369 0.0, -0.1055 -0.369 0.0039, -0.1078 -0.3623 0.0, -0.1078 -0.3623 0.0039, -0.0734 -0.3849 0.0, -0.0715 -0.3848 0.0039, -0.0715 -0.3848 0.0, -0.0647 -0.383 0.0039, -0.0647 -0.383 0.0, -0.0647 -0.375 0.0039, -0.0647 -0.375 0.0, -0.0785 -0.3788 0.0039, -0.0785 -0.3788 0.0, -0.0714 -0.3779 0.0, -0.0714 -0.3779 0.0039, -0.1007 -0.3544 0.0039, -0.1007 -0.3544 0.0, -0.1004 -0.359 0.0, -0.1004 -0.359 0.0039, -0.0989 -0.3653 0.0, -0.0989 -0.3653 0.0039, -0.0964 -0.3699 0.0, -0.0964 -0.3699 0.0039, -0.0929 -0.3738 0.0, -0.0929 -0.3738 0.0039, -0.0888 -0.3766 0.0, -0.0888 -0.3766 0.0039, -0.0843 -0.3782 0.0, -0.0843 -0.3782 0.0039, -0.0799 -0.3313 0.0039, -0.0799 -0.3313 0.0, -0.0854 -0.3319 0.0, -0.0854 -0.3319 0.0039, -0.0897 -0.3335 0.0, -0.0897 -0.3335 0.0039, -0.0933 -0.3359 0.0, -0.0933 -0.3359 0.0039, -0.0961 -0.3388 0.0, -0.0961 -0.3388 0.0039, -0.0985 -0.3429 0.0, -0.0985 -0.3429 0.0039, -0.1001 -0.348 0.0, -0.1001 -0.348 0.0039, -0.0647 -0.3351 0.0039, -0.0647 -0.3351 0.0, -0.0658 -0.3345 0.0, -0.0658 -0.3345 0.0039, -0.072 -0.3322 0.0, -0.072 -0.3322 0.0039, -0.0647 -0.3286 0.0039, -0.0647 -0.3286 0.0, -0.071 -0.326 0.0039, -0.0793 -0.3248 0.0, -0.0793 -0.3248 0.0039, -0.077 -0.3252 0.0, -0.071 -0.326 0.0, -0.1439 -0.3846 0.0039, -0.1439 -0.3846 0.0, -0.1439 -0.3255 0.0039, -0.1439 -0.3255 0.0, -0.136 -0.3846 0.0039, -0.136 -0.3846 0.0, -0.136 -0.332 0.0039, -0.136 -0.332 0.0, -0.1137 -0.332 0.0039, -0.1137 -0.332 0.0, -0.1137 -0.3255 0.0039, -0.1137 -0.3255 0.0
            ]
        }
        coordIndex [
            0,1,2,-1,2,1,3,-1,4,5,0,-1,0,5,1,-1,6,7,4,-1,4,7,5,-1,8,9,6,-1,6,9,7,-1,10,11,8,-1,8,11,9,-1,12,13,10,-1,10,13,11,-1,14,15,12,-1,12,15,13,-1,14,2,15,-1,15,2,3,-1,16,17,10,-1,8,6,4,-1,17,18,10,-1,10,18,19,-1,10,19,12,-1,12,19,20,-1,12,20,21,-1,10,8,16,-1,16,8,4,-1,16,4,22,-1,22,4,0,-1,21,23,12,-1,12,23,22,-1,12,22,14,-1,14,22,0,-1,14,0,2,-1,20,24,25,-1,20,25,21,-1,21,25,26,-1,21,26,23,-1,19,27,20,-1,20,27,24,-1,17,28,29,-1,17,29,18,-1,18,29,27,-1,18,27,19,-1,16,30,17,-1,17,30,28,-1,22,31,16,-1,16,31,30,-1,26,31,23,-1,23,31,22,-1,32,33,34,-1,34,33,35,-1,36,37,38,-1,36,38,39,-1,39,38,40,-1,39,40,41,-1,41,40,42,-1,41,42,43,-1,43,42,44,-1,43,44,45,-1,45,44,46,-1,45,46,47,-1,47,46,48,-1,47,48,49,-1,49,48,50,-1,49,50,51,-1,51,50,33,-1,51,33,32,-1,52,53,54,-1,52,54,55,-1,55,54,56,-1,55,56,57,-1,57,56,58,-1,57,58,59,-1,59,58,60,-1,59,60,61,-1,61,60,62,-1,61,62,63,-1,63,62,64,-1,63,64,65,-1,65,64,37,-1,65,37,36,-1,66,67,52,-1,52,67,53,-1,66,34,67,-1,67,34,35,-1,41,43,68,-1,68,43,45,-1,68,45,69,-1,69,45,47,-1,69,47,70,-1,70,47,49,-1,70,49,71,-1,71,49,51,-1,71,51,72,-1,72,51,32,-1,72,32,73,-1,73,32,34,-1,73,34,74,-1,74,34,66,-1,74,66,75,-1,75,66,52,-1,75,52,76,-1,76,52,55,-1,76,55,77,-1,77,55,57,-1,77,57,78,-1,78,57,59,-1,78,59,79,-1,79,59,61,-1,79,61,80,-1,80,61,63,-1,80,63,81,-1,81,63,65,-1,81,65,82,-1,82,65,36,-1,82,36,83,-1,83,36,39,-1,83,39,84,-1,84,39,41,-1,84,41,68,-1,75,85,74,-1,74,85,86,-1,82,87,88,-1,82,88,81,-1,81,88,89,-1,81,89,80,-1,80,89,90,-1,80,90,79,-1,79,90,91,-1,79,91,78,-1,78,91,92,-1,78,92,77,-1,77,92,93,-1,77,93,76,-1,76,93,85,-1,76,85,75,-1,72,94,95,-1,72,95,71,-1,71,95,96,-1,71,96,70,-1,70,96,97,-1,70,97,69,-1,69,97,98,-1,69,98,68,-1,68,98,99,-1,68,99,84,-1,84,99,100,-1,84,100,83,-1,83,100,87,-1,83,87,82,-1,73,101,72,-1,72,101,94,-1,86,101,74,-1,74,101,73,-1,102,103,104,-1,104,103,105,-1,106,107,102,-1,102,107,103,-1,108,109,106,-1,106,109,107,-1,110,111,108,-1,108,111,109,-1,112,113,110,-1,110,113,111,-1,114,115,112,-1,112,115,113,-1,116,117,114,-1,114,117,115,-1,118,119,116,-1,116,119,117,-1,120,121,118,-1,118,121,119,-1,122,123,120,-1,120,123,121,-1,124,125,122,-1,122,125,123,-1,124,104,125,-1,125,104,105,-1,108,106,110,-1,110,106,102,-1,110,102,112,-1,124,122,104,-1,104,122,120,-1,104,120,118,-1,116,114,118,-1,118,114,112,-1,118,112,104,-1,104,112,102,-1,126,127,128,-1,126,128,129,-1,129,128,130,-1,129,130,131,-1,131,130,132,-1,131,132,133,-1,133,132,134,-1,133,134,135,-1,135,134,136,-1,135,136,137,-1,137,136,138,-1,137,138,139,-1,139,138,140,-1,140,138,141,-1,140,141,142,-1,143,144,145,-1,145,144,146,-1,144,147,146,-1,146,147,148,-1,146,148,149,-1,149,148,150,-1,149,150,151,-1,151,150,152,-1,151,152,153,-1,153,152,154,-1,153,154,155,-1,155,154,156,-1,155,156,157,-1,157,156,127,-1,157,127,126,-1,143,145,158,-1,158,145,159,-1,158,159,160,-1,160,159,161,-1,160,161,162,-1,163,164,161,-1,161,164,162,-1,165,166,167,-1,165,167,168,-1,168,167,164,-1,168,164,163,-1,169,170,171,-1,169,171,172,-1,172,171,173,-1,172,173,174,-1,174,173,175,-1,174,175,176,-1,176,175,177,-1,176,177,178,-1,178,177,179,-1,178,179,180,-1,180,179,181,-1,180,181,182,-1,182,181,166,-1,182,166,165,-1,183,184,185,-1,183,185,186,-1,186,185,187,-1,186,187,188,-1,188,187,189,-1,188,189,190,-1,190,189,191,-1,190,191,192,-1,192,191,193,-1,192,193,194,-1,194,193,195,-1,194,195,196,-1,196,195,170,-1,196,170,169,-1,197,198,199,-1,197,199,200,-1,200,199,201,-1,200,201,202,-1,202,201,184,-1,202,184,183,-1,203,204,197,-1,197,204,198,-1,204,203,205,-1,140,142,206,-1,140,206,207,-1,207,206,208,-1,207,208,205,-1,205,208,209,-1,205,209,204,-1,186,140,183,-1,183,140,207,-1,183,207,202,-1,202,207,205,-1,202,205,200,-1,200,205,203,-1,200,203,197,-1,163,161,168,-1,168,161,159,-1,168,159,165,-1,165,159,145,-1,165,145,182,-1,182,145,146,-1,182,146,180,-1,180,146,149,-1,180,149,178,-1,178,149,151,-1,178,151,176,-1,176,151,153,-1,176,153,174,-1,174,153,155,-1,174,155,172,-1,172,155,157,-1,172,157,169,-1,169,157,126,-1,169,126,196,-1,196,126,129,-1,196,129,194,-1,194,129,131,-1,194,131,192,-1,192,131,133,-1,192,133,190,-1,190,133,135,-1,190,135,188,-1,188,135,137,-1,188,137,186,-1,186,137,139,-1,186,139,140,-1,210,211,212,-1,212,211,213,-1,214,215,210,-1,210,215,211,-1,216,217,214,-1,214,217,215,-1,218,219,216,-1,216,219,217,-1,220,221,218,-1,218,221,219,-1,220,212,221,-1,221,212,213,-1,214,210,216,-1,216,210,212,-1,216,212,218,-1,218,212,220,-1,
        ]
    }
}
Shape{
    appearance Appearance {
        material  Material 	{
            diffuseColor 1.0 1.0 1.0
            specularColor 0.30196078431372547 0.30196078431372547 0.30196078431372547
            ambientIntensity 1.0
            transparency 0.0
            shininess 0.5
        }
    }
    geometry IndexedFaceSet {
        ccw TRUE
        solid FALSE
        coord DEF co Coordinate {
            point [
                0.0582 -0.3486 0.0, 0.0779 -0.3486 0.0, 0.067 -0.3732 0.0, 0.069 -0.3732 0.0, 0.0675 -0.3753 0.0, 0.0685 -0.3753 0.0, 0.0679 -0.3774 0.0, 0.0681 -0.3774 0.0, -0.002 -0.3781 0.0, -0.002 -0.332 0.0, 0.0067 -0.3781 0.0, 0.0063 -0.332 0.0, 0.0126 -0.3326 0.0, 0.0296 -0.3556 0.0, 0.0291 -0.3615 0.0, 0.0278 -0.3662 0.0, 0.0137 -0.3774 0.0, 0.0175 -0.3341 0.0, 0.0216 -0.3365 0.0, 0.0249 -0.3398 0.0, 0.0274 -0.3439 0.0, 0.0291 -0.3494 0.0, 0.0257 -0.3698 0.0, 0.0228 -0.3729 0.0, 0.0185 -0.3756 0.0
            ]
        }
        coordIndex [
            0,1,2,-1,2,1,3,-1,2,3,4,-1,4,3,5,-1,4,5,6,-1,6,5,7,-1,8,9,10,-1,10,9,11,-1,10,11,12,-1,13,14,10,-1,10,14,15,-1,10,15,16,-1,12,17,10,-1,10,17,18,-1,10,18,19,-1,19,20,10,-1,10,20,21,-1,10,21,13,-1,22,23,15,-1,15,23,24,-1,15,24,16,-1,
        ]
    }
}