#VRML V2.0 utf8
# 3D model generated by easyeda2kicad.py (https://github.com/uPesy/easyeda2kicad.py)

Shape{
    appearance Appearance {
        material  Material 	{
            diffuseColor 0.8431372549019608 0.8156862745098039 0.7529411764705882
            specularColor 0.4235294117647059 0.40784313725490196 0.3764705882352941
            ambientIntensity 0.8167
            transparency 0.0
            shininess 0.5
        }
    }
    geometry IndexedFaceSet {
        ccw TRUE
        solid FALSE
        coord DEF co Coordinate {
            point [
                -0.1531 -0.1531 1.1811, -0.1815 -0.1181 1.1811, -0.1929 -0.1181 1.1811, 0.4901 -0.0441 1.1811, 0.2165 0.0 1.1811, 0.2092 -0.056 1.1811, 0.1929 -0.1181 1.1811, 0.1815 -0.1181 1.1811, 0.1531 -0.1531 1.1811, 0.056 -0.2092 1.1811, 0.1095 -0.4798 1.1811, 0.1934 -0.4525 1.1811, 0.1083 -0.1875 1.1811, 0.2711 -0.4107 1.1811, 0.3401 -0.3557 1.1811, 0.3981 -0.2893 1.1811, 0.1929 -0.0984 1.1811, 0.4434 -0.2135 1.1811, 0.4744 -0.1309 1.1811, -0.1929 0.1181 1.1811, -0.3706 0.3238 1.1811, -0.4225 0.2524 1.1811, 0.0221 -0.4916 1.1811, 0.0 -0.2165 1.1811, -0.0661 -0.4877 1.1811, -0.056 -0.2092 1.1811, -0.1521 -0.468 1.1811, 0.4921 0.0 1.1811, 0.4901 0.0441 1.1811, 0.2092 0.056 1.1811, 0.4744 0.1309 1.1811, 0.1929 0.0984 1.1811, 0.4434 0.2135 1.1811, 0.1929 0.1181 1.1811, 0.3981 0.2893 1.1811, 0.3401 0.3557 1.1811, 0.0 0.2165 1.1811, -0.0661 0.4877 1.1811, -0.056 0.2092 1.1811, -0.1521 0.468 1.1811, -0.1083 0.1875 1.1811, 0.1083 0.1875 1.1811, 0.1934 0.4525 1.1811, 0.056 0.2092 1.1811, 0.1095 0.4798 1.1811, 0.0221 0.4916 1.1811, -0.2332 -0.4334 1.1811, -0.1083 -0.1875 1.1811, -0.3068 -0.3848 1.1811, -0.3706 -0.3238 1.1811, -0.4225 -0.2524 1.1811, -0.4607 -0.1729 1.1811, -0.1929 -0.0984 1.1811, -0.2092 -0.056 1.1811, -0.1929 0.0984 1.1811, -0.4607 0.1729 1.1811, -0.2092 0.056 1.1811, -0.4842 0.0879 1.1811, -0.2165 0.0 1.1811, -0.4921 0.0 1.1811, -0.4842 -0.0879 1.1811, -0.1815 0.1181 1.1811, -0.1531 0.1531 1.1811, -0.3068 0.3848 1.1811, -0.2332 0.4334 1.1811, 0.1815 0.1181 1.1811, 0.1531 0.1531 1.1811, 0.2711 0.4107 1.1811, 0.2305 0.1181 0.0, 0.1815 0.1181 0.0, 0.1531 0.1531 0.0, -0.2305 0.1181 0.0, -0.4842 0.0879 0.0, -0.4607 0.1729 0.0, -0.4921 0.0 0.0, -0.2305 -0.1181 0.0, -0.4842 -0.0879 0.0, -0.1815 -0.1181 0.0, -0.1531 -0.1531 0.0, 0.0 -0.2165 0.0, -0.0661 -0.4877 0.0, -0.056 -0.2092 0.0, -0.1521 -0.468 0.0, -0.1083 -0.1875 0.0, 0.056 0.2092 0.0, 0.1934 0.4525 0.0, 0.1083 0.1875 0.0, 0.2711 0.4107 0.0, 0.3401 0.3557 0.0, 0.3981 0.2893 0.0, 0.4434 0.2135 0.0, 0.4921 0.0 0.0, 0.2305 -0.1181 0.0, 0.4901 -0.0441 0.0, 0.4744 -0.1309 0.0, -0.056 0.2092 0.0, -0.0661 0.4877 0.0, 0.0 0.2165 0.0, 0.0221 0.4916 0.0, 0.1095 0.4798 0.0, -0.1531 0.1531 0.0, -0.1815 0.1181 0.0, -0.2332 -0.4334 0.0, -0.3068 -0.3848 0.0, 0.4744 0.1309 0.0, 0.4901 0.0441 0.0, 0.4434 -0.2135 0.0, 0.3981 -0.2893 0.0, 0.3401 -0.3557 0.0, -0.4225 0.2524 0.0, -0.3706 0.3238 0.0, -0.3068 0.3848 0.0, -0.1083 0.1875 0.0, -0.2332 0.4334 0.0, -0.1521 0.468 0.0, -0.3706 -0.3238 0.0, -0.4225 -0.2524 0.0, -0.4607 -0.1729 0.0, 0.1083 -0.1875 0.0, 0.1934 -0.4525 0.0, 0.056 -0.2092 0.0, 0.1095 -0.4798 0.0, 0.0221 -0.4916 0.0, 0.1815 -0.1181 0.0, 0.1531 -0.1531 0.0, 0.2711 -0.4107 0.0, 0.1815 -0.1181 0.7451, -0.1815 0.1181 0.7451, -0.1815 0.1181 1.172, 0.1942 0.0958 0.5518, 0.1921 0.0999 1.1806, 0.1875 0.1083 0.6533, 0.1873 0.1081 1.1767, 0.1815 0.1181 0.7451, 0.1815 0.1181 1.172, 0.2001 0.0829 0.4628, 0.2001 -0.0829 0.4628, 0.1942 -0.0958 0.5518, 0.1815 -0.1181 1.172, 0.1873 -0.1081 1.1767, 0.1875 -0.1083 0.6533, 0.1921 -0.0999 1.1806, -0.1942 -0.0958 0.5518, -0.1921 -0.0999 1.1806, -0.1875 -0.1083 0.6533, -0.1873 -0.1081 1.1767, -0.1815 -0.1181 0.7451, -0.1815 -0.1181 1.172, -0.2001 -0.0829 0.4628, -0.2001 0.0829 0.4628, -0.1942 0.0958 0.5518, -0.1873 0.1081 1.1767, -0.1875 0.1083 0.6533, -0.1921 0.0999 1.1806, 0.2164 -0.0071 0.214, 0.2163 -0.0106 0.2162, 0.2165 -0.0035 0.2127, 0.2161 -0.0142 0.2193, 0.2155 -0.0212 0.2281, 0.2147 -0.0283 0.2404, 0.2124 -0.0422 0.2755, 0.2092 -0.056 0.3244, 0.205 -0.0696 0.387, 0.205 0.0696 0.387, 0.2092 0.056 0.3244, 0.2124 0.0422 0.2755, 0.2147 0.0283 0.2404, 0.2155 0.0212 0.2281, 0.2161 0.0142 0.2193, 0.2163 0.0106 0.2162, 0.2164 0.0071 0.214, 0.2165 0.0035 0.2127, 0.2165 0.0 0.2123, -0.2164 0.0071 0.214, -0.2163 0.0106 0.2162, -0.2165 0.0035 0.2127, -0.2161 0.0142 0.2193, -0.2155 0.0212 0.2281, -0.2147 0.0283 0.2404, -0.2124 0.0422 0.2755, -0.2092 0.056 0.3244, -0.205 0.0696 0.387, -0.205 -0.0696 0.387, -0.2092 -0.056 0.3244, -0.2124 -0.0422 0.2755, -0.2147 -0.0283 0.2404, -0.2155 -0.0212 0.2281, -0.2161 -0.0142 0.2193, -0.2163 -0.0106 0.2162, -0.2164 -0.0071 0.214, -0.2165 -0.0035 0.2127, -0.2165 0.0 0.2123
            ]
        }
        coordIndex [
            0,1,2,-1,3,4,5,-1,6,7,8,-1,9,10,11,-1,9,11,12,-1,12,11,13,-1,12,13,8,-1,8,13,14,-1,8,14,6,-1,6,14,15,-1,6,15,16,-1,16,15,17,-1,16,17,5,-1,5,17,18,-1,5,18,3,-1,19,20,21,-1,10,9,22,-1,22,9,23,-1,22,23,24,-1,24,23,25,-1,24,25,26,-1,3,27,4,-1,4,27,28,-1,4,28,29,-1,29,28,30,-1,29,30,31,-1,31,30,32,-1,31,32,33,-1,33,32,34,-1,33,34,35,-1,36,37,38,-1,38,37,39,-1,38,39,40,-1,41,42,43,-1,43,42,44,-1,43,44,36,-1,36,44,45,-1,36,45,37,-1,26,25,46,-1,46,25,47,-1,46,47,48,-1,48,47,0,-1,48,0,49,-1,49,0,2,-1,49,2,50,-1,50,2,51,-1,51,2,52,-1,51,52,53,-1,19,21,54,-1,54,21,55,-1,54,55,56,-1,56,55,57,-1,56,57,58,-1,58,57,59,-1,58,59,53,-1,53,59,60,-1,53,60,51,-1,19,61,20,-1,20,61,62,-1,20,62,63,-1,63,62,40,-1,63,40,64,-1,64,40,39,-1,65,33,66,-1,66,33,35,-1,66,35,41,-1,41,35,67,-1,41,67,42,-1,68,69,70,-1,71,72,73,-1,72,71,74,-1,74,71,75,-1,74,75,76,-1,75,77,78,-1,79,80,81,-1,81,80,82,-1,81,82,83,-1,84,85,86,-1,86,85,87,-1,86,87,70,-1,70,87,88,-1,70,88,68,-1,68,88,89,-1,68,89,90,-1,68,91,92,-1,92,91,93,-1,92,93,94,-1,95,96,97,-1,97,96,98,-1,97,98,84,-1,84,98,99,-1,84,99,85,-1,100,101,71,-1,82,102,83,-1,83,102,103,-1,83,103,78,-1,90,104,68,-1,68,104,105,-1,68,105,91,-1,94,106,92,-1,92,106,107,-1,92,107,108,-1,73,109,71,-1,71,109,110,-1,71,110,100,-1,100,110,111,-1,100,111,112,-1,112,111,113,-1,112,113,95,-1,95,113,114,-1,95,114,96,-1,103,115,78,-1,78,115,116,-1,78,116,75,-1,75,116,117,-1,75,117,76,-1,118,119,120,-1,120,119,121,-1,120,121,79,-1,79,121,122,-1,79,122,80,-1,123,92,124,-1,124,92,108,-1,124,108,118,-1,118,108,125,-1,118,125,119,-1,126,123,124,-1,127,101,100,-1,62,61,128,-1,129,130,131,-1,131,130,132,-1,131,132,133,-1,133,132,134,-1,133,134,66,-1,66,134,65,-1,135,29,129,-1,129,29,31,-1,129,31,130,-1,136,137,5,-1,8,7,138,-1,126,139,140,-1,140,139,141,-1,140,141,137,-1,137,141,16,-1,137,16,5,-1,142,143,144,-1,144,143,145,-1,144,145,146,-1,146,145,147,-1,146,147,0,-1,0,147,1,-1,148,53,142,-1,142,53,52,-1,142,52,143,-1,149,150,56,-1,127,151,152,-1,152,151,153,-1,152,153,150,-1,150,153,54,-1,150,54,56,-1,154,155,4,-1,154,4,156,-1,155,157,4,-1,4,157,158,-1,4,158,159,-1,159,160,4,-1,4,160,161,-1,4,161,5,-1,5,161,162,-1,5,162,136,-1,135,163,29,-1,29,163,164,-1,29,164,4,-1,164,165,4,-1,4,165,166,-1,4,166,167,-1,167,168,4,-1,4,168,169,-1,4,169,170,-1,170,171,4,-1,4,171,172,-1,4,172,156,-1,173,174,58,-1,173,58,175,-1,174,176,58,-1,58,176,177,-1,58,177,178,-1,178,179,58,-1,58,179,180,-1,58,180,56,-1,56,180,181,-1,56,181,149,-1,148,182,53,-1,53,182,183,-1,53,183,58,-1,183,184,58,-1,58,184,185,-1,58,185,186,-1,186,187,58,-1,58,187,188,-1,58,188,189,-1,189,190,58,-1,58,190,191,-1,58,191,175,-1,69,133,70,-1,70,133,66,-1,70,66,86,-1,86,66,41,-1,86,41,84,-1,84,41,43,-1,84,43,97,-1,97,43,36,-1,97,36,95,-1,95,36,38,-1,95,38,112,-1,112,38,40,-1,112,40,100,-1,100,40,62,-1,100,62,127,-1,127,62,128,-1,127,128,151,-1,77,146,78,-1,78,146,0,-1,78,0,83,-1,83,0,47,-1,83,47,81,-1,81,47,25,-1,81,25,79,-1,79,25,23,-1,79,23,120,-1,120,23,9,-1,120,9,118,-1,118,9,12,-1,118,12,124,-1,124,12,8,-1,124,8,126,-1,126,8,138,-1,126,138,139,-1,28,27,91,-1,91,27,93,-1,27,3,93,-1,93,3,18,-1,93,18,94,-1,94,18,17,-1,94,17,106,-1,106,17,15,-1,106,15,107,-1,107,15,14,-1,107,14,108,-1,108,14,13,-1,108,13,125,-1,125,13,11,-1,125,11,119,-1,119,11,10,-1,119,10,121,-1,121,10,22,-1,121,22,122,-1,122,22,24,-1,122,24,80,-1,80,24,26,-1,80,26,82,-1,82,26,46,-1,82,46,102,-1,102,46,48,-1,102,48,103,-1,103,48,49,-1,103,49,115,-1,115,49,50,-1,115,50,116,-1,116,50,51,-1,116,51,117,-1,117,51,60,-1,117,60,76,-1,76,60,59,-1,76,59,74,-1,74,59,57,-1,74,57,72,-1,72,57,55,-1,72,55,73,-1,73,55,21,-1,73,21,109,-1,109,21,20,-1,109,20,110,-1,110,20,63,-1,110,63,111,-1,111,63,64,-1,111,64,113,-1,113,64,39,-1,113,39,114,-1,114,39,37,-1,114,37,96,-1,96,37,45,-1,96,45,98,-1,98,45,44,-1,98,44,99,-1,99,44,42,-1,99,42,85,-1,85,42,67,-1,85,67,87,-1,87,67,35,-1,87,35,88,-1,88,35,34,-1,88,34,89,-1,89,34,32,-1,89,32,90,-1,90,32,30,-1,90,30,104,-1,104,30,28,-1,104,28,105,-1,105,28,91,-1,
        ]
    }
}
Shape{
    appearance Appearance {
        material  Material 	{
            diffuseColor 0.8509803921568627 0.8509803921568627 0.8509803921568627
            specularColor 0.4235294117647059 0.4235294117647059 0.4235294117647059
            ambientIntensity 0.851
            transparency 0.0
            shininess 0.5
        }
    }
    geometry IndexedFaceSet {
        ccw TRUE
        solid FALSE
        coord DEF co Coordinate {
            point [
                -0.2092 -0.056 0.3244, -0.205 -0.0696 0.387, -0.2092 0.056 0.3244, -0.1575 -0.1181 1.1101, -0.1575 0.1181 1.1101, -0.1815 -0.1181 0.7451, -0.1815 0.1181 0.7451, -0.1875 -0.1083 0.6533, -0.1875 0.1083 0.6533, -0.1942 -0.0958 0.5518, -0.1942 0.0958 0.5518, -0.2001 -0.0829 0.4628, -0.2001 0.0829 0.4628, -0.205 0.0696 0.387, -0.2124 -0.0422 0.2755, -0.2124 0.0422 0.2755, -0.2147 -0.0283 0.2404, -0.2147 0.0283 0.2404, -0.2155 0.0212 0.2281, -0.2155 -0.0212 0.2281, -0.2161 -0.0142 0.2193, -0.2164 -0.0071 0.214, -0.2163 -0.0106 0.2162, -0.2163 0.0106 0.2162, -0.2161 0.0142 0.2193, -0.2164 0.0071 0.214, -0.2165 0.0035 0.2127, -0.2165 -0.0035 0.2127, -0.2165 0.0 0.2123, 0.1575 0.1181 1.1101, 0.1575 -0.1181 1.1101, 0.1815 0.1181 0.7451, 0.1815 -0.1181 0.7451, 0.1875 0.1083 0.6533, 0.1875 -0.1083 0.6533, 0.1942 0.0958 0.5518, 0.1942 -0.0958 0.5518, 0.2001 0.0829 0.4628, 0.2001 -0.0829 0.4628, 0.205 0.0696 0.387, 0.205 -0.0696 0.387, 0.2092 -0.056 0.3244, 0.2092 0.056 0.3244, 0.2124 0.0422 0.2755, 0.2124 -0.0422 0.2755, 0.2147 -0.0283 0.2404, 0.2147 0.0283 0.2404, 0.2155 -0.0212 0.2281, 0.2155 0.0212 0.2281, 0.2164 0.0071 0.214, 0.2163 0.0106 0.2162, 0.2163 -0.0106 0.2162, 0.2161 -0.0142 0.2193, 0.2161 0.0142 0.2193, 0.2164 -0.0071 0.214, 0.2165 -0.0035 0.2127, 0.2165 0.0035 0.2127, 0.2165 0.0 0.2123, 0.1815 0.1181 0.0, 0.0593 0.1181 1.1036, 0.1782 0.1181 -0.7047, -0.2764 0.1181 -0.6982, -0.2305 0.1181 0.0, -0.1815 0.1181 0.0, -0.04 0.1181 -1.1512, -0.1338 0.1181 -1.1811, -0.1755 0.1181 -0.727, -0.2692 0.1181 -0.757, -0.1779 0.1181 -0.716, -0.2756 0.1181 -0.7279, -0.1782 0.1181 -0.7047, 0.2305 0.1181 0.0, 0.2764 0.1181 -0.6982, 0.1779 0.1181 -0.716, 0.2756 0.1181 -0.7279, 0.1755 0.1181 -0.727, 0.2692 0.1181 -0.757, 0.04 0.1181 -1.1512, 0.1338 0.1181 -1.1811, -0.1843 0.1181 1.3035, -0.1815 0.1181 1.1811, -0.2195 0.1181 1.3553, -0.2404 0.1181 1.4142, -0.0593 0.1181 1.1036, 0.1815 0.1181 1.172, 0.1767 0.1181 1.167, 0.1026 0.1181 1.2318, -0.1767 0.1181 1.167, -0.1026 0.1181 1.2318, -0.1654 0.1181 1.15, -0.077 0.1181 1.1934, -0.1588 0.1181 1.1305, -0.0623 0.1181 1.1497, -0.1815 0.1181 1.172, -0.1372 0.1181 1.2623, 0.077 0.1181 1.1934, 0.1654 0.1181 1.15, 0.0623 0.1181 1.1497, 0.1588 0.1181 1.1305, 0.2404 0.1181 1.4142, 0.3246 0.1181 1.3511, 0.2195 0.1181 1.3553, 0.2929 0.1181 1.2853, 0.1843 0.1181 1.3035, 0.2481 0.1181 1.2276, 0.1372 0.1181 1.2623, 0.1929 0.1181 1.1811, 0.1815 0.1181 1.1811, 0.1201 0.1181 1.6813, 0.205 0.1181 1.7434, 0.1704 0.1181 1.644, 0.2588 0.1181 1.6939, 0.2097 0.1181 1.5953, 0.3009 0.1181 1.6342, 0.2354 0.1181 1.5383, 0.3295 0.1181 1.567, 0.2459 0.1181 1.4766, 0.3433 0.1181 1.4952, 0.3416 0.1181 1.4222, -0.1704 0.1181 1.644, -0.205 0.1181 1.7434, -0.1201 0.1181 1.6813, -0.142 0.1181 1.7804, -0.0621 0.1181 1.7046, -0.0727 0.1181 1.8033, 0.0 0.1181 1.7126, 0.0 0.1181 1.811, 0.0621 0.1181 1.7046, 0.0727 0.1181 1.8033, 0.142 0.1181 1.7804, -0.1929 0.1181 1.1811, -0.2481 0.1181 1.2276, -0.2929 0.1181 1.2853, -0.3246 0.1181 1.3511, -0.3416 0.1181 1.4222, -0.2459 0.1181 1.4766, -0.3433 0.1181 1.4952, -0.2354 0.1181 1.5383, -0.3295 0.1181 1.567, -0.2097 0.1181 1.5953, -0.3009 0.1181 1.6342, -0.2588 0.1181 1.6939, 0.2764 -0.1181 -0.6982, 0.2305 -0.1181 0.0, 0.1815 -0.1181 0.0, 0.2195 -0.1181 1.3553, 0.1843 -0.1181 1.3035, 0.1815 -0.1181 1.1811, 0.04 -0.1181 -1.1512, 0.1338 -0.1181 -1.1811, 0.1755 -0.1181 -0.727, 0.2692 -0.1181 -0.757, 0.1779 -0.1181 -0.716, 0.2756 -0.1181 -0.7279, 0.1782 -0.1181 -0.7047, -0.1338 -0.1181 -1.1811, -0.04 -0.1181 -1.1512, -0.2692 -0.1181 -0.757, -0.1755 -0.1181 -0.727, -0.2756 -0.1181 -0.7279, -0.1779 -0.1181 -0.716, -0.2764 -0.1181 -0.6982, -0.1782 -0.1181 -0.7047, -0.2305 -0.1181 0.0, 0.0593 -0.1181 1.1036, 0.1767 -0.1181 1.167, 0.1026 -0.1181 1.2318, 0.1654 -0.1181 1.15, 0.077 -0.1181 1.1934, 0.1588 -0.1181 1.1305, 0.0623 -0.1181 1.1497, 0.1815 -0.1181 1.172, 0.1372 -0.1181 1.2623, -0.1815 -0.1181 0.0, -0.0593 -0.1181 1.1036, 0.2404 -0.1181 1.4142, 0.3416 -0.1181 1.4222, 0.2459 -0.1181 1.4766, 0.3433 -0.1181 1.4952, 0.2354 -0.1181 1.5383, 0.3295 -0.1181 1.567, 0.2097 -0.1181 1.5953, 0.3009 -0.1181 1.6342, 0.1704 -0.1181 1.644, -0.1815 -0.1181 1.172, -0.1767 -0.1181 1.167, -0.077 -0.1181 1.1934, -0.1654 -0.1181 1.15, -0.0623 -0.1181 1.1497, -0.1588 -0.1181 1.1305, -0.1815 -0.1181 1.1811, -0.1026 -0.1181 1.2318, -0.1372 -0.1181 1.2623, 0.1929 -0.1181 1.1811, 0.2481 -0.1181 1.2276, -0.2404 -0.1181 1.4142, -0.3246 -0.1181 1.3511, -0.2195 -0.1181 1.3553, -0.2929 -0.1181 1.2853, -0.1843 -0.1181 1.3035, -0.2481 -0.1181 1.2276, -0.1929 -0.1181 1.1811, -0.1201 -0.1181 1.6813, -0.205 -0.1181 1.7434, -0.1704 -0.1181 1.644, -0.2588 -0.1181 1.6939, -0.2097 -0.1181 1.5953, -0.3009 -0.1181 1.6342, -0.2354 -0.1181 1.5383, -0.3295 -0.1181 1.567, -0.2459 -0.1181 1.4766, -0.3433 -0.1181 1.4952, -0.3416 -0.1181 1.4222, 0.2588 -0.1181 1.6939, 0.205 -0.1181 1.7434, 0.1201 -0.1181 1.6813, 0.142 -0.1181 1.7804, 0.0621 -0.1181 1.7046, 0.0727 -0.1181 1.8033, 0.0 -0.1181 1.7126, 0.0 -0.1181 1.811, -0.0621 -0.1181 1.7046, -0.0727 -0.1181 1.8033, -0.142 -0.1181 1.7804, 0.2929 -0.1181 1.2853, 0.3246 -0.1181 1.3511, -0.1873 0.1081 1.1767, -0.1921 -0.0999 1.1806, -0.1921 0.0999 1.1806, -0.1873 -0.1081 1.1767, 0.1929 0.0984 1.1811, 0.1929 -0.0984 1.1811, 0.1921 -0.0999 1.1806, 0.1921 0.0999 1.1806, -0.1929 0.0984 1.1811, -0.1929 -0.0984 1.1811, 0.1873 -0.1081 1.1767, 0.1873 0.1081 1.1767
            ]
        }
        coordIndex [
            0,1,2,-1,3,4,5,-1,5,4,6,-1,5,6,7,-1,7,6,8,-1,7,8,9,-1,9,8,10,-1,9,10,11,-1,11,10,12,-1,11,12,1,-1,1,12,13,-1,1,13,2,-1,0,2,14,-1,14,2,15,-1,14,15,16,-1,15,17,16,-1,16,17,18,-1,16,18,19,-1,19,18,20,-1,21,22,23,-1,20,18,22,-1,22,18,24,-1,22,24,23,-1,23,25,21,-1,21,25,26,-1,21,26,27,-1,27,26,28,-1,29,30,31,-1,31,30,32,-1,31,32,33,-1,33,32,34,-1,33,34,35,-1,35,34,36,-1,35,36,37,-1,37,36,38,-1,37,38,39,-1,38,40,39,-1,39,40,41,-1,39,41,42,-1,42,41,43,-1,41,44,43,-1,43,44,45,-1,43,45,46,-1,46,45,47,-1,46,47,48,-1,49,50,51,-1,47,52,48,-1,48,52,51,-1,48,51,53,-1,53,51,50,-1,51,54,49,-1,49,54,55,-1,49,55,56,-1,56,55,57,-1,31,58,59,-1,59,58,60,-1,61,62,63,-1,64,65,66,-1,66,65,67,-1,66,67,68,-1,68,67,69,-1,68,69,70,-1,58,71,60,-1,60,71,72,-1,60,72,73,-1,73,72,74,-1,73,74,75,-1,75,74,76,-1,75,76,77,-1,77,76,78,-1,79,80,81,-1,81,80,82,-1,69,61,70,-1,70,61,63,-1,70,63,83,-1,84,85,86,-1,87,88,89,-1,89,88,90,-1,89,90,91,-1,91,90,92,-1,91,92,4,-1,4,92,83,-1,4,83,6,-1,6,83,63,-1,87,93,88,-1,88,93,80,-1,88,80,94,-1,94,80,79,-1,86,85,95,-1,95,85,96,-1,95,96,97,-1,97,96,98,-1,97,98,59,-1,59,98,29,-1,59,29,31,-1,99,100,101,-1,101,100,102,-1,101,102,103,-1,103,102,104,-1,103,104,105,-1,105,104,106,-1,105,106,86,-1,86,106,107,-1,86,107,84,-1,108,109,110,-1,110,109,111,-1,110,111,112,-1,112,111,113,-1,112,113,114,-1,114,113,115,-1,114,115,116,-1,116,115,117,-1,116,117,99,-1,99,117,118,-1,99,118,100,-1,119,120,121,-1,121,120,122,-1,121,122,123,-1,123,122,124,-1,123,124,125,-1,125,124,126,-1,125,126,127,-1,127,126,128,-1,127,128,108,-1,108,128,129,-1,108,129,109,-1,80,130,82,-1,82,130,131,-1,82,131,132,-1,132,133,82,-1,82,133,134,-1,82,134,135,-1,135,134,136,-1,135,136,137,-1,137,136,138,-1,137,138,139,-1,139,138,140,-1,139,140,119,-1,119,140,141,-1,119,141,120,-1,142,143,144,-1,145,146,147,-1,148,149,150,-1,150,149,151,-1,150,151,152,-1,152,151,153,-1,152,153,154,-1,155,156,157,-1,157,156,158,-1,157,158,159,-1,159,158,160,-1,159,160,161,-1,161,160,162,-1,161,162,163,-1,153,142,154,-1,154,142,144,-1,154,144,164,-1,165,166,167,-1,167,166,168,-1,167,168,169,-1,169,168,170,-1,169,170,30,-1,30,170,164,-1,30,164,32,-1,32,164,144,-1,165,171,166,-1,166,171,147,-1,166,147,172,-1,172,147,146,-1,163,162,173,-1,173,162,174,-1,173,174,5,-1,175,176,177,-1,177,176,178,-1,177,178,179,-1,179,178,180,-1,179,180,181,-1,181,180,182,-1,181,182,183,-1,184,185,186,-1,186,185,187,-1,186,187,188,-1,188,187,189,-1,188,189,174,-1,174,189,3,-1,174,3,5,-1,184,186,190,-1,190,186,191,-1,190,191,192,-1,145,147,175,-1,175,147,193,-1,175,193,194,-1,195,196,197,-1,197,196,198,-1,197,198,199,-1,199,198,200,-1,199,200,192,-1,192,200,201,-1,192,201,190,-1,202,203,204,-1,204,203,205,-1,204,205,206,-1,206,205,207,-1,206,207,208,-1,208,207,209,-1,208,209,210,-1,210,209,211,-1,210,211,195,-1,195,211,212,-1,195,212,196,-1,182,213,183,-1,183,213,214,-1,183,214,215,-1,215,214,216,-1,215,216,217,-1,217,216,218,-1,217,218,219,-1,219,218,220,-1,219,220,221,-1,221,220,222,-1,221,222,202,-1,202,222,223,-1,202,223,203,-1,194,224,175,-1,175,224,225,-1,175,225,176,-1,67,157,159,-1,67,159,69,-1,69,159,161,-1,69,161,61,-1,62,61,163,-1,163,61,161,-1,226,93,87,-1,227,228,229,-1,229,228,226,-1,4,3,91,-1,91,3,189,-1,91,189,89,-1,89,189,187,-1,89,187,87,-1,87,187,185,-1,87,185,226,-1,226,185,184,-1,226,184,229,-1,230,106,104,-1,194,193,231,-1,232,233,231,-1,231,233,230,-1,231,230,194,-1,131,130,234,-1,228,227,234,-1,234,227,235,-1,234,235,131,-1,230,104,194,-1,194,104,102,-1,194,102,224,-1,224,102,100,-1,224,100,225,-1,225,100,118,-1,225,118,176,-1,176,118,117,-1,176,117,178,-1,178,117,115,-1,178,115,180,-1,180,115,113,-1,180,113,182,-1,182,113,111,-1,182,111,213,-1,213,111,109,-1,213,109,214,-1,214,109,129,-1,214,129,216,-1,216,129,128,-1,216,128,218,-1,218,128,126,-1,218,126,220,-1,220,126,124,-1,220,124,222,-1,222,124,122,-1,222,122,223,-1,223,122,120,-1,223,120,203,-1,203,120,141,-1,203,141,205,-1,205,141,140,-1,205,140,207,-1,207,140,138,-1,207,138,209,-1,209,138,136,-1,209,136,211,-1,211,136,134,-1,211,134,212,-1,212,134,133,-1,212,133,196,-1,196,133,132,-1,196,132,198,-1,198,132,131,-1,198,131,200,-1,200,131,235,-1,200,235,201,-1,236,171,165,-1,233,232,237,-1,237,232,236,-1,30,29,169,-1,169,29,98,-1,169,98,167,-1,167,98,96,-1,167,96,165,-1,165,96,85,-1,165,85,236,-1,236,85,84,-1,236,84,237,-1,143,142,71,-1,71,142,72,-1,72,142,153,-1,72,153,74,-1,74,153,151,-1,74,151,76,-1,78,76,149,-1,149,76,151,-1,77,78,148,-1,148,78,149,-1,75,77,150,-1,150,77,148,-1,75,150,73,-1,73,150,152,-1,73,152,60,-1,60,152,154,-1,59,60,164,-1,164,60,154,-1,59,164,170,-1,59,170,97,-1,97,170,168,-1,97,168,95,-1,95,168,166,-1,95,166,86,-1,86,166,172,-1,86,172,105,-1,105,172,103,-1,103,172,146,-1,103,146,101,-1,101,146,145,-1,101,145,99,-1,99,145,175,-1,99,175,116,-1,116,175,177,-1,116,177,114,-1,114,177,179,-1,114,179,112,-1,112,179,181,-1,112,181,110,-1,110,181,183,-1,110,183,108,-1,108,183,215,-1,108,215,127,-1,127,215,217,-1,127,217,125,-1,125,217,219,-1,125,219,123,-1,123,219,221,-1,123,221,121,-1,121,221,202,-1,121,202,119,-1,119,202,204,-1,119,204,139,-1,139,204,206,-1,139,206,137,-1,137,206,208,-1,137,208,135,-1,135,208,210,-1,135,210,82,-1,82,210,195,-1,82,195,81,-1,81,195,197,-1,81,197,79,-1,79,197,199,-1,79,199,94,-1,94,199,192,-1,94,192,191,-1,94,191,88,-1,88,191,186,-1,88,186,90,-1,90,186,188,-1,90,188,92,-1,92,188,174,-1,92,174,83,-1,70,83,162,-1,162,83,174,-1,70,162,68,-1,68,162,160,-1,68,160,66,-1,66,160,158,-1,64,66,156,-1,156,66,158,-1,65,64,155,-1,155,64,156,-1,67,65,157,-1,157,65,155,-1,
        ]
    }
}