G04 #@! TF.GenerationSoftware,KiCad,Pcbnew,9.0.9*
G04 #@! TF.CreationDate,2026-08-06T00:30:07+02:00*
G04 #@! TF.ProjectId,Slimme_meter_Sim,536c696d-6d65-45f6-9d65-7465725f5369,rev?*
G04 #@! TF.SameCoordinates,Original*
G04 #@! TF.FileFunction,Paste,Top*
G04 #@! TF.FilePolarity,Positive*
%FSLAX46Y46*%
G04 Gerber Fmt 4.6, Leading zero omitted, Abs format (unit mm)*
G04 Created by KiCad (PCBNEW 9.0.9) date 2026-08-06 00:30:07*
%MOMM*%
%LPD*%
G01*
G04 APERTURE LIST*
G04 Aperture macros list*
%AMRoundRect*
0 Rectangle with rounded corners*
0 $1 Rounding radius*
0 $2 $3 $4 $5 $6 $7 $8 $9 X,Y pos of 4 corners*
0 Add a 4 corners polygon primitive as box body*
4,1,4,$2,$3,$4,$5,$6,$7,$8,$9,$2,$3,0*
0 Add four circle primitives for the rounded corners*
1,1,$1+$1,$2,$3*
1,1,$1+$1,$4,$5*
1,1,$1+$1,$6,$7*
1,1,$1+$1,$8,$9*
0 Add four rect primitives between the rounded corners*
20,1,$1+$1,$2,$3,$4,$5,0*
20,1,$1+$1,$4,$5,$6,$7,0*
20,1,$1+$1,$6,$7,$8,$9,0*
20,1,$1+$1,$8,$9,$2,$3,0*%
%AMFreePoly0*
4,1,17,0.335278,0.685443,0.349923,0.650088,0.349923,-0.649935,0.335278,-0.685290,0.299923,-0.699935,0.000318,-0.699935,-0.000051,-0.700088,-0.300050,-0.700088,-0.335405,-0.685443,-0.350050,-0.650088,-0.350050,0.649935,-0.335405,0.685290,-0.300050,0.699935,-0.000445,0.699935,-0.000076,0.700088,0.299923,0.700088,0.335278,0.685443,0.335278,0.685443,$1*%
%AMFreePoly1*
4,1,17,0.335431,0.685290,0.350076,0.649935,0.350076,-0.650037,0.335431,-0.685392,0.300076,-0.700037,0.000187,-0.700037,0.000127,-0.700062,-0.299898,-0.700062,-0.335253,-0.685417,-0.349898,-0.650062,-0.349898,0.649910,-0.335253,0.685265,-0.299898,0.699910,-0.000009,0.699910,0.000051,0.699935,0.300076,0.699935,0.335431,0.685290,0.335431,0.685290,$1*%
%AMFreePoly2*
4,1,13,0.335227,0.685443,0.349872,0.650088,0.349872,-0.649884,0.335227,-0.685239,0.299872,-0.699884,-0.300152,-0.699884,-0.335507,-0.685239,-0.350152,-0.649884,-0.350152,0.650088,-0.335507,0.685443,-0.300152,0.700088,0.299872,0.700088,0.335227,0.685443,0.335227,0.685443,$1*%
%AMFreePoly3*
4,1,47,-0.089715,1.750566,-0.075070,1.715211,-0.075070,1.250023,0.074917,1.250023,0.074917,1.715211,0.089562,1.750566,0.124917,1.765211,0.374929,1.765211,0.410284,1.750566,0.424929,1.715211,0.424929,1.250023,0.759866,1.250023,0.795221,1.235378,0.809866,1.200023,0.809866,-1.199972,0.795221,-1.235327,0.759866,-1.249972,0.424929,-1.249972,0.424929,-1.704797,0.410284,-1.740152,
0.374929,-1.754797,0.124917,-1.754797,0.089562,-1.740152,0.074917,-1.704797,0.074917,-1.249972,-0.075070,-1.249972,-0.075070,-1.704797,-0.089715,-1.740152,-0.125070,-1.754797,-0.375082,-1.754797,-0.410437,-1.740152,-0.425082,-1.704797,-0.425082,-1.249972,-0.760120,-1.249972,-0.795475,-1.235327,-0.810120,-1.199972,-0.810120,0.895198,-0.810095,0.895258,-0.810095,1.200023,-0.795450,1.235378,
-0.760095,1.250023,-0.425082,1.250023,-0.425082,1.715211,-0.410437,1.750566,-0.375082,1.765211,-0.125070,1.765211,-0.089715,1.750566,-0.089715,1.750566,$1*%
%AMFreePoly4*
4,1,14,0.760322,0.760195,0.774967,0.724840,0.774967,-0.725145,0.760322,-0.760500,0.724967,-0.775145,-0.725018,-0.775145,-0.760373,-0.760500,-0.775018,-0.725145,-0.775018,0.124841,-0.760373,0.160196,-0.160374,0.760195,-0.125019,0.774840,0.724967,0.774840,0.760322,0.760195,0.760322,0.760195,$1*%
G04 Aperture macros list end*
%ADD10R,0.864000X0.806000*%
%ADD11R,0.800000X2.000000*%
%ADD12R,1.000000X1.000000*%
%ADD13R,1.200000X1.000000*%
%ADD14R,1.900000X1.300000*%
%ADD15R,2.800000X1.000000*%
%ADD16R,0.800000X1.000000*%
%ADD17R,1.200000X0.700000*%
%ADD18R,0.600000X0.300000*%
%ADD19R,1.485000X1.728000*%
%ADD20R,0.665000X0.200000*%
%ADD21R,0.665000X0.400000*%
%ADD22R,1.728000X1.485000*%
%ADD23R,1.465000X1.260000*%
%ADD24R,0.800000X0.800000*%
%ADD25R,0.540000X0.566000*%
%ADD26R,1.800000X2.000000*%
%ADD27R,0.566000X0.540000*%
%ADD28R,0.540000X0.500000*%
%ADD29R,0.800000X0.900000*%
%ADD30R,1.100000X0.600000*%
%ADD31R,0.500000X0.540000*%
%ADD32R,1.500000X3.000000*%
%ADD33FreePoly0,270.000000*%
%ADD34FreePoly1,270.000000*%
%ADD35R,1.300000X0.300000*%
%ADD36FreePoly2,270.000000*%
%ADD37R,0.806000X0.864000*%
%ADD38R,2.700000X1.635000*%
%ADD39R,3.800000X1.000000*%
%ADD40R,3.400000X1.500000*%
%ADD41R,0.200000X0.500000*%
%ADD42R,1.500000X0.900000*%
%ADD43R,0.600000X1.100000*%
%ADD44R,2.192000X2.047000*%
%ADD45R,1.000000X0.700000*%
%ADD46RoundRect,0.200000X0.275000X-0.200000X0.275000X0.200000X-0.275000X0.200000X-0.275000X-0.200000X0*%
%ADD47R,5.080000X7.620000*%
%ADD48R,0.950000X1.200000*%
%ADD49R,1.524000X0.600000*%
%ADD50R,0.700000X1.200000*%
%ADD51R,3.000000X1.500000*%
%ADD52R,0.800000X0.300000*%
%ADD53FreePoly3,0.000000*%
%ADD54R,0.800000X0.400000*%
%ADD55R,0.400000X0.800000*%
%ADD56FreePoly4,180.000000*%
%ADD57R,1.450000X1.450000*%
%ADD58R,0.700000X0.700000*%
G04 APERTURE END LIST*
D10*
X140550000Y-194975000D03*
X140550000Y-193475000D03*
D11*
X127925000Y-177547500D03*
X129425000Y-177547500D03*
X130925000Y-177547500D03*
X132425000Y-177547500D03*
X133925000Y-177547500D03*
X135425000Y-177547500D03*
D12*
X125775000Y-178407500D03*
X125775000Y-180707500D03*
X137575000Y-180707500D03*
X137575000Y-178407500D03*
D13*
X166200000Y-226075000D03*
D14*
X181300000Y-223725000D03*
D15*
X180850000Y-237225000D03*
D16*
X176700000Y-237225000D03*
D13*
X170500000Y-237225000D03*
D17*
X166200000Y-236275000D03*
X166200000Y-235325000D03*
X166200000Y-234225000D03*
X166200000Y-233125000D03*
X166200000Y-232025000D03*
X166200000Y-230925000D03*
X166200000Y-229825000D03*
X166200000Y-228725000D03*
X166200000Y-227625000D03*
D18*
X96570000Y-171740000D03*
X96570000Y-172240000D03*
X96570000Y-172740000D03*
X98070000Y-172740000D03*
X98070000Y-172240000D03*
X98070000Y-171740000D03*
D19*
X94660000Y-174680000D03*
X91480000Y-174680000D03*
D10*
X104360000Y-169020000D03*
X104360000Y-167520000D03*
D20*
X158550000Y-233480000D03*
X158550000Y-233980000D03*
D21*
X158550000Y-234480000D03*
D20*
X158550000Y-234980000D03*
X158550000Y-235480000D03*
X159410000Y-235480000D03*
X159410000Y-234980000D03*
D21*
X159410000Y-234480000D03*
D20*
X159410000Y-233980000D03*
X159410000Y-233480000D03*
D22*
X81075000Y-208630000D03*
X81075000Y-211810000D03*
D23*
X133310000Y-223450000D03*
X133310000Y-220150000D03*
X128690000Y-220150000D03*
X128690000Y-223450000D03*
D24*
X106950000Y-167480000D03*
X106950000Y-168980000D03*
D25*
X108800000Y-218400000D03*
X108800000Y-219260000D03*
D26*
X169455000Y-207450000D03*
X171995000Y-207450000D03*
X174535000Y-207450000D03*
X177075000Y-207450000D03*
X177075000Y-197450000D03*
X174535000Y-197450000D03*
X171995000Y-197450000D03*
X169455000Y-197450000D03*
D19*
X159385000Y-231850000D03*
X162565000Y-231850000D03*
D27*
X123130000Y-236420000D03*
X122270000Y-236420000D03*
D28*
X171450000Y-194990000D03*
X171450000Y-194150000D03*
D29*
X123830000Y-170300000D03*
X125230000Y-170300000D03*
D10*
X171840000Y-211825000D03*
X171840000Y-210325000D03*
D28*
X140875000Y-209705000D03*
X140875000Y-210545000D03*
D27*
X104220000Y-199000000D03*
X105080000Y-199000000D03*
D10*
X89550000Y-209735000D03*
X89550000Y-208235000D03*
D25*
X72275000Y-230265000D03*
X72275000Y-231125000D03*
X162525000Y-239930000D03*
X162525000Y-239070000D03*
D10*
X135900000Y-173700000D03*
X135900000Y-175200000D03*
D28*
X130315000Y-246975000D03*
X130315000Y-247815000D03*
D27*
X96960000Y-169500000D03*
X97820000Y-169500000D03*
D19*
X109170000Y-193975000D03*
X112350000Y-193975000D03*
D24*
X85975000Y-226550000D03*
X85975000Y-228050000D03*
D30*
X73100000Y-233285000D03*
X73100000Y-234235000D03*
X73100000Y-235185000D03*
X75800000Y-235185000D03*
X75800000Y-234235000D03*
X75800000Y-233285000D03*
D22*
X87030000Y-221640000D03*
X87030000Y-218460000D03*
D31*
X96630000Y-173900000D03*
X97470000Y-173900000D03*
D25*
X152260000Y-211830000D03*
X152260000Y-210970000D03*
X163925000Y-236305000D03*
X163925000Y-235445000D03*
D32*
X96730000Y-177180000D03*
X99210000Y-177180000D03*
D31*
X104350000Y-200440000D03*
X105190000Y-200440000D03*
D22*
X169060000Y-194460000D03*
X169060000Y-191280000D03*
D33*
X68192456Y-230830000D03*
D34*
X68192456Y-231630000D03*
D35*
X68192456Y-232780000D03*
X68192456Y-233780000D03*
X68192456Y-234280000D03*
X68192456Y-235280000D03*
D36*
X68192456Y-237230000D03*
X68192456Y-236430000D03*
D35*
X68192456Y-235780000D03*
X68192456Y-234780000D03*
X68192456Y-233280000D03*
X68192456Y-232280000D03*
D19*
X133965000Y-249895000D03*
X130785000Y-249895000D03*
D37*
X118615000Y-170815000D03*
X120115000Y-170815000D03*
D24*
X84480000Y-205975000D03*
X84480000Y-207475000D03*
D22*
X83330000Y-220410000D03*
X83330000Y-217230000D03*
D25*
X164100000Y-229095000D03*
X164100000Y-229955000D03*
D22*
X160380000Y-210025000D03*
X160380000Y-213205000D03*
D38*
X131760000Y-162040000D03*
X131760000Y-165080000D03*
D25*
X72390000Y-238390000D03*
X72390000Y-237530000D03*
D19*
X98465000Y-167625000D03*
X95285000Y-167625000D03*
D25*
X128766500Y-225795000D03*
X128766500Y-226655000D03*
X162525000Y-233720000D03*
X162525000Y-234580000D03*
D27*
X104055000Y-194925000D03*
X104915000Y-194925000D03*
D39*
X68730000Y-165600000D03*
X68730000Y-167600000D03*
D40*
X62870000Y-169950000D03*
X62870000Y-163250000D03*
D25*
X87040000Y-212030000D03*
X87040000Y-212890000D03*
D27*
X104990000Y-196625000D03*
X104130000Y-196625000D03*
D10*
X157430000Y-192230000D03*
X157430000Y-193730000D03*
D22*
X124920000Y-160650000D03*
X124920000Y-163830000D03*
D41*
X85005000Y-216335000D03*
X85405000Y-216335000D03*
X85805000Y-216335000D03*
X86205000Y-216335000D03*
X86605000Y-216335000D03*
X86605000Y-214235000D03*
X86205000Y-214235000D03*
X85805000Y-214235000D03*
X85405000Y-214235000D03*
X85005000Y-214235000D03*
D42*
X85805000Y-215285000D03*
D43*
X106835000Y-199250000D03*
X107785000Y-199250000D03*
X108735000Y-199250000D03*
X108735000Y-196650000D03*
X106835000Y-196650000D03*
D44*
X142310000Y-165230000D03*
X142310000Y-160510000D03*
D26*
X143115000Y-197475000D03*
X140575000Y-197475000D03*
X138035000Y-197475000D03*
X135495000Y-197475000D03*
X135495000Y-207475000D03*
X138035000Y-207475000D03*
X140575000Y-207475000D03*
X143115000Y-207475000D03*
D45*
X82220000Y-214070000D03*
X79880000Y-214070000D03*
D46*
X126650000Y-175200000D03*
X126650000Y-173550000D03*
D19*
X102845000Y-203725000D03*
X106025000Y-203725000D03*
D25*
X164050000Y-227780000D03*
X164050000Y-226920000D03*
D19*
X101770000Y-192275000D03*
X104950000Y-192275000D03*
D28*
X83660000Y-213800000D03*
X83660000Y-214640000D03*
D37*
X118540000Y-167440000D03*
X120040000Y-167440000D03*
D25*
X109200000Y-227400000D03*
X109200000Y-228260000D03*
D31*
X131145000Y-242850000D03*
X130305000Y-242850000D03*
D27*
X131205000Y-244275000D03*
X130345000Y-244275000D03*
D28*
X136541500Y-225295000D03*
X136541500Y-224455000D03*
X164325000Y-232220000D03*
X164325000Y-231380000D03*
D10*
X147300000Y-165275000D03*
X147300000Y-163775000D03*
D19*
X135330000Y-247520000D03*
X132150000Y-247520000D03*
D31*
X122230000Y-239295000D03*
X123070000Y-239295000D03*
D27*
X112560000Y-245580000D03*
X113420000Y-245580000D03*
D10*
X129600000Y-173700000D03*
X129600000Y-175200000D03*
D24*
X147360000Y-168670000D03*
X147360000Y-167170000D03*
D19*
X98365000Y-165150000D03*
X95185000Y-165150000D03*
D47*
X161275000Y-134875000D03*
X78655000Y-134875000D03*
D25*
X162290000Y-228800000D03*
X162290000Y-227940000D03*
D38*
X135390000Y-162110000D03*
X135390000Y-165150000D03*
D37*
X118640000Y-169140000D03*
X120140000Y-169140000D03*
D27*
X131200000Y-245725000D03*
X130340000Y-245725000D03*
D48*
X136691500Y-222775000D03*
X136691500Y-219375000D03*
D10*
X91200000Y-209780000D03*
X91200000Y-208280000D03*
X132750000Y-173725000D03*
X132750000Y-175225000D03*
D19*
X98290000Y-162450000D03*
X95110000Y-162450000D03*
D22*
X142925000Y-210285000D03*
X142925000Y-213465000D03*
D25*
X119930000Y-237340000D03*
X119930000Y-238200000D03*
D10*
X84520000Y-211710000D03*
X84520000Y-210210000D03*
D27*
X116870000Y-237840000D03*
X117730000Y-237840000D03*
D49*
X95003500Y-218825000D03*
X95003500Y-215825000D03*
X95003500Y-214325000D03*
D50*
X96103500Y-220175000D03*
X98403500Y-220175000D03*
X96103500Y-212975000D03*
X98403500Y-212975000D03*
D25*
X95040000Y-171920000D03*
X95040000Y-172780000D03*
X165125000Y-239905000D03*
X165125000Y-239045000D03*
D26*
X160095000Y-197475000D03*
X157555000Y-197475000D03*
X155015000Y-197475000D03*
X152475000Y-197475000D03*
X152475000Y-207475000D03*
X155015000Y-207475000D03*
X157555000Y-207475000D03*
X160095000Y-207475000D03*
D31*
X97840000Y-170700000D03*
X97000000Y-170700000D03*
D51*
X109710000Y-204440000D03*
X109710000Y-201960000D03*
D10*
X85970000Y-224930000D03*
X85970000Y-223430000D03*
D31*
X122790000Y-165800000D03*
X123630000Y-165800000D03*
D27*
X122270000Y-237845000D03*
X123130000Y-237845000D03*
D44*
X121410000Y-163920000D03*
X121410000Y-159200000D03*
D52*
X125522500Y-166140207D03*
X125522500Y-166640207D03*
X125522500Y-167140207D03*
X125522500Y-167640207D03*
X125522500Y-168140207D03*
X128522500Y-168140207D03*
X128522500Y-167640207D03*
X128522500Y-167140207D03*
X128522500Y-166640207D03*
X128522500Y-166140207D03*
D53*
X127022500Y-167150207D03*
D27*
X131700000Y-167470000D03*
X130840000Y-167470000D03*
D25*
X88290000Y-212150000D03*
X88290000Y-213010000D03*
D54*
X127645000Y-250045000D03*
X127645000Y-249245000D03*
X127645000Y-248445000D03*
X127645000Y-247645000D03*
X127645000Y-246845000D03*
X127645000Y-246045000D03*
X127645000Y-245245000D03*
X127645000Y-244445000D03*
X127645000Y-243645000D03*
X127645000Y-242845000D03*
X127645000Y-242045000D03*
D55*
X126545000Y-241145000D03*
X125745000Y-241145000D03*
X124945000Y-241145000D03*
X124145000Y-241145000D03*
X123345000Y-241145000D03*
X122545000Y-241145000D03*
X121745000Y-241145000D03*
X120945000Y-241145000D03*
X120145000Y-241145000D03*
X119345000Y-241145000D03*
X118545000Y-241145000D03*
X117745000Y-241145000D03*
X116945000Y-241145000D03*
D54*
X115845000Y-242045000D03*
X115845000Y-242845000D03*
X115845000Y-243645000D03*
X115845000Y-244445000D03*
X115845000Y-245245000D03*
X115845000Y-246045000D03*
X115845000Y-246845000D03*
X115845000Y-247645000D03*
X115845000Y-248445000D03*
X115845000Y-249245000D03*
X115845000Y-250045000D03*
D55*
X116945000Y-250945000D03*
X117745000Y-250945000D03*
X118545000Y-250945000D03*
X119345000Y-250945000D03*
X120145000Y-250945000D03*
X120945000Y-250945000D03*
X121745000Y-250945000D03*
X122545000Y-250945000D03*
X123345000Y-250945000D03*
X124145000Y-250945000D03*
X124945000Y-250945000D03*
X125745000Y-250945000D03*
X126545000Y-250945000D03*
D56*
X123725000Y-248025000D03*
D57*
X123725000Y-246045000D03*
X123725000Y-244065000D03*
X121745000Y-248015000D03*
X121745000Y-246045000D03*
X121745000Y-244065000D03*
X119775000Y-248015000D03*
X119775000Y-246045000D03*
X119775000Y-244065000D03*
D58*
X115795000Y-250995000D03*
X115795000Y-241095000D03*
X127695000Y-241095000D03*
X127695000Y-250995000D03*
D27*
X93690000Y-170050000D03*
X94550000Y-170050000D03*
X123570000Y-168440000D03*
X122710000Y-168440000D03*
D22*
X138550000Y-161960000D03*
X138550000Y-165140000D03*
D28*
X157930000Y-209520000D03*
X157930000Y-210360000D03*
M02*
