G04 #@! TF.GenerationSoftware,KiCad,Pcbnew,9.0.9*
G04 #@! TF.CreationDate,2026-08-06T00:30:07+02:00*
G04 #@! TF.ProjectId,Slimme_meter_Sim,536c696d-6d65-45f6-9d65-7465725f5369,rev?*
G04 #@! TF.SameCoordinates,Original*
G04 #@! TF.FileFunction,Soldermask,Bot*
G04 #@! TF.FilePolarity,Negative*
%FSLAX46Y46*%
G04 Gerber Fmt 4.6, Leading zero omitted, Abs format (unit mm)*
G04 Created by KiCad (PCBNEW 9.0.9) date 2026-08-06 00:30:07*
%MOMM*%
%LPD*%
G01*
G04 APERTURE LIST*
%ADD10C,3.200000*%
%ADD11C,2.300000*%
%ADD12C,1.200000*%
%ADD13C,1.900000*%
%ADD14C,1.400000*%
%ADD15C,0.750000*%
%ADD16O,2.000000X1.200000*%
%ADD17O,1.800000X1.200000*%
%ADD18C,1.800000*%
%ADD19C,2.400000*%
%ADD20C,0.900000*%
%ADD21R,3.800000X1.000000*%
%ADD22R,3.400000X1.500000*%
G04 APERTURE END LIST*
D10*
X175640000Y-83390000D03*
D11*
X158075000Y-115980000D03*
X79725000Y-80375000D03*
X158075000Y-80375000D03*
D10*
X120750000Y-90000000D03*
D11*
X79725000Y-115980000D03*
D10*
X92750000Y-90000000D03*
X67620000Y-82795000D03*
D12*
X129175000Y-179477500D03*
X134175000Y-179477500D03*
D13*
X147730000Y-172000000D03*
D11*
X176520000Y-167450000D03*
X176520000Y-155450000D03*
D14*
X174220000Y-164000000D03*
X171680000Y-162980000D03*
X174220000Y-161960000D03*
X171680000Y-160940000D03*
X174220000Y-159920000D03*
X171680000Y-158900000D03*
D13*
X120990000Y-195660000D03*
D10*
X67565000Y-250595000D03*
D15*
X66932456Y-231130000D03*
X66932456Y-236930000D03*
D16*
X67432456Y-238360000D03*
D17*
X63252456Y-238360000D03*
X63252456Y-229700000D03*
D16*
X67432456Y-229700000D03*
D10*
X121280000Y-203390000D03*
D18*
X111850000Y-214025000D03*
X118350000Y-214025000D03*
X111850000Y-218525000D03*
X118350000Y-218525000D03*
X75352500Y-220325000D03*
X72812500Y-220325000D03*
X70272500Y-220325000D03*
X65172500Y-220325000D03*
D10*
X92750000Y-150000000D03*
D19*
X84125000Y-126875000D03*
D20*
X97253500Y-218075000D03*
X97253500Y-215075000D03*
D18*
X75380000Y-184925000D03*
X72840000Y-184925000D03*
X70300000Y-184925000D03*
X65200000Y-184925000D03*
D10*
X175590000Y-250595000D03*
D18*
X112000000Y-223675000D03*
X118500000Y-223675000D03*
X112000000Y-228175000D03*
X118500000Y-228175000D03*
D10*
X147775000Y-159850000D03*
X120750000Y-150000000D03*
D21*
X71095000Y-157925000D03*
X71095000Y-159925000D03*
D22*
X76955000Y-162275000D03*
X76955000Y-155575000D03*
M02*
